<svg width="200" height="200" viewBox="0 0 200 200" fill="none" xmlns="http://www.w3.org/2000/svg">
<g clip-path="url(#clip0_1177_3844)">
<mask id="mask0_1177_3844" style="mask-type:luminance" maskUnits="userSpaceOnUse" x="23" y="84" width="155" height="33">
<path d="M177.134 84H23V117H177.134V84Z" fill="white"/>
</mask>
<g mask="url(#mask0_1177_3844)">
<path d="M52.5953 89.4691C52.5953 96.1355 52.5953 102.802 52.5953 109.446C52.1466 109.627 48.5146 109.641 48.0739 109.484C47.9472 108.975 47.9894 85.1972 48.1564 84.8048C50.5006 84.8008 52.8831 84.8008 55.2615 84.8008C55.3802 85.2334 55.4889 85.5654 55.5633 85.9055C55.9175 87.5052 56.2555 89.1089 56.6157 90.7086C56.9759 92.3083 57.3663 93.8999 57.7305 95.4976C58.0846 97.0631 58.4206 98.6326 58.7647 100.202C58.9981 101.263 59.2255 102.325 59.465 103.385C59.5113 103.593 59.5555 103.822 59.8292 103.862C60.0344 103.635 60.795 100.504 61.0546 99.1437C61.3585 97.5501 61.7327 95.9685 62.0929 94.3869C62.4551 92.7872 62.8435 91.1935 63.2077 89.5958C63.5658 88.0183 63.9099 86.4387 64.262 84.8471C66.735 84.8471 69.1195 84.8471 71.4858 84.8471C71.6448 85.2495 71.7052 108.708 71.5683 109.452C71.2363 109.605 67.7733 109.655 67.0872 109.502C67.0711 109.346 67.0369 109.17 67.0369 108.993C67.0369 102.705 67.0429 96.4192 67.0409 90.1311C67.0409 89.8776 67.1214 89.5938 66.7934 89.3141C66.6666 89.7126 66.5258 90.0546 66.4473 90.4108C66.0911 92.0125 65.7631 93.6202 65.405 95.2199C65.0428 96.8377 64.6524 98.4475 64.2882 100.063C64.0125 101.287 63.761 102.518 63.4874 103.744C63.0708 105.621 62.6442 107.498 62.2197 109.374C62.2136 109.404 62.1875 109.432 62.111 109.561C60.5596 109.615 58.9438 109.573 57.2918 109.587C57.2053 109.295 57.1107 109.046 57.0564 108.79C56.7002 107.106 56.3602 105.416 55.998 103.732C55.6398 102.063 55.2575 100.399 54.8973 98.7312C54.5411 97.0792 54.2051 95.4232 53.853 93.7712C53.6578 92.8556 53.4224 91.9481 53.2493 91.0265C53.1447 90.4671 53.0722 89.9077 52.706 89.4469C52.6698 89.453 52.6336 89.461 52.5953 89.4691Z" fill="#851B3C"/>
<path d="M98.2138 109.682C98.1897 109.919 98.1414 110.163 98.1414 110.404C98.1353 112.297 98.1414 114.193 98.1374 116.086C98.1374 116.298 98.1031 116.509 98.083 116.756C96.6544 116.756 95.276 116.756 93.8474 116.756C93.8474 113.008 93.8474 109.303 93.8474 105.522C94.2639 105.514 94.6422 105.502 95.0205 105.498C95.8877 105.49 95.93 105.426 96.2962 104.653C97.1131 102.935 97.6906 101.136 98.1353 99.2947C98.3748 98.3067 98.5197 97.2925 98.6847 96.2884C98.7953 95.6124 98.8879 94.9302 98.9543 94.2481C99.1233 92.5317 99.2883 90.8153 99.4231 89.0949C99.5258 87.793 99.5761 86.487 99.6505 85.1852C99.6566 85.0866 99.6787 84.99 99.6908 84.8994C100.057 84.7545 115.086 84.7264 115.674 84.8833C115.688 85.1852 115.716 85.5111 115.716 85.8371C115.72 92.089 115.72 98.3409 115.722 104.593C115.722 104.838 115.75 105.084 115.768 105.394C116.356 105.428 116.895 105.46 117.404 105.49C117.565 105.891 117.609 116.074 117.475 116.668C117.126 116.821 113.945 116.859 113.295 116.706C113.279 116.515 113.247 116.304 113.247 116.094C113.243 114.201 113.247 112.306 113.243 110.412C113.243 110.169 113.203 109.925 113.183 109.718C112.738 109.539 98.8939 109.503 98.2138 109.682ZM101.087 105.273C101.558 105.508 110.098 105.518 110.601 105.299C110.617 105.118 110.653 104.907 110.653 104.695C110.659 103.271 110.657 101.846 110.657 100.419C110.657 96.8659 110.659 93.3104 110.653 89.7569C110.653 89.5053 110.585 89.2538 110.547 88.9942C108.351 88.9942 106.246 88.9942 104.047 88.9942C103.651 94.5419 103.184 100.051 101.087 105.273Z" fill="#851B3C"/>
<path d="M28.0224 101.526C28.119 101.407 28.2317 101.299 28.3061 101.168C31.2661 95.9906 34.222 90.8112 37.1799 85.6318C37.3349 85.3602 37.5119 85.0986 37.6709 84.8471C39.3772 84.8471 41.0272 84.8471 42.6611 84.8471C42.8282 85.2596 42.8603 108.987 42.7135 109.488C42.3291 109.623 38.6207 109.643 38.0733 109.498C38.0593 109.342 38.0271 109.162 38.0271 108.985C38.025 104.005 38.0271 99.027 38.0291 94.0468C38.0291 93.8295 38.0593 93.6102 38.0411 93.3949C38.0291 93.25 37.9546 93.1112 37.8299 92.9562C36.6246 94.735 35.6285 96.6084 34.556 98.4354C33.4714 100.285 32.4251 102.156 31.3566 104.015C30.2982 105.86 29.2358 107.702 28.1371 109.611C26.4529 109.661 24.7566 109.645 23.0121 109.645C23.0121 101.345 23.0121 93.1232 23.0121 84.9095C23.3743 84.7485 27.1974 84.7324 27.7528 84.8994C27.7689 85.0725 27.8031 85.2656 27.8031 85.4608C27.8011 90.5738 27.795 95.6888 27.793 100.802C27.793 101.025 27.8293 101.248 27.8494 101.47C27.9057 101.488 27.9641 101.508 28.0224 101.526Z" fill="#851B3C"/>
<path d="M130.852 84.0784C131.846 84.1951 132.856 84.2353 133.83 84.4466C135.264 84.7565 136.586 85.3722 137.774 86.2495C139.963 87.8693 141.303 90.0747 142.052 92.6483C142.639 94.6645 142.712 96.7371 142.553 98.8217C142.404 100.765 141.907 102.613 140.983 104.331C139.707 106.701 137.854 108.452 135.327 109.44C134.053 109.937 132.723 110.191 131.359 110.225C129.135 110.283 126.99 109.943 125 108.881C123.093 107.86 121.68 106.361 120.712 104.436C119.638 102.299 119.205 100.015 119.167 97.6426C119.143 96.1656 119.221 94.6947 119.549 93.2479C120.189 90.4208 121.435 87.9579 123.833 86.2053C124.855 85.4567 125.986 84.9295 127.218 84.6056C128.407 84.2917 129.608 84.1106 130.842 84.179C130.846 84.1428 130.85 84.1106 130.852 84.0784ZM124.125 97.224C124.199 97.9223 124.258 98.6205 124.354 99.3167C124.527 100.556 124.914 101.725 125.578 102.794C126.618 104.466 128.089 105.553 130.053 105.782C132.733 106.096 134.864 105.049 136.309 102.657C137.345 100.939 137.659 99.0149 137.657 97.061C137.657 95.7994 137.484 94.5277 137.045 93.3123C136.24 91.0828 134.916 89.3725 132.514 88.7446C131.238 88.4126 129.948 88.4408 128.713 88.9056C127.193 89.4771 126.105 90.5536 125.342 91.9823C124.467 93.6242 124.189 95.3909 124.125 97.224Z" fill="#851B3C"/>
<path d="M160.715 109.412C160.715 109.211 160.715 109.028 160.715 108.847C160.715 105.661 160.717 102.476 160.713 99.2888C160.713 99.0292 160.672 98.7697 160.654 98.5423C160.039 98.3531 151.479 98.3833 151.002 98.5785C150.891 99.4417 150.972 100.343 150.957 101.241C150.943 102.162 150.955 103.086 150.953 104.007C150.953 104.913 150.951 105.818 150.951 106.724C150.951 107.627 150.951 108.531 150.951 109.515C149.279 109.589 147.651 109.545 146.046 109.543C145.881 109.108 145.861 85.3322 146.02 84.7889C147.619 84.7889 149.233 84.7889 150.905 84.7889C150.921 85.0002 150.953 85.2095 150.953 85.4187C150.955 88.0849 150.953 90.7511 150.955 93.4172C150.955 93.6466 150.982 93.876 151 94.1557C151.227 94.1919 151.418 94.2462 151.609 94.2462C154.443 94.2503 157.276 94.2462 160.111 94.2422C160.258 94.2422 160.405 94.2161 160.628 94.1939C160.658 93.9183 160.713 93.6627 160.713 93.4072C160.719 90.7571 160.715 88.1091 160.715 85.459C160.715 85.2477 160.741 85.0344 160.757 84.7769C162.415 84.7769 164.027 84.7769 165.62 84.7769C165.783 85.1712 165.832 108.825 165.691 109.424C165.296 109.593 161.185 109.603 160.715 109.412Z" fill="#851B3C"/>
<path d="M74.4639 84.8451C76.3332 84.8451 78.118 84.8451 79.9894 84.8451C80.1484 85.1852 80.3335 85.5534 80.4924 85.9337C81.7702 88.9903 83.0439 92.0488 84.3136 95.1093C84.6919 96.0189 85.0521 96.9364 85.4203 97.8439C85.7664 97.8822 85.865 97.6628 85.9455 97.4435C86.6719 95.4454 87.3963 93.4473 88.1187 91.4472C88.8591 89.4007 89.5956 87.3543 90.3401 85.312C90.4005 85.145 90.5132 84.9941 90.5997 84.8391C92.3503 84.8391 94.0667 84.8391 95.8596 84.8391C95.8113 85.0343 95.7932 85.1772 95.7388 85.3039C94.5255 88.1532 93.3061 91.0004 92.0948 93.8517C90.7808 96.9485 89.489 100.053 88.1609 103.144C87.4667 104.758 86.7504 106.364 85.6557 107.768C84.0802 109.788 81.9955 110.497 79.5205 110.177C78.8646 110.092 78.2267 109.869 77.5084 109.692C77.4943 108.044 77.5023 106.454 77.5043 104.774C78.0899 104.957 78.5426 105.12 79.0054 105.237C79.7862 105.434 80.5608 105.434 81.3154 105.098C82.2189 104.695 82.728 103.748 82.4805 102.732C82.2954 101.973 82.0539 101.214 81.7299 100.506C80.2087 97.19 78.6493 93.89 77.1019 90.5859C76.2849 88.8414 75.466 87.0988 74.651 85.3542C74.5826 85.2114 74.5404 85.0605 74.4639 84.8451Z" fill="#851B3C"/>
<path d="M168.621 88.3302C168.542 86.0906 170.574 83.9456 173.078 84.1187C175.257 84.2696 177.044 86.0605 177.013 88.4067C176.981 90.8334 175.158 92.6886 172.719 92.6484C170.365 92.6122 168.568 90.7066 168.621 88.3302ZM172.75 91.7268C173.063 91.6825 173.393 91.6866 173.687 91.5839C175.573 90.93 176.611 88.6562 175.528 86.7185C174.772 85.3663 173.116 84.499 171.403 85.4085C170.566 85.8532 170.061 86.5796 169.778 87.4871C169.174 89.4208 170.707 91.7087 172.75 91.7268Z" fill="#851B3C"/>
<path d="M171.337 86.1591C172.065 86.1591 172.733 86.1088 173.389 86.1752C173.874 86.2235 174.198 86.5756 174.281 87.0767C174.359 87.5556 174.317 88.0184 173.903 88.3585C173.786 88.453 173.653 88.5255 173.512 88.618C173.905 89.2418 174.237 89.769 174.635 90.4028C174.178 90.4028 173.858 90.4028 173.478 90.4028C172.997 90.1071 172.987 89.3525 172.432 88.9883C172.12 89.4551 172.416 89.9622 172.188 90.4189C171.925 90.4189 171.653 90.4189 171.339 90.4189C171.337 88.9923 171.337 87.6119 171.337 86.1591ZM172.325 87.8715C172.705 88.0506 172.951 87.9299 173.142 87.6964C173.303 87.4992 173.255 87.2719 173.086 87.1069C172.876 86.9016 172.627 86.8513 172.325 87.0586C172.325 87.3141 172.325 87.5858 172.325 87.8715Z" fill="#851B3C"/>
</g>
</g>
<defs>
<clipPath id="clip0_1177_3844">
<rect width="154.134" height="33" fill="white" transform="translate(23 84)"/>
</clipPath>
</defs>
</svg>
