<svg width="200" height="200" viewBox="0 0 200 200" fill="none" xmlns="http://www.w3.org/2000/svg">
<g clip-path="url(#clip0_1177_4530)">
<path d="M99.516 135.892L50 118.568V82.3561L99.516 65L149 82.3561V118.568L99.516 135.892Z" fill="black"/>
<path d="M52.7757 116.59L99.516 132.989L146.224 116.59V84.3343L99.516 67.9353L52.7757 84.3343V116.59Z" fill="white"/>
<path d="M85.1589 82.6113L84.2655 82.8666L83.3084 79.5166L84.5846 79.1656C85.4779 78.9104 86.1479 79.3251 86.3713 80.0909C86.5946 80.8247 86.2436 81.5266 85.3503 81.7818L84.9674 81.8775L85.1589 82.6113ZM85.0632 81.048C85.4779 80.9204 85.5417 80.6651 85.446 80.3461C85.3503 80.0271 85.127 79.8356 84.7441 79.9632L84.4251 80.059L84.7441 81.1756L85.0632 81.048Z" fill="black"/>
<path d="M91.476 81.1756L90.487 81.367L89.8489 80.6651L89.4979 80.7289L89.6574 81.5265L88.7322 81.6861L88.0941 78.2723L89.4022 78.017C90.3274 77.8575 90.9336 78.3361 91.0932 79.0699C91.1889 79.5485 91.0293 79.9951 90.6784 80.2823L91.476 81.1756ZM89.7213 79.9313C90.136 79.8675 90.2317 79.5804 90.1679 79.2613C90.1041 78.9423 89.9127 78.7189 89.4979 78.8146L89.147 78.8785L89.3703 79.9951L89.7213 79.9313Z" fill="black"/>
<path d="M93.0393 77.443L95.4641 77.1877L95.5279 77.9535L94.0284 78.113L94.1241 78.9106L95.3683 78.783L95.4322 79.5168L94.1879 79.6444L94.2198 79.9953L95.7831 79.8358L95.8469 80.6015L93.3584 80.8568L93.0393 77.443Z" fill="black"/>
<path d="M97.8888 77.028C97.8888 76.9961 97.9207 76.9961 97.9207 77.028L99.6117 78.8785L101.207 76.9961C101.239 76.9642 101.239 76.9642 101.239 76.9961L101.494 80.5056H100.569L100.473 79.038L99.6117 80.0589C99.6117 80.0589 99.5798 80.0908 99.5798 80.0589L98.6545 79.0699L98.5907 80.5694H97.6974L97.8888 77.028Z" fill="black"/>
<path d="M103.823 77.1877L104.748 77.2516L104.493 80.6973L103.568 80.6334L103.823 77.1877Z" fill="black"/>
<path d="M106.758 79.5803L107.077 77.4746L108.003 77.6341L107.684 79.7398C107.62 80.1227 107.779 80.3779 108.162 80.4417C108.545 80.5055 108.768 80.3141 108.832 79.9313L109.151 77.8256L110.076 77.9851L109.757 80.0908C109.598 81.016 108.896 81.367 108.066 81.2394C107.173 81.0798 106.599 80.5055 106.758 79.5803Z" fill="black"/>
<path d="M112.405 78.3999C112.405 78.368 112.437 78.368 112.437 78.3999L113.586 80.6332L115.66 79.2294C115.692 79.1975 115.692 79.1975 115.692 79.2613L114.99 82.707L114.096 82.4837L114.383 81.0161L113.299 81.7818C113.267 81.7818 113.267 81.7818 113.267 81.7818L112.661 80.5694L112.214 81.9732L111.321 81.7499L112.405 78.3999Z" fill="black"/>
<path d="M87.6793 123.258C86.7222 123.035 86.0841 122.141 86.3074 121.12C86.5308 120.099 87.5198 119.557 88.4131 119.78C89.147 119.94 89.5298 120.355 89.7212 120.833L88.9236 121.152C88.8279 120.929 88.6684 120.674 88.2536 120.578C87.7431 120.45 87.3603 120.801 87.2327 121.344C87.1051 121.886 87.3284 122.365 87.8389 122.492C88.2855 122.588 88.5408 122.428 88.7322 122.205L89.3384 122.811C88.8917 123.29 88.3812 123.417 87.6793 123.258Z" fill="black"/>
<path d="M91.0931 122.141C91.2207 121.088 92.1779 120.482 93.1669 120.61C94.156 120.737 94.9217 121.567 94.7941 122.62C94.6664 123.673 93.7093 124.279 92.7203 124.151C91.6993 124.024 90.9336 123.194 91.0931 122.141ZM93.8369 122.492C93.9007 121.95 93.6455 121.503 93.0393 121.407C92.465 121.344 92.0822 121.727 92.0184 122.269C91.9546 122.811 92.2098 123.29 92.816 123.354C93.3903 123.417 93.7731 123.035 93.8369 122.492Z" fill="black"/>
<path d="M96.8041 121.025L99.165 121.12L99.1331 121.886L97.6974 121.822L97.6655 122.62L98.9098 122.652L98.8779 123.418L97.6017 123.386L97.5698 124.502L96.6446 124.47L96.8041 121.025Z" fill="black"/>
<path d="M100.92 121.088L103.281 120.993L103.313 121.758L101.877 121.822L101.909 122.62L103.153 122.556L103.185 123.322L101.909 123.386L101.941 124.502L101.015 124.534L100.92 121.088Z" fill="black"/>
<path d="M105.067 120.833L107.492 120.546L107.588 121.312L106.088 121.503L106.184 122.301L107.428 122.141L107.524 122.875L106.28 123.035L106.312 123.386L107.875 123.194L107.971 123.96L105.482 124.247L105.067 120.833Z" fill="black"/>
<path d="M109.374 120.227L111.767 119.749L111.927 120.514L110.459 120.833L110.619 121.631L111.863 121.376L112.023 122.109L110.778 122.365L110.842 122.716L112.374 122.397L112.533 123.162L110.076 123.673L109.374 120.227Z" fill="black"/>
<path d="M95.8789 114.835H95.496V114.261H96.5489V116.877H95.8469V114.835H95.8789Z" fill="black"/>
<path d="M97.4422 114.867C97.4422 114.516 97.7612 114.229 98.2717 114.229C98.7822 114.229 99.1012 114.516 99.1012 114.867C99.1012 115.058 99.0055 115.218 98.8779 115.345C99.165 115.473 99.3565 115.728 99.3565 116.047C99.3565 116.526 98.9736 116.909 98.3036 116.909C97.6017 116.909 97.2508 116.526 97.2508 116.047C97.2508 115.696 97.4422 115.473 97.7293 115.345C97.5379 115.25 97.4422 115.09 97.4422 114.867ZM98.6865 115.984C98.6865 115.792 98.5269 115.633 98.2717 115.633C98.0165 115.633 97.8569 115.792 97.8569 115.984C97.8569 116.207 98.0165 116.366 98.2717 116.366C98.5269 116.366 98.6865 116.207 98.6865 115.984ZM98.495 114.963C98.495 114.835 98.3993 114.739 98.2398 114.739C98.0803 114.739 97.9846 114.835 97.9846 114.963C97.9846 115.09 98.0803 115.186 98.2398 115.186C98.4312 115.186 98.495 115.058 98.495 114.963Z" fill="black"/>
<path d="M100.856 114.835H99.7074V114.261H101.813C101.845 114.261 101.845 114.261 101.813 114.293L100.633 116.845H99.8988L100.856 114.835Z" fill="black"/>
<path d="M104.11 115.952C104.11 116.494 103.664 116.909 103.025 116.909C102.419 116.909 101.973 116.494 101.973 115.952C101.973 115.665 102.068 115.441 102.228 115.218L102.898 114.261H103.632L103.089 115.058C103.695 114.995 104.11 115.441 104.11 115.952ZM103.408 115.952C103.408 115.728 103.281 115.537 103.025 115.537C102.77 115.537 102.643 115.728 102.643 115.952C102.643 116.143 102.802 116.335 103.025 116.335C103.281 116.335 103.408 116.143 103.408 115.952Z" fill="black"/>
<path d="M96.2298 85.7063H98.0483V86.2806H96.9317V86.8868H97.8888V87.4291H96.9317V87.7163H98.1121V88.2906H96.2298V85.7063Z" fill="black"/>
<path d="M98.3674 87.8436L98.8778 87.4607C99.0055 87.6203 99.165 87.7479 99.4202 87.7479C99.6116 87.7479 99.7393 87.6841 99.7393 87.5564C99.7393 87.4607 99.6436 87.3969 99.484 87.3331L99.165 87.2374C98.7821 87.1098 98.5269 86.8864 98.5269 86.4398C98.5269 85.9293 98.9416 85.6741 99.4202 85.6741C99.8669 85.6741 100.122 85.8336 100.282 86.025L99.8988 86.4398C99.8031 86.3441 99.6755 86.2484 99.484 86.2484C99.3245 86.2484 99.2288 86.3122 99.2288 86.4398C99.2288 86.5355 99.2926 86.5993 99.4202 86.6312L99.7712 86.7588C100.282 86.9184 100.473 87.1736 100.473 87.5564C100.473 88.035 100.186 88.386 99.484 88.386C98.8459 88.3541 98.5269 88.0669 98.3674 87.8436Z" fill="black"/>
<path d="M101.334 86.2803H100.633V85.7061H102.706V86.2803H102.004V88.2903H101.303V86.2803H101.334Z" fill="black"/>
<path d="M102.802 87.9712C102.802 87.7479 102.994 87.5884 103.185 87.5884C103.376 87.5884 103.568 87.7479 103.568 87.9712C103.568 88.1946 103.376 88.3541 103.185 88.3541C102.994 88.3541 102.802 88.1946 102.802 87.9712Z" fill="black"/>
<path d="M120.031 97.0002C120.796 97.0002 121.594 96.7131 122.041 96.2664C122.264 96.0431 122.392 95.8198 122.455 95.5964C122.519 95.3412 122.487 95.1179 122.392 94.9264C122.136 94.4798 121.498 94.1926 120.733 94.1926C119.552 94.1926 118.499 94.7988 118.276 95.6283C118.212 95.8517 118.244 96.1069 118.372 96.2983C118.627 96.7131 119.265 97.0002 120.031 97.0002Z" fill="black"/>
<path d="M132.984 108.135C134.292 105.359 135.919 101.914 137.259 98.8509H133.526C133.399 99.1061 133.367 99.1699 133.271 99.4251C131.484 98.5318 129.123 98.6275 127.05 99.3294C125.773 99.7761 124.657 100.446 123.795 101.276C123.093 101.978 122.838 102.328 122.455 103.03C122.455 103.03 122.232 103.477 122.136 104.115C120.828 105.04 119.424 105.391 119.042 104.881C118.786 104.562 118.786 104.211 119.105 103.445C119.712 101.978 120.382 100.542 121.115 98.8509H117.351C116.553 100.606 116.074 101.722 115.341 103.286C114.001 104.275 112.501 104.945 111.512 105.04C110.364 105.168 109.885 104.689 109.885 104.689C109.247 104.275 109.311 103.413 109.311 103.413C112.437 101.148 115.149 97.8299 116.808 93.9695C117.414 92.5657 117.797 91.1619 117.893 90.1409C117.957 89.5347 117.925 89.0242 117.797 88.6414C117.542 87.9076 116.808 87.429 115.819 87.6204C115.373 87.7162 112.916 87.8757 109.279 94.2566C108.066 96.3942 107.46 97.7023 106.822 99.7442C106.439 100.925 106.216 101.978 106.152 102.871C106.12 103.286 106.12 103.637 106.152 103.988C105.929 104.179 103.791 105.296 102.962 105.296C102.483 105.296 102.196 104.881 102.26 104.466C102.324 103.956 102.515 103.605 102.706 103.094C103.281 101.69 103.951 100.318 104.589 98.819H100.856C100.026 100.638 99.6117 101.754 98.9098 102.903C97.155 105.774 94.1241 105.966 95.1769 103.286C95.815 101.69 96.4212 100.446 97.155 98.7871H93.4222C92.7522 100.414 91.8907 102.169 91.2208 103.764C90.2636 104.881 88.8917 105.327 88.2855 105.264C88.1579 105.264 87.9984 105.232 87.807 105.072C87.6793 104.945 87.5836 104.753 87.5836 104.562C87.5836 104.179 87.8389 103.509 88.0941 102.903C88.9236 101.084 89.2108 100.382 89.9127 98.7871H86.1798L85.9246 99.3613C83.1489 97.9256 78.9375 99.0742 76.6723 101.148C74.1199 103.445 74.1199 107.018 77.8846 107.018C79.9265 107.018 81.9046 106.285 83.6275 104.977C83.4679 106.317 84.457 106.955 86.0522 107.018C86.8498 107.018 87.137 107.082 88.2217 106.795C89.0512 106.572 90.0722 106.157 90.9336 105.391C90.9336 106.093 91.3484 106.636 92.2736 106.891C92.5607 106.987 92.9117 107.018 93.3265 107.018C95.2088 107.114 96.9317 106.572 98.3036 105.2C98.2717 106.412 99.2926 107.018 100.888 107.018C101.111 107.018 101.366 107.018 101.685 106.987C102.355 106.923 103.121 106.763 104.174 106.348C105.61 105.774 106.375 105.328 106.375 105.328C106.726 106.253 107.588 107.018 108.8 107.018C109.853 107.05 111.576 106.923 113.586 105.806C113.905 105.615 114.543 105.232 114.862 104.945C114.798 105.391 114.862 106.125 115.628 106.572C115.947 106.763 116.362 106.923 116.904 106.955C119.329 107.146 120.796 106.221 121.753 105.615C121.913 105.519 122.073 105.391 122.232 105.264C122.551 106.285 123.508 106.987 125.167 106.987C127.528 106.955 129.187 106.221 130.974 104.945L129.442 108.263C127.401 108.199 126.858 108.263 125.263 108.518C119.807 109.379 117.797 112.538 119.393 114.293C120.956 116.016 125.742 116.494 130.368 111.74C131.102 111.007 131.548 110.368 132.186 109.411C134.132 109.22 136.111 108.837 138.312 107.88C138.44 107.625 139.014 106.285 139.014 106.285C137.833 107.018 134.707 108.039 132.984 108.135ZM113.618 91.6723C114.192 90.8109 114.862 90.0133 115.404 89.79C115.532 89.7261 115.723 89.6623 115.883 89.7581C116.457 90.0771 116.074 92.1828 114.543 95.1499C113.394 97.4152 111.672 99.808 109.566 101.658C110.555 96.6494 111.959 94.2247 113.618 91.6723ZM84.2975 103.254C83.0532 104.275 81.7132 104.785 80.4689 104.785C78.7141 104.785 78.6503 103.381 79.4799 102.137C80.7241 100.287 83.2446 99.6166 85.5098 100.542L84.2975 103.254ZM127.464 111.836C125.997 113.463 124.051 113.91 123.03 113.814C122.551 113.75 122.232 113.527 122.009 113.208C121.466 112.378 121.913 111.007 124.146 110.273C125.518 109.826 126.475 109.571 128.932 109.571C128.485 110.432 128.166 111.07 127.464 111.836ZM131.676 103.222C130.4 104.338 128.996 104.785 127.688 104.785C125.933 104.785 125.805 103.318 126.635 102.105C127.879 100.255 130.687 99.6485 132.824 100.542C132.505 101.276 132.091 102.392 131.676 103.222Z" fill="black"/>
<path d="M69.1109 89.4069C66.3033 94.3521 60.9433 106.157 60.0181 107.848C60.6562 108.263 61.709 109.22 63.0171 110.081C64.07 107.656 64.7719 106.029 65.6652 104.115C67.4837 100.127 72.5566 89.726 72.748 89.1836L69.1109 89.4069Z" fill="black"/>
<path d="M79.7989 94.8628C80.2137 93.9057 80.5327 92.8529 80.6284 91.7362C80.9475 88.2267 78.8099 86.0572 73.6732 85.7381C69.7171 85.4829 65.8885 86.4719 62.1557 89.2795V92.821C62.4747 92.5019 62.8895 92.0872 63.3042 91.7362C65.6652 89.6305 67.7071 88.6734 70.0999 88.3224C70.5466 88.2267 72.0142 88.1629 72.0142 88.1629C74.6623 88.0672 77.2466 88.8967 77.3104 92.1191C77.3742 94.2567 76.0023 96.809 73.9604 98.1809C71.759 99.6804 69.9404 99.6166 68.5366 99.6166L67.5475 101.69C72.5247 102.041 77.9804 99.1062 79.7989 94.8628Z" fill="black"/>
</g>
<defs>
<clipPath id="clip0_1177_4530">
<rect width="99" height="70.892" fill="white" transform="translate(50 65)"/>
</clipPath>
</defs>
</svg>
