<svg width="200" height="200" viewBox="0 0 200 200" fill="none" xmlns="http://www.w3.org/2000/svg">
<g clip-path="url(#clip0_1177_5314)">
<mask id="mask0_1177_5314" style="mask-type:luminance" maskUnits="userSpaceOnUse" x="9" y="83" width="182" height="35">
<path d="M191 83H9V117.352H191V83Z" fill="white"/>
</mask>
<g mask="url(#mask0_1177_5314)">
<path d="M67.3391 102.762C67.3391 103.763 67.3391 104.764 67.3391 105.765C67.3391 108.599 67.349 111.436 67.3358 114.27C67.3292 115.978 67.0154 116.282 65.2978 116.302C64.7198 116.308 64.1417 116.318 63.5637 116.288C62.7643 116.252 62.2788 115.833 62.1929 115.023C62.1235 114.396 62.0542 113.762 62.0542 113.131C62.0377 107.076 62.031 101.022 62.0277 94.9637C62.0277 94.5805 62.0377 94.1908 62.0773 93.8109C62.1533 93.0776 62.5694 92.6218 63.3093 92.6152C65.3176 92.602 67.3292 92.5458 69.3309 92.6681C71.643 92.8101 72.9015 94.4154 73.8297 96.3311C75.065 98.8811 76.2706 101.448 77.5126 103.994C77.6712 104.318 77.9783 104.566 78.2129 104.85C78.4771 104.566 78.8338 104.328 78.9924 103.991C80.5581 100.714 82.1138 97.4344 83.6167 94.128C84.0857 93.0975 84.7662 92.5855 85.9024 92.602C88.023 92.635 90.1436 92.5855 92.2609 92.6515C94.0446 92.7044 94.365 93.0611 94.3848 94.8448C94.4508 100.404 94.4971 105.963 94.5466 111.522C94.5565 112.569 94.573 113.613 94.5433 114.66C94.5037 116.153 94.1238 116.543 92.6573 116.52C91.4748 116.5 90.2922 116.43 89.1163 116.311C86.7183 116.07 85.5754 114.918 85.3872 112.49C85.2881 111.231 85.3145 109.96 85.3046 108.695C85.2914 107.347 85.3079 105.996 85.2947 104.648C85.2914 104.341 85.2055 104.034 84.9479 103.667C84.7794 103.892 84.5713 104.093 84.4524 104.341C83.1576 106.954 81.8793 109.573 80.5944 112.193C80.1353 113.131 79.6563 114.062 79.2104 115.007C78.7711 115.942 78.051 116.371 77.0337 116.315C76.5382 116.288 75.9998 116.354 75.5638 116.176C75.0386 115.958 74.4077 115.631 74.1666 115.169C72.5679 112.13 71.0716 109.038 69.5224 105.976C68.9609 104.863 68.3465 103.773 67.7553 102.673C67.6166 102.703 67.4778 102.733 67.3391 102.762Z" fill="#E91C19"/>
<path d="M190.693 103.813C190.693 107.116 190.693 110.419 190.693 113.722C190.693 115.446 190.32 115.872 188.628 115.839C187.152 115.81 185.662 115.75 184.206 115.526C182.841 115.317 182.022 114.36 181.837 112.999C181.659 111.668 181.606 110.317 181.507 108.976C181.49 108.757 181.527 108.536 181.523 108.315C181.494 106.713 181.378 106.607 179.75 106.624C178.98 106.634 178.207 106.624 177.438 106.647C176.202 106.683 175.997 106.891 175.991 108.113C175.981 109.93 175.984 111.747 175.974 113.563C175.971 114.003 175.948 114.442 175.912 114.881C175.845 115.648 175.426 116.14 174.653 116.153C172.423 116.193 170.197 116.196 167.968 116.179C167.337 116.176 166.947 115.773 166.864 115.152C166.792 114.611 166.762 114.056 166.762 113.507C166.745 108.331 166.742 103.159 166.732 97.9828C166.729 96.6352 166.686 95.2875 166.722 93.9432C166.755 92.7243 167.175 92.2619 168.394 92.2949C169.893 92.3313 171.419 92.3973 172.883 92.7045C174.67 93.0778 175.713 94.5146 175.809 96.3445C175.882 97.7186 175.915 99.0927 175.945 100.467C175.961 101.23 176.331 101.544 177.084 101.537C178.154 101.527 179.228 101.573 180.298 101.587C181.13 101.596 181.464 101.167 181.454 100.345C181.428 98.224 181.424 96.1067 181.438 93.9861C181.447 92.3907 181.837 92.0009 183.449 91.9679C185.239 91.9316 187.026 91.9184 188.817 91.925C190.148 91.9316 190.541 92.328 190.544 93.669C190.557 97.0547 190.547 100.437 190.547 103.823C190.594 103.813 190.643 103.813 190.693 103.813Z" fill="#E91C19"/>
<path d="M108.958 91.9546C113.45 91.9546 114.283 92.3609 116.753 93.3914C119.122 94.3758 120.793 96.0636 121.615 98.5674C122.834 102.287 122.933 106.006 121.843 109.765C120.819 113.299 118.349 115.426 114.956 116.368C110.573 117.583 106.167 117.438 101.969 115.509C100.036 114.62 98.5797 113.068 97.7605 111.129C96.1288 107.271 95.9934 103.264 97.1759 99.2544C98.1437 95.9811 99.9406 93.8637 103.138 92.9091C104.856 92.3972 106.012 91.9546 108.958 91.9546ZM113.196 105.626V104.965C113.196 104.965 113.202 104.526 113.196 104.305C113.123 102.544 113.103 100.774 112.34 99.1355C111.369 97.0546 108.169 96.6747 106.92 98.5773C106.388 99.3898 106.091 100.46 106.012 101.441C105.866 103.215 105.87 105.012 105.989 106.789C106.094 108.351 106.401 109.913 107.657 111.06C108.578 111.902 109.695 112.014 110.824 111.747C111.851 111.506 112.704 110.805 112.882 109.765C113.146 108.202 113.196 107.443 113.196 105.626Z" fill="#E91C19"/>
<path d="M58.3944 104.384C58.3944 107.658 58.3811 110.911 58.5298 114.198C58.5232 115.8 58.1268 116.193 56.5182 116.193C55.6132 116.193 54.7048 116.166 53.7998 116.11C52.4191 116.021 51.3357 115.35 50.5462 114.244C50.1433 113.679 49.8427 113.666 49.2878 114.069C45.8096 116.596 41.9582 117.091 37.9152 115.843C36.1877 115.311 35.0845 113.917 34.6221 112.186C34.3149 111.03 34.1761 109.801 34.1629 108.602C34.1002 103.872 34.1134 99.1389 34.1068 94.4089C34.1035 92.8862 34.4503 92.4931 35.9895 92.4766C37.3603 92.4601 38.7509 92.4403 40.0986 92.6484C41.9219 92.9291 42.8633 93.8804 43.0482 95.7103C43.2596 97.8111 43.2629 99.9317 43.3158 102.046C43.3587 103.889 43.2894 105.735 43.3653 107.575C43.471 110.105 44.2307 110.673 46.708 110.224C48.3332 109.93 49.1358 109.068 49.1523 107.41C49.1986 103.149 49.2085 98.8879 49.2019 94.6269C49.1986 93.1637 49.6742 92.5757 51.1078 92.5592C52.9509 92.5394 54.794 92.546 56.6371 92.5691C57.9352 92.5856 58.3778 93.0183 58.3878 94.323C58.4076 97.6757 58.3944 101.032 58.3944 104.384Z" fill="#E91C19"/>
<path d="M23.8837 83.0298C27.8441 83.0298 31.8045 83.0265 35.7649 83.0331C38.1332 83.0364 38.5197 83.4889 38.1927 85.8473C38.1101 86.4485 38.0275 87.0464 37.9317 87.6442C37.7633 88.6847 37.4528 88.9886 36.4024 88.9721C34.589 88.9456 32.7756 88.8631 30.9589 88.8036C30.6022 88.7904 30.2454 88.7607 29.8854 88.7607C28.726 88.7574 28.5444 89.015 28.551 90.1942C28.5741 93.8243 28.5378 97.4544 28.551 101.084C28.5642 105.319 28.6071 109.557 28.6335 113.791C28.6368 114.095 28.6335 114.396 28.6269 114.7C28.6071 115.489 28.1843 115.981 27.418 115.995C24.9968 116.034 22.5757 116.028 20.1578 116.011C19.517 116.008 19.1372 115.611 19.0777 114.974C19.0017 114.155 18.9291 113.329 18.9258 112.507C18.8993 105.517 18.8927 98.5279 18.8729 91.5419C18.8729 90.9638 18.8234 90.3891 18.8135 89.811C18.797 88.9985 18.3808 88.7111 17.5946 88.7474C15.3948 88.8531 13.1949 88.9027 10.9984 89.0117C9.40628 89.091 9.07267 88.8036 9.15525 87.2049C9.19819 86.356 9.28076 85.5038 9.40298 84.6615C9.58134 83.4163 9.99754 83.0331 11.2527 83.0199C13.4526 82.9935 15.6557 83.01 17.8556 83.01C19.8639 83.01 21.8721 83.01 23.8804 83.01C23.8837 83.0166 23.8837 83.0232 23.8837 83.0298Z" fill="#E91C19"/>
<path d="M154.683 106.118C153.837 106.118 153.124 106.112 152.407 106.118C151.337 106.128 151.152 106.376 151.396 107.436C151.911 109.656 153.024 110.571 155.413 110.746C157.355 110.888 159.247 110.71 161.097 110.039C162.712 109.455 163.287 109.834 163.588 111.555C164.063 114.294 163.935 114.607 161.305 115.608C157.563 117.032 153.692 117.309 149.787 116.46C147.29 115.919 145.143 114.561 143.64 112.546C142.686 111.265 142.038 109.63 141.672 108.057C140.866 104.589 141.196 101.121 142.821 97.9268C144.76 94.115 148.189 92.4668 152.285 92.1067C154.729 91.892 157.167 92.0043 159.558 92.7343C163.958 94.0787 165.93 97.8144 164.41 101.894C163.799 103.535 162.465 104.447 160.929 105.091C158.891 105.943 156.764 106.31 154.683 106.118ZM153.348 101.521C153.51 101.497 153.427 101.514 153.51 101.497C154.336 101.332 155.102 101.326 155.849 100.939C156.803 100.444 156.744 99.4462 156.638 98.5279C156.562 97.8574 156.119 97.4577 155.492 97.2694C153.672 96.7244 151.878 97.7253 151.366 99.5585C150.953 101.042 151.267 101.484 152.773 101.521C152.965 101.524 153.157 101.521 153.348 101.521Z" fill="#E91C19"/>
<path d="M124.274 104.606C124.274 101.332 124.268 98.0555 124.278 94.7822C124.281 93.1537 124.648 92.7772 126.273 92.7706C131.089 92.7475 135.905 92.7375 140.72 92.7375C142.412 92.7375 142.722 93.0976 142.547 94.759C142.478 95.4164 142.422 96.077 142.306 96.7244C142.114 97.7781 141.612 98.2009 140.545 98.181C138.646 98.1447 136.75 98.0522 134.854 98.0159C133.682 97.9928 133.536 98.1645 133.536 99.3602C133.546 104.48 133.559 109.596 133.569 114.716C133.573 116.351 133.315 116.652 131.67 116.685C129.853 116.721 128.037 116.705 126.22 116.678C124.925 116.658 124.466 116.249 124.453 114.928C124.413 111.489 124.44 108.051 124.44 104.612C124.383 104.606 124.331 104.606 124.274 104.606Z" fill="#E91C19"/>
</g>
</g>
<defs>
<clipPath id="clip0_1177_5314">
<rect width="182" height="34.3521" fill="white" transform="translate(9 83)"/>
</clipPath>
</defs>
</svg>
