<svg width="200" height="200" viewBox="0 0 200 200" fill="none" xmlns="http://www.w3.org/2000/svg">
<g clip-path="url(#clip0_1177_5118)">
<path d="M25.31 75C22.0452 75 18.9141 76.2969 16.6055 78.6055C14.2969 80.9141 13 84.0452 13 87.31L13 111.93C13 115.195 14.2969 118.326 16.6055 120.634C18.9141 122.943 22.0452 124.24 25.31 124.24H49.93C53.1948 124.24 56.3259 122.943 58.6345 120.634C60.9431 118.326 62.24 115.195 62.24 111.93V75H25.31Z" fill="#B1EC52"/>
<path d="M53.69 93.46H47.78L42.15 99.62V87.31H37.59V90.31C37.4433 90.1166 37.2833 89.9266 37.11 89.74C36.1769 88.8233 35.0622 88.1122 33.8376 87.6523C32.6131 87.1925 31.3058 86.9941 30 87.07C28.7465 87.0123 27.4967 87.2469 26.3495 87.7555C25.2022 88.264 24.1891 89.0324 23.39 90C22.7434 90.7915 22.2747 91.7129 22.0159 92.7016C21.7571 93.6903 21.7141 94.7232 21.89 95.73C22.95 100.47 27.35 101.23 30.58 101.65C33.13 101.98 35.58 102.45 35.51 104.72C35.44 106.99 32.78 107.64 31 107.64C26.45 107.64 26.3 104.28 26.3 104.28H21.44C21.524 106.124 22.2288 107.886 23.44 109.28C25.14 111.19 27.69 112.15 31.02 112.15C33.415 112.204 35.7474 111.383 37.58 109.84V111.84H42.14V106.09L43.76 104.33L48.37 111.9H53.68L47 100.81L53.69 93.46ZM26.46 94.66C26.06 92.9 27.81 91.34 30.09 91.34C32.09 91.34 34.18 91.8 34.96 94.66H37.59V99C34.32 96.32 27.22 98 26.46 94.66Z" fill="#4D5759"/>
<path d="M82.82 98.33C82.6735 98.0885 82.5098 97.8579 82.33 97.64C82.1134 97.4083 81.8641 97.2095 81.59 97.05C81.2773 96.8628 80.941 96.7182 80.59 96.62C80.1227 96.5027 79.6417 96.4489 79.16 96.46C78.8883 96.4651 78.6175 96.4919 78.35 96.54C78.0074 96.6197 77.6727 96.7301 77.35 96.87C76.9926 97.063 76.6573 97.2944 76.35 97.56C76.0034 97.8784 75.7186 98.2581 75.51 98.68C75.2111 99.2178 74.9954 99.7977 74.87 100.4C74.7062 101.179 74.6291 101.974 74.64 102.77C74.6275 103.666 74.7317 104.561 74.95 105.43C75.1215 106.146 75.4232 106.824 75.84 107.43C76.207 107.95 76.6987 108.369 77.27 108.65C77.8439 108.949 78.4831 109.1 79.13 109.09C79.8148 109.116 80.4971 108.993 81.13 108.73C81.5982 108.51 82.0167 108.197 82.36 107.81C82.6397 107.475 82.8565 107.092 83 106.68C83.15 106.3 83.28 105.94 83.36 105.68H87.16C87.0091 106.732 86.6703 107.748 86.16 108.68C85.7117 109.485 85.1145 110.198 84.4 110.78C83.6846 111.335 82.8701 111.749 82 112C79.8994 112.63 77.6474 112.532 75.61 111.72C74.6034 111.286 73.7103 110.625 73 109.79C72.2587 108.888 71.7045 107.848 71.37 106.73C70.9743 105.434 70.7853 104.084 70.81 102.73C70.795 101.7 70.9059 100.673 71.14 99.67C71.3176 98.8286 71.6068 98.0147 72 97.25C72.3722 96.5754 72.8366 95.9561 73.38 95.41C73.8819 94.9019 74.4586 94.4736 75.09 94.14C75.7074 93.8074 76.3619 93.5489 77.04 93.37C77.7164 93.2194 78.4071 93.1423 79.1 93.14C79.9965 93.1256 80.8909 93.2298 81.76 93.45C82.46 93.6429 83.1322 93.9252 83.76 94.29C84.3138 94.6133 84.8161 95.0178 85.25 95.49C85.6275 95.9163 85.9625 96.3785 86.25 96.87C86.4808 97.3306 86.6747 97.8088 86.83 98.3C86.9533 98.734 87.0304 99.1798 87.06 99.63H83.3L83.12 99C83.0408 98.7679 82.9403 98.5436 82.82 98.33Z" fill="#4D5759"/>
<path d="M97.34 98.3501H102L96.42 104L102.26 111.94H97.67L93.67 106.19L92.24 107.65V111.94H88.73V98.3501H92.25V103.51L97.34 98.3501Z" fill="#4D5759"/>
<path d="M102.1 102.26C102.386 101.413 102.857 100.641 103.48 100C104.096 99.356 104.843 98.8513 105.67 98.52C106.588 98.1496 107.57 97.966 108.56 97.98C109.566 97.9634 110.565 98.1469 111.5 98.52C112.323 98.8491 113.063 99.3542 113.67 100C114.269 100.674 114.737 101.454 115.05 102.3C115.663 104.175 115.663 106.196 115.05 108.07C114.74 108.917 114.272 109.698 113.67 110.37C113.055 111.006 112.317 111.51 111.5 111.85C110.565 112.223 109.566 112.407 108.56 112.39C107.57 112.404 106.588 112.22 105.67 111.85C104.849 111.508 104.104 111.005 103.48 110.37C102.843 109.697 102.371 108.886 102.1 108C101.447 106.132 101.447 104.098 102.1 102.23V102.26ZM105.47 106.65C105.549 107.133 105.729 107.593 106 108C106.246 108.411 106.589 108.754 107 109C107.471 109.248 107.998 109.368 108.53 109.35C109.088 109.375 109.643 109.255 110.14 109C110.543 108.765 110.885 108.44 111.14 108.05C111.402 107.646 111.582 107.194 111.67 106.72C111.883 105.694 111.883 104.636 111.67 103.61C111.58 103.127 111.401 102.666 111.14 102.25C110.866 101.825 110.48 101.484 110.025 101.264C109.57 101.043 109.063 100.952 108.56 101C108.028 100.982 107.501 101.102 107.03 101.35C106.622 101.599 106.279 101.942 106.03 102.35C105.751 102.756 105.56 103.216 105.47 103.7C105.36 104.206 105.3 104.722 105.29 105.24C105.305 105.715 105.365 106.187 105.47 106.65Z" fill="#4D5759"/>
<path d="M122.15 101.21L122.1 103.74C122.04 105.17 121.94 106.42 121.81 107.5C121.699 108.42 121.467 109.321 121.12 110.18C120.838 110.829 120.39 111.391 119.82 111.81C119.192 112.193 118.465 112.381 117.73 112.35C117.32 112.35 116.99 112.35 116.73 112.3C116.476 112.259 116.228 112.188 115.99 112.09V109.09L116.45 109.24C116.663 109.258 116.877 109.258 117.09 109.24C117.35 109.252 117.605 109.163 117.8 108.99C118.062 108.76 118.25 108.457 118.34 108.12C118.518 107.536 118.638 106.937 118.7 106.33C118.77 105.57 118.82 104.6 118.85 103.4L118.95 98.26H129.88V111.94H126.39V101.21H122.15Z" fill="#4D5759"/>
<path d="M141 98.3501H145.7L140.09 104L145.94 111.94H141.35L137.35 106.19L135.92 107.65V111.94H132.4V98.3501H135.92V103.51L141 98.3501Z" fill="#4D5759"/>
<path d="M145.77 102.26C146.059 101.403 146.53 100.619 147.15 99.96C147.771 99.3178 148.521 98.8136 149.35 98.48C150.268 98.1088 151.25 97.9252 152.24 97.94C153.243 97.9233 154.239 98.1069 155.17 98.48C155.999 98.8156 156.741 99.3354 157.34 100C157.946 100.669 158.415 101.45 158.72 102.3C159.333 104.174 159.333 106.196 158.72 108.07C158.418 108.921 157.948 109.703 157.34 110.37C156.729 111.011 155.99 111.515 155.17 111.85C154.239 112.223 153.243 112.407 152.24 112.39C151.25 112.405 150.268 112.221 149.35 111.85C148.527 111.505 147.779 111.003 147.15 110.37C146.528 109.713 146.057 108.928 145.77 108.07C145.13 106.2 145.13 104.17 145.77 102.3V102.26ZM149.15 106.65C149.236 107.138 149.427 107.602 149.71 108.01C149.955 108.422 150.298 108.765 150.71 109.01C151.185 109.258 151.715 109.378 152.25 109.36C152.798 109.38 153.342 109.26 153.83 109.01C154.233 108.775 154.575 108.45 154.83 108.06C155.092 107.656 155.272 107.204 155.36 106.73C155.573 105.704 155.573 104.646 155.36 103.62C155.271 103.137 155.091 102.676 154.83 102.26C154.556 101.832 154.169 101.488 153.712 101.265C153.255 101.043 152.746 100.951 152.24 101C151.705 100.982 151.175 101.102 150.7 101.35C150.292 101.599 149.949 101.942 149.7 102.35C149.421 102.756 149.23 103.216 149.14 103.7C149.025 104.205 148.965 104.722 148.96 105.24C148.974 105.715 149.037 106.188 149.15 106.65Z" fill="#4D5759"/>
<path d="M169.67 98.51C170.206 98.6176 170.722 98.8065 171.2 99.07C171.639 99.3404 172 99.7192 172.25 100.17C172.527 100.714 172.658 101.32 172.63 101.93C172.643 102.268 172.603 102.605 172.51 102.93C172.441 103.208 172.319 103.469 172.15 103.7C172.015 103.91 171.842 104.093 171.64 104.24C171.448 104.389 171.24 104.516 171.02 104.62C171.658 104.81 172.21 105.217 172.58 105.77C172.949 106.33 173.137 106.99 173.12 107.66C173.131 108.255 173.026 108.846 172.81 109.4C172.598 109.904 172.277 110.355 171.87 110.72C171.445 111.114 170.94 111.411 170.39 111.59C169.766 111.804 169.11 111.909 168.45 111.9H160.83V98.35H167.83C168.447 98.3445 169.063 98.3981 169.67 98.51ZM168.09 103.59C168.308 103.533 168.515 103.438 168.7 103.31C168.856 103.204 168.972 103.049 169.03 102.87C169.106 102.665 169.14 102.448 169.13 102.23C169.137 102.038 169.103 101.847 169.03 101.67C168.958 101.501 168.845 101.353 168.7 101.24C168.523 101.11 168.323 101.015 168.11 100.96C167.804 100.876 167.487 100.839 167.17 100.85H164.36V103.69H167.07C167.412 103.688 167.754 103.654 168.09 103.59ZM168.32 109.28C168.584 109.188 168.826 109.041 169.03 108.85C169.191 108.707 169.306 108.519 169.36 108.31C169.415 108.128 169.442 107.94 169.44 107.75C169.457 107.464 169.413 107.177 169.31 106.91C169.24 106.696 169.094 106.515 168.9 106.4C168.686 106.237 168.429 106.14 168.16 106.12C167.799 106.064 167.435 106.037 167.07 106.04H164.36V109.44H167.07C167.493 109.455 167.915 109.401 168.32 109.28Z" fill="#4D5759"/>
<path d="M174.55 102.26C174.833 101.406 175.301 100.625 175.92 99.9718C176.538 99.3186 177.293 98.8093 178.13 98.48C179.044 98.1088 180.024 97.9252 181.01 97.94C182.016 97.9233 183.015 98.1069 183.95 98.48C184.778 98.8186 185.519 99.338 186.12 100C186.726 100.669 187.195 101.45 187.5 102.3C188.113 104.174 188.113 106.196 187.5 108.07C187.198 108.921 186.728 109.703 186.12 110.37C185.518 110.988 184.797 111.478 184 111.81C183.065 112.183 182.066 112.367 181.06 112.35C180.074 112.365 179.094 112.181 178.18 111.81C177.356 111.468 176.608 110.965 175.98 110.33C175.358 109.673 174.887 108.888 174.6 108.03C173.947 106.162 173.947 104.128 174.6 102.26H174.55ZM177.92 106.65C178.006 107.138 178.197 107.602 178.48 108.01C178.726 108.421 179.069 108.764 179.48 109.01C179.951 109.256 180.478 109.377 181.01 109.36C181.558 109.381 182.102 109.261 182.59 109.01C182.994 108.777 183.337 108.451 183.59 108.06C183.859 107.658 184.043 107.206 184.13 106.73C184.33 105.703 184.33 104.647 184.13 103.62C184.042 103.135 183.858 102.673 183.59 102.26C183.331 101.876 182.989 101.555 182.59 101.32C182.096 101.079 181.549 100.968 181 101C180.468 100.983 179.941 101.104 179.47 101.35C179.062 101.599 178.719 101.942 178.47 102.35C178.191 102.756 178 103.216 177.91 103.7C177.8 104.206 177.74 104.722 177.73 105.24C177.748 105.715 177.812 106.187 177.92 106.65Z" fill="#4D5759"/>
</g>
<defs>
<clipPath id="clip0_1177_5118">
<rect width="174.96" height="49.24" fill="white" transform="translate(13 75)"/>
</clipPath>
</defs>
</svg>
