<svg width="200" height="200" viewBox="0 0 200 200" fill="none" xmlns="http://www.w3.org/2000/svg">
<g clip-path="url(#clip0_1177_5412)">
<rect width="147.59" height="70" transform="translate(26 65)" fill="white"/>
<path d="M163.192 121.97C160.586 124.424 157.541 126.221 154.336 127.747C150.33 129.653 146.13 130.969 141.795 131.905C137.612 132.807 133.378 133.288 129.119 133.575C125.147 133.853 121.183 133.921 117.219 133.448C115.651 133.263 114.074 133.195 112.513 132.984C111.948 132.908 110.886 132.681 110.337 132.47L110.312 123.049C110.312 122.906 110.481 122.653 110.599 122.636C111.796 122.459 113.002 122.366 114.192 122.155C115.735 121.886 117.261 121.531 118.796 121.219C120.045 120.966 121.31 120.798 122.541 120.486C124.548 119.98 126.555 119.457 128.529 118.824C131.708 117.812 134.913 116.842 138.008 115.619C146.299 112.33 154.066 108.181 160.172 101.468C162.036 99.4265 163.52 97.1241 164.684 94.6109C165.03 93.8603 164.996 93.2362 164.516 92.4771C161.665 88.0073 157.912 84.4229 153.653 81.3615C147.598 77.0097 140.969 73.7627 133.867 71.5193C129.676 70.2037 125.434 69.0482 121.166 68.0193C118.527 67.3784 115.802 67.1 113.12 66.6531C112.733 66.5856 112.353 66.5097 111.965 66.2398C114.2 65.9952 116.435 65.6663 118.678 65.5061C124.641 65.0928 130.612 65.1856 136.541 65.9278C143.87 66.8555 150.98 68.6519 157.448 72.3796C159.346 73.4675 161.049 74.9013 162.846 76.1747L162.981 76.3771C163.099 76.5796 163.2 76.7904 163.327 76.9928C166.295 81.7832 167.214 86.8856 165.561 92.3338C165.3 93.1856 165.384 93.8266 165.781 94.6025C167.914 98.7013 169.011 103.019 168.673 107.692C168.395 111.521 167.248 115.063 165.401 118.394C164.77 119.53 164.064 120.624 163.398 121.743C163.402 121.741 163.407 121.737 163.411 121.734L163.394 121.751C163.396 121.748 163.396 121.746 163.398 121.743C163.305 121.816 163.248 121.897 163.192 121.97Z" fill="#F59420"/>
<path d="M44.0145 72.7928C41.0711 74.3108 38.2964 76.0903 35.8759 78.3759C35.6735 78.8313 35.5133 79.3205 35.2687 79.7337C33.5482 82.4831 32.1988 85.3928 31.4735 88.5639C30.2253 94.0036 30.959 99.2156 33.3036 104.234C33.6494 104.959 34.0711 105.651 34.4591 106.351C35.6145 104.318 36.5928 102.159 37.9675 100.295C41.9398 94.9229 47.3121 91.153 53.1904 88.1759C57.0952 86.194 61.1856 84.541 65.2759 82.9554C68 81.9012 70.8759 81.1928 73.7012 80.4C75.5313 79.8855 77.4036 79.4891 79.2591 79.0675C81.435 78.5699 83.6024 78.0554 85.7952 77.6337C86.5796 77.4819 86.7819 77.0771 86.7651 76.4024L86.7145 68.2301C86.7735 67.2771 85.947 66.9904 85.5506 66.8217C84.6963 66.4616 83.6674 66.4261 82.7034 66.3924L82.6832 66.3916C77.4036 66.1891 72.1157 65.953 66.853 66.6867C63.235 67.1928 59.5916 67.6482 56.0325 68.4241C51.8494 69.3349 47.8349 70.8193 44.0145 72.7928Z" fill="#F59420"/>
<path d="M34.4506 106.587C35.6904 108.248 36.8289 109.986 38.1783 111.546C42.1169 116.109 46.9325 119.592 52.1699 122.51C57.7446 125.63 63.6566 127.95 69.7711 129.754C75.2193 131.365 80.7771 132.521 86.4108 133.288C86.8325 133.347 87.2458 133.465 87.659 133.651C86.1915 133.845 84.7325 134.14 83.2651 134.207C79.2253 134.393 75.1856 134.663 71.1458 134.578C65.3181 134.444 59.5325 133.752 53.8819 132.225C47.4976 130.497 41.5096 127.941 36.4578 123.539C36.3735 123.294 36.3313 123.016 36.1964 122.805C34.8554 120.646 33.9362 118.335 33.506 115.822C32.9578 112.659 33.194 109.572 34.4506 106.587Z" fill="#F59420"/>
<path d="M163.36 121.751C164.035 120.637 164.743 119.541 165.367 118.394C167.214 115.063 168.361 111.521 168.64 107.692C168.977 103.019 167.51 98.7772 165.376 94.6784C164.735 93.4471 164.799 93.582 165.157 92.4097C166.818 86.9615 166.27 81.7832 163.293 76.9929C163.166 76.7905 163.065 76.5796 162.947 76.3772C163.816 77.1447 164.76 77.8362 165.545 78.6796C171.094 84.6254 173.422 91.7688 173.329 99.8146C173.228 108.172 170.293 115.299 164.229 121.101C163.967 121.354 163.655 121.54 163.36 121.751Z" fill="#C21B21"/>
<path d="M34.4506 106.587C33.194 109.572 32.9578 112.659 33.506 115.83C33.9446 118.335 34.8554 120.654 36.1964 122.813C36.3313 123.033 36.3735 123.303 36.4578 123.547C31.0096 118.9 27.7036 113.039 26.6578 105.971C25.5614 98.5664 26.4722 91.4737 30.4024 84.946C31.8867 82.4833 33.7169 80.2905 35.8759 78.3845C35.6735 78.8399 35.5132 79.3291 35.2518 79.7508C33.5313 82.5002 32.1819 85.4183 31.4566 88.5809C30.2084 94.0122 30.9422 99.2327 33.2867 104.251C33.6241 104.976 34.0542 105.659 34.4422 106.368C34.4422 106.435 34.4506 106.511 34.4506 106.587Z" fill="#C21B21"/>
<path d="M49.3952 95.1506C50.8879 92.5446 53.2831 91.2289 56.1 90.5879C57.7952 90.2084 59.5156 90.1747 61.1855 90.765C65.1241 92.1566 67.3 96.0952 66.5494 100.607C66.3217 101.99 65.959 103.39 65.3856 104.664C63.8253 108.13 60.8313 109.564 57.247 109.943C55.847 110.087 54.4217 110.078 53.0133 110.002C51.588 109.926 50.9301 108.999 51.1494 107.59C51.647 104.36 52.1867 101.147 52.6506 97.9169C52.7434 97.2759 52.5747 96.5928 52.5157 95.8253C53.4855 95.8253 54.6578 95.7916 55.8217 95.8337C56.6988 95.8675 57.0952 96.4072 56.9603 97.3687C56.6651 99.4012 56.3277 101.425 56.0072 103.449C55.8301 104.546 55.6361 105.642 55.4927 106.739C55.3494 107.826 55.594 108.063 56.7072 107.936C58.7482 107.7 60.2325 106.629 61.1012 104.79C62.3072 102.235 62.7795 99.5361 62.3578 96.7277C62.0205 94.459 60.2663 92.8988 57.8879 92.5867C54.6663 92.1566 51.9084 93.1181 49.5385 95.294C49.4964 95.2518 49.4458 95.2012 49.3952 95.1506Z" fill="#C21B21"/>
<path d="M95.0133 88.5133C95.806 88.5133 96.7759 88.488 97.7458 88.5217C98.8759 88.5554 99.3651 89.0699 99.2217 90.1916C99.0277 91.7602 98.7494 93.3205 98.5132 94.8807C98.4879 95.0747 98.4795 95.2687 98.4711 95.3699C99.7277 95.1843 100.942 94.8639 102.165 94.847C105.117 94.8048 106.458 96.5 105.977 99.4012C105.581 101.788 105.21 104.192 104.839 106.587C104.56 108.383 103.919 108.965 102.114 108.999C101.347 109.007 100.588 108.999 99.6434 108.999C101.204 107.725 100.824 105.963 101.178 104.436C101.549 102.867 101.727 101.257 101.963 99.6542C102.081 98.8277 102.292 97.9506 101.398 97.3687C100.689 96.9133 98.9518 96.9723 98.3024 97.5205C98.1253 97.6638 98.0494 97.9675 98.0072 98.212C97.535 101.139 97.0711 104.065 96.6072 106.992C96.3795 108.451 95.6542 109.1 94.1615 109.142C93.3265 109.167 92.4831 109.151 91.5217 109.151C93.0398 107.742 92.7446 105.845 93.0482 104.149C93.8578 99.6458 94.5157 95.1084 95.1904 90.5795C95.2663 89.9554 95.0807 89.2723 95.0133 88.5133Z" fill="#C21B21"/>
<path d="M80.8277 101.214C80.7687 102.918 80.2795 104.959 78.9807 106.73C77.3109 109.016 75.0422 110.036 72.2169 109.682C70.0241 109.412 68.7253 108.122 68.2024 105.988C67.3928 102.699 68.9446 98.347 71.6434 96.4241C73.2036 95.3108 74.9747 94.965 76.8301 95.2771C79.4615 95.7156 80.853 97.6807 80.8277 101.214ZM77.0241 100.422C77.0831 100.43 76.9651 100.413 77.0241 100.422C77.0241 100.186 77.0325 99.8144 77.0241 99.5783C76.9819 98.7265 76.7289 97.8494 75.8096 97.5626C74.8735 97.2759 74.0807 97.6132 73.4904 98.3554C73.2036 98.718 72.9338 99.1397 72.8241 99.5783C72.4952 100.877 72.1916 102.184 72.006 103.508C71.8964 104.326 71.947 105.178 72.0566 106.005C72.1663 106.806 72.7567 107.177 73.5663 107.194C74.7217 107.219 75.6578 106.578 76.0711 105.119C76.5349 103.525 76.7804 103.508 77.0241 100.422Z" fill="#C21B21"/>
<path d="M129.634 108.881C128.63 108.779 127.812 108.771 127.028 108.611C123.705 107.928 122.701 104.74 124.995 102.201C126.151 100.919 127.694 100.337 129.296 99.9155C130.14 99.6962 131.008 99.5697 131.869 99.4348C132.527 99.3336 133.117 99.2746 133.108 98.3722C133.1 97.4613 132.746 96.7613 131.869 96.6938C130.983 96.6179 130.047 96.6685 129.195 96.8878C127.981 97.1914 127.669 97.0902 127.576 95.8167C127.559 95.5553 127.778 95.1083 127.998 95.0155C129.769 94.2396 131.633 94.0203 133.53 94.3745C135.967 94.8384 137.089 96.4408 136.726 98.895C136.423 100.995 136.069 103.087 135.731 105.178C135.689 105.448 135.647 105.709 135.613 105.979C135.377 107.877 135.293 108.02 133.429 108.366C132.13 108.594 130.789 108.72 129.634 108.881ZM129.971 106.916C131.574 106.907 131.793 106.713 132.029 105.17C132.189 104.073 132.358 102.985 132.577 101.897C132.737 101.096 132.586 100.734 131.7 101.029C131.514 101.088 131.295 101.071 131.101 101.113C129.473 101.476 128.149 102.176 127.702 103.964C127.239 105.836 128.057 106.924 129.971 106.916Z" fill="#C21B21"/>
<path d="M137.57 108.366C137.865 107.565 138.278 106.831 138.405 106.056C139.29 100.641 140.134 95.2098 140.952 89.7784C141.045 89.1712 140.876 88.5302 140.817 87.7712C141.66 87.7712 142.748 87.6869 143.819 87.7965C144.722 87.8893 145.101 88.4965 144.958 89.4917C144.486 92.6881 143.971 95.8845 143.465 99.0809C143.086 101.476 142.714 103.871 142.318 106.266C142.099 107.607 141.348 108.307 140.016 108.366C139.147 108.4 138.278 108.366 137.57 108.366Z" fill="#C21B21"/>
<path d="M82.1349 105.684C83.012 107.051 84.8927 107.405 86.1241 106.502C87.2542 105.667 87.1867 104.217 85.9723 103.534C85.6518 103.357 85.306 103.222 84.9687 103.07C82.953 102.142 82.2952 100.658 82.9952 98.5325C84.3868 94.2988 89.7253 94.3747 92.0446 95.9855C92.1458 96.053 92.2554 96.1711 92.2639 96.2807C92.3482 97.1747 91.1169 98.0012 90.2397 97.7651C89.4891 97.5627 88.6711 97.4277 87.9036 97.4952C87.1024 97.5711 86.6386 98.2205 86.512 99.0217C86.394 99.7892 86.8241 100.295 87.4566 100.649C87.7518 100.81 88.0554 100.945 88.3675 101.088C91.1928 102.429 91.741 105.187 89.641 107.523C87.9795 109.378 84.2265 110.18 81.9662 109.159C81.0807 108.763 80.8783 108.198 81.3169 107.304C81.5699 106.781 81.8398 106.258 82.1349 105.684Z" fill="#C21B21"/>
<path d="M116.3 94.7035C117.11 94.7035 118.088 94.6613 119.058 94.7119C120.045 94.7625 120.567 95.3613 120.635 96.4914C121.023 96.2131 121.31 96.0107 121.596 95.8167C123.106 94.7963 125.113 95.0577 126.277 96.3734C127.028 97.2252 126.125 97.7143 125.839 98.2963C125.577 98.8276 124.961 98.8697 124.531 98.4734C122.693 96.7866 120.104 98.4228 119.825 100.734C119.581 102.775 119.201 104.79 118.864 106.823C118.661 108.012 117.936 108.695 116.764 108.754C115.828 108.805 114.883 108.763 113.829 108.763C115.33 107.379 115.01 105.516 115.347 103.863C115.819 101.526 116.131 99.148 116.452 96.7782C116.519 96.1709 116.359 95.5216 116.3 94.7035Z" fill="#C21B21"/>
<path d="M107.166 108.872C107.461 107.911 107.866 106.941 108.043 105.937C108.575 102.926 109.039 99.8988 109.469 96.871C109.553 96.2638 109.351 95.6144 109.275 94.8554C110.169 94.8554 111.231 94.7879 112.286 94.8723C113.23 94.9566 113.652 95.6397 113.5 96.6096C112.977 99.9325 112.463 103.255 111.923 106.57C111.645 108.282 111.037 108.813 109.317 108.864C108.524 108.898 107.731 108.872 107.166 108.872Z" fill="#C21B21"/>
<path d="M146.13 108.206C146.029 107.666 146.012 107.152 145.835 106.696C145.16 104.976 144.46 103.272 143.727 101.577C143.499 101.046 143.533 100.675 143.904 100.219C145.051 98.8107 146.172 97.3855 147.252 95.9264C147.555 95.5216 147.682 94.9818 147.927 94.5348C148.002 94.3915 148.222 94.2397 148.382 94.2312C149.023 94.1891 149.664 94.1553 150.296 94.2144C150.727 94.2565 151.148 94.4421 151.578 94.5601C151.401 95.0071 151.308 95.5131 151.03 95.8758C150.161 96.989 149.301 98.1192 148.298 99.1059C147.311 100.076 147.167 100.928 147.918 102.142C148.761 103.508 149.377 105.018 150.077 106.469C150.642 107.632 150.313 108.172 149.014 108.206C148.011 108.231 147.007 108.206 146.13 108.206Z" fill="#C21B21"/>
<path d="M112.218 88.7833C113.407 88.8001 114.327 89.7278 114.31 90.9085C114.301 92.2411 113.087 93.4218 111.771 93.3796C110.599 93.3375 109.705 92.3845 109.73 91.2037C109.764 89.9049 110.928 88.7748 112.218 88.7833Z" fill="#C21B21"/>
<path d="M49.3952 95.1506C49.4458 95.2012 49.4879 95.2434 49.5385 95.294C49.4373 95.3446 49.3361 95.3952 49.2349 95.4374L49.2265 95.4289C49.2771 95.3446 49.3361 95.2518 49.3952 95.1506Z" fill="#F59420"/>
<path d="M49.2349 95.4459C49.2181 95.5303 49.1928 95.623 49.1759 95.7074C49.1928 95.6146 49.2096 95.5303 49.2265 95.4375L49.2349 95.4459Z" fill="#F59420"/>
<path d="M163.192 121.97C163.251 121.894 163.318 121.818 163.377 121.742C163.31 121.809 163.251 121.894 163.192 121.97Z" fill="#C21B21"/>
</g>
<defs>
<clipPath id="clip0_1177_5412">
<rect width="147.59" height="70" fill="white" transform="translate(26 65)"/>
</clipPath>
</defs>
</svg>
