<svg width="200" height="200" viewBox="0 0 200 200" fill="none" xmlns="http://www.w3.org/2000/svg">
<g clip-path="url(#clip0_1177_4824)">
<path fill-rule="evenodd" clip-rule="evenodd" d="M40.6225 65.1887H157.623V135.011H40.6225V65.1887Z" fill="#FBFCFC"/>
<path fill-rule="evenodd" clip-rule="evenodd" d="M98.3429 65.8364C102.427 65.1181 105.777 68.3733 107.676 71.6085C108.071 72.4966 109.237 73.1217 108.822 74.2457C112.839 75.4476 114.811 80.2821 113.42 84.0929C112.713 86.3633 111.345 88.4615 109.382 89.8343C107.558 91.0102 105.318 91.4254 103.176 91.2025C100.736 90.8027 98.6614 89.2199 96.8509 87.6288C95.1537 86.2064 93.9471 83.6565 91.4562 83.5904C90.1081 83.285 89.0395 84.1943 87.9957 84.8512C87.0203 85.1626 87.0038 84.028 87.005 83.3887C87.0994 81.6031 88.3743 80.1701 89.7649 79.1782C91.3559 77.9044 92.2853 75.5939 91.4998 73.6395C91.0646 72.5391 89.5726 72.6913 89.0065 73.5865C87.0203 76.0067 86.5309 79.2265 85.7984 82.1751C85.6699 82.6221 85.0978 82.6209 84.9634 82.1775C84.6886 81.267 85.0165 80.2998 85.125 79.3775C85.651 76.7745 86.2797 74.024 88.1231 71.9978C89.0749 70.8808 90.6554 70.4338 92.0612 70.8254C93.0366 71.1427 93.6523 72.0355 94.5298 72.5085C94.2538 71.3113 93.9814 70.0246 94.5428 68.8616C95.1136 67.2352 96.6705 66.1053 98.3429 65.8364ZM98.8123 67.9464C96.6634 68.3981 95.7941 71.7489 97.7402 72.9401C100.238 72.9472 102.82 72.223 105.277 73.0699C104.827 71.5625 103.781 70.2769 102.627 69.2343C101.588 68.3521 100.222 67.6256 98.8123 67.9464Z" fill="#D3102C"/>
<path fill-rule="evenodd" clip-rule="evenodd" d="M68.0338 79.7655C71.3174 79.5426 74.7 80.0993 77.6592 81.5783C79.9119 82.7058 82.0868 84.337 83.2603 86.6086C83.8878 88.3624 83.4821 90.3639 82.6128 91.9668C81.9924 92.8997 81.0949 93.5932 80.3424 94.4117C78.7077 96.6137 78.0979 99.3571 77.5377 101.986C77.0813 104.382 76.6696 106.819 76.8654 109.266C76.9987 110.643 78.2937 111.702 79.6619 111.657C82.8758 111.926 85.447 108.861 85.8291 105.896C86.0721 104.346 85.9011 102.382 84.4964 101.4C83.7769 100.746 82.7449 100.98 81.8674 100.897C84.0034 99.8596 86.0981 98.0739 86.5108 95.6206C86.8776 94.2796 85.9459 93.0554 85.8976 91.7273C85.4906 89.8391 86.5332 87.6795 88.3885 87.0025C89.378 86.651 90.4903 86.4505 91.5388 86.5767C94.255 87.5993 96.0112 90.0938 98.4409 91.5846C103.084 94.7703 109.874 93.9671 113.873 90.082C116.714 87.387 118.685 83.7414 122.159 81.741C124.465 80.2927 127.232 79.8681 129.906 79.7101C136.593 79.6051 143.388 81.5618 148.737 85.6356C153.992 89.5878 157.552 95.9273 157.509 102.577C157.889 109.507 153.966 115.96 148.797 120.287C143.164 125.077 136.263 128.108 129.236 130.217C119.859 132.973 110.048 134.031 100.302 134.068C91.1378 134.198 81.9205 133.28 73.0582 130.876C65.958 128.967 58.9875 126.159 53.0267 121.786C49.6794 119.3 46.6447 116.287 44.6102 112.616C41.0554 106.344 41.3255 98.2249 44.9334 92.0352C49.5863 84.0362 59.1055 80.1347 68.0338 79.7655ZM61.1919 87.5403C56.6664 88.4532 53.1883 92.3017 51.4604 96.4333C49.4907 100.96 49.7679 107.076 53.7497 110.439C56.1675 112.337 59.6551 112.59 62.448 111.433C63.7442 111.022 64.6748 109.586 64.2018 108.242C62.8018 109.369 61.0197 110.433 59.1468 109.997C57.3776 109.796 55.9481 108.408 55.4469 106.742C54.4538 103.807 54.8336 100.587 55.4799 97.6151C56.2701 94.8788 57.3316 92.0328 59.5206 90.1021C60.1764 89.4251 61.0527 88.9616 61.9762 88.7787C63.2382 88.6761 64.17 89.9098 64.2832 91.0609C64.5026 93.3467 63.7289 96.07 61.5799 97.2294C60.7248 97.5148 59.9205 97.1751 59.4888 96.4215C58.3294 97.2978 58.7387 99.3229 59.9653 99.9822C61.7911 101.059 64.0898 100.158 65.4284 98.7214C67.6352 96.2823 68.4324 92.172 66.4203 89.3967C65.1985 87.8494 63.1026 87.1948 61.1919 87.5403ZM116.831 99.9857C116.506 103.517 115.453 106.992 115.669 110.558C116.142 111.634 117.471 111.752 118.462 112.005C118.441 110.38 118.492 108.752 118.732 107.143C119.851 108.566 120.475 110.358 121.79 111.636C122.769 112.667 124.361 112.599 125.54 111.978C123.583 110.132 121.869 107.983 120.707 105.553C122.195 104.348 123.619 103.049 125.278 102.073C125.604 101.935 125.261 101.605 125.109 101.475C124.578 100.869 123.535 100.673 122.901 101.231C121.377 102.244 120.286 103.732 118.948 104.948C119.077 103.852 119.136 102.748 119.166 101.646C118.906 100.634 117.814 100.04 116.831 99.9857ZM71.7997 100.617C70.3408 100.69 68.9443 101.362 67.9489 102.424C65.7669 104.659 64.4023 108.751 66.8272 111.286C68.5645 112.715 70.9034 111.351 71.8481 109.637C71.7832 111.078 72.9697 112.51 74.4724 112.367C73.951 109.301 74.4641 106.218 74.8226 103.167C74.996 101.558 73.2339 100.485 71.7997 100.617ZM88.7648 100.69C88.5442 103.342 87.8436 105.942 87.6761 108.594C87.4521 110.135 88.6822 111.59 90.193 111.742C91.6131 111.995 92.7784 111.049 93.6983 110.111C93.5851 111.03 93.2726 111.91 93.072 112.811C90.9007 113.04 88.6197 113.966 87.4674 115.929C86.7255 117.05 86.5427 118.64 87.3482 119.775C88.372 120.999 90.2603 120.763 91.4503 119.908C93.2136 118.593 94.3034 116.591 95.0641 114.567C96.2872 111.17 96.8804 107.575 97.2308 103.993C97.1824 103.335 97.3664 102.606 97.1234 101.981C96.6104 101.105 95.53 100.976 94.6478 100.715C94.4544 103.765 94.2633 107.122 92.2028 109.575C91.8006 110.022 90.6424 110.322 90.5504 109.5C90.5186 107.351 91.1201 105.237 91.2652 103.091C91.6508 101.652 89.9666 100.759 88.7648 100.69ZM100.086 100.691C99.8479 103.425 99.1237 106.093 98.8914 108.828C98.8348 110.076 99.5837 111.394 100.852 111.703C102.408 112.316 103.995 111.175 104.754 109.875C105.227 111.166 106.532 112.248 107.985 111.804C109.098 111.668 109.544 110.434 110.305 109.885C110.209 111.389 111.599 112.488 113.026 112.494C112.648 109.245 113.498 106.034 113.75 102.812C113.949 101.413 112.416 100.841 111.297 100.695C110.831 102.924 110.732 105.227 110.126 107.43C109.812 108.532 109.083 109.622 107.959 110.003C107.468 110.012 107.403 109.336 107.412 108.961C107.571 106.939 107.96 104.943 108.202 102.931C108.414 101.54 106.917 100.802 105.75 100.696C105.3 103.048 105.069 105.475 104.465 107.804C104.05 108.723 102.929 110.477 101.86 109.624C101.716 107.071 102.702 104.581 102.509 102.026C102.072 101.165 100.995 100.798 100.086 100.691ZM126.977 100.691C126.855 103.289 125.892 105.769 125.771 108.357C125.445 110.346 127.461 112.349 129.447 111.795C130.626 111.528 131.368 110.469 131.999 109.524C132.077 111.082 133.518 112.296 135.084 112.135C134.619 109.086 135.363 106.052 135.794 103.046C136.029 101.655 134.473 100.626 133.292 100.768C132.798 103.689 132.574 106.987 130.533 109.337C130.152 109.832 128.838 110.346 128.841 109.301C128.448 107.124 129.505 104.994 129.44 102.809C129.625 101.429 128.095 100.808 126.977 100.691ZM138.536 100.805C138.32 103.893 137.498 106.915 137.339 110.006C137.152 111.594 138.894 112.275 140.165 112.459C140.14 111.013 140.183 109.566 140.415 108.136C141.667 108.927 142.989 107.797 143.697 106.803C143.614 107.908 143.447 109.008 143.373 110.114C143.298 111.634 144.996 112.435 146.288 112.371C145.819 109.283 146.587 106.211 147.006 103.167C147.194 101.734 145.734 100.738 144.428 100.808C144.38 102.95 144.162 105.679 141.951 106.731C141.566 106.868 141.023 106.961 140.777 106.56C140.642 105.155 140.929 103.756 140.869 102.353C140.586 101.365 139.485 100.889 138.536 100.805ZM114.265 115.484C114.086 115.581 113.587 115.548 113.692 115.829C113.714 116.241 114.048 116.133 114.395 116.033C114.726 115.938 115.446 115.936 115.737 116.109C116.21 116.39 116.371 117.12 116.345 117.678C115.488 117.505 114.521 117.474 113.831 118.109C113.075 118.999 112.696 120.269 113.042 121.401C113.153 121.763 113.268 121.955 113.615 122.145C114.348 122.546 115.417 122.27 115.99 121.683C117.112 120.273 117.03 118.276 116.831 116.599C116.645 115.386 115.235 115.251 114.265 115.484ZM99.0136 118.262L99.0742 117.68C98.9079 117.68 98.4856 117.68 98.3182 117.68L97.8252 122.272L98.5069 122.266L98.8968 119.033C99.4043 118.256 100.809 117.654 101.123 118.626L100.773 122.271C100.944 122.271 101.287 122.271 101.458 122.27L101.871 118.477C101.935 117.895 101.318 117.457 100.727 117.476C100.297 117.49 99.391 117.857 99.0136 118.262ZM104.014 118.275L104.059 117.678C103.892 117.678 103.558 117.678 103.392 117.678L102.663 124.282L103.391 124.274L103.643 122.087C103.875 122.274 104.328 122.374 104.628 122.365C105.766 122.33 106.668 121.353 106.887 120.257C107.253 119.297 106.972 117.688 105.836 117.579C105.092 117.508 104.604 117.889 104.014 118.275ZM108.783 118.085C107.946 118.913 107.767 120.376 108.084 121.455C108.382 122.15 109.134 122.359 109.841 122.313C110.349 122.279 110.69 122.142 111.061 121.788C111.981 120.908 112.237 119.349 111.671 118.221C111.36 117.69 110.75 117.53 110.159 117.536C109.574 117.541 109.212 117.661 108.783 118.085ZM121.097 117.571C120.568 118.918 119.984 120.243 119.415 121.573C119.353 121.81 119.178 121.565 119.186 121.441C118.981 120.188 118.855 118.92 118.56 117.684C118.387 117.682 118.044 117.677 117.873 117.676C118.016 118.679 118.271 119.662 118.42 120.666C118.589 121.245 118.481 122.022 119.051 122.394C118.746 123.293 118.173 124.06 117.051 123.707C116.951 124.677 118.768 124.411 119.055 123.689C120.042 121.794 120.831 119.79 121.699 117.835C121.942 117.544 121.133 117.42 121.097 117.571ZM129.362 117.607C128.908 117.742 128.514 118.003 128.126 118.266C128.17 117.848 128.409 117.32 127.575 117.689L126.957 122.272C127.129 122.271 127.473 122.266 127.645 122.264L128.055 119.008C128.399 118.594 129.002 118.117 129.562 118.144C130.086 118.169 130.069 118.537 130.023 118.966L129.669 122.272L130.345 122.254L130.766 118.889C131.17 118.485 131.751 118.087 132.33 118.158C132.787 118.215 132.763 118.379 132.725 118.772L132.383 122.272L133.069 122.264L133.475 118.617C133.508 118.326 133.477 118.093 133.407 117.964C132.933 117.1 131.496 117.752 130.855 118.25C130.577 117.752 130.045 117.285 129.362 117.607ZM122.744 117.684C122.426 119.195 122.359 120.746 122.133 122.274C123.57 122.637 122.733 120.686 123.21 120.037C123.737 120.046 124.457 119.893 124.8 120.421C125.284 121.056 124.7 122.621 125.903 122.271C125.639 121.456 125.843 120.338 125.058 119.794C125.786 119.336 125.911 118.403 126.24 117.667C124.886 117.275 125.497 119.375 124.381 119.481C124.035 119.54 123.557 119.702 123.264 119.481C123.042 118.893 124.066 117.296 122.744 117.684Z" fill="#114D91"/>
<path fill-rule="evenodd" clip-rule="evenodd" d="M83.1223 93.7618C84.2475 93.2723 84.251 94.6912 84.1354 95.3753C83.7592 97.4876 82.2837 99.5127 80.3671 100.465C80.6419 98.614 81.096 96.7481 81.9393 95.0627C82.2495 94.5733 82.5668 94.0083 83.1223 93.7618Z" fill="#114D91"/>
<path fill-rule="evenodd" clip-rule="evenodd" d="M71.2053 101.911C72.6772 102.009 71.9188 104.054 71.8162 104.983C71.4765 106.697 71.1298 108.573 69.8501 109.866C69.0658 110.493 68.4336 109.369 68.4654 108.704C68.3781 106.607 68.8299 104.378 70.0518 102.643C70.3219 102.261 70.7641 102.036 71.2053 101.911Z" fill="#114D91"/>
<path fill-rule="evenodd" clip-rule="evenodd" d="M81.3602 102.277C82.016 101.976 82.6552 102.37 82.7472 103.036C83.2792 105.226 82.9442 107.73 81.5831 109.569C81.1326 110.159 79.8753 110.48 79.584 109.613C79.1889 107.455 79.597 105.236 80.0841 103.124C80.169 102.513 80.8802 102.428 81.3602 102.277Z" fill="#114D91"/>
<path fill-rule="evenodd" clip-rule="evenodd" d="M92.3184 114.058C92.5908 113.961 92.888 113.982 92.7099 114.335C92.1414 116.105 91.5305 118.137 89.884 119.176C88.7435 119.609 88.392 118.133 88.7965 117.361C89.3285 115.754 90.7367 114.577 92.3184 114.058Z" fill="#114D91"/>
<path fill-rule="evenodd" clip-rule="evenodd" d="M105.51 118.129C105.772 118.137 105.961 118.3 106.077 118.524C106.254 118.864 106.262 119.73 106.186 120.11C105.968 121.2 105.171 122.222 103.65 121.517L103.981 118.87C104.376 118.569 104.98 118.113 105.51 118.129Z" fill="#114D91"/>
<path fill-rule="evenodd" clip-rule="evenodd" d="M109.778 118.178C110.548 117.848 111.058 118.399 111.194 119.064C111.286 119.51 111.154 120.452 110.949 120.856C110.617 121.51 109.941 121.986 109.261 121.703C108.887 121.547 108.817 121.309 108.729 120.925C108.5 119.918 108.861 118.657 109.778 118.178Z" fill="#114D91"/>
<path fill-rule="evenodd" clip-rule="evenodd" d="M116.297 118.273C116.275 118.536 116.173 119.417 116.12 119.718C115.985 120.488 115.71 121.287 115.074 121.638C114.747 121.818 114.442 121.869 114.122 121.643C113.731 121.365 113.582 120.785 113.66 120.304C113.748 119.519 114.025 118.557 114.816 118.239C115.119 118.117 116.032 118.116 116.297 118.273Z" fill="#114D91"/>
</g>
<defs>
<clipPath id="clip0_1177_4824">
<rect width="117" height="69.8226" fill="white" transform="translate(41 65)"/>
</clipPath>
</defs>
</svg>
