<svg width="26" height="27" viewBox="0 0 26 27" fill="none" xmlns="http://www.w3.org/2000/svg">
<path d="M23.8332 16.7503V10.2503C23.8332 4.83366 21.6665 2.66699 16.2498 2.66699H9.74984C4.33317 2.66699 2.1665 4.83366 2.1665 10.2503V16.7503C2.1665 22.167 4.33317 24.3337 9.74984 24.3337H16.2498C21.6665 24.3337 23.8332 22.167 23.8332 16.7503Z" stroke="white" stroke-linecap="round" stroke-linejoin="round"/>
<path d="M2.72998 8.20215H23.27" stroke="white" stroke-linecap="round" stroke-linejoin="round"/>
<path d="M9.22998 2.78613V8.05113" stroke="white" stroke-linecap="round" stroke-linejoin="round"/>
<path d="M16.77 2.78613V7.56363" stroke="white" stroke-linecap="round" stroke-linejoin="round"/>
<path d="M10.5625 16.1541V14.8541C10.5625 13.1858 11.7433 12.5033 13.1842 13.3375L14.3108 13.9875L15.4375 14.6375C16.8783 15.4716 16.8783 16.8366 15.4375 17.6708L14.3108 18.3208L13.1842 18.9708C11.7433 19.805 10.5625 19.1225 10.5625 17.4541V16.1541V16.1541Z" stroke="white" stroke-miterlimit="10" stroke-linecap="round" stroke-linejoin="round"/>
</svg>
