<svg width="26" height="26" viewBox="0 0 26 26" fill="none" xmlns="http://www.w3.org/2000/svg">
<path d="M9.75016 10.8333C10.9468 10.8333 11.9168 9.86328 11.9168 8.66667C11.9168 7.47005 10.9468 6.5 9.75016 6.5C8.55355 6.5 7.5835 7.47005 7.5835 8.66667C7.5835 9.86328 8.55355 10.8333 9.75016 10.8333Z" stroke="white" stroke-linecap="round" stroke-linejoin="round"/>
<path d="M14.0832 2.16675H9.74984C4.33317 2.16675 2.1665 4.33341 2.1665 9.75008V16.2501C2.1665 21.6667 4.33317 23.8334 9.74984 23.8334H16.2498C21.6665 23.8334 23.8332 21.6667 23.8332 16.2501V10.8334" stroke="white" stroke-linecap="round" stroke-linejoin="round"/>
<path d="M20.7348 2.80571L16.8023 6.73821C16.6506 6.88988 16.499 7.18238 16.4773 7.39905L16.2606 8.90488C16.1848 9.44655 16.564 9.82571 17.1056 9.74988L18.6115 9.53321C18.8173 9.50071 19.1206 9.35988 19.2723 9.20821L23.2048 5.27571C23.8873 4.59321 24.2015 3.81321 23.2048 2.81654C22.1973 1.79821 21.4173 2.12321 20.7348 2.80571Z" stroke="white" stroke-miterlimit="10" stroke-linecap="round" stroke-linejoin="round"/>
<path d="M20.1719 3.36914C20.5077 4.56081 21.4394 5.49247 22.631 5.82831" stroke="white" stroke-miterlimit="10" stroke-linecap="round" stroke-linejoin="round"/>
<path d="M2.89258 20.5292L8.23341 16.9434C9.08924 16.3692 10.3242 16.4342 11.0934 17.095L11.4509 17.4092C12.2959 18.135 13.6609 18.135 14.5059 17.4092L19.0126 13.5417C19.8576 12.8159 21.2226 12.8159 22.0676 13.5417L23.8334 15.0584" stroke="white" stroke-linecap="round" stroke-linejoin="round"/>
</svg>
