<svg width="26" height="27" viewBox="0 0 26 27" fill="none" xmlns="http://www.w3.org/2000/svg">
<path d="M17.7957 19.9401L17.4942 19.5412L17.4942 19.5412L17.7957 19.9401ZM20.8848 18.2322C21.1051 18.0657 21.1487 17.7522 20.9822 17.5319C20.8157 17.3116 20.5022 17.2679 20.2819 17.4344L20.8848 18.2322ZM17.4127 19.9401L17.7141 19.5412L17.7141 19.5412L17.4127 19.9401ZM16.5515 18.6625C16.3312 18.496 16.0176 18.5396 15.8511 18.7599C15.6846 18.9802 15.7282 19.2938 15.9485 19.4603L16.5515 18.6625ZM5.02687 5.23083L5.34696 4.84672L5.02687 5.23083ZM8.36294 8.01089L8.68303 7.62678L8.68303 7.62678L8.36294 8.01089ZM11.1371 8.01089L11.4572 8.395L11.4572 8.395L11.1371 8.01089ZM14.8629 4.906L14.5428 4.52188L14.5428 4.52188L14.8629 4.906ZM17.6371 4.906L17.317 5.29011L17.317 5.29011L17.6371 4.906ZM21.1908 7.86744L20.8707 8.25155L20.8707 8.25155L21.1908 7.86744ZM8.36293 22.0942L8.68303 21.7101L8.68303 21.7101L8.36293 22.0942ZM4.0296 18.4831L3.70951 18.8672L3.70951 18.8672L4.0296 18.4831ZM21.4704 11.3333C21.4704 11.6095 21.6943 11.8333 21.9704 11.8333C22.2465 11.8333 22.4704 11.6095 22.4704 11.3333H21.4704ZM18.0971 20.339L20.8848 18.2322L20.2819 17.4344L17.4942 19.5412L18.0971 20.339ZM17.7141 19.5412L16.5515 18.6625L15.9485 19.4603L17.1112 20.339L17.7141 19.5412ZM17.4942 19.5412C17.5423 19.5048 17.5838 19.5 17.6042 19.5C17.6245 19.5 17.6661 19.5048 17.7141 19.5412L17.1112 20.339C17.265 20.4552 17.4452 20.5 17.6042 20.5C17.7631 20.5 17.9433 20.4552 18.0971 20.339L17.4942 19.5412ZM4.70677 5.61494L8.04284 8.395L8.68303 7.62678L5.34696 4.84672L4.70677 5.61494ZM11.4572 8.395L15.183 5.29011L14.5428 4.52188L10.817 7.62678L11.4572 8.395ZM17.317 5.29011L20.8707 8.25155L21.5109 7.48333L17.9572 4.52189L17.317 5.29011ZM8.68303 21.7101L4.34969 18.099L3.70951 18.8672L8.04284 22.4783L8.68303 21.7101ZM3.75 16.8186V6.06307H2.75V16.8186H3.75ZM4.34969 18.099C3.9697 17.7823 3.75 17.3133 3.75 16.8186H2.75C2.75 17.61 3.10153 18.3606 3.70951 18.8672L4.34969 18.099ZM15.183 5.29011C15.8011 4.77504 16.6989 4.77504 17.317 5.29011L17.9572 4.52189C16.9682 3.69778 15.5318 3.69778 14.5428 4.52188L15.183 5.29011ZM8.04284 8.395C9.03177 9.2191 10.4682 9.2191 11.4572 8.395L10.817 7.62678C10.1989 8.14184 9.3011 8.14184 8.68303 7.62678L8.04284 8.395ZM5.34696 4.84672C4.31569 3.98733 2.75 4.72066 2.75 6.06307H3.75C3.75 5.5685 4.32683 5.29832 4.70677 5.61494L5.34696 4.84672ZM9.75 22.0964C9.37062 22.0964 8.99212 21.9677 8.68303 21.7101L8.04284 22.4783C8.53725 22.8903 9.14407 23.0964 9.75 23.0964V22.0964ZM9.25 9.16677V22.1668H10.25V9.16677H9.25ZM21.4704 9.53192V11.3333H22.4704V9.53192H21.4704ZM20.8707 8.25155C21.2507 8.56821 21.4704 9.03729 21.4704 9.53192H22.4704C22.4704 8.74051 22.1189 7.98998 21.5109 7.48333L20.8707 8.25155ZM23.3333 18.9167C23.3333 21.6321 21.1321 23.8333 18.4167 23.8333V24.8333C21.6844 24.8333 24.3333 22.1844 24.3333 18.9167H23.3333ZM18.4167 23.8333C15.7013 23.8333 13.5 21.6321 13.5 18.9167H12.5C12.5 22.1844 15.149 24.8333 18.4167 24.8333V23.8333ZM13.5 18.9167C13.5 16.2013 15.7013 14 18.4167 14V13C15.149 13 12.5 15.649 12.5 18.9167H13.5ZM18.4167 14C21.1321 14 23.3333 16.2013 23.3333 18.9167H24.3333C24.3333 15.649 21.6844 13 18.4167 13V14Z" fill="white"/>
</svg>
