<svg width="26" height="27" viewBox="0 0 26 27" fill="none" xmlns="http://www.w3.org/2000/svg">
<path d="M18.4277 14.2909C19.0679 14.2909 19.5869 13.772 19.5869 13.1318C19.5869 12.4916 19.0679 11.9727 18.4277 11.9727C17.7875 11.9727 17.2686 12.4916 17.2686 13.1318C17.2686 13.772 17.7875 14.2909 18.4277 14.2909Z" stroke="white" stroke-linecap="round" stroke-linejoin="round"/>
<path d="M21.6665 7.00033V8.93947C21.3957 8.90697 21.0815 8.88531 20.7457 8.88531H16.109C13.7907 8.88531 13.0215 9.65452 13.0215 11.9729V17.5087H6.49984C3.03317 17.5087 2.1665 16.642 2.1665 13.1753V7.00033C2.1665 3.53366 3.03317 2.66699 6.49984 2.66699H17.3332C20.7998 2.66699 21.6665 3.53366 21.6665 7.00033Z" stroke="white" stroke-linecap="round" stroke-linejoin="round"/>
<path d="M9.75 17.5088V22.1671" stroke="white" stroke-linecap="round" stroke-linejoin="round"/>
<path d="M2.1665 13.3916H12.9998" stroke="white" stroke-linecap="round" stroke-linejoin="round"/>
<path d="M6.4458 22.167H13" stroke="white" stroke-linecap="round" stroke-linejoin="round"/>
<path d="M18.4272 14.2909C19.0674 14.2909 19.5864 13.772 19.5864 13.1318C19.5864 12.4916 19.0674 11.9727 18.4272 11.9727C17.7871 11.9727 17.2681 12.4916 17.2681 13.1318C17.2681 13.772 17.7871 14.2909 18.4272 14.2909Z" stroke="white" stroke-miterlimit="10" stroke-linecap="round" stroke-linejoin="round"/>
<path d="M21.6665 8.93892C21.3957 8.90642 21.0815 8.88477 20.7457 8.88477H16.109C13.7907 8.88477 13.0215 9.65397 13.0215 11.9723V21.2456C13.0215 23.564 13.7907 24.3331 16.109 24.3331H20.7457C23.064 24.3331 23.8332 23.564 23.8332 21.2456V11.9723C23.8332 9.98981 23.2698 9.14475 21.6665 8.93892ZM18.4273 11.9723C19.0665 11.9723 19.5865 12.4922 19.5865 13.1314C19.5865 13.7706 19.0665 14.2906 18.4273 14.2906C17.7882 14.2906 17.2682 13.7706 17.2682 13.1314C17.2682 12.4922 17.7882 11.9723 18.4273 11.9723ZM18.4273 21.2456C17.149 21.2456 16.109 20.2056 16.109 18.9273C16.109 18.3965 16.2932 17.8981 16.5965 17.5081C17.019 16.9665 17.6798 16.6089 18.4273 16.6089C19.0123 16.6089 19.5432 16.8256 19.944 17.1723C20.4315 17.6056 20.7457 18.234 20.7457 18.9273C20.7457 20.2056 19.7057 21.2456 18.4273 21.2456Z" stroke="white" stroke-miterlimit="10" stroke-linecap="round" stroke-linejoin="round"/>
<path d="M20.7456 18.9277C20.7456 20.2061 19.7056 21.2461 18.4272 21.2461C17.1489 21.2461 16.1089 20.2061 16.1089 18.9277C16.1089 18.3969 16.2931 17.8986 16.5964 17.5086C17.0189 16.9669 17.6797 16.6094 18.4272 16.6094C19.0122 16.6094 19.5431 16.8261 19.9439 17.1727C20.4314 17.6061 20.7456 18.2344 20.7456 18.9277Z" stroke="white" stroke-miterlimit="10" stroke-linecap="round" stroke-linejoin="round"/>
<path d="M18.4272 14.2909C19.0674 14.2909 19.5864 13.772 19.5864 13.1318C19.5864 12.4916 19.0674 11.9727 18.4272 11.9727C17.7871 11.9727 17.2681 12.4916 17.2681 13.1318C17.2681 13.772 17.7871 14.2909 18.4272 14.2909Z" stroke="white" stroke-miterlimit="10" stroke-linecap="round" stroke-linejoin="round"/>
</svg>
