<svg width="24" height="24" viewBox="0 0 24 24" fill="none" xmlns="http://www.w3.org/2000/svg">
<path fill-rule="evenodd" clip-rule="evenodd" d="M12 5.11761L6.23604 7.99958L12 10.8815L17.7639 7.99958L12 5.11761ZM11.3292 3.21695C11.7514 3.00581 12.2485 3.00581 12.6708 3.21695L19.5528 6.65794C20.6583 7.21072 20.6583 8.78843 19.5528 9.34122L12.6708 12.7822C12.2485 12.9933 11.7514 12.9933 11.3292 12.7822L11.7764 11.8878L11.3292 12.7822L4.44719 9.34122L4.8944 8.44679L4.44719 9.34122C3.34162 8.78843 3.34161 7.21072 4.44719 6.65794L11.3292 3.21695ZM3.10555 11.5524C3.35254 11.0584 3.95321 10.8582 4.44719 11.1051L12 14.8815L19.5528 11.1051C20.0467 10.8582 20.6474 11.0584 20.8944 11.5524C21.1414 12.0463 20.9412 12.647 20.4472 12.894L12.6708 16.7822C12.2485 16.9933 11.7514 16.9933 11.3292 16.7822L3.55276 12.894C3.05878 12.647 2.85856 12.0463 3.10555 11.5524ZM3.10555 15.5524C3.35254 15.0584 3.95321 14.8582 4.44719 15.1051L12 18.8815L19.5528 15.1051C20.0467 14.8582 20.6474 15.0584 20.8944 15.5524C21.1414 16.0463 20.9412 16.647 20.4472 16.894L12.6708 20.7822C12.2485 20.9933 11.7514 20.9933 11.3292 20.7822L3.55276 16.894C3.05878 16.647 2.85856 16.0463 3.10555 15.5524Z" fill="#4D495E"/>
</svg>
