<svg width="20" height="20" viewBox="0 0 20 20" fill="none" xmlns="http://www.w3.org/2000/svg">
<path fill-rule="evenodd" clip-rule="evenodd" d="M10 1.5C10.5523 1.5 11 1.94772 11 2.5L11 10.9191L12.6262 9.29289C13.0168 8.90237 13.6499 8.90237 14.0404 9.29289C14.431 9.68342 14.431 10.3166 14.0404 10.7071L11.2964 13.4512C10.5804 14.1671 9.4196 14.1671 8.70364 13.4512L5.95956 10.7071C5.56904 10.3166 5.56904 9.68342 5.95956 9.29289C6.35009 8.90237 6.98325 8.90237 7.37377 9.29289L9 10.9191L9 2.5C9 1.94772 9.44772 1.5 10 1.5ZM2.5 12.3333C3.05229 12.3333 3.5 12.781 3.5 13.3333V13.5C3.5 14.2166 3.50078 14.6938 3.53074 15.0606C3.55975 15.4156 3.61105 15.5781 3.66349 15.681C3.8073 15.9632 4.03677 16.1927 4.31902 16.3365C4.42194 16.389 4.5844 16.4403 4.93944 16.4693C5.30615 16.4992 5.78343 16.5 6.5 16.5H13.5C14.2166 16.5 14.6939 16.4992 15.0606 16.4693C15.4156 16.4403 15.5781 16.389 15.681 16.3365C15.9632 16.1927 16.1927 15.9632 16.3365 15.681C16.389 15.5781 16.4403 15.4156 16.4693 15.0606C16.4992 14.6938 16.5 14.2166 16.5 13.5V13.3333C16.5 12.781 16.9477 12.3333 17.5 12.3333C18.0523 12.3333 18.5 12.781 18.5 13.3333V13.5402C18.5 14.206 18.5 14.7656 18.4626 15.2234C18.4235 15.7021 18.3386 16.1571 18.1185 16.589C17.783 17.2475 17.2475 17.783 16.589 18.1185C16.1571 18.3386 15.7021 18.4235 15.2234 18.4626C14.7656 18.5 14.206 18.5 13.5402 18.5H6.45982C5.79396 18.5 5.23444 18.5 4.77657 18.4626C4.29785 18.4235 3.84289 18.3386 3.41103 18.1185C2.75247 17.783 2.21704 17.2475 1.88148 16.589C1.66144 16.1571 1.5765 15.7021 1.53738 15.2234C1.49997 14.7656 1.49999 14.206 1.5 13.5402L1.5 13.3333C1.5 12.781 1.94772 12.3333 2.5 12.3333Z" fill="#201E26"/>
</svg>
