<svg width="18" height="18" viewBox="0 0 18 18" fill="none" xmlns="http://www.w3.org/2000/svg">
<path fill-rule="evenodd" clip-rule="evenodd" d="M3.75 4.25C3.48478 4.25 3.23043 4.35536 3.04289 4.54289C2.85536 4.73043 2.75 4.98478 2.75 5.25V12.75C2.75 13.0152 2.85536 13.2696 3.04289 13.4571C3.23043 13.6446 3.48478 13.75 3.75 13.75H14.25C14.5152 13.75 14.7696 13.6446 14.9571 13.4571C15.1446 13.2696 15.25 13.0152 15.25 12.75V5.25C15.25 4.98478 15.1446 4.73043 14.9571 4.54289C14.7696 4.35536 14.5152 4.25 14.25 4.25H3.75ZM2.33579 3.83579C2.71086 3.46071 3.21957 3.25 3.75 3.25H14.25C14.7804 3.25 15.2891 3.46071 15.6642 3.83579C16.0393 4.21086 16.25 4.71957 16.25 5.25V12.75C16.25 13.2804 16.0393 13.7891 15.6642 14.1642C15.2891 14.5393 14.7804 14.75 14.25 14.75H3.75C3.21957 14.75 2.71086 14.5393 2.33579 14.1642C1.96071 13.7891 1.75 13.2804 1.75 12.75V5.25C1.75 4.71957 1.96071 4.21086 2.33579 3.83579Z" fill="#A78E8E"/>
<path fill-rule="evenodd" clip-rule="evenodd" d="M1.83403 4.9727C1.9872 4.74294 2.29764 4.68085 2.5274 4.83403L9.00005 9.14913L15.4727 4.83403C15.7025 4.68085 16.0129 4.74294 16.1661 4.9727C16.3193 5.20247 16.2572 5.5129 16.0274 5.66608L9.2774 10.1661C9.10945 10.278 8.89065 10.278 8.7227 10.1661L1.9727 5.66608C1.74294 5.5129 1.68085 5.20247 1.83403 4.9727Z" fill="#A78E8E"/>
</svg>
