<svg width="24" height="24" viewBox="0 0 24 24" fill="none" xmlns="http://www.w3.org/2000/svg">
<path fill-rule="evenodd" clip-rule="evenodd" d="M2 4C2 3.44772 2.44772 3 3 3H3.60632C4.76481 3 5.78267 3.6601 6.2813 4.64075C6.38139 4.60711 6.48857 4.58889 6.6 4.58889H18.426C20.3835 4.58889 21.8167 6.43337 21.3329 8.33022L19.953 13.7413C19.6141 15.0701 18.4174 16 17.046 16H8.39368C6.86275 16 5.5774 14.8472 5.41138 13.3253L4.60042 5.89155L5.59452 5.7831L4.60042 5.89155C4.54508 5.38425 4.11663 5 3.60632 5H3C2.44772 5 2 4.55228 2 4ZM6.68836 6.58889L7.39958 13.1084C7.45492 13.6157 7.88337 14 8.39368 14H17.046C17.5031 14 17.9021 13.69 18.015 13.2471L19.3949 7.836C19.5562 7.20372 19.0785 6.58889 18.426 6.58889H6.68836ZM7 17C8.10457 17 9 17.8954 9 19C9 20.1046 8.10457 21 7 21C5.89543 21 5 20.1046 5 19C5 17.8954 5.89543 17 7 17ZM16 19C16 17.8954 16.8954 17 18 17C19.1046 17 20 17.8954 20 19C20 20.1046 19.1046 21 18 21C16.8954 21 16 20.1046 16 19Z" fill="#4D495E"/>
</svg>
