<svg width="24" height="24" viewBox="0 0 24 24" fill="none" xmlns="http://www.w3.org/2000/svg">
<path fill-rule="evenodd" clip-rule="evenodd" d="M9.94406 3.61523H14.0559C14.9602 3.61522 15.6994 3.61521 16.3 3.66429C16.9216 3.71507 17.4823 3.82335 18.0058 4.09008C18.8256 4.50777 19.4921 5.17425 19.9097 5.994C20.1765 6.51748 20.2848 7.07823 20.3355 7.6998C20.3846 8.30044 20.3846 9.03961 20.3846 9.94396V14.0557C20.3846 14.9601 20.3846 15.6993 20.3355 16.2999C20.2848 16.9215 20.1765 17.4822 19.9097 18.0057C19.4921 18.8255 18.8256 19.4919 18.0058 19.9096C17.4823 20.1763 16.9216 20.2846 16.3 20.3354C15.6994 20.3845 14.9602 20.3845 14.0559 20.3845H9.94408C9.03974 20.3845 8.30056 20.3845 7.69992 20.3354C7.07835 20.2846 6.51761 20.1763 5.99413 19.9096C5.17437 19.4919 4.50789 18.8255 4.0902 18.0057C3.82348 17.4822 3.71519 16.9215 3.66441 16.2999C3.61534 15.6993 3.61535 14.9601 3.61536 14.0558L3.61536 10.6574C3.61536 10.6573 3.61536 10.6575 3.61536 10.6574L3.61536 9.94394C3.61535 9.0396 3.61534 8.30043 3.66441 7.6998C3.71519 7.07823 3.82348 6.51748 4.0902 5.994C4.50789 5.17425 5.17437 4.50777 5.99413 4.09008C6.51761 3.82335 7.07835 3.71507 7.69992 3.66429C8.30056 3.61521 9.03972 3.61522 9.94406 3.61523ZM5.61536 13.0714V14.0138C5.61536 14.9703 5.61613 15.6275 5.65777 16.137C5.69845 16.6349 5.77309 16.9032 5.87222 17.0977C6.09816 17.5411 6.45868 17.9017 6.90211 18.1276C7.09665 18.2267 7.3649 18.3014 7.86278 18.3421C8.37234 18.3837 9.02954 18.3845 9.98599 18.3845H10.9284L5.61536 13.0714ZM15.7773 18.3641C15.9055 18.3584 16.0249 18.3512 16.1372 18.3421C16.635 18.3014 16.9033 18.2267 17.0978 18.1276C17.5413 17.9017 17.9018 17.5411 18.1277 17.0977C18.2269 16.9032 18.3015 16.6349 18.3422 16.137C18.3513 16.0248 18.3585 15.9054 18.3642 15.7771L15.7773 18.3641ZM18.3846 12.9283V9.98586C18.3846 9.02942 18.3838 8.37222 18.3422 7.86266C18.3015 7.36477 18.2269 7.09653 18.1277 6.90198C17.9018 6.45855 17.5413 6.09803 17.0978 5.87209C16.9033 5.77297 16.635 5.69832 16.1372 5.65765C15.6276 5.61601 14.9704 5.61524 14.014 5.61524H9.98599C9.02954 5.61524 8.37234 5.61601 7.86278 5.65765C7.3649 5.69832 7.09665 5.77297 6.90211 5.87209C6.45868 6.09803 6.09816 6.45855 5.87222 6.90198C5.77309 7.09653 5.69845 7.36477 5.65777 7.86266C5.61613 8.37222 5.61536 9.02942 5.61536 9.98586V10.243L8.30766 12.9353L10.8182 10.4248C11.4709 9.77209 12.5291 9.77209 13.1818 10.4248L17.0349 14.2779L18.3846 12.9283ZM15.6207 15.6922L12 12.0714L9.72188 14.3495L13.3426 17.9703L15.6207 15.6922ZM14.3566 7.97188C14.3566 7.04883 15.1049 6.30055 16.0279 6.30055C16.951 6.30055 17.6993 7.04883 17.6993 7.97188C17.6993 8.89493 16.951 9.64321 16.0279 9.64321C15.1049 9.64321 14.3566 8.89493 14.3566 7.97188Z" fill="#4D495E"/>
</svg>
