<svg width="24" height="24" viewBox="0 0 24 24" fill="none" xmlns="http://www.w3.org/2000/svg">
<path fill-rule="evenodd" clip-rule="evenodd" d="M12.348 5.29358C12.1289 5.18404 11.8711 5.18404 11.652 5.29358L4.45585 8.89164L11.652 12.4897C11.8711 12.5992 12.1289 12.5992 12.348 12.4897L19.5441 8.89164L12.348 5.29358ZM19.8911 10.9542L19.2238 11.2879V16.1656C19.2238 17.277 18.5615 18.2814 17.5399 18.7192L13.0944 20.6245C12.3955 20.924 11.6045 20.924 10.9056 20.6245L6.46005 18.7192C5.43855 18.2814 4.77623 17.277 4.77623 16.1656V11.2879L2.56782 10.1837C1.50311 9.65134 1.50311 8.13195 2.56782 7.59959L10.7575 3.50473C11.5397 3.11366 12.4603 3.11366 13.2425 3.50473L21.4322 7.59959C22.3117 8.03936 22.4647 9.15267 21.8911 9.82673V13.7817C21.8911 14.334 21.4434 14.7817 20.8911 14.7817C20.3388 14.7817 19.8911 14.334 19.8911 13.7817V10.9542ZM6.77623 12.2879V16.1656C6.77623 16.4769 6.96175 16.7583 7.24789 16.8809L11.6934 18.7862C11.8892 18.8701 12.1108 18.8701 12.3066 18.7862L16.7521 16.8809C17.0382 16.7583 17.2238 16.4769 17.2238 16.1656V12.2879L13.2425 14.2786C12.4603 14.6696 11.5397 14.6696 10.7575 14.2786L6.77623 12.2879Z" fill="#4D495E"/>
</svg>
