<svg width="24" height="24" viewBox="0 0 24 24" fill="none" xmlns="http://www.w3.org/2000/svg">
<path fill-rule="evenodd" clip-rule="evenodd" d="M6.16146 2H17.8385C18.3657 1.99998 18.8205 1.99997 19.195 2.03057C19.5904 2.06287 19.9836 2.13419 20.362 2.32698C20.9265 2.6146 21.3854 3.07355 21.673 3.63803C21.8658 4.01641 21.9371 4.40963 21.9694 4.80497C22 5.17954 22 5.6343 22 6.16144V14.8386C22 15.3657 22 15.8205 21.9694 16.195C21.9371 16.5904 21.8658 16.9836 21.673 17.362C21.3854 17.9265 20.9265 18.3854 20.362 18.673C19.9836 18.8658 19.5904 18.9371 19.195 18.9694C18.8205 19 18.3657 19 17.8386 19H14.4142L15.7071 20.2929C16.0976 20.6834 16.0976 21.3166 15.7071 21.7071C15.3166 22.0976 14.6834 22.0976 14.2929 21.7071L12 19.4142L9.70711 21.7071C9.31658 22.0976 8.68342 22.0976 8.2929 21.7071C7.90237 21.3166 7.90237 20.6834 8.2929 20.2929L9.58579 19H6.16144C5.6343 19 5.17954 19 4.80497 18.9694C4.40963 18.9371 4.01641 18.8658 3.63803 18.673C3.07354 18.3854 2.6146 17.9265 2.32698 17.362C2.13419 16.9836 2.06287 16.5904 2.03057 16.195C1.99997 15.8205 1.99998 15.3657 2 14.8385V6.16146C1.99998 5.63431 1.99997 5.17955 2.03057 4.80497C2.06287 4.40963 2.13419 4.01641 2.32698 3.63803C2.6146 3.07354 3.07354 2.6146 3.63803 2.32698C4.01641 2.13419 4.40963 2.06287 4.80497 2.03057C5.17955 1.99997 5.63431 1.99998 6.16146 2ZM4.96784 4.02393C4.69617 4.04612 4.59546 4.0838 4.54601 4.109C4.35785 4.20487 4.20487 4.35785 4.109 4.54601C4.0838 4.59546 4.04612 4.69617 4.02393 4.96784C4.00078 5.25117 4 5.62345 4 6.2V14.8C4 15.3766 4.00078 15.7488 4.02393 16.0322C4.04612 16.3038 4.0838 16.4045 4.109 16.454C4.20487 16.6422 4.35785 16.7951 4.54601 16.891C4.59546 16.9162 4.69617 16.9539 4.96784 16.9761C5.25117 16.9992 5.62345 17 6.2 17H17.8C18.3766 17 18.7488 16.9992 19.0322 16.9761C19.3038 16.9539 19.4045 16.9162 19.454 16.891C19.6422 16.7951 19.7951 16.6422 19.891 16.454C19.9162 16.4045 19.9539 16.3038 19.9761 16.0322C19.9992 15.7488 20 15.3766 20 14.8V6.2C20 5.62345 19.9992 5.25118 19.9761 4.96784C19.9539 4.69617 19.9162 4.59546 19.891 4.54601C19.7951 4.35785 19.6422 4.20487 19.454 4.109C19.4045 4.0838 19.3038 4.04612 19.0322 4.02393C18.7488 4.00078 18.3766 4 17.8 4H6.2C5.62345 4 5.25117 4.00078 4.96784 4.02393ZM16.5983 7.19872C17.0408 7.52915 17.1317 8.15576 16.8013 8.59829L14.1861 12.1008C13.8605 12.5368 13.265 12.6693 12.7853 12.4123L10.8727 11.3877L8.73106 13.6823C8.35422 14.0861 7.72143 14.1079 7.31768 13.7311C6.91393 13.3542 6.89211 12.7214 7.26895 12.3177L9.88311 9.51679C10.2236 9.15203 10.7669 9.06209 11.2067 9.29771L13.0469 10.2836L15.1987 7.40171C15.5291 6.95918 16.1558 6.8683 16.5983 7.19872Z" fill="#4D495E"/>
</svg>
