<svg width="20" height="20" viewBox="0 0 20 20" fill="none" xmlns="http://www.w3.org/2000/svg">
<path fill-rule="evenodd" clip-rule="evenodd" d="M5.12963 1.5C5.14194 1.5 5.15428 1.5 5.16667 1.5L14.8704 1.5C15.3054 1.49998 15.6904 1.49996 16.0094 1.52603C16.3492 1.55379 16.7012 1.61602 17.044 1.79065C17.5457 2.04631 17.9537 2.45426 18.2094 2.95603C18.384 3.29876 18.4462 3.65081 18.474 3.99057C18.5 4.30963 18.5 4.69461 18.5 5.12961V12.3704C18.5 12.8054 18.5 13.1904 18.474 13.5094C18.4462 13.8492 18.384 14.2012 18.2094 14.544C17.9537 15.0457 17.5457 15.4537 17.044 15.7094C16.7012 15.884 16.3492 15.9462 16.0094 15.974C15.6904 16 15.3054 16 14.8704 16L12.4142 16L13.2071 16.7929C13.5976 17.1834 13.5976 17.8166 13.2071 18.2071C12.8166 18.5976 12.1834 18.5976 11.7929 18.2071L10 16.4142L8.20711 18.2071C7.81658 18.5976 7.18342 18.5976 6.7929 18.2071C6.40237 17.8166 6.40237 17.1834 6.7929 16.7929L7.58579 16L5.12965 16C4.69464 16 4.30964 16 3.99057 15.974C3.65081 15.9462 3.29876 15.884 2.95603 15.7094C2.45426 15.4537 2.04631 15.0457 1.79065 14.544C1.61602 14.2012 1.55379 13.8492 1.52603 13.5094C1.49996 13.1904 1.49998 12.8054 1.5 12.3704L1.5 5.16667C1.5 5.15428 1.5 5.14194 1.5 5.12963C1.49998 4.69462 1.49996 4.30963 1.52603 3.99057C1.55379 3.65081 1.61602 3.29876 1.79065 2.95603C2.04631 2.45426 2.45426 2.04631 2.95603 1.79065C3.29876 1.61602 3.65081 1.55379 3.99057 1.52603C4.30963 1.49996 4.69462 1.49998 5.12963 1.5ZM4.15344 3.51939C3.93736 3.53704 3.8778 3.56564 3.86401 3.57266C3.73857 3.63658 3.63658 3.73857 3.57266 3.86401C3.56564 3.8778 3.53704 3.93736 3.51939 4.15344C3.50078 4.38119 3.5 4.68346 3.5 5.16667V12.3333C3.5 12.8165 3.50078 13.1188 3.51939 13.3466C3.53704 13.5626 3.56564 13.6222 3.57266 13.636C3.63658 13.7614 3.73857 13.8634 3.86401 13.9273C3.8778 13.9344 3.93736 13.963 4.15344 13.9806C4.38119 13.9992 4.68346 14 5.16667 14H14.8333C15.3165 14 15.6188 13.9992 15.8466 13.9806C16.0626 13.963 16.1222 13.9344 16.136 13.9273C16.2614 13.8634 16.3634 13.7614 16.4273 13.636C16.4344 13.6222 16.463 13.5626 16.4806 13.3466C16.4992 13.1188 16.5 12.8165 16.5 12.3333V5.16667C16.5 4.68346 16.4992 4.38119 16.4806 4.15344C16.463 3.93736 16.4344 3.8778 16.4273 3.86401C16.3634 3.73857 16.2614 3.63658 16.136 3.57266C16.1222 3.56564 16.0626 3.53704 15.8466 3.51939C15.6188 3.50078 15.3165 3.5 14.8333 3.5H5.16667C4.68346 3.5 4.38119 3.50078 4.15344 3.51939Z" fill="#201E26"/>
<path fill-rule="evenodd" clip-rule="evenodd" d="M9.33325 8.06251V9.43778L10.3025 8.75015L9.33325 8.06251ZM8.23731 5.81124C8.71018 5.59649 9.32159 5.60203 9.82755 5.96099L12.0232 7.51872C12.881 8.12732 12.881 9.37298 12.0232 9.98158L9.82755 11.5393C9.32159 11.8983 8.71018 11.9038 8.23731 11.6891C7.76202 11.4732 7.33325 10.9836 7.33325 10.3079V7.19242C7.33325 6.51673 7.76202 6.02709 8.23731 5.81124Z" fill="#201E26"/>
</svg>
