<svg width="24" height="24" viewBox="0 0 24 24" fill="none" xmlns="http://www.w3.org/2000/svg">
<path fill-rule="evenodd" clip-rule="evenodd" d="M5.63853 10.2344C6.02818 10.6258 6.02677 11.259 5.63538 11.6486C3.78088 13.4949 3.78408 16.5017 5.63853 18.3644C7.48479 20.2189 10.4916 20.2157 12.3543 18.3613C14.2108 16.513 14.2131 13.5074 12.3527 11.647C11.9622 11.2565 11.9622 10.6234 12.3527 10.2328C12.7433 9.84231 13.3764 9.84231 13.767 10.2328C16.4066 12.8725 16.4089 17.1469 13.7654 19.7786C11.1281 22.4042 6.85491 22.421 4.22117 19.7755C1.59561 17.1382 1.57882 12.865 4.22432 10.2313C4.61571 9.84161 5.24887 9.84302 5.63853 10.2344Z" fill="white"/>
<path fill-rule="evenodd" clip-rule="evenodd" d="M18.3744 5.6285C16.4118 3.67426 13.245 3.67077 11.2986 5.62548C9.34626 7.58614 9.34842 10.7541 11.2971 12.7028C11.6876 13.0933 11.6876 13.7265 11.2971 14.117C10.9065 14.5075 10.2734 14.5075 9.88285 14.117C7.1515 11.3856 7.15366 6.95363 9.88135 4.21429C12.615 1.469 17.0481 1.48551 19.7856 4.21127C22.5308 6.94488 22.5143 11.3781 19.7886 14.1155C19.3989 14.5068 18.7657 14.5082 18.3744 14.1185C17.983 13.7288 17.9817 13.0956 18.3713 12.7043C20.3256 10.7417 20.3291 7.57489 18.3744 5.6285Z" fill="white"/>
</svg>
