<svg width="200" height="200" viewBox="0 0 200 200" fill="none" xmlns="http://www.w3.org/2000/svg">
<path opacity="0.5" fill-rule="evenodd" clip-rule="evenodd" d="M98.7616 66.829L97.1523 68.658L94.3809 74.158L91.6104 79.658L91.1465 87.408L90.6826 95.158H100.433H110.183L109.617 87.668L109.052 80.178L106.626 74.918L104.199 69.658L102.284 67.329L100.37 65L98.7616 66.829ZM65 82.48V85.802L66.5903 90.48L68.1805 95.158H79.1288H90.077L87.9979 92.232L85.9198 89.305L81.0532 85.725L76.1877 82.145L71.9646 80.651L67.7425 79.158H66.3708H65V82.48ZM127.211 81.24L122.079 83.218L117.464 87.29L112.848 91.362L111.835 93.26L110.822 95.158H121.68H132.537L134.185 90.043L135.833 84.928V82.043V79.158L134.087 79.21L132.342 79.262L127.211 81.24ZM69.9883 98.036V98.913L71.356 100.051L72.7248 101.19L101.023 100.924L129.322 100.658L129.658 98.908L129.994 97.158H99.9907H69.9883V98.036ZM74.9765 104.658L76.2186 106.158H100.417H124.615L125.857 104.658L127.099 103.158H100.417H73.7344L74.9765 104.658ZM80.9624 109.035V109.912L85.7013 111.941L90.4401 113.971L92.9343 114.315L95.4284 114.658L95.3286 113.408L95.2289 112.158L95.0792 110.158L94.9296 108.158H87.946H80.9624V109.035ZM95.9272 109.081V109.888L98.1051 112.663L100.282 115.438L102.59 112.548L104.896 109.658L104.901 112.427L104.906 115.196L107.65 114.519L110.393 113.843L114.523 112.083L118.654 110.324L119.311 109.256L119.97 108.189L107.949 108.231L95.9272 108.274V109.081ZM88.6324 118.804L87.946 119.491V121.158V122.825H84.8114H81.6778L80.3219 124.682L78.9671 126.54V129.194V131.848L80.7918 133.503L82.6156 135.158H87.3165H92.0174L91.7271 126.988L91.4378 118.819L90.3783 118.468L89.3178 118.116L88.6324 118.804ZM92.9343 126.658V135.158H94.4307H95.9272V126.658V118.158H94.4307H92.9343V126.658ZM106.901 120.677V123.196L104.614 122.621L102.325 122.045L99.6255 124.174L96.9249 126.303V128.508V130.713L98.4643 132.917L100.005 135.12L104.949 135.008L109.894 134.897V126.527V118.158H108.398H106.901V120.677ZM68.9906 122.89L67.4941 123.388L66.2471 124.964L65 126.54V129.194V131.848L66.8247 133.503L68.6484 135.158H73.3563H78.0643L77.768 128.951L77.4707 122.744L73.9789 122.568L70.4871 122.393L68.9906 122.89ZM113.348 124.367L110.892 126.303V128.508V130.713L112.445 132.935L113.998 135.158H118.93H123.861V128.794V122.431H119.833H115.803L113.348 124.367ZM127.65 122.838L125.951 123.287L125.34 125.213L124.73 127.14L125.37 128.177L126.009 129.215L129.176 130.652L132.342 132.09L128.6 131.512L124.859 130.935V131.847V132.758L126.056 133.958L127.254 135.158H130.346H133.439L134.636 133.958L135.833 132.758V131.008V129.257L134.087 128.238L132.342 127.219L133.589 127.188L134.836 127.158V125.693V124.228L132.906 123.193L130.976 122.158L130.163 122.274L129.349 122.39L127.65 122.838ZM73.7993 128.912L74.1185 131.167L72.4754 131.799L70.8313 132.431L69.2759 130.872L67.7206 129.313L68.3511 127.665L68.9816 126.018L71.2313 126.338L73.48 126.658L73.7993 128.912ZM87.7664 128.912L88.0857 131.167L86.4425 131.799L84.7984 132.431L83.2431 130.872L81.6877 129.313L82.3182 127.665L82.9488 126.018L85.1985 126.338L87.4472 126.658L87.7664 128.912ZM106.403 128.549V130.44L104.598 131.549L102.794 132.658L101.424 130.811L100.055 128.964L100.612 127.507L101.17 126.05L103.787 126.354L106.403 126.658V128.549ZM120.28 127.785L120.903 129.411L119.766 130.785L118.629 132.158H117.29H115.95L115.052 130.408L114.154 128.658L114.601 127.408L115.049 126.158H117.353H119.657L120.28 127.785Z" fill="white"/>
</svg>
