<svg width="20" height="20" viewBox="0 0 20 20" fill="none" xmlns="http://www.w3.org/2000/svg">
<path d="M2.65617 10C2.65617 10.1243 2.70556 10.2436 2.79347 10.3315C2.88138 10.4194 3.0006 10.4688 3.12492 10.4688H15.7429L10.9187 15.2938C10.8726 15.3367 10.8357 15.3884 10.8101 15.4459C10.7844 15.5034 10.7707 15.5655 10.7696 15.6285C10.7684 15.6914 10.78 15.7539 10.8036 15.8123C10.8272 15.8706 10.8623 15.9237 10.9068 15.9682C10.9513 16.0127 11.0043 16.0478 11.0627 16.0714C11.121 16.0949 11.1836 16.1065 11.2465 16.1054C11.3094 16.1043 11.3715 16.0905 11.429 16.0649C11.4865 16.0393 11.5383 16.0023 11.5812 15.9563L17.2062 10.3313C17.294 10.2434 17.3433 10.1242 17.3433 10C17.3433 9.87581 17.294 9.75667 17.2062 9.66878L11.5812 4.04378C11.4923 3.96098 11.3748 3.9159 11.2533 3.91804C11.1319 3.92018 11.016 3.96938 10.9302 4.05526C10.8443 4.14115 10.7951 4.25701 10.7929 4.37845C10.7908 4.49989 10.8359 4.61742 10.9187 4.70628L15.7429 9.53128H3.12492C3.0006 9.53128 2.88138 9.58066 2.79347 9.66857C2.70556 9.75648 2.65617 9.87571 2.65617 10Z" fill="black"/>
</svg>
