<svg width="111" height="45" viewBox="0 0 111 45" fill="none" xmlns="http://www.w3.org/2000/svg">
<g clip-path="url(#clip0_931_1838)">
<path d="M19.2577 28.4473C19.5103 28.4512 19.8326 28.5201 20.1108 28.7603C20.3911 29.0022 20.5062 29.3138 20.5443 29.5682L20.5454 29.5755L20.5464 29.5828C21.0717 33.4882 20.0031 36.6708 17.2307 38.9279C14.2503 41.3531 9.88087 41.8654 6.53652 39.8144L5.7694 39.2851C3.35878 37.4424 2.40187 35.1051 2.05198 32.6726C1.81006 30.9908 1.85506 29.165 1.8974 27.4466C1.91512 26.7276 1.93238 26.0274 1.92795 25.3645L1.92794 25.3627C1.91299 22.3211 2.43631 19.5436 3.97849 17.4548C5.54638 15.3311 8.03912 14.0872 11.5808 13.8549C11.8479 13.8064 11.9241 13.6992 11.9566 13.6374C12.0092 13.5378 12.0456 13.3451 11.9718 13.0801C11.821 12.538 11.3364 12.0879 10.6782 12.1171C6.31281 12.3222 2.34388 15.2368 0.864615 19.1649C0.4598 20.2438 0.17927 22.0331 0.0669817 24.5999C0.0665965 24.6087 0.0663493 24.6183 0.066122 24.6271L0.0653333 24.6521L0.0113478 26.7889C-0.02653 29.5988 0.0310979 31.6368 0.174012 32.9255C0.857588 39.1106 6.57494 43.7209 12.6786 42.8514C16.2876 42.3374 18.794 40.6745 20.3923 38.337C22.0078 35.9744 22.7515 32.8376 22.6401 29.3185L22.64 29.3164C22.6356 29.1663 22.6323 29.0249 22.6291 28.8904C22.6206 28.5317 22.6132 28.222 22.5897 27.9277C22.5579 27.5286 22.5022 27.2677 22.425 27.091C22.3603 26.9426 22.2831 26.8565 22.1579 26.7878C22.0078 26.7056 21.7229 26.6146 21.1911 26.6037C17.0327 26.5181 12.8738 26.4952 8.71455 26.5295L8.71309 26.5295C7.71987 26.5362 7.42621 27.127 7.43436 27.4753C7.43883 27.6665 7.52124 27.878 7.74575 28.0585C7.97666 28.2442 8.41815 28.4404 9.18464 28.4357C12.539 28.4185 15.8947 28.4214 19.2497 28.4472L19.2577 28.4473Z" fill="#DADADA"/>
<path d="M44.5429 41.1765L44.5479 41.1776L44.5666 41.188C45.1511 41.5153 45.257 41.9808 45.1937 42.2696C45.1385 42.5219 44.9028 42.8708 44.194 42.8726C39.5449 42.883 35.3811 39.8974 33.8066 35.6554C33.3985 34.5507 33.1612 32.6967 33.1641 29.9945C33.167 24.9915 33.1147 19.9904 33.0014 14.9895C32.9962 14.6946 33.0037 14.1413 33.0486 13.6C33.0711 13.3287 33.1017 13.0765 33.1407 12.8692C33.1601 12.7661 33.1798 12.6834 33.1984 12.6205C33.2147 12.5657 33.2259 12.5402 33.2279 12.5357V12.5357L33.2295 12.5325C33.4167 12.1756 33.6048 12.0625 33.7097 12.0253C33.8169 11.9873 33.958 11.9852 34.1348 12.0677C34.5109 12.2432 34.9403 12.775 34.9467 13.5626C34.9728 18.5928 34.9757 23.6282 34.9496 28.6633C34.9351 31.6649 35.1754 33.9651 35.761 35.4248C36.4609 37.176 37.5625 38.5611 39.0691 39.5366C40.5659 40.5059 42.4058 41.0347 44.5365 41.176L44.5429 41.1765Z" fill="#DADADA"/>
<path fill-rule="evenodd" clip-rule="evenodd" d="M77.5264 21.6704C77.8786 23.9575 77.8317 26.4418 77.7811 29.1253C77.7649 29.9858 77.7482 30.8671 77.7443 31.7686C77.7273 35.4107 76.3409 38.104 74.3047 39.9175C72.2498 41.7474 69.4803 42.7259 66.6604 42.8042C63.8399 42.8825 61.0385 42.0582 58.9224 40.3732C56.8989 38.762 55.4538 36.328 55.2227 32.9996L55.1509 31.4677C55.0616 29.4904 54.9635 27.3166 55.0136 25.2056C55.0743 22.6511 55.3521 20.3214 56.0547 18.6364L56.0556 18.6344C58.7689 12.0865 67.5327 10.141 73.397 14.3995C75.9721 16.2666 77.0729 18.7261 77.5264 21.6704ZM75.6918 22.7487L75.7092 32.2997V32.3138C75.7092 37.1191 71.7687 40.9938 66.9306 41.0003L65.8964 41.0031H65.8821C61.0442 41.0031 57.0975 37.1346 57.0877 32.3297L57.0732 22.7784V22.7673C57.0732 17.9627 60.9587 14.0867 65.7969 14.0798L66.8974 14.0751C71.7346 14.0751 75.6853 17.9426 75.6918 22.7487Z" fill="#DADADA"/>
<path d="M86.7903 35.9153C89.9397 44.1579 101.226 45.2265 106.43 38.2363C109.111 34.6371 109.108 30.4744 107.348 27.1024C105.578 23.7142 102.035 21.136 97.6375 20.8063C96.7001 20.7372 96.3513 21.262 96.3095 21.6255C96.2864 21.8255 96.3417 22.0216 96.484 22.1818C96.6246 22.3402 96.9186 22.5376 97.4958 22.5907L97.4969 22.5908C101.268 22.9417 104.291 25.1592 105.727 28.0941C107.175 31.0538 106.985 34.7055 104.412 37.7683C99.9749 43.0446 91.1336 41.7904 88.6058 35.3082C88.0006 33.2464 87.882 31.8258 87.8672 29.0248C87.8759 23.87 87.873 18.7147 87.8585 13.5599C87.8542 12.3575 87.2139 12.0584 86.9197 12.0473C86.7453 12.0408 86.5583 12.1052 86.3977 12.2864C86.2336 12.4715 86.0472 12.8411 86.041 13.503C85.9888 18.9024 85.986 24.3022 86.0352 29.7042C86.0641 32.6957 86.3385 34.7326 86.7903 35.9153Z" fill="#DADADA"/>
<path d="M0.675781 -0.00878906H1.77292L3.70558 5.08027L5.57073 -0.00878906H6.67631V6.00018H5.92519V0.987079L4.04317 6.00018H3.35112L1.43534 0.987079V6.00018H0.675781V-0.00878906Z" fill="#DADADA"/>
<path d="M15.5555 -0.00878906V0.683255H12.1881V2.56528H15.3361V3.232H12.1881V5.30813H15.5977V6.00018H11.3948V-0.00878906H15.5555Z" fill="#DADADA"/>
<path d="M19.93 -0.00878906H21.888C22.9063 -0.00878906 23.6575 0.227519 24.1413 0.700134C24.6252 1.17275 24.8671 1.92106 24.8671 2.94506C24.8671 3.95218 24.6421 4.71455 24.192 5.23218C23.7418 5.74418 23.0217 6.00018 22.0314 6.00018H19.93V-0.00878906ZM20.7233 0.674815V5.31657H21.9302C22.6841 5.31657 23.2298 5.13372 23.5674 4.768C23.9106 4.39666 24.0822 3.81996 24.0822 3.03789C24.0822 2.21644 23.9163 1.61723 23.5843 1.24027C23.2524 0.863299 22.6897 0.674815 21.8964 0.674815H20.7233Z" fill="#DADADA"/>
<path d="M30.0752 -0.00878906V6.00018H29.2819V-0.00878906H30.0752Z" fill="#DADADA"/>
<path d="M37.3314 -0.00878906L39.6776 6.00018H38.7915L38.1248 4.16035H35.6013L34.9177 6.00018H34.0738L36.4368 -0.00878906H37.3314ZM37.8884 3.52739L36.8673 0.750771L35.8292 3.52739H37.8884Z" fill="#DADADA"/>
</g>
<defs>
<clipPath id="clip0_931_1838">
<rect width="111" height="45" fill="white"/>
</clipPath>
</defs>
</svg>
