<svg width="24" height="24" viewBox="0 0 24 24" fill="none" xmlns="http://www.w3.org/2000/svg">
<path fill-rule="evenodd" clip-rule="evenodd" d="M6.60827 2.69238H17.3918C17.8763 2.69236 18.2989 2.69235 18.6478 2.72086C19.0175 2.75106 19.3918 2.81819 19.7537 3.0026C20.2892 3.27547 20.7246 3.71087 20.9975 4.24641C21.1819 4.60834 21.249 4.98256 21.2792 5.35225C21.3077 5.70119 21.3077 6.12374 21.3077 6.6083V12.7765C21.3077 13.261 21.3077 13.6836 21.2792 14.0325C21.249 14.4022 21.1819 14.7764 20.9975 15.1384C20.7246 15.6739 20.2892 16.1093 19.7537 16.3822C19.3918 16.5666 19.0175 16.6337 18.6478 16.6639C18.2989 16.6924 17.8764 16.6924 17.3918 16.6924L13 16.6924V19.3078H17.5385C18.0908 19.3078 18.5385 19.7555 18.5385 20.3078C18.5385 20.8601 18.0908 21.3078 17.5385 21.3078H6.46155C5.90927 21.3078 5.46155 20.8601 5.46155 20.3078C5.46155 19.7555 5.90927 19.3078 6.46155 19.3078H11V16.6924L6.60824 16.6924C6.12368 16.6924 5.70113 16.6924 5.35219 16.6639C4.9825 16.6337 4.60828 16.5666 4.24635 16.3822C3.71081 16.1093 3.27541 15.6739 3.00254 15.1384C2.81813 14.7764 2.751 14.4022 2.7208 14.0325C2.69229 13.6836 2.6923 13.261 2.69232 12.7764V6.60833C2.6923 6.12375 2.69229 5.7012 2.7208 5.35225C2.751 4.98256 2.81813 4.60834 3.00254 4.24641C3.27541 3.71087 3.71081 3.27547 4.24635 3.0026C4.60828 2.81819 4.9825 2.75106 5.35219 2.72086C5.70114 2.69235 6.12369 2.69236 6.60827 2.69238ZM17.3539 14.6924C17.8873 14.6924 18.2273 14.6916 18.485 14.6706C18.731 14.6505 18.8127 14.617 18.8457 14.6002C19.0049 14.519 19.1344 14.3896 19.2155 14.2304C19.2323 14.1974 19.2658 14.1157 19.2859 13.8697C19.3069 13.612 19.3077 13.272 19.3077 12.7385V6.64623C19.3077 6.11276 19.3069 5.7728 19.2859 5.51511C19.2658 5.2691 19.2323 5.18738 19.2155 5.15439C19.1344 4.99518 19.0049 4.86573 18.8457 4.78461C18.8127 4.7678 18.731 4.73432 18.485 4.71422C18.2273 4.69316 17.8873 4.69238 17.3539 4.69238H6.64617C6.1127 4.69238 5.77273 4.69316 5.51505 4.71422C5.26904 4.73432 5.18732 4.7678 5.15433 4.78461C4.99512 4.86573 4.86567 4.99518 4.78455 5.15439C4.76774 5.18738 4.73425 5.2691 4.71415 5.51511C4.6931 5.7728 4.69232 6.11276 4.69232 6.64623V12.7385C4.69232 13.272 4.6931 13.612 4.71415 13.8697C4.73425 14.1157 4.76774 14.1974 4.78455 14.2304C4.86567 14.3896 4.99512 14.519 5.15433 14.6002C5.18732 14.617 5.26904 14.6505 5.51505 14.6706C5.77273 14.6916 6.1127 14.6924 6.64617 14.6924H17.3539Z" fill="#A78E8E"/>
</svg>
