<svg width="24" height="24" viewBox="0 0 24 24" fill="none" xmlns="http://www.w3.org/2000/svg">
<path fill-rule="evenodd" clip-rule="evenodd" d="M6.14641 5.46143H13.2376C13.7222 5.46141 14.1447 5.46139 14.4937 5.4899C14.8634 5.52011 15.2376 5.58723 15.5995 5.77164C16.1351 6.04451 16.5705 6.47992 16.8433 7.01545C16.9367 7.19879 17.0001 7.38528 17.0437 7.57274C17.4791 7.42951 17.862 7.30968 18.193 7.23145C18.6455 7.12452 19.1253 7.06226 19.6159 7.18545C20.3209 7.36248 20.9315 7.80254 21.3224 8.41539C21.5944 8.84186 21.6871 9.31679 21.7287 9.77982C21.769 10.2276 21.769 10.7843 21.7689 11.438V12.5618C21.769 13.2154 21.769 13.7722 21.7287 14.22C21.6871 14.683 21.5944 15.1579 21.3224 15.5844C20.9315 16.1972 20.3209 16.6373 19.6159 16.8143C19.1253 16.9375 18.6455 16.8753 18.193 16.7683C17.862 16.6901 17.4791 16.5703 17.0437 16.427C17.0001 16.6145 16.9367 16.801 16.8433 16.9843C16.5705 17.5199 16.1351 17.9553 15.5995 18.2281C15.2376 18.4125 14.8634 18.4797 14.4937 18.5099C14.1447 18.5384 13.7222 18.5384 13.2376 18.5384H6.14643C5.66185 18.5384 5.23929 18.5384 4.89033 18.5099C4.52064 18.4797 4.14642 18.4125 3.7845 18.2281C3.24896 17.9553 2.81355 17.5199 2.54068 16.9843C2.35627 16.6224 2.28915 16.2482 2.25894 15.8785C2.23043 15.5295 2.23045 15.107 2.23047 14.6224V9.37737C2.23045 8.89279 2.23043 8.47024 2.25894 8.12129C2.28915 7.7516 2.35627 7.37738 2.54068 7.01545C2.81355 6.47992 3.24896 6.04451 3.7845 5.77164C4.14642 5.58723 4.52064 5.52011 4.89033 5.4899C5.23928 5.46139 5.66183 5.46141 6.14641 5.46143ZM17.1535 14.3561L17.1972 14.3706C17.8714 14.5953 18.3136 14.7417 18.653 14.822C18.9875 14.901 19.097 14.8825 19.1289 14.8745C19.3384 14.8219 19.52 14.6911 19.6362 14.5089C19.6538 14.4812 19.706 14.3832 19.7367 14.0409C19.768 13.6935 19.7689 13.2277 19.7689 12.517V11.4827C19.7689 10.7721 19.768 10.3063 19.7367 9.95893C19.706 9.61659 19.6538 9.51855 19.6362 9.49089C19.52 9.30869 19.3384 9.17786 19.1289 9.12523C19.097 9.11724 18.9875 9.09877 18.653 9.17783C18.3136 9.25805 17.8714 9.40444 17.1972 9.62917L17.1535 9.64373V14.3561ZM5.0532 7.48326C4.80719 7.50336 4.72547 7.53684 4.69248 7.55365C4.53326 7.63478 4.40382 7.76422 4.3227 7.92344C4.30589 7.95642 4.2724 8.03815 4.2523 8.28416C4.23125 8.54184 4.23047 8.8818 4.23047 9.41527V14.5845C4.23047 15.118 4.23125 15.4579 4.2523 15.7156C4.2724 15.9616 4.30589 16.0434 4.3227 16.0763C4.40382 16.2356 4.53326 16.365 4.69248 16.4461C4.72547 16.4629 4.80719 16.4964 5.0532 16.5165C5.31088 16.5376 5.65084 16.5384 6.18432 16.5384H13.1997C13.7332 16.5384 14.0731 16.5376 14.3308 16.5165C14.5768 16.4964 14.6586 16.4629 14.6915 16.4461C14.8508 16.365 14.9802 16.2356 15.0613 16.0763C15.0781 16.0434 15.1116 15.9616 15.1317 15.7156C15.1528 15.4579 15.1535 15.118 15.1535 14.5845V9.41527C15.1535 8.8818 15.1528 8.54184 15.1317 8.28416C15.1116 8.03815 15.0781 7.95642 15.0613 7.92344C14.9802 7.76422 14.8508 7.63478 14.6915 7.55365C14.6586 7.53684 14.5768 7.50336 14.3308 7.48326C14.0731 7.46221 13.7332 7.46143 13.1997 7.46143H6.18432C5.65084 7.46143 5.31088 7.46221 5.0532 7.48326Z" fill="#4D495E"/>
</svg>
