<svg width="24" height="24" viewBox="0 0 24 24" fill="none" xmlns="http://www.w3.org/2000/svg">
<g clip-path="url(#clip0_901_5829)">
<path d="M21.8216 16.473C21.7678 16.383 21.4353 15.6605 19.8352 14.1754C18.1601 12.6203 18.3851 12.8728 20.4027 10.1838C21.6316 8.5462 22.1229 7.54613 21.9691 7.11859C21.8228 6.71106 20.919 6.81857 20.919 6.81857L17.9138 6.83607C17.9138 6.83607 17.6913 6.80607 17.525 6.90483C17.3638 7.00234 17.26 7.22735 17.26 7.22735C17.26 7.22735 16.7837 8.49495 16.1487 9.57253C14.8098 11.8464 14.2735 11.9665 14.0548 11.8252C13.546 11.4964 13.6735 10.5026 13.6735 9.79754C13.6735 7.59363 14.0073 6.67481 13.0222 6.43729C12.6947 6.35854 12.4547 6.30603 11.6183 6.29728C10.5458 6.28603 9.63694 6.30103 9.12316 6.5523C8.78063 6.71982 8.51686 7.09359 8.67812 7.11484C8.87689 7.1411 9.32692 7.2361 9.56569 7.56113C9.87446 7.97991 9.86321 8.92248 9.86321 8.92248C9.86321 8.92248 10.0407 11.5164 9.44943 11.8389C9.04315 12.0602 8.48686 11.6089 7.29302 9.54502C6.68173 8.4887 6.21919 7.31986 6.21919 7.31986C6.21919 7.31986 6.13044 7.10234 5.97168 6.98609C5.77916 6.84482 5.50914 6.79982 5.50914 6.79982L2.65143 6.81732C2.65143 6.81732 2.22265 6.82982 2.06514 7.01609C1.92513 7.18235 2.05389 7.52487 2.05389 7.52487C2.05389 7.52487 4.29155 12.759 6.82424 15.398C9.14816 17.8169 11.7859 17.6581 11.7859 17.6581H12.9809C12.9809 17.6581 13.3422 17.6181 13.526 17.4194C13.696 17.2368 13.6897 16.8943 13.6897 16.8943C13.6897 16.8943 13.666 15.2905 14.411 15.0542C15.1448 14.8217 16.0874 16.6043 17.0862 17.2906C17.8413 17.8094 18.4151 17.6956 18.4151 17.6956L21.0865 17.6581C21.0865 17.6581 22.4841 17.5719 21.8216 16.473Z" fill="#948FA8"/>
</g>
<defs>
<clipPath id="clip0_901_5829">
<rect width="20" height="20" fill="white" transform="translate(2 2)"/>
</clipPath>
</defs>
</svg>
