<svg width="200" height="200" viewBox="0 0 200 200" fill="none" xmlns="http://www.w3.org/2000/svg">
<path d="M111.956 78.5586H87.9805V121.643H111.956V78.5586Z" fill="#FF5F00"/>
<path d="M89.5029 100.101C89.4992 95.9512 90.4394 91.8554 92.2526 88.1232C94.0657 84.391 96.7042 81.1202 99.9682 78.5584C95.9261 75.3812 91.0717 73.4054 85.9597 72.8567C80.8478 72.308 75.6846 73.2086 71.0603 75.4557C66.436 77.7027 62.5372 81.2054 59.8095 85.5635C57.0818 89.9216 55.6353 94.9592 55.6353 100.101C55.6353 105.242 57.0818 110.279 59.8095 114.638C62.5372 118.996 66.436 122.498 71.0603 124.745C75.6846 126.992 80.8478 127.893 85.9597 127.344C91.0717 126.796 95.9261 124.82 99.9682 121.643C96.7042 119.081 94.0657 115.81 92.2526 112.078C90.4395 108.346 89.4992 104.25 89.5029 100.101Z" fill="#EB001B"/>
<path d="M144.3 100.101C144.3 105.242 142.854 110.279 140.126 114.637C137.399 118.996 133.5 122.498 128.876 124.745C124.252 126.992 119.088 127.893 113.977 127.344C108.865 126.796 104.01 124.82 99.9683 121.643C103.229 119.078 105.866 115.807 107.679 112.075C109.492 108.344 110.434 104.249 110.434 100.101C110.434 95.9518 109.492 91.8573 107.679 88.1257C105.866 84.3941 103.229 81.1227 99.9683 78.5584C104.01 75.3812 108.865 73.4053 113.977 72.8567C119.088 72.308 124.252 73.2087 128.876 75.4557C133.5 77.7028 137.399 81.2055 140.126 85.5636C142.854 89.9217 144.3 94.9593 144.3 100.101Z" fill="#F79E1B"/>
<path d="M141.686 117.079V116.197H142.041V116.018H141.136V116.197H141.491V117.079H141.686ZM143.444 117.079V116.016H143.167L142.847 116.747L142.528 116.016H142.25V117.079H142.446V116.277L142.746 116.969H142.949L143.248 116.275V117.079H143.444Z" fill="#F79E1B"/>
</svg>
