<svg width="200" height="200" viewBox="0 0 200 200" fill="none" xmlns="http://www.w3.org/2000/svg">
<mask id="mask0_1176_1812" style="mask-type:luminance" maskUnits="userSpaceOnUse" x="67" y="69" width="65" height="62">
<path d="M132 69H67V130.314H132V69Z" fill="white"/>
</mask>
<g mask="url(#mask0_1176_1812)">
<path fill-rule="evenodd" clip-rule="evenodd" d="M123.382 123.768C121.892 123.53 120.561 123.459 120.561 122.659C120.561 122.35 120.742 122.022 121.034 121.804C121.288 121.603 121.962 121.529 122.418 121.529C122.89 121.529 123.362 121.767 123.654 122.076C123.835 122.293 124.056 122.642 124.089 123.004H126.509C126.455 122.112 126.073 121.238 125.379 120.745C124.706 120.253 123.831 119.653 122.632 119.653C121.486 119.653 120.357 119.69 119.576 120.273C118.792 120.836 118.229 121.784 118.229 122.602C118.229 123.074 118.193 123.64 118.373 123.985C118.574 124.33 119.157 125.041 119.613 125.315C120.25 125.681 121.741 125.825 122.562 126.043C123.235 126.207 124.056 126.244 124.237 126.917C124.347 127.319 124.22 127.681 123.855 127.919C123.51 128.157 122.98 128.318 122.401 128.318C121.801 128.318 121.218 128.137 120.927 127.771C120.672 127.426 120.524 127.098 120.327 126.572H117.908C117.961 127.681 118.581 128.773 119.345 129.393C120.092 129.993 121.091 130.284 122.367 130.284C123.64 130.284 124.749 130.066 125.57 129.484C126.371 128.901 126.807 127.808 126.807 126.917C126.807 126.153 126.589 125.553 126.244 125.078C125.53 124.149 124.257 123.895 123.382 123.768Z" fill="#005497"/>
<path fill-rule="evenodd" clip-rule="evenodd" d="M91.824 129.993H94.2833V119.801H91.824V129.993Z" fill="#005497"/>
<path fill-rule="evenodd" clip-rule="evenodd" d="M91.824 119.11H94.3V116.651H91.824V119.11Z" fill="#005497"/>
<path fill-rule="evenodd" clip-rule="evenodd" d="M88.2423 121.147C87.3309 120.437 86.1683 119.948 84.8951 119.911C84.8583 119.911 84.8214 119.911 84.7678 119.911C81.9467 119.911 79.6549 122.203 79.6549 125.007C79.6549 127.828 81.9467 130.14 84.7678 130.14C84.8214 130.14 84.8583 130.14 84.8951 130.14C86.1683 130.123 87.3343 129.614 88.2255 128.74L88.2423 129.996H90.5709V116.658H88.2423V121.147ZM84.9119 128.046H84.8951C83.2199 128.046 81.8562 126.682 81.8562 125.007C81.8562 123.352 83.2199 121.968 84.8951 121.968H84.9119C86.567 121.968 87.9508 123.335 87.9508 125.007C87.9508 126.679 86.567 128.046 84.9119 128.046Z" fill="#005497"/>
<path fill-rule="evenodd" clip-rule="evenodd" d="M103.49 121.111C102.582 120.4 101.417 119.908 100.143 119.874C100.106 119.874 100.053 119.874 100.016 119.874C97.1949 119.874 94.883 122.186 94.883 124.987C94.883 127.808 97.1949 130.12 100.016 130.12C100.053 130.12 100.106 130.12 100.143 130.12C101.417 130.083 102.562 129.574 103.474 128.699V129.956H105.802V116.634H103.474L103.49 121.111ZM100.143 128.026C98.4681 128.026 97.0843 126.642 97.0843 124.97C97.0843 123.315 98.4681 121.948 100.143 121.948C101.819 121.948 103.199 123.315 103.199 124.97C103.199 126.642 101.819 128.026 100.143 128.026Z" fill="#005497"/>
<path fill-rule="evenodd" clip-rule="evenodd" d="M76.3747 119.801V120.765C75.9023 120.256 75.6845 120.092 75.1384 119.891C74.6459 119.71 73.9724 119.546 73.3191 119.529C73.2822 119.529 73.2454 119.529 73.2085 119.529C72.4245 119.529 71.7343 119.656 71.1144 119.911C70.5147 120.166 69.9484 120.568 69.4392 121.114C68.9835 121.586 68.6216 122.169 68.3469 122.806C68.109 123.443 67.9817 124.099 67.9817 124.806C67.9817 126.354 68.491 127.647 69.5095 128.646C70.5113 129.664 71.7845 130.194 73.3124 130.194C73.3124 130.194 73.3124 130.194 73.3325 130.194C73.9523 130.194 74.6258 130.013 75.1719 129.812C75.718 129.611 76.1167 129.447 76.3714 129.085V130.013L78.7368 129.996L78.7201 119.787L76.3747 119.801ZM73.3358 127.882C73.3157 127.882 73.3157 127.882 73.3157 127.882C71.6405 127.882 70.2935 126.535 70.2935 124.86C70.2935 123.205 71.6405 121.838 73.3157 121.838C73.3157 121.838 73.3157 121.838 73.3358 121.838C74.991 121.838 76.358 123.201 76.358 124.86C76.358 126.535 74.991 127.882 73.3358 127.882Z" fill="#005497"/>
<path fill-rule="evenodd" clip-rule="evenodd" d="M114.973 119.764L114.989 120.729C114.517 120.239 114.279 120.072 113.753 119.854C113.244 119.673 112.587 119.526 111.934 119.509C111.897 119.509 111.86 119.509 111.827 119.509C111.043 119.509 110.352 119.636 109.732 119.874C109.113 120.129 108.55 120.548 108.057 121.074C107.585 121.546 107.22 122.129 106.965 122.786C106.727 123.402 106.583 124.079 106.583 124.786C106.583 126.317 107.109 127.607 108.131 128.626C109.113 129.628 110.406 130.154 111.934 130.154C112.57 130.154 113.244 129.989 113.773 129.772C114.319 129.571 114.738 129.406 114.993 129.045V129.973L117.358 129.956L117.321 119.764H114.973ZM111.934 127.862C110.259 127.845 108.895 126.498 108.895 124.823C108.895 123.168 110.259 121.821 111.934 121.801C113.609 121.801 114.973 123.168 114.973 124.823C114.973 126.498 113.609 127.862 111.934 127.862Z" fill="#005497"/>
<path fill-rule="evenodd" clip-rule="evenodd" d="M128.861 114.376C128.844 114.376 128.824 114.359 128.824 114.359C127.239 114.359 125.949 115.649 125.949 117.234C125.949 118.819 127.242 120.092 128.824 120.092C128.824 120.092 128.84 120.092 128.861 120.092C130.425 120.072 131.698 118.799 131.698 117.234C131.698 115.669 130.425 114.396 128.861 114.376ZM128.861 119.636C127.53 119.636 126.458 118.564 126.458 117.234C126.458 115.941 127.53 114.848 128.861 114.869C130.191 114.869 131.263 115.944 131.263 117.254C131.263 118.564 130.187 119.636 128.861 119.636Z" fill="#005497"/>
<path fill-rule="evenodd" clip-rule="evenodd" d="M129.698 117.706C129.608 117.616 129.497 117.526 129.353 117.435C129.624 117.398 129.846 117.291 129.973 117.127C130.1 116.999 130.191 116.798 130.191 116.581C130.191 116.4 130.117 116.219 130.043 116.071C129.953 115.944 129.805 115.833 129.678 115.78C129.534 115.726 129.296 115.706 128.951 115.706H128.861H127.624V118.819H128.261V117.509H128.371C128.519 117.509 128.626 117.526 128.7 117.546C128.773 117.562 128.81 117.599 128.864 117.656C128.864 117.676 128.881 117.676 128.881 117.693C128.954 117.73 129.062 117.894 129.226 118.129L129.681 118.819H130.429L130.047 118.219C129.899 117.981 129.769 117.78 129.698 117.706ZM128.861 117.016C128.824 117.016 128.77 117.016 128.717 117.016H128.261V116.236H128.733C128.787 116.236 128.824 116.236 128.861 116.236C129.042 116.236 129.169 116.236 129.206 116.252C129.296 116.252 129.387 116.306 129.44 116.363C129.514 116.416 129.531 116.507 129.531 116.597C129.531 116.688 129.514 116.798 129.457 116.852C129.403 116.889 129.346 116.943 129.293 116.979C129.226 116.999 129.078 116.999 128.861 117.016Z" fill="#005497"/>
<path fill-rule="evenodd" clip-rule="evenodd" d="M93.4456 107.983H82.7441C85.9405 109.963 89.683 111.277 93.9415 112.158L93.4456 107.983ZM101.604 107.993L100.968 111.913C105.243 111.126 109.015 109.886 112.289 107.993H101.604ZM100.374 107.973L94.4943 107.983C95.3186 109.699 96.3706 111.143 97.5701 112.523C98.7528 111.116 99.54 109.662 100.374 107.973ZM116.196 105.366L78.767 105.346C77.5206 104.351 76.6763 103.835 75.6711 102.515H119.335C118.363 103.584 117.248 104.552 116.196 105.366ZM121.778 99.2718L73.4062 99.2919C72.7595 98.3906 72.0191 97.1241 71.5601 96.1223H123.624C123.135 97.2447 122.478 98.2867 121.778 99.2718ZM87.1601 92.688L70.2701 92.6981C68.7222 89.1264 67.7472 85.4409 67.2781 80.8641C75.9827 82.4087 82.6972 85.9837 87.1601 92.688ZM104.465 92.7148H90.5776C90.2693 83.779 92.7454 74.7092 97.5266 69.2512C102.381 74.5684 104.894 83.6014 104.465 92.7148ZM125.048 92.6981L107.829 92.7081C112.584 86.0205 119.412 82.2411 128.254 80.9009C127.705 85.3739 126.673 89.17 125.048 92.6981Z" fill="#005497"/>
</g>
</svg>
