<svg width="200" height="200" viewBox="0 0 200 200" fill="none" xmlns="http://www.w3.org/2000/svg">
<g clip-path="url(#clip0_1177_3568)">
<path d="M71.0386 80.3435C71.0386 80.2308 71.001 80.118 70.9635 79.9301L68.597 73.4657C68.2965 72.6764 67.8833 72.3381 67.2447 72.3381C66.5685 72.3381 66.1553 72.6764 65.8924 73.4657L63.4883 79.9301C63.4132 80.1556 63.3756 80.2683 63.3756 80.3435C63.3756 80.6818 63.6386 80.9448 64.0142 80.9448C64.3147 80.9448 64.5401 80.7945 64.6904 80.4187L65.4792 78.2012H69.0102L69.799 80.4187C69.9117 80.7945 70.1371 80.9448 70.4376 80.9448C70.7756 80.9824 71.0386 80.6818 71.0386 80.3435ZM65.8548 77.0737L67.0193 73.7287C67.0569 73.616 67.0944 73.5784 67.2071 73.5784C67.2822 73.5784 67.3198 73.616 67.3574 73.7287L68.5218 77.0737H65.8548ZM81.8193 80.9073H84.3736C86.0264 80.9073 87.0406 79.9301 87.0406 78.2388C87.0406 76.6227 86.064 75.7207 84.3736 75.7207H82.1198V73.6536H85.8761C86.2893 73.6536 86.5523 73.4281 86.5523 73.0146C86.5523 72.6388 86.2893 72.4133 85.8761 72.4133H81.7817C81.1432 72.4133 80.7675 72.7516 80.7675 73.4281V79.8925C80.8426 80.569 81.1807 80.9073 81.8193 80.9073ZM82.1574 76.8858H84.2609C85.2376 76.8858 85.6883 77.412 85.6883 78.2764C85.6883 79.1784 85.2376 79.7046 84.2609 79.7046H82.1574V76.8858ZM67.3949 88.6495H64.8782V86.0187H69.0477C69.3107 86.0187 69.536 85.8683 69.536 85.6052C69.536 85.3422 69.3482 85.1918 69.0477 85.1918H64.7655C64.2772 85.1918 64.0142 85.4549 64.0142 85.9435V92.9717C64.0142 93.4603 64.2772 93.7234 64.7655 93.7234H67.3949C69.0102 93.7234 69.9492 92.7838 69.9492 91.1677C69.9492 89.5516 69.0102 88.6495 67.3949 88.6495ZM67.2822 92.8589H64.8782V89.4388H67.2822C68.5218 89.4388 69.0477 90.0401 69.0477 91.1301C69.0477 92.22 68.5594 92.8589 67.2822 92.8589ZM73.4802 87.2214C72.7289 87.2214 72.0152 87.4093 71.6396 87.5972C71.3767 87.7099 71.264 87.8227 71.264 88.0482C71.264 88.2737 71.4518 88.424 71.6396 88.424C71.7523 88.424 71.865 88.3865 71.9777 88.3113C72.2782 88.1985 72.8416 88.0106 73.4051 88.0106C74.4944 88.0106 75.0203 88.4616 75.0203 89.4388V90.0401C74.3442 89.8522 73.8558 89.7771 73.2548 89.7771C71.6396 89.7771 70.8508 90.7167 70.8508 91.7314C70.8508 92.9717 71.7899 93.761 73.2173 93.761C74.4193 93.761 75.3584 93.3475 75.6965 93.0844C75.8467 92.9717 75.8843 92.8965 75.8843 92.7086V89.4012C75.8467 87.9355 74.9452 87.2214 73.4802 87.2214ZM74.9827 92.5583C74.4944 92.8214 73.8558 93.0093 73.2924 93.0093C72.2406 93.0093 71.6396 92.5583 71.6396 91.769C71.6396 91.0549 72.1655 90.5663 73.2924 90.5663C73.8558 90.5663 74.3442 90.6415 74.9827 90.8294V92.5583ZM97.3706 74.4428C96.2437 74.4428 95.3421 74.8563 95.0041 75.0442C94.7036 75.2321 94.666 75.3448 94.666 75.8334V82.373C94.666 82.7865 94.9289 83.0495 95.3046 83.0495C95.6802 83.0495 95.9432 82.7865 95.9432 82.373V80.6818C96.3188 80.8697 96.9198 81.02 97.4833 81.02C98.9858 81.02 100 80.0428 100.113 78.6146C100.15 78.1261 100.15 77.3368 100.113 76.8482C100 75.42 98.9858 74.4428 97.3706 74.4428ZM98.8355 78.4267C98.7604 79.2536 98.2345 79.7797 97.333 79.7797C96.8447 79.7797 96.2437 79.6294 95.9432 79.4039V76.0214C96.2437 75.7959 96.8447 75.6455 97.333 75.6455C98.2721 75.6455 98.7604 76.2093 98.8355 76.9985C98.8731 77.4495 98.8731 77.9757 98.8355 78.4267ZM77.2366 79.8549L75.0203 77.6375L77.1239 75.5328C77.2741 75.3824 77.3868 75.1945 77.3868 75.0066C77.3868 74.7059 77.1614 74.4804 76.8234 74.4804C76.6355 74.4804 76.4853 74.5556 76.335 74.7435L74.1564 76.8858C74.0437 76.9985 73.931 77.0737 73.7432 77.0737H73.2924V75.1945C73.2924 74.7811 73.0294 74.518 72.6538 74.518C72.2782 74.518 72.0152 74.7811 72.0152 75.1945V80.2683C72.0152 80.6818 72.2782 80.9448 72.6538 80.9448C73.0294 80.9448 73.2924 80.6818 73.2924 80.2683V78.2388H73.668C73.8183 78.2388 73.9685 78.314 74.0812 78.4267L76.3726 80.7193C76.5604 80.9073 76.7107 80.9824 76.8985 80.9824C77.2366 80.9824 77.4619 80.7569 77.4619 80.4187C77.4619 80.1932 77.3868 80.0428 77.2366 79.8549ZM106.085 78.5771C105.785 78.5771 105.635 78.765 105.522 78.9529C105.296 79.4415 104.846 79.7797 104.17 79.7797C103.268 79.7797 102.705 79.216 102.629 78.4267C102.592 77.9757 102.592 77.4871 102.629 77.0361C102.705 76.2093 103.23 75.6831 104.17 75.6831C104.808 75.6831 105.296 76.0214 105.522 76.5099C105.635 76.6979 105.785 76.8858 106.085 76.8858C106.461 76.8858 106.724 76.6603 106.724 76.2844C106.724 76.0965 106.649 75.9086 106.536 75.6831C106.16 74.969 105.334 74.4428 104.17 74.4428C102.592 74.4428 101.54 75.4576 101.39 76.8858C101.352 77.3744 101.352 78.1636 101.39 78.6146C101.54 80.0428 102.592 81.0576 104.17 81.0576C105.334 81.0576 106.16 80.4938 106.536 79.7797C106.649 79.5542 106.724 79.3663 106.724 79.1784C106.686 78.8026 106.461 78.5771 106.085 78.5771ZM90.5716 74.4428C89.8579 74.4428 89.2193 74.6308 88.8061 74.7811C88.468 74.9314 88.3178 75.1193 88.3178 75.3824C88.3178 75.6831 88.5432 75.9462 88.8437 75.9462C88.9939 75.9462 89.1442 75.871 89.332 75.8334C89.5949 75.7207 90.0457 75.6079 90.4965 75.6079C91.4731 75.6079 91.8863 75.9838 91.8863 76.7355V77.2616C91.3228 77.1113 90.8345 77.0361 90.3086 77.0361C88.6934 77.0361 87.9046 77.9757 87.9046 78.9529C87.9046 80.118 88.8061 81.02 90.3462 81.02C91.5482 81.02 92.4873 80.6066 92.8629 80.3435C93.0508 80.2308 93.0883 80.118 93.0883 79.8549V76.7355C93.1259 75.1569 92.1868 74.4428 90.5716 74.4428ZM91.8863 79.5918C91.5107 79.7797 90.9848 79.9301 90.4965 79.9301C89.6701 79.9301 89.1442 79.5542 89.1442 78.9529C89.1442 78.3891 89.5949 77.9381 90.4965 77.9381C90.9848 77.9381 91.398 78.0133 91.9239 78.1636V79.5918H91.8863ZM86.5523 90.4536L88.9939 88.0106C89.1066 87.8979 89.1442 87.7851 89.1442 87.6724C89.1442 87.4844 88.9939 87.2965 88.7685 87.2965C88.6558 87.2965 88.5432 87.3341 88.4305 87.4469L86.0264 89.8522C85.8761 90.0026 85.7635 90.0777 85.5756 90.0777H85.1624V87.7851C85.1624 87.4844 85.0122 87.3341 84.7492 87.3341C84.4863 87.3341 84.336 87.4844 84.336 87.7851V93.3475C84.336 93.6482 84.4863 93.7985 84.7492 93.7985C85.0122 93.7985 85.1624 93.6482 85.1624 93.3475V90.867H85.6132C85.801 90.867 85.9513 90.9422 86.064 91.0925L88.6183 93.6482C88.731 93.761 88.8437 93.7985 88.9564 93.7985C89.1817 93.7985 89.332 93.6106 89.332 93.4227C89.332 93.2724 89.2944 93.1972 89.1442 93.0469L86.5523 90.4536ZM82.1949 87.2589C81.932 87.2589 81.7817 87.4093 81.7817 87.7099V90.0026H78.2508V87.7099C78.2508 87.4093 78.1005 87.2589 77.8376 87.2589C77.5746 87.2589 77.4244 87.4093 77.4244 87.7099V93.2724C77.4244 93.573 77.5746 93.7234 77.8376 93.7234C78.1005 93.7234 78.2508 93.573 78.2508 93.2724V90.7918H81.7817V93.2724C81.7817 93.573 81.932 93.7234 82.1949 93.7234C82.4579 93.7234 82.6081 93.573 82.6081 93.2724V87.7099C82.6081 87.4469 82.4579 87.2589 82.1949 87.2589Z" fill="#212121"/>
<path d="M106.649 110.711L100.902 111.764C99.9625 111.952 99.3239 112.854 99.4741 113.793C99.6619 114.733 100.563 115.372 101.503 115.221L107.25 114.169C108.602 113.906 109.466 114.733 109.804 115.597C110.142 116.462 110.067 117.627 108.903 118.378L100.488 123.866C99.6995 124.392 98.7604 124.392 97.934 123.978C97.1076 123.527 96.6193 122.701 96.6193 121.761V108.268C96.6193 106.013 95.4548 104.059 93.464 102.969C91.5107 101.879 89.1817 101.992 87.3036 103.194L66.0427 116.988C63.6386 118.529 62.7371 121.347 63.7888 124.016C64.8406 126.684 67.4325 128.113 70.2498 127.624L88.8061 124.279C89.7452 124.091 90.3838 123.189 90.2335 122.25C90.0457 121.31 89.1442 120.671 88.2051 120.821L69.6487 124.166C68.2589 124.429 67.4325 123.603 67.0944 122.738C66.7564 121.874 66.8315 120.709 67.996 119.957L89.2569 106.164C90.0457 105.637 90.9848 105.637 91.8112 106.051C92.6376 106.502 93.1259 107.329 93.1259 108.268V121.761C93.1259 124.016 94.2904 125.97 96.2812 127.06C97.1828 127.549 98.197 127.812 99.1736 127.812C100.301 127.812 101.427 127.474 102.442 126.835L110.893 121.347C113.297 119.807 114.199 116.988 113.147 114.319C112.058 111.651 109.466 110.185 106.649 110.711ZM136.399 114.282C135.347 111.613 132.755 110.185 129.938 110.674L124.191 111.726C123.252 111.914 122.613 112.816 122.763 113.756C122.951 114.695 123.853 115.334 124.792 115.184L130.539 114.131C131.891 113.868 132.755 114.695 133.093 115.56C133.431 116.424 133.356 117.589 132.192 118.341L123.778 123.866C122.989 124.392 122.05 124.392 121.223 123.978C120.397 123.527 119.909 122.701 119.909 121.761V103.984C119.909 103.007 119.12 102.217 118.143 102.217C117.167 102.217 116.378 103.007 116.378 103.984V121.761C116.378 124.016 117.542 125.97 119.533 127.06C120.435 127.549 121.449 127.812 122.425 127.812C123.552 127.812 124.679 127.474 125.693 126.835L134.145 121.347C136.549 119.769 137.451 116.95 136.399 114.282Z" fill="#009B3A"/>
</g>
<defs>
<clipPath id="clip0_1177_3568">
<rect width="74" height="56" fill="white" transform="translate(63 72)"/>
</clipPath>
</defs>
</svg>
