<svg width="200" height="200" viewBox="0 0 200 200" fill="none" xmlns="http://www.w3.org/2000/svg">
<mask id="mask0_1177_5020" style="mask-type:luminance" maskUnits="userSpaceOnUse" x="5" y="89" width="190" height="21">
<path d="M194.35 89H5V109.949H194.35V89Z" fill="white"/>
</mask>
<g mask="url(#mask0_1177_5020)">
<path d="M24.812 103.94C22.2949 108.893 16.2863 110.923 11.3333 108.406C6.38033 105.889 4.35042 99.8804 6.78632 94.9274C8.16666 92.2479 10.6026 90.2992 13.4445 89.6497L8.41025 103.453C12.0641 106.295 18.8846 106.295 24.812 103.94Z" fill="black"/>
<path d="M24 93.5471C25.2179 95.2522 25.8675 97.3634 25.8675 99.4745C25.8675 99.7181 25.8675 99.9616 25.8675 100.205C24.3248 100.774 22.6197 101.017 20.9957 100.855L24 93.5471Z" fill="black"/>
<path d="M20.5897 90.624C20.9957 90.8676 21.4017 91.1112 21.8077 91.3548L17.4231 101.667C19.2906 102.235 23.188 101.667 25.7051 100.855C25.7051 101.098 25.7051 101.261 25.6239 101.504C21.9701 102.641 17.9914 103.291 15.7991 102.398L20.5897 90.624Z" fill="black"/>
<path d="M16.6111 89.4058C17.0983 89.4058 17.5043 89.487 17.9914 89.6494L12.9573 102.641C14.8248 104.346 22.3761 103.615 25.4615 102.397C25.3803 102.641 25.2991 102.966 25.2179 103.209C19.859 104.833 14.3376 105.239 11.2521 103.209L16.6111 89.4058Z" fill="black"/>
<path d="M191.671 97.8506H184.038V93.7095H191.671V97.8506ZM184.932 91.5172C184.526 91.5172 184.201 91.5984 183.795 91.6796C183.47 91.7608 183.145 92.0044 182.821 92.1668C182.577 92.4104 182.333 92.654 182.171 92.9788C182.009 93.3036 181.927 93.6283 181.927 94.0343V97.2822C181.927 97.6882 182.009 98.013 182.171 98.3377C182.333 98.6625 182.496 98.9873 182.739 99.2309C182.983 99.4745 183.308 99.6369 183.633 99.7993C183.957 99.9617 184.363 100.043 184.688 100.043H191.346C191.671 100.043 192.077 99.9617 192.402 99.7993C192.727 99.6369 193.051 99.4745 193.295 99.2309C193.538 98.9873 193.782 98.7437 193.863 98.4189C194.026 98.0942 194.107 97.7694 194.107 97.4446V94.2779C194.107 93.9531 194.026 93.5471 193.863 93.2224C193.701 92.8976 193.538 92.5728 193.295 92.3292C193.051 92.0856 192.727 91.842 192.402 91.7608C192.077 91.5984 191.752 91.5172 191.346 91.5172H184.932ZM171.372 91.5172H168.855L172.346 98.1754C172.509 98.4189 172.59 98.7437 172.833 98.9873C172.996 99.2309 173.158 99.3933 173.402 99.6369C173.564 99.7993 173.808 99.9617 174.051 100.043C174.538 100.205 175.107 100.286 175.594 100.043C175.838 99.9617 176 99.8805 176.162 99.7181C176.325 99.5557 176.487 99.3933 176.65 99.1497C176.812 98.9061 176.974 98.6625 177.056 98.5001L180.709 91.5172H178.274L174.782 97.9318L171.372 91.5172ZM158.624 91.436C158.218 91.436 157.812 91.5172 157.406 91.5984C157.081 91.6796 156.756 91.9232 156.432 92.1668C156.188 92.4104 155.944 92.7352 155.782 93.06C155.62 93.3848 155.538 93.7907 155.538 94.1967V97.2822C155.538 97.6882 155.62 98.0942 155.782 98.4189C155.944 98.7437 156.188 99.0685 156.432 99.3121C156.756 99.5557 157.081 99.7181 157.406 99.8805C157.731 100.043 158.137 100.124 158.543 100.124H167.556V97.8506H157.65V96.8762H167.556V94.6839H157.65V93.7095H167.556V91.436H158.624ZM147.5 97.5258V100.043H149.692V97.5258L154.483 91.436H151.803L148.637 95.3335L145.47 91.436H142.709L147.5 97.5258ZM129.312 91.5172V93.7095H134.346V100.124H136.538V93.7095H141.573V91.5172H129.312ZM119.081 91.436C118.675 91.436 118.269 91.5172 117.863 91.5984C117.538 91.6796 117.214 91.9232 116.889 92.1668C116.645 92.4104 116.402 92.7352 116.239 93.06C116.077 93.4659 115.996 93.7907 115.996 94.1967V97.2822C115.996 97.6882 116.077 98.0942 116.239 98.4189C116.402 98.7437 116.645 99.0685 116.889 99.3121C117.133 99.5557 117.538 99.7181 117.863 99.8805C118.188 100.043 118.594 100.124 119 100.124H128.013V97.8506H118.107V96.8762H128.013V94.6839H118.107V93.7095H128.013V91.436H119.081ZM104.222 100.124V93.8719L106.252 98.2565C106.333 98.5001 106.496 98.7437 106.658 98.9873C106.821 99.2309 106.983 99.4745 107.145 99.6369C107.308 99.7993 107.551 99.9617 107.795 100.124C108.038 100.205 108.282 100.286 108.526 100.286C108.769 100.286 109.094 100.205 109.338 100.124C109.581 100.043 109.744 99.8805 109.906 99.7181C110.068 99.5557 110.231 99.3121 110.312 99.0685C110.474 98.8249 110.556 98.5813 110.718 98.2565L112.748 93.7907V100.124H114.859V93.8719C114.859 93.5471 114.778 93.3036 114.697 92.9788C114.615 92.7352 114.453 92.4104 114.291 92.248C114.128 92.0044 113.885 91.842 113.641 91.6796C113.397 91.5172 113.073 91.5172 112.748 91.5172C112.261 91.5172 111.855 91.6796 111.449 91.9232C111.043 92.248 110.799 92.654 110.637 93.1412L108.526 98.1754L106.577 93.3848C106.496 93.1412 106.333 92.8976 106.171 92.654C106.009 92.4104 105.846 92.248 105.684 92.0856C105.521 91.9232 105.278 91.7608 105.034 91.6796C104.791 91.5984 104.547 91.5172 104.222 91.5172C103.897 91.5172 103.654 91.5984 103.41 91.6796C102.923 91.9232 102.517 92.3292 102.274 92.8164C102.192 93.06 102.111 93.3848 102.111 93.6283V100.043L104.222 100.124ZM91.9616 91.436C91.5556 91.436 91.1496 91.5172 90.7436 91.5984C90.4188 91.6796 90.094 91.9232 89.7693 92.1668C89.5257 92.4104 89.2821 92.7352 89.1197 93.06C88.9573 93.3848 88.8761 93.7907 88.8761 94.1967V97.2822C88.8761 97.6882 88.9573 98.0942 89.1197 98.4189C89.2821 98.7437 89.5257 99.0685 89.7693 99.3121C90.094 99.5557 90.4188 99.7181 90.7436 99.8805C91.0684 100.043 91.4744 100.124 91.8804 100.124H100.893V97.8506H90.9872V96.8762H100.893V94.6839H90.9872V93.7095H100.893V91.436H91.9616ZM77.9146 93.7095H85.547V94.6839H77.9146V93.7095ZM75.7222 91.5172V100.124H77.9958V96.8762H85.6282V100.124H87.8205V97.1198C87.8205 96.8762 87.7393 96.6326 87.6582 96.389C87.577 96.1454 87.4146 95.9018 87.2522 95.6583C87.4146 95.4147 87.4958 95.1711 87.5769 94.9275C87.7393 94.3591 87.7393 93.7095 87.4958 93.1412C87.2522 92.4916 86.6838 92.0044 86.1154 91.6796C85.7906 91.5172 85.4658 91.436 85.1411 91.436L75.7222 91.5172ZM65.4915 91.436C65.0855 91.436 64.6795 91.5172 64.2735 91.5984C63.9487 91.6796 63.624 91.9232 63.2992 92.1668C63.0556 92.4104 62.812 92.7352 62.6496 93.06C62.4872 93.4659 62.406 93.7907 62.406 94.1967V97.2822C62.406 97.6882 62.4872 98.0942 62.6496 98.4189C62.812 98.7437 63.0556 99.0685 63.2992 99.3121C63.5428 99.5557 63.9487 99.7181 64.2735 99.8805C64.5983 100.043 65.0043 100.124 65.4103 100.124H74.4231V97.8506H64.6795V96.8762H74.5855V94.6839H64.6795V93.7095H74.5855V91.436H65.4915ZM51.2009 91.5172H49.0086V100.124H51.2009V96.8762H59.1581V100.124H61.3505V91.5172H59.1581V94.6839H51.2009V91.5172ZM44.9487 94.6839H36.9915V93.6283H47.2223V91.5172H37.8846C37.4787 91.5172 37.0727 91.5984 36.7479 91.6796C36.3419 91.7608 36.0171 92.0044 35.6923 92.1668C35.3675 92.4104 35.124 92.654 34.9616 92.9788C34.7992 93.3036 34.6368 93.7095 34.6368 94.1155C34.6368 94.5215 34.718 94.8463 34.8804 95.1711C35.0428 95.4959 35.2864 95.8207 35.5299 95.983C35.7735 96.2266 36.0983 96.389 36.5043 96.5514C36.8291 96.7138 37.2351 96.7138 37.6411 96.7138H45.6795V97.9318H35.2052V100.124H44.9487C45.3547 100.124 45.6795 100.043 46.0043 99.9617C46.3291 99.7993 46.6539 99.6369 46.8975 99.3933C47.1411 99.1497 47.3846 98.9061 47.547 98.5813C47.7094 98.2565 47.7906 97.8506 47.7906 97.5258C47.7906 97.1198 47.7094 96.795 47.547 96.4702C47.3846 96.1454 47.2222 95.8207 46.8975 95.5771C46.6539 95.3335 46.3291 95.0899 46.0043 95.0087C45.7607 94.7651 45.3547 94.6839 44.9487 94.6839Z" fill="black"/>
<path d="M187.449 103.128V104.184H189.966V107.432H191.021V104.184H193.538V103.128H187.449ZM179.979 104.184H183.795V104.671H179.979V104.184ZM178.842 103.128V107.432H179.979V105.808H183.795V107.432H184.932V105.97C184.932 105.808 184.932 105.727 184.85 105.564C184.769 105.402 184.769 105.321 184.607 105.239C184.688 105.158 184.769 104.996 184.769 104.915C184.85 104.752 184.85 104.671 184.85 104.509C184.85 104.346 184.85 104.184 184.769 104.021C184.688 103.859 184.607 103.697 184.444 103.615C184.363 103.453 184.201 103.372 184.038 103.291C183.876 103.209 183.714 103.209 183.551 103.209L178.842 103.128ZM175.188 106.295H171.372V104.184H175.188V106.295ZM171.778 103.128C171.615 103.128 171.372 103.128 171.209 103.209C171.047 103.291 170.885 103.372 170.722 103.453C170.56 103.534 170.479 103.697 170.397 103.859C170.316 104.021 170.235 104.184 170.235 104.346V105.97C170.235 106.132 170.235 106.376 170.316 106.538C170.397 106.701 170.479 106.863 170.641 106.944C170.803 107.107 170.885 107.188 171.047 107.269C171.209 107.35 171.372 107.35 171.615 107.35H174.944C175.107 107.35 175.269 107.35 175.432 107.269C175.594 107.188 175.756 107.107 175.838 106.944C176 106.863 176.081 106.701 176.162 106.538C176.244 106.376 176.244 106.214 176.244 106.051V104.427C176.244 104.265 176.244 104.103 176.162 103.94C176.081 103.778 176 103.615 175.838 103.534C175.675 103.372 175.594 103.291 175.432 103.209C175.269 103.128 175.107 103.128 174.944 103.128H171.778ZM162.521 104.184H166.5V104.752H162.521V104.184ZM166.175 103.128H161.385V107.432H162.521V105.808H166.256C166.419 105.808 166.662 105.808 166.825 105.727C166.987 105.645 167.15 105.564 167.312 105.402C167.474 105.239 167.556 105.158 167.637 104.996C167.718 104.833 167.718 104.671 167.718 104.427C167.718 104.265 167.637 104.021 167.556 103.859C167.474 103.697 167.393 103.534 167.231 103.453C167.068 103.372 166.906 103.209 166.744 103.209C166.581 103.128 166.338 103.128 166.175 103.128ZM153.915 104.184H157.731V104.671H153.915V104.184ZM152.778 103.128V107.432H153.915V105.808H157.731V107.432H158.868V105.97C158.868 105.808 158.868 105.727 158.786 105.564C158.705 105.402 158.705 105.321 158.543 105.239C158.624 105.158 158.705 104.996 158.705 104.915C158.786 104.752 158.786 104.671 158.786 104.509C158.786 104.346 158.786 104.184 158.705 104.021C158.624 103.859 158.543 103.697 158.38 103.615C158.299 103.453 158.137 103.372 157.974 103.291C157.812 103.209 157.65 103.209 157.487 103.209L152.778 103.128ZM150.261 103.128H149.043V107.513H150.261V103.128ZM143.034 105.158L143.521 104.265L144.009 105.158H143.034ZM141.897 107.432L142.466 106.295H144.577L145.226 107.432H146.444L144.739 104.184C144.658 104.021 144.577 103.859 144.496 103.697C144.415 103.534 144.333 103.453 144.252 103.372C144.171 103.291 144.09 103.209 143.927 103.128C143.765 103.047 143.684 103.047 143.521 103.047C143.359 103.047 143.278 103.047 143.115 103.128C143.034 103.209 142.872 103.209 142.791 103.372C142.709 103.453 142.628 103.615 142.547 103.697C142.466 103.859 142.385 103.94 142.303 104.103L140.598 107.35L141.897 107.432ZM134.346 106.295H129.474V103.128H128.338V106.132C128.338 106.295 128.338 106.457 128.419 106.62C128.5 106.782 128.581 106.944 128.744 107.026C128.906 107.188 128.987 107.269 129.15 107.35C129.312 107.432 129.474 107.432 129.637 107.432H134.346V106.295ZM122.329 105.158L122.816 104.265L123.303 105.158H122.329ZM121.192 107.432L121.761 106.295H123.872L124.521 107.432H125.739L124.034 104.184C123.953 104.021 123.872 103.859 123.791 103.697C123.709 103.534 123.628 103.453 123.547 103.372C123.385 103.209 123.141 103.047 122.816 103.047C122.654 103.047 122.491 103.047 122.41 103.128C122.329 103.209 122.167 103.209 122.085 103.372C122.004 103.453 121.923 103.615 121.842 103.697C121.761 103.859 121.679 103.94 121.598 104.103L119.893 107.35L121.192 107.432ZM111.449 104.103V107.432H112.504V104.184L115.427 107.026C115.509 107.107 115.59 107.188 115.671 107.188C115.752 107.269 115.833 107.269 115.915 107.35C115.996 107.35 116.077 107.432 116.158 107.432C116.239 107.432 116.321 107.432 116.402 107.432C116.564 107.432 116.726 107.432 116.889 107.35C117.051 107.269 117.132 107.188 117.214 107.107C117.295 107.026 117.376 106.863 117.457 106.701C117.538 106.538 117.538 106.376 117.538 106.214V103.047H116.483V106.295L113.56 103.372C113.316 103.128 112.991 102.966 112.667 102.966C112.504 102.966 112.423 102.966 112.261 103.047C112.098 103.128 112.017 103.209 111.936 103.291C111.855 103.372 111.773 103.534 111.692 103.615C111.449 103.778 111.449 103.94 111.449 104.103ZM107.714 106.295H103.897V104.184H107.714V106.295ZM104.303 103.128C104.141 103.128 103.897 103.128 103.735 103.209C103.573 103.291 103.41 103.372 103.248 103.453C103.085 103.534 103.004 103.697 102.923 103.859C102.842 104.021 102.761 104.184 102.761 104.346V105.97C102.761 106.132 102.761 106.376 102.842 106.538C102.923 106.701 103.004 106.863 103.167 106.944C103.329 107.107 103.41 107.188 103.573 107.269C103.735 107.35 103.897 107.35 104.141 107.35H107.47C107.632 107.35 107.795 107.35 107.957 107.269C108.12 107.188 108.282 107.107 108.363 106.944C108.526 106.863 108.607 106.701 108.688 106.538C108.769 106.376 108.769 106.214 108.769 106.051V104.427C108.769 104.265 108.769 104.103 108.688 103.94C108.607 103.778 108.526 103.615 108.363 103.534C108.201 103.372 108.12 103.291 107.957 103.209C107.795 103.128 107.632 103.128 107.47 103.128H104.303ZM100.244 103.128H99.0256V107.513H100.244V103.128ZM90.3376 103.128V104.184H92.8547V107.432H93.9102V104.184H96.4273V103.128H90.3376ZM84.4103 105.158L84.8974 104.265L85.3846 105.158H84.4103ZM83.2735 107.432L83.8419 106.295H85.953L86.6026 107.432H87.8205L86.1154 104.184C86.0342 104.021 85.953 103.859 85.8718 103.697C85.7906 103.534 85.7094 103.453 85.6282 103.372C85.547 103.291 85.4658 103.209 85.3034 103.128C85.141 103.047 85.0598 103.047 84.8974 103.047C84.735 103.047 84.6538 103.047 84.4914 103.128C84.4103 103.209 84.2479 103.209 84.1667 103.372C84.0855 103.453 84.0043 103.615 83.9231 103.697C83.8419 103.859 83.7607 103.94 83.6795 104.103L81.9744 107.35L83.2735 107.432ZM73.4487 104.103V107.432H74.5043V104.184L77.4273 107.026C77.5085 107.107 77.5897 107.188 77.6709 107.188C77.7521 107.269 77.8333 107.269 77.9145 107.35C77.9957 107.35 78.0769 107.432 78.1581 107.432C78.4017 107.513 78.6453 107.432 78.8077 107.35C78.9701 107.269 79.0513 107.188 79.1325 107.107C79.2137 107.026 79.2949 106.863 79.3761 106.701C79.4573 106.538 79.4573 106.376 79.4573 106.214V103.047H78.4017V106.295L75.4786 103.372C75.235 103.128 74.9102 102.966 74.5855 102.966C74.4231 102.966 74.3419 102.966 74.1795 103.047C74.0171 103.128 73.9359 103.209 73.8547 103.291C73.7735 103.372 73.6923 103.534 73.6111 103.615C73.5299 103.778 73.4487 103.94 73.4487 104.103ZM65.9786 104.184H69.7949V104.671H65.9786V104.184ZM64.8419 103.128V107.432H65.9786V105.808H69.7949V107.432H70.9316V105.97C70.9316 105.808 70.9316 105.727 70.8504 105.564C70.7692 105.402 70.7692 105.321 70.6068 105.239C70.688 105.158 70.7692 104.996 70.7692 104.915C70.8504 104.752 70.8504 104.671 70.8504 104.509C70.8504 104.346 70.8504 104.184 70.7692 104.021C70.688 103.859 70.6068 103.697 70.4444 103.615C70.3632 103.453 70.2008 103.372 70.0385 103.291C69.8761 103.209 69.7137 103.209 69.5513 103.209L64.8419 103.128ZM57.7778 103.128C57.6154 103.128 57.3718 103.128 57.2094 103.209C57.047 103.291 56.8846 103.372 56.7222 103.453C56.5598 103.534 56.4786 103.697 56.3974 103.859C56.3162 104.021 56.235 104.265 56.3162 104.427V106.051C56.3162 106.214 56.3162 106.457 56.4786 106.62C56.5598 106.782 56.641 106.944 56.8034 107.026C56.9658 107.188 57.1282 107.269 57.2906 107.35C57.453 107.432 57.6966 107.432 57.859 107.432H62.406V106.295H57.453V105.808H62.406V104.671H57.453V104.184H62.406V103.047L57.7778 103.128ZM47.6282 103.128V104.184H50.1453V107.432H51.2008V104.184H53.7179V103.128H47.6282ZM39.0214 104.103V107.432H40.0769V104.184L43 107.026C43.0812 107.107 43.1624 107.188 43.2436 107.188C43.3248 107.269 43.406 107.269 43.4872 107.35C43.5684 107.35 43.6496 107.432 43.7308 107.432C43.9744 107.513 44.2179 107.432 44.3803 107.35C44.5427 107.269 44.6239 107.188 44.7051 107.107C44.7863 107.026 44.8675 106.863 44.9487 106.701C45.0299 106.538 45.0299 106.376 45.0299 106.214V103.047H43.9744V106.295L41.0513 103.453C40.8077 103.209 40.4829 103.047 40.1581 103.047C39.9957 103.047 39.9145 103.047 39.7521 103.128C39.5897 103.209 39.5085 103.291 39.4273 103.372C39.3461 103.453 39.2649 103.615 39.1838 103.697C39.1026 103.778 39.0214 103.94 39.0214 104.103ZM36.5043 103.128H35.2863V107.513H36.5043V103.128Z" fill="black"/>
</g>
</svg>
