<svg width="200" height="200" viewBox="0 0 200 200" fill="none" xmlns="http://www.w3.org/2000/svg">
<path fill-rule="evenodd" clip-rule="evenodd" d="M84 90.3553V96.474C83.4037 99.6618 81.8283 102.501 79.3135 104.979C76.7829 107.469 73.7135 108.974 70.1674 109.347C68.9554 109.476 67.732 109.479 66.5093 109.482C66.0091 109.483 65.509 109.485 65.0099 109.494C64.5448 109.506 64.0824 109.502 63.619 109.498C63.387 109.496 63.1548 109.494 62.9219 109.494C62.9163 109.466 62.9092 109.439 62.9021 109.412C62.895 109.386 62.8879 109.359 62.8822 109.33C63.0014 109.282 63.1191 109.233 63.2368 109.183C63.3546 109.134 63.4723 109.084 63.5914 109.036C66.0936 108.068 68.1532 106.552 69.6227 104.288C71.807 100.915 71.7106 96.5804 69.356 93.3207C67.3588 90.5534 64.6071 88.9859 61.2993 88.3294C59.4496 87.9615 58.0822 87.9615 56.6241 88.2389C59.2851 88.3747 61.6851 89.2179 63.6993 90.9835C65.8099 92.8284 66.9049 95.1316 66.7745 97.9838C66.6609 100.463 65.8553 102.624 64.0283 104.35C62.7064 105.595 61.112 106.348 59.3418 106.682C55.9092 107.333 52.6638 106.846 49.7078 104.905C48.556 104.147 47.6595 103.145 46.9843 101.928C44.4392 97.3514 41.8881 92.7765 39.337 88.2013C37.5035 84.9131 35.6699 81.6247 33.8383 78.3354C33.6972 78.0812 33.5642 77.8217 33.4131 77.5269C33.3455 77.395 33.2743 77.2561 33.1971 77.1074C33.34 77.0991 33.4685 77.0893 33.588 77.0803C33.7957 77.0645 33.9759 77.0508 34.156 77.0508L62.3148 77.1526C62.7644 77.1541 63.2136 77.1558 63.6626 77.1576C65.0044 77.1629 66.3445 77.1682 67.6879 77.164C72.2042 77.1527 76.1475 78.6353 79.3872 81.7818C81.8489 84.1714 83.4107 87.0346 84 90.3553Z" fill="url(#paint0_linear_1177_3662)"/>
<path fill-rule="evenodd" clip-rule="evenodd" d="M43.3692 101.672C43.4596 101.661 43.5571 101.65 43.6652 101.64C43.6374 101.584 43.6113 101.532 43.5865 101.482C43.4699 101.248 43.3824 101.072 43.2794 100.904C41.2652 97.2595 39.2511 93.6207 37.2312 89.9819C36.6055 88.8533 35.9793 87.725 35.3532 86.5969C33.6971 83.6127 32.0412 80.629 30.3943 77.6394C30.173 77.2376 29.9177 77.0452 29.4411 77.0452C27.7247 77.0558 26.0104 77.0553 24.2956 77.0549C23.267 77.0546 22.2381 77.0544 21.2085 77.0565C21.0673 77.0565 20.9287 77.0821 20.7634 77.1126C20.6828 77.1275 20.5959 77.1435 20.4993 77.1584C20.5736 77.3026 20.6393 77.4333 20.7006 77.5551C20.8124 77.7774 20.9093 77.9699 21.0156 78.16C22.5018 80.8249 23.9937 83.4898 25.4856 86.1546L25.4865 86.1564C25.735 86.6001 25.9835 87.0438 26.232 87.4875C28.7692 92.0173 31.3046 96.5442 33.8213 101.085C34.0936 101.577 34.417 101.73 34.9503 101.725C36.5956 101.714 38.2387 101.714 39.8824 101.715C40.8687 101.715 41.8552 101.715 42.8426 101.713C43.0064 101.713 43.1703 101.695 43.3692 101.672Z" fill="url(#paint1_linear_1177_3662)"/>
<path d="M134.184 92.3077C134.497 92.4323 134.74 92.5341 134.984 92.636C136.21 93.1397 137.345 93.7735 138.303 94.7072C140.04 96.3936 140.63 98.4988 140.426 100.83C140.34 101.804 140.097 102.8 139.739 103.711C139.053 105.46 137.736 106.693 136.108 107.604C134.36 108.578 132.465 109.115 130.497 109.336C128.925 109.506 127.336 109.591 125.753 109.602C120.335 109.636 114.916 109.613 109.503 109.613C109.322 109.613 109.14 109.602 108.959 109.613C108.55 109.642 108.38 109.438 108.392 109.047C108.397 108.844 108.392 108.64 108.392 108.436C108.392 103.734 108.386 99.0365 108.397 94.3337C108.414 88.8444 108.442 83.3494 108.471 77.8601C108.477 77.0678 108.482 77.0565 109.26 77.0565C114.928 77.0565 120.59 77.0338 126.258 77.0678C128.386 77.0791 130.513 77.2545 132.579 77.8431C134.389 78.3581 136.074 79.0994 137.395 80.5029C138.877 82.0761 139.353 83.9776 139.206 86.0657C139.002 88.901 137.43 90.7629 134.934 91.9625C134.701 92.0644 134.479 92.1663 134.184 92.3077ZM117.407 102.738C117.583 102.76 117.674 102.783 117.759 102.783C120.59 102.783 123.421 102.811 126.253 102.766C127.308 102.749 128.38 102.653 129.39 102.257C129.952 102.036 130.434 101.713 130.74 101.176C131.802 99.3194 130.968 97.0671 128.919 96.4616C128.085 96.2125 127.189 96.0768 126.315 96.0655C123.552 96.0145 120.789 96.0371 118.02 96.0371C117.827 96.0371 117.629 96.0768 117.402 96.0994C117.407 98.3291 117.407 100.508 117.407 102.738ZM117.418 83.8757C117.418 85.8111 117.418 87.6899 117.418 89.5801C117.589 89.6027 117.697 89.631 117.81 89.631C120.505 89.631 123.206 89.6593 125.901 89.6084C126.655 89.5914 127.427 89.3933 128.153 89.1726C128.834 88.9689 129.402 88.5445 129.725 87.8597C130.502 86.2186 129.77 84.5605 128.006 84.17C127.064 83.9606 126.082 83.87 125.112 83.8531C122.803 83.8078 120.488 83.8361 118.179 83.8417C117.935 83.8417 117.691 83.8644 117.418 83.8757Z" fill="url(#paint2_linear_1177_3662)"/>
<path d="M179.614 109.545C179.245 109.574 179.007 109.602 178.769 109.608C175.937 109.613 173.1 109.596 170.269 109.619C169.731 109.625 169.452 109.455 169.26 108.946C168.652 107.367 167.994 105.799 167.353 104.232C167.075 103.541 167.069 103.541 166.31 103.541C161.844 103.541 157.379 103.541 152.908 103.541C152.147 103.541 152.147 103.541 151.875 104.226C151.24 105.822 150.593 107.412 149.974 109.014C149.816 109.427 149.606 109.619 149.135 109.613C146.281 109.596 143.421 109.608 140.568 109.602C140.397 109.602 140.221 109.568 139.983 109.54C140.068 109.296 140.113 109.104 140.193 108.923C143.115 102.234 146.042 95.5391 148.965 88.8501C150.576 85.1604 152.198 81.4763 153.787 77.7809C154.014 77.2489 154.303 77.0225 154.899 77.0282C158.161 77.0508 161.43 77.0508 164.692 77.0282C165.226 77.0225 165.498 77.198 165.713 77.6903C170.065 87.6787 174.434 97.667 178.797 107.65C179.052 108.255 179.313 108.844 179.614 109.545ZM159.699 84.9C159.654 84.9 159.608 84.9 159.569 84.9C158.076 88.6181 156.579 92.3361 155.052 96.1277C158.15 96.1277 161.14 96.1277 164.221 96.1277C162.695 92.3361 161.197 88.6181 159.699 84.9Z" fill="url(#paint3_linear_1177_3662)"/>
<path d="M102.247 77.0959C102.247 77.4354 102.247 77.6788 102.247 77.9221C102.253 88.1821 102.253 98.4421 102.258 108.702C102.258 108.815 102.247 108.928 102.258 109.042C102.292 109.443 102.116 109.613 101.708 109.607C98.8542 109.602 95.9944 109.602 93.1402 109.607C92.7429 109.607 92.5391 109.472 92.5676 109.059C92.5788 108.9 92.5676 108.742 92.5676 108.583C92.5732 98.4364 92.5732 88.2896 92.5788 78.1372C92.5788 77.0393 92.5788 77.0393 93.7078 77.0393C96.2442 77.0393 98.7861 77.0393 101.322 77.0393C101.594 77.0506 101.861 77.0733 102.247 77.0959Z" fill="url(#paint4_linear_1177_3662)"/>
<path d="M79.7277 115.765C80.2043 115.561 80.4993 115.736 80.7716 116.121C81.5092 117.151 82.2695 118.164 83.0241 119.183C83.1149 119.302 83.217 119.415 83.3986 119.624C83.4213 119.319 83.4496 119.132 83.4553 118.945C83.461 118.017 83.4553 117.095 83.4553 116.166C83.4553 115.883 83.5234 115.685 83.8695 115.685C84.2213 115.685 84.278 115.906 84.2724 116.178C84.2724 117.672 84.2724 119.16 84.2553 120.654C84.2553 120.818 84.0964 121.113 84.0057 121.118C83.7901 121.124 83.495 121.062 83.3589 120.909C82.9958 120.507 82.7007 120.049 82.3773 119.613C81.7872 118.815 81.1972 118.017 80.6127 117.219C80.5617 117.225 80.5106 117.23 80.4596 117.236C80.4596 118.521 80.4596 119.8 80.4596 121.062C79.7333 121.18 79.6596 121.158 79.6539 120.699C79.6369 119.143 79.6482 117.581 79.6482 116.019C79.6539 115.923 79.705 115.838 79.7277 115.765Z" fill="url(#paint5_linear_1177_3662)"/>
<path d="M40.0113 119.624C40.0283 119.285 40.0511 119.07 40.0511 118.855C40.0511 117.972 40.0511 117.095 40.0511 116.212C40.0511 115.918 40.0851 115.669 40.4822 115.674C40.8397 115.686 40.8737 115.912 40.8737 116.178C40.8737 117.672 40.8737 119.16 40.8511 120.654C40.8511 120.813 40.7035 121.084 40.5901 121.107C40.4029 121.141 40.1475 121.056 39.9887 120.937C39.7958 120.79 39.6766 120.552 39.529 120.354C38.7574 119.302 37.9801 118.249 37.2085 117.197C37.1631 117.208 37.112 117.213 37.0666 117.225C37.0666 118.492 37.0666 119.76 37.0666 120.994C36.3688 121.209 36.261 121.175 36.2496 120.677C36.2326 119.138 36.2383 117.604 36.244 116.065C36.244 115.957 36.295 115.855 36.3234 115.759C36.8113 115.55 37.1064 115.748 37.3787 116.127C38.1163 117.157 38.8766 118.17 39.6312 119.189C39.7163 119.307 39.8241 119.409 40.0113 119.624Z" fill="url(#paint6_linear_1177_3662)"/>
<path d="M175.858 117.219C175.858 117.91 175.858 118.6 175.858 119.285C175.858 119.783 175.852 120.281 175.847 120.773C175.841 121.022 175.716 121.135 175.461 121.141C175.211 121.141 175.064 121.039 175.064 120.79C175.058 119.121 175.064 117.457 175.064 115.81C175.761 115.601 175.813 115.606 176.198 116.127C177.032 117.253 177.861 118.379 178.763 119.607C178.814 119.364 178.865 119.228 178.865 119.098C178.871 118.215 178.865 117.338 178.865 116.455C178.865 116.274 178.848 116.076 178.911 115.923C178.956 115.816 179.132 115.697 179.257 115.697C179.376 115.697 179.546 115.81 179.603 115.918C179.671 116.048 179.648 116.223 179.648 116.382C179.648 117.74 179.648 119.092 179.637 120.45C179.637 120.699 179.739 121.028 179.365 121.13C179.018 121.226 178.826 120.999 178.644 120.75C177.872 119.692 177.089 118.634 176.312 117.581C176.21 117.445 176.09 117.321 175.983 117.191C175.937 117.202 175.898 117.213 175.858 117.219Z" fill="url(#paint7_linear_1177_3662)"/>
<path d="M57.0213 117.242C57.0213 118.521 57.0213 119.8 57.0213 121.056C56.329 121.158 56.261 121.141 56.2553 120.677C56.2383 119.143 56.244 117.604 56.2497 116.07C56.2497 115.963 56.3007 115.855 56.329 115.765C56.7773 115.584 57.078 115.702 57.339 116.076C58.0879 117.123 58.8595 118.153 59.6312 119.188C59.722 119.307 59.8298 119.415 60 119.613C60.0284 119.336 60.0568 119.171 60.0568 119.002C60.0624 118.119 60.0511 117.242 60.0568 116.359C60.0624 116.059 59.966 115.68 60.4823 115.685C60.9475 115.691 60.8737 116.042 60.8737 116.325C60.8794 117.728 60.8737 119.126 60.8624 120.53C60.8624 120.762 60.9418 121.062 60.5958 121.141C60.3007 121.209 60.0794 121.107 59.8979 120.852C59.2113 119.901 58.5078 118.956 57.8099 118.011C57.6113 117.74 57.4127 117.474 57.2142 117.208C57.1461 117.213 57.0837 117.225 57.0213 117.242Z" fill="url(#paint8_linear_1177_3662)"/>
<path d="M96.9419 121.124C96.9419 119.285 96.9419 117.553 96.9419 115.737C97.1916 115.714 97.424 115.68 97.6626 115.68C98.2295 115.674 98.7916 115.686 99.3586 115.68C100 115.669 100.545 115.861 100.794 116.484C101.055 117.129 100.947 117.723 100.386 118.193C100.352 118.221 100.34 118.266 100.301 118.329C100.454 118.504 100.635 118.674 100.771 118.872C101.373 119.76 100.908 121 99.8469 121.113C98.9217 121.203 97.9687 121.124 96.9419 121.124ZM97.6967 120.439C98.3374 120.439 98.9162 120.468 99.4949 120.428C99.977 120.4 100.198 120.106 100.21 119.613C100.216 119.143 99.9944 118.787 99.5402 118.742C98.9447 118.691 98.3429 118.73 97.6967 118.73C97.6967 119.308 97.6967 119.811 97.6967 120.439ZM97.7022 117.972C98.3262 117.972 98.905 118.006 99.4782 117.961C99.8692 117.932 100.142 117.593 100.142 117.225C100.142 116.857 99.9944 116.518 99.6257 116.444C98.9955 116.32 98.3492 116.331 97.6967 116.444C97.7022 116.982 97.7022 117.446 97.7022 117.972Z" fill="url(#paint9_linear_1177_3662)"/>
<path d="M119.756 121.067C119.291 121.248 119.058 121.05 118.837 120.75C118.094 119.72 117.345 118.702 116.59 117.683C116.442 117.485 116.295 117.293 116.017 117.111C116.017 117.751 116.017 118.39 116.017 119.03C116.017 119.618 116.011 120.207 116 120.796C115.994 121.05 115.847 121.197 115.614 121.129C115.484 121.09 115.302 120.909 115.302 120.79C115.279 119.12 115.291 117.457 115.291 115.799C115.802 115.555 116.097 115.708 116.374 116.099C117.095 117.111 117.844 118.108 118.587 119.109C118.718 119.285 118.86 119.449 119.092 119.732C119.092 118.328 119.092 117.072 119.092 115.844C119.773 115.589 119.903 115.651 119.898 116.257C119.887 117.768 119.847 119.285 119.818 120.796C119.818 120.881 119.779 120.965 119.756 121.067Z" fill="url(#paint10_linear_1177_3662)"/>
<path d="M125.361 118.985C124.925 118.985 124.55 118.985 124.176 118.985C123.971 118.985 123.756 119.019 123.569 118.962C123.432 118.923 123.245 118.764 123.234 118.651C123.229 118.538 123.416 118.312 123.523 118.306C124.397 118.278 125.271 118.289 126.122 118.289C126.411 119.89 125.39 121.141 123.818 121.249C122.627 121.328 121.577 120.728 121.106 119.704C120.607 118.6 120.811 117.214 121.589 116.41C122.389 115.59 123.745 115.318 124.789 115.816C125.14 115.986 125.447 116.257 125.793 116.501C125.515 116.931 125.305 117.016 124.925 116.738C123.909 116.003 122.752 116.155 122.037 117.078C121.35 117.961 121.521 119.426 122.4 120.139C123.37 120.937 124.8 120.643 125.26 119.545C125.316 119.409 125.316 119.251 125.361 118.985Z" fill="url(#paint11_linear_1177_3662)"/>
<path d="M107.297 118.391C107.302 120.1 106.173 121.266 104.527 121.249C102.922 121.232 101.81 120.06 101.816 118.402C101.821 116.744 102.956 115.572 104.556 115.578C106.161 115.572 107.29 116.733 107.297 118.391ZM106.474 118.453C106.479 117.248 105.81 116.387 104.789 116.286C103.745 116.184 102.842 116.851 102.678 117.864C102.451 119.211 103.047 120.303 104.136 120.547C105.424 120.83 106.463 119.902 106.474 118.453Z" fill="url(#paint12_linear_1177_3662)"/>
<path d="M174.105 118.43C174.099 120.088 172.97 121.249 171.359 121.243C169.753 121.243 168.624 120.077 168.624 118.419C168.618 116.727 169.776 115.544 171.404 115.567C173.016 115.601 174.111 116.761 174.105 118.43ZM169.447 118.447C169.453 119.681 170.173 120.53 171.251 120.575C172.074 120.609 172.743 120.292 173.061 119.522C173.418 118.651 173.447 117.757 172.823 116.959C172.488 116.529 172.034 116.297 171.478 116.274C170.247 116.223 169.441 117.078 169.447 118.447Z" fill="url(#paint13_linear_1177_3662)"/>
<path d="M78.7064 118.425C78.7007 120.072 77.5546 121.254 75.9603 121.249C74.3035 121.243 73.2141 120.1 73.2256 118.368C73.2312 116.71 74.3659 115.561 75.983 115.573C77.5716 115.584 78.712 116.778 78.7064 118.425ZM77.878 118.453C77.8837 117.078 77.0212 116.184 75.773 116.274C74.7801 116.348 74.0596 117.095 74.0028 118.255C73.9234 119.789 74.8822 120.62 76.0511 120.57C77.1348 120.53 77.8724 119.67 77.878 118.453Z" fill="url(#paint14_linear_1177_3662)"/>
<path d="M143.563 118.419C143.558 116.716 144.687 115.555 146.326 115.572C147.892 115.589 149.055 116.812 149.044 118.43C149.032 120.026 147.887 121.22 146.343 121.243C144.692 121.277 143.569 120.134 143.563 118.419ZM148.216 118.419C148.216 117.44 147.779 116.716 147.013 116.41C145.6 115.855 144.21 116.931 144.323 118.521C144.38 119.341 144.658 120.071 145.503 120.417C146.899 121 148.216 120.026 148.216 118.419Z" fill="url(#paint15_linear_1177_3662)"/>
<path d="M53.9744 119.036C54.4113 119.72 54.8311 120.377 55.2624 121.05C54.729 121.254 54.4113 121.118 54.1673 120.699C53.9404 120.309 53.6737 119.941 53.4297 119.562C53.0156 118.922 52.9985 118.917 52.068 119.104C52.068 119.726 52.068 120.371 52.068 120.988C51.4269 121.192 51.3361 121.158 51.3305 120.688C51.3134 119.132 51.3191 117.57 51.3248 116.014C51.3248 115.929 51.3645 115.844 51.3985 115.708C52.2837 115.708 53.1631 115.646 54.0311 115.725C54.7177 115.787 55.1602 116.359 55.2737 117.072C55.3815 117.734 55.0638 118.419 54.4964 118.747C54.3489 118.843 54.1843 118.922 53.9744 119.036ZM52.1077 116.404C52.1077 117.072 52.1077 117.638 52.1077 118.272C52.6695 118.272 53.1858 118.311 53.6964 118.26C54.2071 118.209 54.468 117.842 54.4624 117.321C54.4567 116.806 54.1787 116.455 53.6567 116.41C53.1687 116.37 52.6751 116.404 52.1077 116.404Z" fill="url(#paint16_linear_1177_3662)"/>
<path d="M66.6723 121.067C65.9518 121.181 65.912 121.198 65.7191 120.615C65.5375 120.071 65.2255 119.873 64.6695 119.936C64.2893 119.975 63.8979 119.981 63.5177 119.936C62.9674 119.873 62.695 120.1 62.5248 120.609C62.3262 121.203 62.2865 121.192 61.5829 121.05C61.6113 120.903 61.6227 120.75 61.6794 120.615C62.2695 119.126 62.8709 117.638 63.461 116.15C63.5801 115.85 63.7276 115.657 64.0964 115.663C64.4369 115.669 64.6354 115.776 64.7659 116.104C65.3843 117.683 66.0142 119.251 66.6383 120.824C66.6553 120.886 66.6553 120.954 66.6723 121.067ZM63.0865 119.183C63.8241 119.183 64.4595 119.183 65.1745 119.183C64.8227 118.311 64.539 117.513 64.1759 116.744C64.1248 116.755 64.0737 116.761 64.0227 116.772C63.7163 117.559 63.4099 118.345 63.0865 119.183Z" fill="url(#paint17_linear_1177_3662)"/>
<path d="M90.0765 121.062C89.356 121.198 89.3163 121.209 89.1178 120.632C88.9362 120.1 88.6468 119.868 88.0738 119.936C87.6936 119.981 87.3021 119.975 86.922 119.936C86.383 119.879 86.0936 120.077 85.9177 120.598C85.7192 121.198 85.6794 121.181 84.9532 121.056C85.01 120.864 85.044 120.677 85.1121 120.502C85.6794 119.075 86.2525 117.655 86.8199 116.229C86.939 115.923 87.0525 115.674 87.4667 115.663C87.9036 115.652 88.0624 115.878 88.1986 116.218C88.766 117.666 89.3503 119.109 89.9235 120.558C89.9972 120.722 90.0313 120.892 90.0765 121.062ZM88.5787 119.2C88.227 118.328 87.9092 117.536 87.5915 116.738C87.5405 116.744 87.4894 116.755 87.4326 116.761C87.1206 117.547 86.8086 118.334 86.4624 119.2C87.2057 119.2 87.8411 119.2 88.5787 119.2Z" fill="url(#paint18_linear_1177_3662)"/>
<path d="M133.634 121.067C132.891 121.186 132.845 121.198 132.658 120.615C132.477 120.066 132.159 119.879 131.603 119.936C131.245 119.975 130.877 119.975 130.519 119.936C129.918 119.862 129.617 120.111 129.436 120.677C129.265 121.203 129.208 121.192 128.511 121.045C128.556 120.875 128.579 120.699 128.641 120.541C129.214 119.092 129.798 117.649 130.377 116.206C130.502 115.895 130.621 115.657 131.036 115.657C131.427 115.657 131.597 115.838 131.728 116.167C132.323 117.678 132.931 119.183 133.532 120.694C133.571 120.801 133.589 120.909 133.634 121.067ZM129.997 119.211C130.758 119.211 131.382 119.211 132.113 119.211C131.768 118.345 131.45 117.547 131.132 116.749C131.081 116.749 131.03 116.749 130.973 116.749C130.661 117.53 130.355 118.311 129.997 119.211Z" fill="url(#paint19_linear_1177_3662)"/>
<path d="M156.97 121.05C157.016 120.881 157.05 120.699 157.112 120.541C157.69 119.092 158.275 117.649 158.848 116.2C158.973 115.889 159.103 115.663 159.518 115.663C159.915 115.663 160.074 115.855 160.198 116.183C160.777 117.655 161.373 119.121 161.952 120.586C162.008 120.728 162.037 120.886 162.077 121.033C161.413 121.226 161.322 121.226 161.14 120.654C160.953 120.077 160.63 119.868 160.045 119.941C159.665 119.986 159.274 119.981 158.894 119.941C158.377 119.89 158.122 120.094 157.952 120.575C157.719 121.22 157.685 121.209 156.97 121.05ZM159.603 116.738C159.552 116.738 159.501 116.738 159.444 116.744C159.132 117.542 158.826 118.345 158.491 119.205C159.223 119.205 159.847 119.205 160.584 119.205C160.239 118.334 159.921 117.536 159.603 116.738Z" fill="url(#paint20_linear_1177_3662)"/>
<path d="M47.4723 118.747C47.4723 119.307 47.4723 119.817 47.4723 120.411C47.8355 120.428 48.1872 120.445 48.539 120.456C49.0156 120.467 49.4921 120.445 49.963 120.49C50.0766 120.501 50.2184 120.711 50.2468 120.847C50.2638 120.926 50.0709 121.13 49.9744 121.13C48.9191 121.152 47.8581 121.141 46.7404 121.141C46.7404 119.307 46.7404 117.559 46.7404 115.753C46.9049 115.725 47.0751 115.68 47.251 115.68C48.068 115.674 48.8851 115.669 49.6964 115.68C49.9517 115.68 50.2979 115.606 50.2808 116.036C50.2638 116.45 49.929 116.376 49.668 116.382C49.1687 116.393 48.6695 116.382 48.1701 116.387C47.9489 116.393 47.7276 116.416 47.4723 116.433C47.4723 116.948 47.4723 117.412 47.4723 118C48.0397 118 48.5957 118 49.1517 118C49.3787 118 49.6056 118 49.8326 118.006C50.0538 118.011 50.2411 118.062 50.2524 118.334C50.2638 118.645 50.0538 118.702 49.8042 118.702C49.2595 118.702 48.7148 118.702 48.1701 118.708C47.9545 118.713 47.7333 118.736 47.4723 118.747Z" fill="url(#paint21_linear_1177_3662)"/>
<path d="M142.655 116.393C142.547 116.54 142.434 116.693 142.303 116.868C142.076 116.727 141.889 116.596 141.69 116.5C141.158 116.24 140.595 116.138 140.063 116.449C139.869 116.563 139.699 116.868 139.694 117.089C139.688 117.276 139.892 117.542 140.079 117.643C140.392 117.813 140.76 117.875 141.1 117.994C141.418 118.107 141.753 118.204 142.042 118.368C143.081 118.951 143.069 120.377 142.031 120.965C141.248 121.412 139.308 121.35 138.729 120.354C138.758 120.286 138.78 120.196 138.831 120.133C138.899 120.049 138.99 119.986 139.075 119.907C139.416 120.088 139.722 120.286 140.045 120.422C140.522 120.626 141.01 120.637 141.503 120.433C141.839 120.298 142.003 120.032 142.026 119.698C142.048 119.341 141.832 119.098 141.509 118.979C141.169 118.854 140.817 118.77 140.476 118.651C140.176 118.549 139.869 118.458 139.592 118.305C138.627 117.785 138.547 116.636 139.421 115.963C140.289 115.301 141.878 115.493 142.655 116.393Z" fill="url(#paint22_linear_1177_3662)"/>
<path d="M133.94 120.315C134.065 120.168 134.173 120.037 134.303 119.89C134.429 119.964 134.531 120.009 134.621 120.071C135.092 120.411 135.603 120.643 136.205 120.569C136.403 120.547 136.607 120.496 136.789 120.417C137.095 120.292 137.214 120.032 137.22 119.709C137.226 119.381 137.095 119.132 136.783 119.013C136.488 118.9 136.182 118.815 135.881 118.713C135.558 118.606 135.229 118.515 134.922 118.374C134.383 118.136 134.048 117.74 134.054 117.117C134.06 116.478 134.411 116.059 134.956 115.793C135.853 115.352 137.101 115.584 137.884 116.359C137.787 116.501 137.679 116.659 137.56 116.829C137.418 116.766 137.316 116.716 137.214 116.682C136.789 116.54 136.369 116.393 135.937 116.28C135.795 116.246 135.62 116.285 135.473 116.336C135.155 116.444 134.916 116.631 134.888 117.004C134.86 117.389 135.081 117.587 135.41 117.7C135.966 117.893 136.539 118.04 137.078 118.272C137.798 118.577 138.077 119.053 138.031 119.749C137.997 120.292 137.719 120.688 137.265 120.96C136.522 121.418 134.565 121.367 133.94 120.315Z" fill="url(#paint23_linear_1177_3662)"/>
<path d="M112.607 121.045C112.057 121.254 111.739 121.118 111.461 120.722C111.047 120.133 110.593 119.573 110.088 118.905C109.589 119.562 109.129 120.133 108.703 120.733C108.431 121.124 108.108 121.254 107.558 121.05C108.232 120.145 108.885 119.268 109.571 118.351C108.931 117.491 108.306 116.647 107.665 115.782C108.244 115.555 108.579 115.714 108.863 116.121C109.231 116.653 109.64 117.162 110.088 117.768C110.542 117.162 110.968 116.636 111.342 116.082C111.637 115.646 111.994 115.6 112.534 115.759C111.869 116.647 111.24 117.491 110.605 118.334C111.285 119.262 111.937 120.139 112.607 121.045Z" fill="url(#paint24_linear_1177_3662)"/>
<path d="M154.627 116.682C154.366 116.971 154.168 117.067 153.821 116.778C153.038 116.122 152.182 116.105 151.393 116.659C150.661 117.174 150.36 118.272 150.701 119.223C151.013 120.094 151.773 120.66 152.675 120.553C153.072 120.507 153.498 120.304 153.821 120.055C154.173 119.783 154.366 119.868 154.605 120.14C154.06 121.09 153.032 121.441 151.761 121.136C150.638 120.87 149.776 119.721 149.747 118.453C149.719 117.237 150.497 116.088 151.614 115.731C152.777 115.352 154.116 115.658 154.627 116.682Z" fill="url(#paint25_linear_1177_3662)"/>
<path d="M163.586 116.382C163.132 116.382 162.78 116.387 162.423 116.382C162.173 116.376 161.889 116.382 161.872 116.031C161.855 115.657 162.139 115.674 162.389 115.674C163.58 115.674 164.777 115.674 165.952 115.674C166.088 116.314 166.071 116.342 165.572 116.382C164.408 116.472 164.408 116.472 164.403 117.615C164.403 118.492 164.403 119.375 164.397 120.252C164.397 120.411 164.397 120.569 164.392 120.728C164.386 120.988 164.289 121.152 163.989 121.152C163.688 121.147 163.597 120.982 163.597 120.722C163.592 119.664 163.592 118.606 163.586 117.542C163.586 117.202 163.586 116.868 163.586 116.382Z" fill="url(#paint26_linear_1177_3662)"/>
<path d="M41.7758 115.674C43.0241 115.674 44.2439 115.674 45.4581 115.674C45.6851 115.674 45.912 115.737 45.8553 115.997C45.8212 116.144 45.6227 116.336 45.4751 116.353C45.078 116.404 44.6751 116.37 44.1701 116.37C44.1701 117.972 44.1701 119.494 44.1701 121.084C43.8695 121.107 43.6652 121.118 43.3985 121.141C43.3758 120.83 43.3418 120.592 43.3418 120.349C43.3361 119.245 43.3418 118.142 43.3304 117.038C43.3248 116.427 43.2907 116.399 42.6723 116.387C42.4907 116.382 42.3092 116.387 42.1276 116.382C41.6794 116.37 41.5829 116.15 41.7758 115.674Z" fill="url(#paint27_linear_1177_3662)"/>
<path d="M91.4838 120.456C92.0341 120.456 92.4765 120.456 92.9245 120.456C93.1061 120.456 93.2877 120.456 93.4692 120.462C93.7078 120.468 93.9402 120.485 93.9457 120.807C93.952 121.13 93.7245 121.158 93.4866 121.158C92.9871 121.158 92.4939 121.164 91.9944 121.158C90.5419 121.141 90.6894 121.362 90.6783 119.873C90.672 118.679 90.6664 117.48 90.6783 116.286C90.6783 116.099 90.729 115.855 90.848 115.748C91.1033 115.522 91.472 115.742 91.4783 116.127C91.495 117.072 91.4838 118.023 91.4838 118.968C91.4838 119.409 91.4838 119.856 91.4838 120.456Z" fill="url(#paint28_linear_1177_3662)"/>
<path d="M68.9305 116.376C68.9305 117.751 68.9305 118.968 68.9305 120.19C68.9305 120.394 68.9645 120.609 68.9078 120.796C68.8681 120.932 68.7149 121.09 68.5844 121.124C68.3404 121.186 68.2156 121.022 68.2099 120.773C68.2042 120.502 68.2042 120.23 68.2042 119.958C68.2042 118.81 68.2042 117.661 68.2042 116.404C67.7447 116.393 67.3475 116.382 66.9503 116.376C66.712 116.37 66.4794 116.348 66.4681 116.031C66.4567 115.72 66.6723 115.669 66.922 115.669C68.034 115.669 69.1461 115.669 70.2524 115.669C70.4681 115.669 70.6666 115.708 70.6723 115.991C70.6837 116.308 70.4794 116.365 70.2298 116.37C69.8269 116.382 69.4298 116.376 68.9305 116.376Z" fill="url(#paint29_linear_1177_3662)"/>
<path d="M156.278 115.776C156.278 116.234 156.278 116.659 156.278 117.083C156.278 118.255 156.272 119.426 156.266 120.598C156.266 120.881 156.266 121.152 155.858 121.147C155.45 121.141 155.466 120.847 155.466 120.575C155.461 119.132 155.45 117.695 155.461 116.251C155.466 115.68 155.529 115.652 156.278 115.776Z" fill="url(#paint30_linear_1177_3662)"/>
<path d="M166.905 115.719C167.183 115.719 167.382 115.719 167.614 115.719C167.642 115.923 167.688 116.093 167.688 116.268C167.694 117.689 167.688 119.104 167.682 120.524C167.682 120.637 167.711 120.779 167.654 120.852C167.558 120.971 167.405 121.124 167.274 121.124C167.143 121.124 166.961 120.977 166.905 120.847C166.837 120.694 166.871 120.496 166.871 120.315C166.865 119.053 166.865 117.791 166.865 116.529C166.871 116.285 166.894 116.042 166.905 115.719Z" fill="url(#paint31_linear_1177_3662)"/>
<path d="M71.478 115.719C71.7844 115.719 71.9772 115.719 72.1985 115.719C72.2326 115.901 72.2837 116.053 72.2893 116.206C72.295 117.666 72.295 119.132 72.278 120.592C72.278 120.756 72.2382 120.977 72.1305 121.079C71.8922 121.311 71.5063 121.096 71.495 120.716C71.4723 120.043 71.4837 119.37 71.478 118.691C71.4723 117.728 71.478 116.766 71.478 115.719Z" fill="url(#paint32_linear_1177_3662)"/>
<path d="M114.1 115.77C114.1 116.234 114.1 116.653 114.1 117.078C114.094 118.272 114.094 119.466 114.088 120.66C114.088 120.892 114.082 121.124 113.753 121.141C113.384 121.158 113.368 120.909 113.368 120.648C113.361 119.16 113.35 117.672 113.361 116.189C113.361 115.685 113.396 115.68 114.1 115.77Z" fill="url(#paint33_linear_1177_3662)"/>
<path d="M34.3319 115.759C35.0241 115.686 35.0525 115.691 35.0582 116.195C35.0638 117.683 35.0582 119.172 35.0468 120.655C35.0468 120.881 35.0525 121.124 34.7177 121.135C34.4681 121.147 34.3319 121.034 34.3319 120.785C34.3319 119.127 34.3319 117.463 34.3319 115.759Z" fill="url(#paint34_linear_1177_3662)"/>
<defs>
<linearGradient id="paint0_linear_1177_3662" x1="20" y1="76.9999" x2="84" y2="76.9999" gradientUnits="userSpaceOnUse">
<stop stop-color="#D2072A"/>
<stop offset="1" stop-color="#9D0D1C"/>
</linearGradient>
<linearGradient id="paint1_linear_1177_3662" x1="20" y1="76.9999" x2="84" y2="76.9999" gradientUnits="userSpaceOnUse">
<stop stop-color="#D2072A"/>
<stop offset="1" stop-color="#9D0D1C"/>
</linearGradient>
<linearGradient id="paint2_linear_1177_3662" x1="123.778" y1="109.624" x2="123.778" y2="77.0095" gradientUnits="userSpaceOnUse">
<stop stop-color="#1C3076"/>
<stop offset="1" stop-color="#156DAE"/>
</linearGradient>
<linearGradient id="paint3_linear_1177_3662" x1="158.997" y1="109.622" x2="158.997" y2="76.9884" gradientUnits="userSpaceOnUse">
<stop stop-color="#1C3076"/>
<stop offset="1" stop-color="#156DAE"/>
</linearGradient>
<linearGradient id="paint4_linear_1177_3662" x1="97.2174" y1="109.611" x2="97.2174" y2="76.9997" gradientUnits="userSpaceOnUse">
<stop stop-color="#1C3076"/>
<stop offset="1" stop-color="#156DAE"/>
</linearGradient>
<linearGradient id="paint5_linear_1177_3662" x1="81.865" y1="121.123" x2="81.865" y2="115.672" gradientUnits="userSpaceOnUse">
<stop stop-color="#1C3076"/>
<stop offset="1" stop-color="#156DAE"/>
</linearGradient>
<linearGradient id="paint6_linear_1177_3662" x1="38.4623" y1="121.12" x2="38.4623" y2="115.667" gradientUnits="userSpaceOnUse">
<stop stop-color="#1C3076"/>
<stop offset="1" stop-color="#156DAE"/>
</linearGradient>
<linearGradient id="paint7_linear_1177_3662" x1="177.264" y1="121.153" x2="177.264" y2="115.674" gradientUnits="userSpaceOnUse">
<stop stop-color="#1C3076"/>
<stop offset="1" stop-color="#156DAE"/>
</linearGradient>
<linearGradient id="paint8_linear_1177_3662" x1="58.4673" y1="121.162" x2="58.4673" y2="115.675" gradientUnits="userSpaceOnUse">
<stop stop-color="#1C3076"/>
<stop offset="1" stop-color="#156DAE"/>
</linearGradient>
<linearGradient id="paint9_linear_1177_3662" x1="98.9071" y1="121.157" x2="98.9071" y2="115.672" gradientUnits="userSpaceOnUse">
<stop stop-color="#1C3076"/>
<stop offset="1" stop-color="#156DAE"/>
</linearGradient>
<linearGradient id="paint10_linear_1177_3662" x1="117.5" y1="121.147" x2="117.5" y2="115.675" gradientUnits="userSpaceOnUse">
<stop stop-color="#1C3076"/>
<stop offset="1" stop-color="#156DAE"/>
</linearGradient>
<linearGradient id="paint11_linear_1177_3662" x1="123.395" y1="121.256" x2="123.395" y2="115.559" gradientUnits="userSpaceOnUse">
<stop stop-color="#1C3076"/>
<stop offset="1" stop-color="#156DAE"/>
</linearGradient>
<linearGradient id="paint12_linear_1177_3662" x1="104.445" y1="121.249" x2="104.445" y2="115.571" gradientUnits="userSpaceOnUse">
<stop stop-color="#1C3076"/>
<stop offset="1" stop-color="#156DAE"/>
</linearGradient>
<linearGradient id="paint13_linear_1177_3662" x1="171.254" y1="121.243" x2="171.254" y2="115.56" gradientUnits="userSpaceOnUse">
<stop stop-color="#1C3076"/>
<stop offset="1" stop-color="#156DAE"/>
</linearGradient>
<linearGradient id="paint14_linear_1177_3662" x1="75.855" y1="121.249" x2="75.855" y2="115.566" gradientUnits="userSpaceOnUse">
<stop stop-color="#1C3076"/>
<stop offset="1" stop-color="#156DAE"/>
</linearGradient>
<linearGradient id="paint15_linear_1177_3662" x1="146.193" y1="121.244" x2="146.193" y2="115.565" gradientUnits="userSpaceOnUse">
<stop stop-color="#1C3076"/>
<stop offset="1" stop-color="#156DAE"/>
</linearGradient>
<linearGradient id="paint16_linear_1177_3662" x1="53.2264" y1="121.144" x2="53.2264" y2="115.678" gradientUnits="userSpaceOnUse">
<stop stop-color="#1C3076"/>
<stop offset="1" stop-color="#156DAE"/>
</linearGradient>
<linearGradient id="paint17_linear_1177_3662" x1="64.0247" y1="121.131" x2="64.0247" y2="115.656" gradientUnits="userSpaceOnUse">
<stop stop-color="#1C3076"/>
<stop offset="1" stop-color="#156DAE"/>
</linearGradient>
<linearGradient id="paint18_linear_1177_3662" x1="87.4113" y1="121.139" x2="87.4113" y2="115.656" gradientUnits="userSpaceOnUse">
<stop stop-color="#1C3076"/>
<stop offset="1" stop-color="#156DAE"/>
</linearGradient>
<linearGradient id="paint19_linear_1177_3662" x1="130.969" y1="121.133" x2="130.969" y2="115.651" gradientUnits="userSpaceOnUse">
<stop stop-color="#1C3076"/>
<stop offset="1" stop-color="#156DAE"/>
</linearGradient>
<linearGradient id="paint20_linear_1177_3662" x1="159.42" y1="121.149" x2="159.42" y2="115.656" gradientUnits="userSpaceOnUse">
<stop stop-color="#1C3076"/>
<stop offset="1" stop-color="#156DAE"/>
</linearGradient>
<linearGradient id="paint21_linear_1177_3662" x1="48.4393" y1="121.144" x2="48.4393" y2="115.667" gradientUnits="userSpaceOnUse">
<stop stop-color="#1C3076"/>
<stop offset="1" stop-color="#156DAE"/>
</linearGradient>
<linearGradient id="paint22_linear_1177_3662" x1="140.689" y1="121.232" x2="140.689" y2="115.562" gradientUnits="userSpaceOnUse">
<stop stop-color="#1C3076"/>
<stop offset="1" stop-color="#156DAE"/>
</linearGradient>
<linearGradient id="paint23_linear_1177_3662" x1="135.905" y1="121.235" x2="135.905" y2="115.564" gradientUnits="userSpaceOnUse">
<stop stop-color="#1C3076"/>
<stop offset="1" stop-color="#156DAE"/>
</linearGradient>
<linearGradient id="paint24_linear_1177_3662" x1="109.98" y1="121.146" x2="109.98" y2="115.669" gradientUnits="userSpaceOnUse">
<stop stop-color="#1C3076"/>
<stop offset="1" stop-color="#156DAE"/>
</linearGradient>
<linearGradient id="paint25_linear_1177_3662" x1="152.088" y1="121.244" x2="152.088" y2="115.568" gradientUnits="userSpaceOnUse">
<stop stop-color="#1C3076"/>
<stop offset="1" stop-color="#156DAE"/>
</linearGradient>
<linearGradient id="paint26_linear_1177_3662" x1="163.864" y1="121.153" x2="163.864" y2="115.667" gradientUnits="userSpaceOnUse">
<stop stop-color="#1C3076"/>
<stop offset="1" stop-color="#156DAE"/>
</linearGradient>
<linearGradient id="paint27_linear_1177_3662" x1="43.6883" y1="121.142" x2="43.6883" y2="115.668" gradientUnits="userSpaceOnUse">
<stop stop-color="#1C3076"/>
<stop offset="1" stop-color="#156DAE"/>
</linearGradient>
<linearGradient id="paint28_linear_1177_3662" x1="92.2428" y1="121.161" x2="92.2428" y2="115.65" gradientUnits="userSpaceOnUse">
<stop stop-color="#1C3076"/>
<stop offset="1" stop-color="#156DAE"/>
</linearGradient>
<linearGradient id="paint29_linear_1177_3662" x1="68.4851" y1="121.138" x2="68.4851" y2="115.662" gradientUnits="userSpaceOnUse">
<stop stop-color="#1C3076"/>
<stop offset="1" stop-color="#156DAE"/>
</linearGradient>
<linearGradient id="paint30_linear_1177_3662" x1="155.85" y1="121.147" x2="155.85" y2="115.709" gradientUnits="userSpaceOnUse">
<stop stop-color="#1C3076"/>
<stop offset="1" stop-color="#156DAE"/>
</linearGradient>
<linearGradient id="paint31_linear_1177_3662" x1="167.26" y1="121.124" x2="167.26" y2="115.713" gradientUnits="userSpaceOnUse">
<stop stop-color="#1C3076"/>
<stop offset="1" stop-color="#156DAE"/>
</linearGradient>
<linearGradient id="paint32_linear_1177_3662" x1="71.8675" y1="121.175" x2="71.8675" y2="115.713" gradientUnits="userSpaceOnUse">
<stop stop-color="#1C3076"/>
<stop offset="1" stop-color="#156DAE"/>
</linearGradient>
<linearGradient id="paint33_linear_1177_3662" x1="113.713" y1="121.142" x2="113.713" y2="115.719" gradientUnits="userSpaceOnUse">
<stop stop-color="#1C3076"/>
<stop offset="1" stop-color="#156DAE"/>
</linearGradient>
<linearGradient id="paint34_linear_1177_3662" x1="34.6814" y1="121.137" x2="34.6814" y2="115.719" gradientUnits="userSpaceOnUse">
<stop stop-color="#1C3076"/>
<stop offset="1" stop-color="#156DAE"/>
</linearGradient>
</defs>
</svg>
