<svg width="200" height="200" viewBox="0 0 200 200" fill="none" xmlns="http://www.w3.org/2000/svg">
<g clip-path="url(#clip0_1177_3611)">
<path fill-rule="evenodd" clip-rule="evenodd" d="M30.787 113.945H33.281C37.934 113.945 38.275 111.11 38.275 107.138C38.275 103.11 37.538 101.009 33.34 101.009H30.787V113.945ZM30.787 95.9081H33.395C37.253 95.9081 38.274 93.9201 38.274 90.2341C38.274 86.6581 36.968 84.7881 33.167 84.7881H30.786L30.787 95.9081ZM25 79.3411H33.453C40.939 79.3411 43.721 84.2771 43.721 89.5521V91.0251C43.721 95.3381 42.302 96.9251 39.748 98.5171C42.47 99.8171 43.721 102.261 43.721 106.455V108.727C43.721 115.761 40.373 119.727 32.885 119.727H25V79.3411Z" fill="#7C2629"/>
<path d="M55.127 79.3411H49.341V119.73H55.127V79.3411Z" fill="#7C2629"/>
<path fill-rule="evenodd" clip-rule="evenodd" d="M103.3 110.711C103.307 113.166 102.347 115.526 100.626 117.278C98.9063 119.03 96.5651 120.034 94.11 120.072C89.687 120.072 84.579 117.917 84.579 110.542V88.303C84.5404 87.0612 84.7585 85.8248 85.2197 84.6712C85.6809 83.5175 86.3752 82.4715 87.2593 81.5985C88.1433 80.7256 89.198 80.0445 90.3574 79.5979C91.5167 79.1512 92.7558 78.9487 93.997 79.003C99.329 79.003 103.297 83.031 103.297 88.647V90.914H97.515V88.989C97.515 86.718 96.153 84.789 93.938 84.789C91.047 84.789 90.365 86.773 90.365 89.497V110.148C90.365 112.471 91.274 114.285 93.885 114.285C95.472 114.285 97.515 113.377 97.515 110.201V108.215H103.3V110.711Z" fill="#7C2629"/>
<path fill-rule="evenodd" clip-rule="evenodd" d="M116.865 90.9701H116.755L113.917 105.604H119.703L116.865 90.9701ZM114.424 79.3411H119.247L128.267 119.73H122.481L120.781 111.051H112.897L111.197 119.73H105.407L114.424 79.3411Z" fill="#7C2629"/>
<path fill-rule="evenodd" clip-rule="evenodd" d="M136.892 97.384H140.182C144.213 97.384 144.835 95.114 144.835 91.09C144.835 87.003 144.154 84.79 139.899 84.79H136.891L136.892 97.384ZM131.108 79.345H140.408C147.272 79.345 150.62 83.372 150.62 91.202C150.62 95.853 149.314 99.256 145.626 101.302L151.866 119.737H145.741L140.355 102.484H136.892V119.729H131.108V79.345Z" fill="#7C2629"/>
<path fill-rule="evenodd" clip-rule="evenodd" d="M161.069 114.284H163.733C166.969 114.284 168.216 112.696 168.216 109.237V89.7771C168.216 86.6021 167.135 84.787 163.732 84.787H161.068L161.069 114.284ZM155.279 79.3411H163.847C170.369 79.3411 174 83.2551 174 89.7771V108.669C174 116.155 170.144 119.73 163.336 119.73H155.276L155.279 79.3411Z" fill="#7C2629"/>
<path fill-rule="evenodd" clip-rule="evenodd" d="M60.405 101.212V110.2C60.3502 111.496 60.5623 112.79 61.0282 114.001C61.494 115.212 62.2037 116.315 63.1131 117.24C64.0226 118.166 65.1125 118.894 66.3152 119.381C67.5179 119.868 68.8078 120.103 70.105 120.071C71.4022 120.103 72.6922 119.869 73.895 119.382C75.0978 118.895 76.1877 118.166 77.0972 117.24C78.0067 116.315 78.7163 115.212 79.1821 114.001C79.6479 112.79 79.8599 111.496 79.805 110.2V101.212H60.405Z" fill="#7C2629"/>
<path fill-rule="evenodd" clip-rule="evenodd" d="M79.808 97.871V88.871C79.8629 87.5745 79.6509 86.2806 79.1851 85.0694C78.7193 83.8583 78.0097 82.7557 77.1002 81.8301C76.1908 80.9045 75.1008 80.1756 73.898 79.6886C72.6952 79.2016 71.4052 78.9669 70.108 78.999C68.8107 78.9669 67.5207 79.2016 66.318 79.6886C65.1152 80.1756 64.0252 80.9045 63.1158 81.8301C62.2063 82.7557 61.4967 83.8583 61.0309 85.0694C60.5651 86.2806 60.3531 87.5745 60.408 88.871V97.871H79.808Z" fill="#7C2629"/>
</g>
<defs>
<clipPath id="clip0_1177_3611">
<rect width="149" height="41.072" fill="white" transform="translate(25 79)"/>
</clipPath>
</defs>
</svg>
