<svg width="200" height="200" viewBox="0 0 200 200" fill="none" xmlns="http://www.w3.org/2000/svg">
<mask id="mask0_1177_5216" style="mask-type:luminance" maskUnits="userSpaceOnUse" x="17" y="92" width="165" height="17">
<path d="M181.459 92.0767H17.459V108.077H181.459V92.0767Z" fill="white"/>
</mask>
<g mask="url(#mask0_1177_5216)">
<path d="M20.4143 97.7689C19.6819 97.4862 19.1251 97.3706 18.7054 97.3749H18.6711C18.6711 97.3749 18.6325 97.3749 18.6154 97.3749C18.5983 97.3749 18.5811 97.3749 18.564 97.3749C18.5469 97.3749 18.5255 97.3749 18.5041 97.3792C18.4912 97.3792 18.4826 97.3792 18.4698 97.3792C18.4398 97.3792 18.4141 97.3877 18.3841 97.392H18.3798C18.2942 97.4091 18.2171 97.4306 18.1443 97.4563C17.9044 97.5462 17.7117 97.7047 17.6217 97.9488C17.5832 98.0345 17.5575 98.1244 17.5361 98.2186C17.5018 98.3771 17.4847 98.497 17.459 98.7026V106.776C17.459 106.823 17.459 106.866 17.4676 106.913C17.5018 107.466 17.8487 107.778 18.3584 107.881C18.3627 107.881 18.3713 107.881 18.3756 107.881C18.4912 107.903 18.6111 107.915 18.7396 107.915C18.8124 107.915 18.881 107.916 18.9538 107.903H28.9504C30.8136 105.35 25.5968 99.7477 20.4143 97.7646V97.7689Z" fill="#FD7D5A"/>
<path d="M34.664 93.4644C34.4627 92.0852 30.9206 92.0767 30.9206 92.0767H18.5811L18.5726 92.0852C17.9258 92.1366 17.4675 92.4793 17.4675 93.1646C17.4675 93.1646 18.367 96.304 25.3055 96.7323C26.7361 96.8223 29.8242 96.4411 31.9229 95.6444C34.0044 94.8521 34.754 94.0983 34.6597 93.4644H34.664Z" fill="#FD7D5A"/>
<path d="M42.926 92.0767C42.7033 92.0767 42.4806 92.1109 42.2836 92.1923C42.1337 92.2565 33.3962 96.0128 31.5031 98.9081C29.5886 101.833 30.6508 104.121 31.85 105.607C33.045 107.097 34.1329 107.903 34.1329 107.903H42.9475C43.6542 107.894 44.1767 107.569 44.1981 106.866V93.1646C44.1981 92.4193 43.6584 92.0809 42.926 92.0809V92.0767Z" fill="#FD7D5A"/>
<path d="M59.2314 96.8779C59.0002 94.6893 57.7024 93.7984 55.4752 93.7984C53.248 93.7984 52.0573 94.7107 52.0573 96.304C52.0573 98.0044 53.8176 98.3641 56.1562 98.8524C58.619 99.3621 61.7627 100.129 61.7627 103.311C61.7627 106.669 58.7689 107.898 55.8821 107.898C52.2715 107.898 49.6203 106.219 49.6203 102.566H51.5519C51.6376 105.307 53.6335 106.262 56.0534 106.262C57.818 106.262 59.8097 105.645 59.8097 103.5C59.8097 101.546 57.8994 101.165 55.4152 100.591C52.9739 100.039 50.1471 99.6362 50.1471 96.4496C50.1471 93.263 52.9011 92.1409 55.6208 92.1409C58.8288 92.1409 61.0346 93.6271 61.1631 96.8779H59.2314Z" fill="#FD7D5A"/>
<path d="M77.8499 99.8718C77.8499 104.309 75.4086 107.92 70.6073 107.92C65.806 107.92 63.3689 104.223 63.3689 99.829C63.3689 95.1133 66.1914 92.0767 70.5859 92.0767C75.2801 92.0767 77.8499 95.366 77.8499 99.8718ZM65.3648 99.9789C65.3648 103.757 67.425 106.198 70.633 106.198C73.841 106.198 75.854 103.735 75.854 99.9789C75.854 96.2227 73.7939 93.8199 70.5901 93.8199C67.0224 93.8199 65.3648 96.7495 65.3648 99.9789Z" fill="#FD7D5A"/>
<path d="M90.3949 107.555H80.3725V92.4363H82.3684V105.812H90.3949V107.551V107.555Z" fill="#FD7D5A"/>
<path d="M105.788 99.8718C105.788 104.309 103.347 107.92 98.5499 107.92C93.7528 107.92 91.3115 104.223 91.3115 99.829C91.3115 95.1133 94.134 92.0767 98.5327 92.0767C103.227 92.0767 105.793 95.366 105.793 99.8718H105.788ZM93.3031 99.9789C93.3031 103.757 95.3633 106.198 98.567 106.198C101.771 106.198 103.792 103.735 103.792 99.9789C103.792 96.2227 101.732 93.8199 98.5284 93.8199C94.9606 93.8199 93.3031 96.7495 93.3031 99.9789Z" fill="#FD7D5A"/>
<path d="M114.594 92.4363C117.481 92.4363 119.627 93.6484 119.627 96.7922C119.627 100.21 117.417 101.358 114.466 101.358H110.367V107.56H108.371V92.4363H114.59H114.594ZM110.371 99.6789H114.213C116.145 99.6789 117.631 99.1478 117.631 96.9164C117.631 94.4964 115.913 94.1581 113.935 94.1581H110.367V99.6789H110.371Z" fill="#FD7D5A"/>
<path d="M134.022 107.555H132.026V100.488H124.043V107.56H122.047V92.4363H124.043V98.7452H132.026V92.4363H134.022V107.555Z" fill="#FD7D5A"/>
<path d="M149.625 107.555H147.394L145.715 102.925H139.367L137.65 107.555H135.525L141.47 92.4363H143.719L149.621 107.555H149.625ZM142.554 94.3465L139.941 101.332H145.124L142.554 94.3465Z" fill="#FD7D5A"/>
<path d="M157.776 92.4363C160.62 92.4363 162.851 93.3743 162.851 96.6208C162.851 98.3812 161.811 99.8503 160.26 100.296C162.385 100.741 162.47 102.184 162.552 104.013C162.616 105.225 162.616 106.75 163.421 107.56H161.13C160.637 106.797 160.663 105.097 160.62 104.227C160.492 101.679 159.832 101.02 157.095 101.02H153.125V107.56H151.129V92.4363H157.776ZM153.125 99.422H156.881C158.834 99.422 160.851 99.2292 160.851 96.745C160.851 94.4964 159.194 94.1367 157.412 94.1367H153.125V99.422Z" fill="#FD7D5A"/>
<path d="M168.454 92.4363L173.315 105.238L178.009 92.4363H180.789V107.555H178.9V94.9419L174.163 107.555H172.424L167.601 94.9419V107.555H165.691V92.4363H168.454Z" fill="#FD7D5A"/>
</g>
</svg>
