<svg width="200" height="200" viewBox="0 0 200 200" fill="none" xmlns="http://www.w3.org/2000/svg">
<g clip-path="url(#clip0_1177_3942)">
<path fill-rule="evenodd" clip-rule="evenodd" d="M95.3168 87.3677L90.2028 113.001H96.0109L101.125 87.3677H95.3168Z" fill="#0097B3"/>
<path fill-rule="evenodd" clip-rule="evenodd" d="M37.9221 87.3677H32.114L27 113.001H32.8081L37.9221 87.3677Z" fill="#0097B3"/>
<path fill-rule="evenodd" clip-rule="evenodd" d="M93.434 87.3677H87.6259L76.8155 105.159L73.4009 87.3677H67.5928L72.5073 113.001H77.8527L93.434 87.3677Z" fill="#0097B3"/>
<path fill-rule="evenodd" clip-rule="evenodd" d="M122.841 87.3677H103.885L102.88 92.7529H109.478L105.433 113.001H111.241L115.278 92.7529H121.844L122.841 87.3677Z" fill="#0097B3"/>
<path fill-rule="evenodd" clip-rule="evenodd" d="M60.3726 87.3677L56.9898 104.329L48.1022 87.3677H43.0839L37.9779 113.001H43.5706L46.9613 96L55.825 113.001H60.8592L65.9652 87.3677H60.3726Z" fill="#0097B3"/>
<path fill-rule="evenodd" clip-rule="evenodd" d="M136.652 87.3677H126.001L120.887 113.001H126.727L130.716 92.7529H135.734C136.744 92.7058 137.729 93.0716 138.463 93.7661C139.025 94.3731 139.298 95.193 139.213 96.016C138.965 98.5929 136.939 99.7817 134.314 99.7817H130.078L135.535 113.001H141.343L137.713 104.225C141.91 103.686 145.059 100.12 145.076 95.8883C145.316 90.9179 141.662 87.3677 136.628 87.3677" fill="#0097B3"/>
<path d="M146.177 100.189C146.619 92.7293 152.835 86.9281 160.307 87.0007C168.038 87.0007 173.255 92.8646 172.832 100.181C172.391 107.64 166.175 113.441 158.703 113.368C150.972 113.368 145.755 107.505 146.185 100.189M167.431 100.189C167.621 98.1082 166.912 96.046 165.484 94.5216C164.056 92.9973 162.044 92.1562 159.956 92.2104C155.477 92.1932 151.784 95.7143 151.587 100.189C151.397 102.269 152.105 104.331 153.534 105.855C154.962 107.38 156.974 108.221 159.062 108.167C163.544 108.188 167.242 104.666 167.439 100.189" fill="#0097B3"/>
</g>
<defs>
<clipPath id="clip0_1177_3942">
<rect width="146" height="26.5455" fill="white" transform="translate(27 87)"/>
</clipPath>
</defs>
</svg>
