<svg width="200" height="200" viewBox="0 0 200 200" fill="none" xmlns="http://www.w3.org/2000/svg">
<g clip-path="url(#clip0_1177_4726)">
<mask id="mask0_1177_4726" style="mask-type:luminance" maskUnits="userSpaceOnUse" x="40" y="66" width="121" height="69">
<path d="M160.746 66.3416H40.1745V134.658H160.746V66.3416Z" fill="white"/>
</mask>
<g mask="url(#mask0_1177_4726)">
<path fill-rule="evenodd" clip-rule="evenodd" d="M157.491 108.822C157.686 108.822 158.606 108.838 158.606 109.79C158.606 110.262 158.248 110.538 157.849 110.612V110.563C158.019 110.587 158.166 110.766 158.248 110.953L158.858 112.361H158.353L157.759 111.051C157.678 110.872 157.629 110.758 157.336 110.758H156.937V112.361H156.473V108.822H157.491ZM156.937 110.351H157.368C157.873 110.351 158.117 110.058 158.117 109.79C158.117 109.578 158.06 109.228 157.474 109.228H156.937V110.351ZM157.556 107.569C159.207 107.569 160.558 108.919 160.558 110.571C160.558 112.222 159.207 113.573 157.556 113.573C155.904 113.573 154.554 112.222 154.554 110.571C154.554 108.919 155.904 107.569 157.556 107.569ZM157.556 113.166C159.004 113.166 160.151 112.019 160.151 110.571C160.151 109.123 159.004 107.975 157.556 107.975C156.107 107.975 154.96 109.123 154.96 110.571C154.96 112.019 156.107 113.166 157.556 113.166Z" fill="#E5172F" stroke="#E5172F" stroke-width="0.0616779"/>
<path fill-rule="evenodd" clip-rule="evenodd" d="M54.8 85.566C54.3183 85.1262 54.0486 84.6223 53.898 84.2025C53.7477 83.7668 53.5532 83.2231 53.5532 82.7614C53.5626 80.6789 54.7781 79.1322 56.0865 78.4158C56.6813 78.0907 56.9019 77.8677 56.993 77.7528C56.9486 77.735 56.8932 77.7176 56.8555 77.7176C55.0747 77.7176 54.1615 77.0258 53.7132 76.44C53.2883 75.8914 53.0715 75.1843 53.0715 74.4109C53.0715 74.035 53.1246 73.6419 53.2288 73.2395C53.7302 72.4105 54.2074 72.6384 54.4992 73.0625C54.6855 73.3281 55.9605 74.2318 57.5317 74.3753C58.675 74.4838 59.2911 75.0429 59.6116 75.4896C59.9808 76.0066 60.1227 76.6297 60.1227 77.1601C60.1227 77.3771 60.0983 77.5806 60.0513 77.7615C59.8792 78.4602 59.1433 79.0899 58.1181 79.8923L57.5367 80.3741C56.6854 81.119 56.2168 81.9483 56.2168 82.6508C56.2168 82.8263 56.2477 82.9973 56.3072 83.1552C56.332 83.2203 56.361 83.2828 56.3957 83.3424C56.7764 83.9861 57.8508 84.3901 59.4107 83.8445C60.1314 83.5946 61.5195 82.7212 62.3662 81.8814C63.3629 80.8866 64.6936 80.6482 65.9755 80.5468C67.0866 80.4629 67.7701 80.1906 68.2522 79.649C69.6755 78.0447 71.0458 77.8195 72.3277 77.724C72.8183 77.6863 72.8452 77.6511 72.9086 77.5647C73.6154 76.6235 74.3414 76.1253 74.9932 75.8354C75.4898 75.6142 75.9431 75.5137 76.3146 75.4321L76.7657 75.3213L76.8782 75.2818C77.5922 75.0521 78.1447 74.8615 79.597 73.8803L79.6586 73.841L79.6592 73.8402L79.7199 73.8022L79.7204 73.8016L79.7814 73.7658L79.7828 73.7652L79.8437 73.73L79.8448 73.7295L79.9062 73.697L79.9082 73.6962L79.9687 73.6644L79.9707 73.6639L80.0321 73.6342L80.0343 73.6334L80.0958 73.6049L80.098 73.6037L80.1594 73.578L80.1622 73.5768L80.2237 73.5515L80.2269 73.5507L80.2887 73.5275L80.2919 73.5258L80.3528 73.5039L80.4182 73.482L80.4223 73.4809L80.483 73.4616L80.4871 73.4605L80.5485 73.4426L80.5529 73.4414L80.6137 73.4244L80.6186 73.4233L80.68 73.4085L80.6851 73.4074L80.7457 73.3934L80.7508 73.3923L80.8122 73.3796L80.8175 73.3785L80.8784 73.367L80.8839 73.3664L80.9448 73.3561L80.9504 73.3552L81.0111 73.3462L81.017 73.3451L81.078 73.3375L81.0839 73.3364L81.1437 73.3295L81.1504 73.3292L81.2106 73.3237L81.2177 73.3229L81.2775 73.3185L81.2846 73.3179L81.3442 73.3143L81.3513 73.3136L81.4111 73.3111L81.478 73.3091H81.4851L81.5444 73.3082H81.6111H81.6189L81.6776 73.3091L81.6852 73.3097H81.6918C81.7341 73.3108 81.7766 73.3132 81.8189 73.3156L81.8771 73.3191L81.8854 73.3196L81.9428 73.324L81.9516 73.3249L82.009 73.3304L82.0181 73.3316L82.075 73.3371L82.0843 73.338L82.1408 73.3451L82.15 73.3462L82.2063 73.3533L82.2158 73.3551L82.2717 73.3634L82.281 73.3651L82.3369 73.3738L82.3468 73.3755L82.4015 73.385L82.4118 73.3867L82.4661 73.3968L82.476 73.399C82.5627 73.4152 82.6477 73.4342 82.7321 73.4549L82.7847 73.468L82.7956 73.471C82.8799 73.4928 82.9634 73.5163 83.0452 73.5409L83.0944 73.5558L83.1064 73.5595C83.2692 73.6107 83.4271 73.6687 83.5795 73.7301L83.6228 73.7478L83.6791 73.7713C86.7846 69.5525 91.6944 66.7452 97.2751 66.4914C97.3663 66.4873 97.458 66.4833 97.5507 66.4805C97.6417 66.4776 97.7337 66.4757 97.8264 66.4745C97.9183 66.4725 98.011 66.4717 98.1036 66.4717C98.1947 66.4717 98.2857 66.4725 98.3767 66.4737C98.468 66.4754 98.5581 66.4771 98.6492 66.4799C98.7395 66.4827 98.8299 66.4863 98.9203 66.4902C99.0097 66.4946 99.1006 66.4989 99.1909 66.5045C104.59 66.8289 109.346 69.5484 112.409 73.6142C112.846 73.4622 113.322 73.3521 113.81 73.3188L113.822 73.3182L113.868 73.3152L113.915 73.313L113.928 73.3123L113.94 73.3118L113.987 73.3101L113.999 73.3095L114.047 73.3089L114.059 73.3084L114.107 73.3078H114.118L114.166 73.3084H114.178L114.237 73.3095L114.286 73.3115L114.297 73.3121L114.345 73.3144L114.356 73.3149L114.405 73.3181L114.415 73.319L114.465 73.3229L114.474 73.3235L114.524 73.3283L114.534 73.3295C114.651 73.3416 114.77 73.3596 114.888 73.3837L114.939 73.3945L114.947 73.3962L114.998 73.4085L115.006 73.4102L115.058 73.4233L115.064 73.425L115.116 73.4388L115.122 73.4405L115.176 73.4554L115.181 73.4571L115.233 73.4734L115.238 73.4751L115.292 73.4924L115.296 73.4941L115.354 73.5144L115.408 73.5334L115.411 73.5351L115.465 73.5561L115.468 73.5578L115.523 73.5797L115.526 73.5814C115.62 73.6209 115.713 73.6653 115.806 73.7151L115.807 73.7163L115.862 73.7455L115.862 73.7464L115.917 73.7776L115.918 73.7782L115.972 73.8111L115.973 73.8113L116.027 73.8453L116.082 73.8813C117.083 74.5611 117.66 74.8609 118.154 75.0565C118.375 75.1449 118.581 75.2115 118.8 75.2827L118.915 75.3223L119.37 75.4331C119.617 75.4874 119.899 75.5499 120.205 75.6501C120.969 75.8994 121.884 76.3824 122.769 77.5657C122.833 77.6522 122.863 77.6873 123.355 77.7251C124.636 77.8204 126.004 78.0457 127.433 79.65C127.911 80.1916 128.592 80.4639 129.703 80.5478C130.992 80.6492 132.319 80.8876 133.313 81.8823C134.161 82.7222 135.547 83.5956 136.27 83.8455C137.829 84.3911 138.909 83.9871 139.281 83.3434C139.362 83.2075 139.417 83.0581 139.444 82.9001C139.458 82.819 139.467 82.7358 139.467 82.6519C139.467 81.9493 138.997 81.12 138.148 80.3751L138.042 80.2876L137.561 79.8932C136.54 79.0909 135.805 78.4612 135.626 77.7625C135.58 77.5816 135.56 77.3781 135.56 77.1611C135.56 76.6307 135.705 76.0078 136.067 75.4906C136.389 75.0439 137.013 74.4848 138.148 74.3763C139.728 74.2328 140.995 73.3291 141.181 73.0635C141.479 72.6394 141.951 72.4115 142.45 73.2405C142.557 73.6427 142.609 74.036 142.609 74.4119C142.609 75.1897 142.393 75.8925 141.968 76.441C141.517 77.0268 140.607 77.7186 138.823 77.7186C138.785 77.7186 138.732 77.7361 138.688 77.7538C138.777 77.8687 138.997 78.0917 139.594 78.4168C140.903 79.1332 142.119 80.68 142.13 82.7624C142.13 83.224 141.938 83.7678 141.783 84.2035C141.648 84.5796 141.418 85.0235 141.028 85.4279C140.982 85.4751 140.935 85.5212 140.885 85.567C140.148 86.2516 138.921 86.7889 136.875 86.6666C136.669 86.6544 136.454 86.6349 136.23 86.6084C136.178 87.6405 135.894 88.8668 135.496 89.4859C135.374 89.6802 135.351 89.8105 135.351 89.8747C135.351 89.9013 135.353 89.9172 135.353 89.9282C135.366 89.9326 136.261 90.4605 136.261 90.4605L136.405 90.5339C136.405 90.5339 136.489 90.5733 136.5 90.5826C136.513 90.5777 136.81 90.5646 136.81 90.5646L136.868 90.5563L136.873 90.5555C137.433 90.5024 138.288 90.2285 138.65 91.2431C138.746 91.5124 138.804 91.7464 138.858 91.9545C138.969 92.3788 139.064 92.6941 139.435 92.9806C139.436 92.9806 139.62 92.8228 139.828 92.6375C139.998 92.4857 140.184 92.3158 140.301 92.2002C140.56 91.9349 141.04 92.0699 141.384 92.2002C141.734 92.3326 142.166 92.6336 142.472 92.8078C142.779 92.9806 142.949 93.199 143.038 93.4603C143.13 93.721 143.344 93.8933 143.67 94.0659C143.984 94.2446 144.435 94.8172 144.435 95.5906C144.435 95.709 144.449 95.8104 144.482 95.9182C144.504 95.9895 144.535 96.0635 144.578 96.1479C145.018 97.0339 144.664 97.4804 144.411 97.6685C144.068 97.9248 143.464 98.0308 142.897 97.9382L142.901 98.0839L142.072 97.9734C141.752 97.9333 141.328 98.0154 141.075 98.068L141.015 98.0839C140.426 98.2011 139.654 98.0016 139.221 97.2974C139.205 97.2712 139.189 97.2452 139.174 97.2174C138.953 96.8288 138.609 96.4686 138.441 96.3688C138.197 96.4357 137.813 96.5263 137.355 96.4796C136.93 96.4369 136.441 96.2741 135.943 95.8614C135.862 95.793 135.777 95.7173 135.695 95.6349C134.963 94.9011 133.999 94.7505 133.391 94.8436L133.03 94.9078C132.283 95.043 131.349 95.2152 130.488 94.6892C130.273 94.5585 129.964 94.4238 129.661 94.2956C128.879 93.9551 128.069 93.6038 127.96 92.8633C127.942 92.7309 127.799 92.4897 127.681 92.2977C127.577 92.1278 127.464 91.9421 127.378 91.7432C127.294 91.5531 127.234 91.3507 127.228 91.1397C126.978 91.2038 126.717 91.2328 126.443 91.2197C126.352 91.2153 126.258 91.2059 126.164 91.1924L125.824 91.1397C125.253 91.042 124.053 90.8452 123.672 90.9845C122.911 91.2586 120.52 91.3912 119.864 91.2411C119.864 91.2411 119.623 91.188 119.394 91.1397C119.176 91.365 118.933 91.577 118.676 91.765C119.157 91.7912 119.578 91.7317 119.869 91.8067L120.471 91.9655C120.664 91.9085 121.134 91.9152 121.401 91.9393L122.107 91.9924L122.911 92.0699C123.299 92.1476 123.711 92.3151 123.641 93.0754C123.614 93.31 123.483 93.6412 123.285 93.8357C123.176 93.9551 122.756 94.5652 122.663 94.7575L122.633 94.8172C122.469 95.1664 122.226 95.4872 121.518 95.4872C121.43 95.4872 121.317 95.4891 121.25 95.498C121.227 95.5554 121.169 95.6614 121.169 95.6614C121.011 96.0237 120.781 96.5279 120.341 96.8194L120.223 96.9038C119.87 97.1555 119.282 97.5712 118.383 97.2443L118.072 97.1335C117.288 96.8507 116.102 96.4265 115.502 96.0991L115.418 96.0527C114.861 95.7474 114.738 95.686 114.535 95.7145L114.422 95.732C113.995 95.7917 113.189 95.9003 112.63 94.9758L112.579 94.896C109.935 98.5246 105.962 101.122 101.376 101.97L101.356 101.973C101.2 102.002 101.043 102.029 100.885 102.054L100.826 102.063L100.611 102.094C100.527 102.106 100.443 102.118 100.358 102.128L100.205 102.147L99.962 102.174L99.7942 102.191C99.6848 102.201 99.5749 102.21 99.4647 102.218L99.3602 102.226C99.2597 102.232 99.159 102.239 99.0576 102.244L98.9468 102.25C98.8295 102.256 98.713 102.26 98.595 102.263L98.4755 102.266C98.3511 102.268 98.2277 102.27 98.1033 102.27C97.975 102.27 97.848 102.268 97.7207 102.265L97.6083 102.263C97.4957 102.26 97.3832 102.256 97.2708 102.251L97.1329 102.243C97.0379 102.238 96.943 102.233 96.8477 102.226L96.7266 102.217C96.6142 102.209 96.5025 102.199 96.39 102.189L96.2238 102.172L96.0036 102.148L95.8808 102.133C95.7652 102.119 95.6495 102.103 95.5346 102.087L95.3953 102.066L95.149 102.027L95.0221 102.005C94.9232 101.988 94.8242 101.97 94.7251 101.951L94.5122 101.909L94.4027 101.886C94.2563 101.855 94.1097 101.823 93.9648 101.788L93.926 101.779L93.6978 101.723L93.5806 101.693C93.4445 101.658 93.3091 101.621 93.1744 101.582L93.1261 101.569C89.1053 100.408 85.6685 97.8757 83.3518 94.512L83.047 94.976C82.4945 95.9004 81.6899 95.7919 81.2567 95.7321L81.1441 95.7146C80.9422 95.6861 80.8141 95.7475 80.2619 96.0528L80.1732 96.0993C79.5768 96.4267 78.3942 96.8508 77.6054 97.1336L77.2953 97.2444C76.3959 97.5713 75.8057 97.1557 75.4592 96.9039L75.3376 96.8195C74.8978 96.528 74.67 96.0239 74.5084 95.6615C74.5084 95.6615 74.4553 95.5555 74.4298 95.4981C74.3608 95.4893 74.2495 95.4872 74.1596 95.4872C73.4586 95.4872 73.2087 95.1666 73.0476 94.8173L73.0191 94.7575C72.9239 94.5654 72.5085 93.9552 72.3937 93.8359C72.1992 93.6414 72.0615 93.31 72.0397 93.0756C71.9668 92.3153 72.3843 92.1477 72.7687 92.07L73.5743 91.9925L74.2812 91.9394C74.544 91.9153 75.0148 91.9086 75.2071 91.9656L75.8105 91.8067C76.0977 91.7318 76.5242 91.7914 76.9994 91.7651C76.7478 91.5771 76.5115 91.3651 76.2835 91.1398C76.0533 91.1881 75.8142 91.2412 75.8142 91.2412C75.1565 91.3913 72.7687 91.2586 72.0133 90.9846C71.6291 90.8453 70.4311 91.0421 69.8561 91.1398L69.511 91.1925C69.1404 91.2476 68.7841 91.2258 68.4551 91.1398C68.4367 91.5727 68.2021 91.9656 68.0014 92.2978C67.8847 92.4898 67.7366 92.731 67.7185 92.8634C67.615 93.6039 66.7963 93.9552 66.0167 94.2957C65.7137 94.424 65.4091 94.5587 65.1925 94.6893C64.3371 95.2153 63.3997 95.0431 62.6509 94.9079L62.2882 94.8438C61.6847 94.7506 60.7186 94.9013 59.9852 95.6351C58.8642 96.7538 57.7482 96.5078 57.24 96.3689C57.0717 96.4687 56.7252 96.829 56.5059 97.2175C56.0822 97.987 55.2726 98.2056 54.6628 98.084L54.6014 98.0682C54.3512 98.0155 53.9333 97.9335 53.613 97.9734L52.7794 98.084L52.7886 97.9382C52.2182 98.0309 51.6124 97.9249 51.2685 97.6686C51.0158 97.4805 50.6622 97.0341 51.1085 96.148C51.2126 95.9353 51.2475 95.7875 51.2475 95.5907C51.2475 94.8173 51.6947 94.2446 52.0087 94.066C52.3377 93.8933 52.5543 93.7212 52.6424 93.4605C52.7286 93.199 52.8985 92.9806 53.2063 92.808C53.5107 92.6337 53.9446 92.3328 54.2917 92.2004C54.6382 92.07 55.1175 91.935 55.3789 92.2004C55.6422 92.4567 56.2449 92.9806 56.2449 92.9806C56.7981 92.5537 56.745 92.061 57.0319 91.2433C57.3905 90.2287 58.2483 90.5028 58.8051 90.5556L58.8692 90.5648C58.8692 90.5648 59.1695 90.5779 59.1782 90.5828C59.1937 90.5735 59.2781 90.5341 59.2781 90.5341L59.4174 90.4607C59.4174 90.4607 60.3167 89.9328 60.3255 89.9284C60.3294 89.9174 60.3294 89.9015 60.3294 89.8749C60.3294 89.8107 60.3073 89.6804 60.1861 89.4861C59.7861 88.867 59.5038 87.6407 59.4523 86.6086C59.3081 86.6257 59.1683 86.6399 59.0314 86.651C56.851 86.8273 55.5566 86.2765 54.7995 85.5672L54.8 85.566ZM114.534 73.3295C114.651 73.3416 114.77 73.3596 114.888 73.3837L114.534 73.3295ZM115.806 73.7143C115.713 73.6646 115.62 73.62 115.526 73.5805L115.806 73.7143ZM100.359 102.127C100.443 102.116 100.527 102.105 100.611 102.093L100.359 102.127ZM99.4652 102.217C99.5753 102.209 99.6852 102.2 99.7946 102.19L99.4652 102.217ZM99.058 102.243C99.1594 102.238 99.2599 102.231 99.3606 102.225L99.058 102.243ZM98.5954 102.262C98.7127 102.259 98.83 102.254 98.9472 102.249L98.5954 102.262ZM97.7211 102.264C97.8484 102.267 97.9752 102.269 98.1037 102.269C98.228 102.269 98.3515 102.267 98.4759 102.265L97.7211 102.264ZM97.2712 102.249C97.3836 102.254 97.4961 102.259 97.6087 102.262L97.2712 102.249ZM96.8481 102.225C96.9433 102.231 97.0383 102.237 97.1332 102.242L96.8481 102.225ZM96.3904 102.188C96.5029 102.198 96.6146 102.208 96.727 102.216L96.3904 102.188ZM95.535 102.085C95.6499 102.102 95.7655 102.117 95.8812 102.132L95.535 102.085ZM94.7255 101.95C94.8245 101.969 94.9237 101.987 95.0225 102.004L94.7255 101.95Z" fill="#FFE500"/>
<path fill-rule="evenodd" clip-rule="evenodd" d="M82.2464 79.7105C82.1194 79.4824 82.1718 79.25 82.2993 79.0277C82.5869 78.5874 82.8554 79.0677 82.8554 79.0677C83.8474 80.451 83.1147 82.5218 83.1147 82.5218C83.0128 80.6159 82.2464 79.7105 82.2464 79.7105ZM90.7999 88.87C90.8148 88.4636 90.8493 87.5608 90.4361 87.2384C90.2837 87.1172 89.6814 86.4574 89.6814 86.4574C89.5897 86.2974 89.5191 86.2875 89.5191 86.2875C89.3952 86.2756 89.2344 86.5644 89.2344 86.5644C88.8055 87.3925 88.3774 87.2915 88.3774 87.2915C88.3739 87.1405 88.4749 86.9719 88.4749 86.9719C88.5921 86.7508 89.0904 85.762 89.0904 85.762C89.1529 85.6183 89.2106 85.427 89.2106 85.427C89.6249 84.7851 90.015 85.2736 90.015 85.2736C90.1892 85.6139 91.1179 86.7216 91.1179 86.7216C91.3238 86.9667 91.3436 87.2297 91.3436 87.2297C91.559 88.7473 90.7999 88.87 90.7999 88.87ZM88.3528 92.7363C88.1767 92.7319 88.1319 92.6674 88.1537 92.4733C88.2721 91.9339 88.7041 91.701 88.7041 91.701C89.5152 91.2165 89.6138 91.7019 89.6138 91.7019C89.7623 92.5675 89.0779 92.6765 89.0779 92.6765C88.9414 92.7236 88.3528 92.7363 88.3528 92.7363ZM53.0768 95.2486C53.0768 95.2486 53.2539 95.3793 53.1591 95.6374C53.1591 95.6374 52.7065 96.8755 52.7278 97.2909C52.7278 97.2909 51.7269 97.4696 51.5882 96.9757C51.5882 96.9757 51.5613 96.7849 51.7247 96.5083C51.7247 96.5083 51.8942 96.2506 51.9386 95.7789C51.9386 95.7789 51.9236 94.5916 52.6927 94.9061C52.8455 94.9916 52.9658 95.1156 53.0768 95.2486ZM54.298 93.2791C54.4632 93.1409 54.7055 93.0635 54.9202 93.1136C55.405 93.2182 55.1114 93.6375 55.1114 93.6375C54.9151 94.0047 54.2743 94.6245 54.2743 94.6245C53.7044 95.0509 53.2533 94.5429 53.2533 94.5429C52.8308 94.1268 53.3805 93.9256 53.3805 93.9256C53.7001 93.7957 54.298 93.2791 54.298 93.2791ZM60.1611 85.8551C60.1611 85.8551 59.9799 87.6113 60.771 89.1595C60.771 89.1595 61.357 89.9904 60.748 90.5242L59.5357 91.2286C59.5357 91.2286 59.3729 91.3498 58.8324 91.3086C58.8324 91.3086 58.0852 91.1237 57.836 91.4534C57.836 91.4534 57.6185 92.0884 57.348 92.6113C57.348 92.6113 56.7957 93.8792 55.8825 94.2854C55.8825 94.2854 55.1547 94.4523 54.9337 95.0834C54.9337 95.0834 54.6988 95.5266 54.2288 95.546C54.2288 95.546 53.8782 95.6575 53.6463 96.4382C53.6463 96.4382 53.5194 96.9435 53.5263 97.3309C53.5263 97.3309 54.1242 97.2525 54.5139 97.3935C54.5139 97.3935 55.4719 97.7153 55.9005 96.9263C55.9005 96.9263 56.7281 95.5087 57.3415 95.7218C57.3415 95.7218 58.5742 96.1345 59.4451 95.2349C59.4451 95.2349 60.6415 93.9279 62.3309 94.1969C62.3309 94.1969 64.2338 94.5822 64.8274 94.1434C64.8274 94.1434 66.0277 93.5161 66.478 93.3605C66.478 93.3605 67.0289 93.1984 67.0859 92.5954C67.0859 92.5954 67.4209 91.7466 67.6646 91.4638L66.7567 91.4534C66.7567 91.4534 65.9343 92.8361 64.5379 93.2527C64.5379 93.2527 63.7739 93.558 62.241 93.3102C62.241 93.3102 60.0397 92.8114 58.1061 94.8997C58.1061 94.8997 57.842 95.2816 57.465 95.1292C57.465 95.1292 58.5335 93.3069 60.8793 92.8754C60.8793 92.8754 61.6469 92.7122 62.2874 92.8158C62.2874 92.8158 65.4467 92.9085 66.9116 89.7981C66.9116 89.7981 66.7533 87.1465 67.4522 86.5184C67.4522 86.5184 67.7228 86.4356 67.6687 86.9485C67.6687 86.9485 67.188 89.7267 68.0911 90.2644C68.0911 90.2644 68.6152 90.6761 69.5847 90.5237C69.5847 90.5237 71.0547 90.1724 72.2495 90.3773C72.2495 90.3773 74.0871 90.8132 75.6661 90.6118C75.6661 90.6118 75.2562 89.984 75.3364 89.2335C75.3364 89.2335 75.5627 88.696 75.8219 89.0418C75.8219 89.0418 76.4296 91.0488 78.0897 91.6512C78.0897 91.6512 79.5724 92.1915 79.5485 94.072C79.5485 94.072 79.3215 94.3298 77.355 95.0284C77.355 95.0284 76.6204 95.2606 76.3836 94.7116C76.3836 94.7116 75.4355 92.6821 74.6097 92.7446L73.0602 92.8705C73.0602 92.8705 72.5314 93.006 72.9209 93.4297C72.9209 93.4297 73.4515 94.1355 73.6685 94.5565C73.6685 94.5565 73.7319 94.9165 74.2304 94.8399C74.2304 94.8399 74.9224 94.4974 75.3121 95.7836C75.3121 95.7836 75.6688 96.4272 76.273 96.6327C76.273 96.6327 76.8381 96.8217 77.3686 96.5237C77.3686 96.5237 79.928 95.5841 80.3736 95.251C80.3736 95.251 80.9272 94.9413 81.3658 95.0903C81.3658 95.0903 82.1337 95.2733 82.4498 94.6673L83.2435 93.44C83.2435 93.44 83.4177 93.1379 83.3936 92.7582C83.3936 92.7582 83.4651 92.3818 83.148 91.9997C83.148 91.9997 82.8483 91.6829 82.8011 91.4534L82.2355 90.1246C82.2355 90.1246 82.0059 89.7696 81.7548 89.6236L80.9996 89.6791C80.9996 89.6791 81.5196 91.0065 81.8992 91.547C81.8992 91.547 82.4142 92.3345 82.388 92.8349C82.388 92.8349 82.354 93.1858 82.2158 93.3324C82.2158 93.3324 82.0415 93.6111 81.9714 93.7465C81.9714 93.7465 81.7424 94.2431 81.5569 94.3532C81.5569 94.3532 81.2357 94.5433 81.1575 94.5509C81.1575 94.5509 81.0178 94.5895 81.1217 94.3394C81.1217 94.3394 81.5445 93.4493 81.5169 92.9731C81.5169 92.9731 81.5987 92.4774 81.2475 92.1871C81.2475 92.1871 80.4251 90.8888 80.3073 90.5007C80.3073 90.5007 80.0492 89.9816 79.9117 89.8924C79.9117 89.8924 79.6243 89.5147 80.0878 89.3382C80.0878 89.3382 81.244 89.0772 81.4507 88.9354C81.4507 88.9354 82.0059 88.767 82.3666 87.6099C82.3666 87.6099 82.8637 86.2607 82.8565 85.4275C82.8565 85.4275 83.8306 87.3053 82.2772 89.2149C82.2772 89.2149 83.5065 89.5772 84.0148 89.2149C84.0148 89.2149 85.5459 88.9912 85.8413 88.9096C85.8413 88.9096 86.2262 88.8165 86.0064 89.0898C86.0064 89.0898 85.545 89.7469 85.5059 90.1768C85.5059 90.1768 85.4763 90.5193 85.1953 90.7201C85.1953 90.7201 84.3249 91.3295 84.2486 91.9137C84.2486 91.9137 84.0619 92.4758 84.4465 92.3411C84.4465 92.3411 84.968 92.099 85.1519 92.3428C85.1519 92.3428 85.2057 92.3681 85.0049 92.5939C85.0049 92.5939 84.4822 93.0484 84.4428 93.6593C84.4428 93.6593 84.5396 94.3637 84.7242 94.5901C84.7242 94.5901 84.9594 94.9166 85.3316 94.8131C85.3316 94.8131 85.4303 94.7331 85.6085 94.7869C85.6085 94.7869 85.7926 94.7864 86.2733 94.6202C86.2733 94.6202 87.0019 94.42 87.2456 94.334C87.2456 94.334 88.173 94.002 88.6305 94.0254C88.6305 94.0254 88.9282 93.9926 89.3076 94.0687C89.3076 94.0687 90.4677 94.2004 91.2406 93.3459C91.2406 93.3459 91.8291 92.8794 92.0287 93.3326C92.0287 93.3326 93.4401 95.2262 95.7241 94.7271C95.7241 94.7271 93.9066 93.9795 93.4352 92.9617C93.4352 92.9617 93.372 92.0973 92.42 90.8969C92.42 90.8969 92.1292 90.4985 92.4097 90.3951C92.4097 90.3951 92.572 90.2737 92.9268 90.6295C92.9268 90.6295 93.8314 91.4972 94.1576 92.2916C94.1576 92.2916 95.2809 93.9889 96.9003 93.4188C96.9003 93.4188 95.6292 92.9281 95.0321 92.0141C95.0321 92.0141 94.6629 90.7765 93.4219 89.8557C93.4219 89.8557 93.3727 88.4651 92.7945 87.6831C92.7945 87.6831 92.5 86.3771 92.42 86.0717C92.42 86.0717 92.1078 84.9245 92.1103 84.6078C92.1103 84.6078 92.2131 83.1092 91.2468 81.9429C91.2468 81.9429 90.5999 80.695 89.5915 79.8258C89.5915 79.8258 88.8253 78.8793 88.2558 78.2997C88.2558 78.2997 87.5065 77.4208 85.8722 76.2743C85.8722 76.2743 85.1321 75.7363 84.5902 75.158C84.5902 75.158 81.7077 73.0832 79.6251 74.7472C79.6251 74.7472 78.1867 75.7255 76.9855 76.0285C76.9855 76.0285 74.517 76.3159 73.465 78.0291C73.465 78.0291 73.3747 78.3454 72.3799 78.4663C72.3799 78.4663 70.1947 78.2026 68.5851 80.3518C68.5851 80.3518 67.8375 81.0812 66.358 81.259C66.358 81.259 63.9445 81.0118 62.3731 82.8625C62.3731 82.8625 58.4082 86.3212 56.0437 84.0782C56.0437 84.0782 54.8188 82.9181 56.2196 80.8187C56.2196 80.8187 57.1074 79.7467 58.623 78.6266C58.623 78.6266 59.8523 77.7606 59.2888 76.414C59.2888 76.414 58.9908 75.1132 57.1486 75.0787C57.1486 75.0787 54.8367 74.6321 53.9019 73.4646C53.9019 73.4646 52.8577 77.1417 56.955 77.0798C56.955 77.0798 58.0227 77.2377 57.65 78.0851C57.65 78.0851 57.1263 78.8107 56.4239 79.0742C56.4239 79.0742 55.1875 79.6148 54.6296 81.4146C54.6296 81.4146 53.3812 84.565 56.4267 85.7812C57.6013 86.1842 58.9552 86.065 60.1611 85.8551Z" fill="#E5172F"/>
<path fill-rule="evenodd" clip-rule="evenodd" d="M113.436 79.7105C113.562 79.4824 113.51 79.25 113.383 79.0277C113.095 78.5874 112.828 79.0677 112.828 79.0677C111.835 80.451 112.568 82.5218 112.568 82.5218C112.669 80.6159 113.436 79.7105 113.436 79.7105ZM104.883 88.87C104.868 88.4636 104.833 87.5608 105.246 87.2384C105.399 87.1172 106.001 86.4574 106.001 86.4574C106.093 86.2974 106.163 86.2875 106.163 86.2875C106.287 86.2756 106.448 86.5644 106.448 86.5644C106.877 87.3925 107.305 87.2915 107.305 87.2915C107.309 87.1405 107.207 86.9719 107.207 86.9719C107.09 86.7508 106.592 85.762 106.592 85.762C106.529 85.6183 106.471 85.427 106.471 85.427C106.057 84.7851 105.667 85.2736 105.667 85.2736C105.493 85.6139 104.565 86.7216 104.565 86.7216C104.358 86.9667 104.338 87.2297 104.338 87.2297C104.124 88.7473 104.883 88.87 104.883 88.87ZM107.329 92.7363C107.506 92.7319 107.551 92.6674 107.529 92.4733C107.41 91.9339 106.978 91.701 106.978 91.701C106.167 91.2165 106.068 91.7019 106.068 91.7019C105.92 92.5675 106.605 92.6765 106.605 92.6765C106.742 92.7236 107.329 92.7363 107.329 92.7363ZM142.606 95.2486C142.606 95.2486 142.429 95.3793 142.524 95.6374C142.524 95.6374 142.975 96.8755 142.954 97.2909C142.954 97.2909 143.956 97.4696 144.094 96.9757C144.094 96.9757 144.121 96.7849 143.958 96.5083C143.958 96.5083 143.788 96.2506 143.744 95.7789C143.744 95.7789 143.759 94.5916 142.99 94.9061C142.837 94.9916 142.716 95.1156 142.606 95.2486ZM141.384 93.2791C141.219 93.1409 140.977 93.0635 140.763 93.1136C140.277 93.2182 140.571 93.6375 140.571 93.6375C140.767 94.0047 141.408 94.6245 141.408 94.6245C141.979 95.0509 142.429 94.5429 142.429 94.5429C142.851 94.1268 142.301 93.9256 142.301 93.9256C141.983 93.7957 141.384 93.2791 141.384 93.2791ZM135.521 85.8551C135.521 85.8551 135.702 87.6113 134.911 89.1595C134.911 89.1595 134.324 89.9904 134.934 90.5242L136.146 91.2286C136.146 91.2286 136.309 91.3498 136.85 91.3086C136.85 91.3086 137.597 91.1237 137.846 91.4534C137.846 91.4534 138.063 92.0884 138.335 92.6113C138.335 92.6113 138.887 93.8792 139.8 94.2854C139.8 94.2854 140.528 94.4523 140.748 95.0834C140.748 95.0834 140.983 95.5266 141.453 95.546C141.453 95.546 141.804 95.6575 142.036 96.4382C142.036 96.4382 142.162 96.9435 142.157 97.3309C142.157 97.3309 141.558 97.2525 141.168 97.3935C141.168 97.3935 140.211 97.7153 139.782 96.9263C139.782 96.9263 138.954 95.5087 138.341 95.7218C138.341 95.7218 137.108 96.1345 136.237 95.2349C136.237 95.2349 135.041 93.9279 133.352 94.1969C133.352 94.1969 131.449 94.5822 130.855 94.1434C130.855 94.1434 129.656 93.5161 129.205 93.3605C129.205 93.3605 128.653 93.1984 128.597 92.5954C128.597 92.5954 128.262 91.7466 128.018 91.4638L128.925 91.4534C128.925 91.4534 129.748 92.8361 131.144 93.2527C131.144 93.2527 131.909 93.558 133.442 93.3102C133.442 93.3102 135.643 92.8114 137.576 94.8997C137.576 94.8997 137.841 95.2816 138.217 95.1292C138.217 95.1292 137.149 93.3069 134.803 92.8754C134.803 92.8754 134.036 92.7122 133.395 92.8158C133.395 92.8158 130.236 92.9085 128.771 89.7981C128.771 89.7981 128.929 87.1465 128.231 86.5184C128.231 86.5184 127.961 86.4356 128.013 86.9485C128.013 86.9485 128.494 89.7267 127.591 90.2644C127.591 90.2644 127.066 90.6761 126.098 90.5237C126.098 90.5237 124.627 90.1724 123.433 90.3773C123.433 90.3773 121.596 90.8132 120.016 90.6118C120.016 90.6118 120.426 89.984 120.345 89.2335C120.345 89.2335 120.12 88.696 119.86 89.0418C119.86 89.0418 119.252 91.0488 117.592 91.6512C117.592 91.6512 116.11 92.1915 116.134 94.072C116.134 94.072 116.361 94.3298 118.327 95.0284C118.327 95.0284 119.062 95.2606 119.299 94.7116C119.299 94.7116 120.246 92.6821 121.072 92.7446L122.623 92.8705C122.623 92.8705 123.151 93.006 122.762 93.4297C122.762 93.4297 122.231 94.1355 122.014 94.5565C122.014 94.5565 121.952 94.9165 121.452 94.8399C121.452 94.8399 120.761 94.4974 120.37 95.7836C120.37 95.7836 120.013 96.4272 119.409 96.6327C119.409 96.6327 118.844 96.8217 118.314 96.5237C118.314 96.5237 115.754 95.5841 115.309 95.251C115.309 95.251 114.755 94.9413 114.316 95.0903C114.316 95.0903 113.549 95.2733 113.233 94.6673L112.44 93.44C112.44 93.44 112.264 93.1379 112.289 92.7582C112.289 92.7582 112.217 92.3818 112.535 91.9997C112.535 91.9997 112.835 91.6829 112.881 91.4534L113.447 90.1246C113.447 90.1246 113.676 89.7696 113.928 89.6236L114.683 89.6791C114.683 89.6791 114.163 91.0065 113.783 91.547C113.783 91.547 113.268 92.3345 113.294 92.8349C113.294 92.8349 113.329 93.1858 113.467 93.3324C113.467 93.3324 113.641 93.6111 113.712 93.7465C113.712 93.7465 113.939 94.2431 114.126 94.3532C114.126 94.3532 114.446 94.5433 114.525 94.5509C114.525 94.5509 114.665 94.5895 114.56 94.3394C114.56 94.3394 114.138 93.4493 114.165 92.9731C114.165 92.9731 114.083 92.4774 114.435 92.1871C114.435 92.1871 115.257 90.8888 115.375 90.5007C115.375 90.5007 115.633 89.9816 115.771 89.8924C115.771 89.8924 116.058 89.5147 115.594 89.3382C115.594 89.3382 114.439 89.0772 114.232 88.9354C114.232 88.9354 113.676 88.767 113.316 87.6099C113.316 87.6099 112.819 86.2607 112.826 85.4275C112.826 85.4275 111.852 87.3053 113.406 89.2149C113.406 89.2149 112.177 89.5772 111.668 89.2149C111.668 89.2149 110.137 88.9912 109.841 88.9096C109.841 88.9096 109.456 88.8165 109.676 89.0898C109.676 89.0898 110.137 89.7469 110.176 90.1768C110.176 90.1768 110.206 90.5193 110.487 90.7201C110.487 90.7201 111.358 91.3295 111.433 91.9137C111.433 91.9137 111.621 92.4758 111.235 92.3411C111.235 92.3411 110.715 92.099 110.53 92.3428C110.53 92.3428 110.477 92.3681 110.678 92.5939C110.678 92.5939 111.2 93.0484 111.239 93.6593C111.239 93.6593 111.143 94.3637 110.958 94.5901C110.958 94.5901 110.723 94.9166 110.351 94.8131C110.351 94.8131 110.253 94.7331 110.073 94.7869C110.073 94.7869 109.89 94.7864 109.409 94.6202C109.409 94.6202 108.68 94.42 108.437 94.334C108.437 94.334 107.51 94.002 107.052 94.0254C107.052 94.0254 106.754 93.9926 106.375 94.0687C106.375 94.0687 105.215 94.2004 104.441 93.3459C104.441 93.3459 103.853 92.8794 103.654 93.3326C103.654 93.3326 102.243 95.2262 99.9578 94.7271C99.9578 94.7271 101.776 93.9795 102.247 92.9617C102.247 92.9617 102.31 92.0973 103.262 90.8969C103.262 90.8969 103.553 90.4985 103.272 90.3951C103.272 90.3951 103.11 90.2737 102.755 90.6295C102.755 90.6295 101.852 91.4972 101.525 92.2916C101.525 92.2916 100.401 93.9889 98.7823 93.4188C98.7823 93.4188 100.053 92.9281 100.65 92.0141C100.65 92.0141 101.019 90.7765 102.261 89.8557C102.261 89.8557 102.309 88.4651 102.888 87.6831C102.888 87.6831 103.183 86.3771 103.262 86.0717C103.262 86.0717 103.574 84.9245 103.572 84.6078C103.572 84.6078 103.469 83.1092 104.435 81.9429C104.435 81.9429 105.082 80.695 106.091 79.8258C106.091 79.8258 106.857 78.8793 107.427 78.2997C107.427 78.2997 108.176 77.4208 109.811 76.2743C109.811 76.2743 110.55 75.7363 111.093 75.158C111.093 75.158 113.975 73.0832 116.057 74.7472C116.057 74.7472 117.496 75.7255 118.697 76.0285C118.697 76.0285 121.165 76.3159 122.217 78.0291C122.217 78.0291 122.307 78.3454 123.303 78.4663C123.303 78.4663 125.488 78.2026 127.096 80.3518C127.096 80.3518 127.845 81.0812 129.325 81.259C129.325 81.259 131.737 81.0118 133.308 82.8625C133.308 82.8625 137.274 86.3212 139.639 84.0782C139.639 84.0782 140.863 82.9181 139.462 80.8187C139.462 80.8187 138.575 79.7467 137.06 78.6266C137.06 78.6266 135.83 77.7606 136.394 76.414C136.394 76.414 136.691 75.1132 138.534 75.0787C138.534 75.0787 140.845 74.6321 141.78 73.4646C141.78 73.4646 142.825 77.1417 138.727 77.0798C138.727 77.0798 137.66 77.2377 138.033 78.0851C138.033 78.0851 138.556 78.8107 139.258 79.0742C139.258 79.0742 140.495 79.6148 141.053 81.4146C141.053 81.4146 142.301 84.565 139.255 85.7812C138.08 86.1842 136.727 86.065 135.521 85.8551Z" fill="#E5172F"/>
<path fill-rule="evenodd" clip-rule="evenodd" d="M63.0739 124.135H69.1681C69.1681 124.135 68.9143 121.258 66.1636 121.258C63.4128 121.258 63.0739 124.135 63.0739 124.135ZM66.2479 117.789C74.4573 117.789 74.1189 125.787 74.1189 125.787V127.056H62.9895C62.9895 128.875 64.5126 130.441 66.5866 130.441C68.6596 130.441 69.7179 128.452 69.7179 128.452L73.6526 130.398C71.8334 133.149 69.3792 134.249 66.6289 134.249C58.0804 134.249 57.9114 127.14 57.9114 126.252C57.9114 125.363 58.0388 117.789 66.2479 117.789ZM84.5288 129.763C84.2748 129.763 81.1006 129.806 81.1006 125.913C81.1006 122.02 84.5709 121.893 84.5709 121.893C84.5709 121.893 88.4641 122.02 88.4641 125.829C88.4641 129.637 84.7824 129.763 84.5288 129.763ZM88.2535 107.875V119.608C88.2535 119.608 85.8832 117.789 83.1738 117.789C80.4664 117.789 75.896 119.693 75.896 125.701C75.896 131.71 79.7894 133.996 83.1326 133.996C86.4757 133.996 88.3378 131.795 88.3378 131.795V133.749H93.1612V107.875H88.2535ZM120.795 118.592H125.703V127.267C125.703 127.267 125.873 130.188 128.623 130.188C131.373 130.188 131.332 127.267 131.332 127.267V118.634H136.282V127.564C136.282 127.564 136.918 134.546 128.75 134.546C120.583 134.546 120.795 128.41 120.795 127.31C120.795 126.209 120.795 118.592 120.795 118.592ZM139.139 107.875H143.984V133.749H139.139V107.875ZM147.369 107.875H152.152V133.749H147.369V107.875ZM110.955 129.425H106.365V113.239H108.818C108.818 113.239 112.153 112.988 112.153 115.897C112.153 118.806 109.5 118.55 109.5 118.55H107.972V122.911C107.972 122.911 110.172 122.911 110.955 122.911C111.736 122.911 114.226 123.29 114.226 126.156C114.226 129.021 110.955 129.425 110.955 129.425ZM115.082 120.243C115.082 120.243 117.324 118.5 117.324 115.194C117.324 111.887 114.922 108.906 109.808 108.906C104.695 108.906 101.244 108.906 101.244 108.906L101.244 133.749H111.793C111.793 133.749 119.354 133.663 119.354 126.831C119.354 122.864 117.814 121.345 115.082 120.243ZM40.2232 108.376V133.749H45.3434V113.217H47.7555C47.7555 113.217 51.5213 113.048 51.5213 116.476C51.5213 119.904 48.1785 119.819 48.1785 119.819H46.951V125.659L52.0721 133.749H58.0804L50.9295 123.374C50.9295 123.374 56.8111 122.867 56.8111 116.476C56.8111 110.087 52.3678 108.376 46.4439 108.376C40.5198 108.376 40.2232 108.376 40.2232 108.376Z" fill="#E5172F"/>
</g>
</g>
<defs>
<clipPath id="clip0_1177_4726">
<rect width="120.921" height="69" fill="white" transform="translate(40 66)"/>
</clipPath>
</defs>
</svg>
