<svg width="200" height="200" viewBox="0 0 200 200" fill="none" xmlns="http://www.w3.org/2000/svg">
<g clip-path="url(#clip0_1177_3640)">
<mask id="mask0_1177_3640" style="mask-type:luminance" maskUnits="userSpaceOnUse" x="24" y="69" width="151" height="61">
<path d="M174.684 69H24V129.737H174.684V69Z" fill="white"/>
</mask>
<g mask="url(#mask0_1177_3640)">
<mask id="mask1_1177_3640" style="mask-type:luminance" maskUnits="userSpaceOnUse" x="24" y="69" width="151" height="61">
<path d="M24 69H174.684V129.737H24V69Z" fill="white"/>
</mask>
<g mask="url(#mask1_1177_3640)">
<path d="M39.2361 86.5978C39.2361 89.6698 37.7963 92.2107 34.254 92.2107C31.3656 92.2107 29.4738 90.1481 29.4738 86.6373C29.4738 83.1265 31.37 80.9894 34.2144 80.9894C37.59 80.9894 39.2361 83.5654 39.2361 86.5978ZM41.9576 102.581C43.5203 101.168 44.464 99.1928 44.464 96.2832V77.1582H39.0737V79.3305H38.9859C37.7217 77.5971 35.7815 76.5833 33.1434 76.5833C27.7882 76.5833 24 80.5417 24 86.7207C24 92.9743 28.609 96.608 33.3058 96.608C34.3496 96.6487 35.3891 96.4518 36.3457 96.0322C37.3023 95.6125 38.1511 94.9811 38.8278 94.1855H38.9244V96.4456C38.9244 99.2718 37.4056 100.764 34.2364 100.764C31.6422 100.764 30.4438 99.7545 29.9961 98.4643H24.439C25.0184 102.502 28.5563 104.924 34.3242 104.924C37.4539 104.924 40.171 104.2 41.9444 102.581M62.2767 87.5282C62.2767 91.5612 60.341 94.2645 56.9215 94.2645C53.5021 94.2645 51.5663 91.5612 51.5663 87.5282C51.5663 83.4952 53.4626 80.7436 56.9215 80.7436C60.3805 80.7436 62.2767 83.482 62.2767 87.5282ZM67.9524 87.5282C67.9524 81.3536 63.4663 76.5877 56.9215 76.5877C50.3767 76.5877 45.8862 81.3492 45.8862 87.5282C45.8862 93.7072 50.3723 98.4643 56.9215 98.4643C63.4707 98.4643 67.9524 93.7028 67.9524 87.5282ZM81.5995 81.8714H81.7224V77.0748C81.297 76.9397 80.8511 76.8833 80.4055 76.9081C77.9298 76.9081 76.4901 78.1237 75.2083 80.4627H75.0854V77.1538H69.6994V97.8587H75.2961V87.7652C75.2961 83.403 77.9298 81.5072 81.5995 81.867M87.0162 85.2637C87.5034 82.5604 88.9124 80.8489 91.8183 80.8489C94.3247 80.8489 96.0586 82.6614 96.2078 85.2901L87.0162 85.2637ZM86.9328 89.0598H101.949C101.949 81.6696 98.3938 76.5789 91.7349 76.5789C85.6817 76.5789 81.5249 81.3492 81.5249 87.4799C81.5249 93.6106 85.3964 98.4512 92.2617 98.4512C97.5949 98.4512 100.865 95.3441 101.629 91.6709H96.2166C95.6109 93.242 94.3642 94.2119 92.2178 94.2119C89.1144 94.2119 87.341 92.237 86.9503 89.051M117.313 97.828H122.909V84.3597C122.909 79.8352 119.986 76.6009 115.623 76.6009C112.739 76.6009 110.794 77.777 109.368 79.9932H109.236V77.1538H103.745V97.8587H109.35V86.1151C109.35 83.2889 111.159 81.3492 113.626 81.3492C115.974 81.3492 117.295 82.9291 117.295 85.1453L117.313 97.828ZM125.837 73.9239H131.434V69H125.837V73.9239ZM130.034 103.186C130.942 102.309 131.434 101.089 131.434 98.6662V77.1626H125.837V98.4029C125.837 100.299 124.599 100.501 122.326 100.54V104.455C123.376 104.622 124.44 104.703 125.504 104.696C127.312 104.696 128.958 104.297 130.029 103.204M148.263 85.2857H139.045C139.541 82.5604 140.95 80.8489 143.856 80.8489C146.363 80.8489 148.092 82.6614 148.246 85.2901M153.979 89.0861C153.979 81.6959 150.423 76.6053 143.768 76.6053C137.707 76.6053 133.55 81.3755 133.55 87.5063C133.55 93.637 137.43 98.4775 144.291 98.4775C149.62 98.4775 152.89 95.3704 153.658 91.6973H148.259C147.653 93.2683 146.402 94.2382 144.264 94.2382C141.152 94.2382 139.375 92.2634 138.975 89.0773L153.979 89.0861Z" fill="#4B5C65"/>
<path d="M80.2212 113.179C80.0587 112.705 79.971 112.104 79.8612 111.665C79.7515 111.226 78.3907 110.897 78.4127 111.353C78.4535 111.857 78.5553 112.353 78.7156 112.832C78.8999 113.319 80.3485 113.543 80.2212 113.179ZM113.547 112.885C113.547 112.385 113.639 111.788 113.665 111.336C113.691 110.884 112.502 110.151 112.379 110.59C112.266 111.082 112.213 111.586 112.221 112.091C112.247 112.617 113.538 113.271 113.538 112.885M142.719 113.828C142.697 113.328 142.79 112.731 142.807 112.275C142.825 111.819 141.64 111.13 141.525 111.568C141.423 112.063 141.381 112.569 141.398 113.074C141.433 113.591 142.759 114.219 142.741 113.837M154.593 112.446C154.641 111.946 154.817 111.367 154.9 110.919C154.984 110.471 153.891 109.602 153.715 110.041C153.541 110.515 153.426 111.009 153.373 111.511C153.333 112.034 154.554 112.828 154.593 112.464M132.777 114.39C130.732 113.622 128.914 115.105 128.15 116.957C127.584 118.496 127.229 120.103 127.093 121.736C126.816 121.519 126.61 121.224 126.5 120.889C125.916 119.239 125.512 116.369 125.152 115.658C124.639 114.631 123.265 114.228 122.334 115.483C121.815 116.205 121.365 116.975 120.991 117.782C120.991 117.782 120.864 116.097 120.833 115.176C120.817 114.913 120.725 114.661 120.568 114.451C120.41 114.24 120.195 114.079 119.949 113.989C119.702 113.899 119.434 113.882 119.177 113.942C118.921 114.002 118.688 114.134 118.507 114.324C117.851 115.043 117.341 115.882 117.005 116.795C116.962 116.304 116.823 115.825 116.597 115.386C116.286 114.947 115.579 114.474 115.693 115.066C115.781 115.571 115.851 120.837 115.961 121.776C116.07 122.715 117.519 123.294 117.449 122.325C117.387 121.513 117.278 121.144 117.229 119.744C117.242 118.227 117.744 116.754 118.66 115.544C119.099 114.996 119.661 115.136 119.648 115.751C119.635 116.365 119.723 119.555 119.933 120.297C120.144 121.039 121.132 121.407 121.14 120.701C121.178 119.087 121.756 117.533 122.782 116.286C123.173 115.847 123.748 115.645 123.998 116.435C124.678 118.629 124.81 120.911 125.583 121.96C125.938 122.422 126.432 122.759 126.992 122.921C126.836 124.835 126.836 126.757 126.992 128.67C127.11 129.223 128.607 130.325 128.493 129.434C128.284 127.33 128.214 125.214 128.282 123.101C129.782 123.099 131.224 122.526 132.316 121.499C134.581 119.459 134.985 115.22 132.755 114.39M131.105 121.284C130.287 121.833 129.324 122.127 128.339 122.127C128.502 119.415 128.985 116.637 130.148 115.544C131.311 114.452 132.65 115.487 132.821 117.08C132.97 118.515 132.413 120.354 131.105 121.267M95.4221 119.31C94.1667 120.653 90.5936 122.434 89.7684 120.003C91.0585 119.21 92.2287 118.238 93.2449 117.115C95.0402 115 94.4564 113.714 93.5434 113.565C90.0318 113.003 87.8721 117.423 88.2101 119.964C87.2611 120.491 86.2835 120.965 85.2823 121.385C85.155 116.918 85.0628 112.17 85.2516 110.616C85.5588 108.084 88.2716 107.522 87.9599 110.989C87.8107 112.648 86.6957 115.887 86.6431 115.961C86.507 116.229 86.6913 116.356 86.9328 116.119C87.754 114.502 88.3888 112.798 88.8246 111.037C89.6499 106.895 84.5668 106.649 84.0883 110.572C83.8294 112.766 83.8074 117.791 83.8733 121.934C83.361 122.124 82.8395 122.288 82.3106 122.425C81.1649 122.698 79.9885 122.728 79.9797 121.315C79.971 119.902 79.9227 116.185 79.8656 115.672C79.8085 115.158 78.8077 115.145 78.4697 115.816C77.3943 117.945 75.6517 120.025 73.6632 121.083C72.1356 121.886 71.6572 121.263 71.4684 119.898C71.2928 118.581 71.3631 105.389 71.306 104.657C71.2446 103.858 69.6907 105.578 69.6951 105.894C69.739 109.036 69.9101 118.985 70.0067 120.297C70.1691 122.566 71.9074 123.65 74.067 122.285C76.7315 120.604 78.518 117.598 78.518 117.598C78.518 117.598 78.3688 120.762 78.4478 121.605C78.5268 122.447 78.2722 124.923 82.6793 123.36C83.0919 123.217 83.4958 123.071 83.8908 122.921C83.9435 125.756 84.0401 127.99 84.1103 128.284C84.3561 129.236 85.7871 129.868 85.7256 129.162C85.5808 127.674 85.3876 125.102 85.2867 122.342C86.3511 121.887 87.3897 121.374 88.3989 120.806C89.6938 124.317 95.071 120.521 95.3299 120.139C95.5889 119.757 95.8347 118.823 95.4002 119.296M89.6016 118.191C89.7113 116.922 90.4795 115.356 91.3574 114.759C92.2353 114.162 93.5258 114.118 93.2098 115.198C92.8016 116.606 91.3267 117.958 89.5753 119.103C89.5494 118.798 89.5494 118.491 89.5753 118.186M171.295 105.955C169.329 108.711 169.294 114.86 169.469 118.59C168.726 119.435 167.795 120.095 166.752 120.516C166.006 120.789 164.794 120.582 164.807 119.323C164.807 117.51 166.524 116.216 168.587 115.764C168.837 115.707 168.885 115.457 168.565 115.439C166.506 115.329 164.175 116.176 163.477 118.239C163.348 118.608 163.287 118.998 163.297 119.389C162.117 120.731 158.882 122.513 158.03 120.192C159.228 119.373 160.302 118.386 161.217 117.26C162.845 115.141 162.262 113.903 161.388 113.789C158.061 113.35 156.169 117.739 156.56 120.2C156.354 120.373 156.128 120.52 155.888 120.639C154.9 121.135 154.409 120.508 154.286 119.446C154.166 117.823 154.149 116.195 154.233 114.57C154.29 113.859 153.193 114.219 152.771 114.649C151.251 116.035 149.638 117.315 147.943 118.48C147.859 115.408 147.807 112.336 147.864 110.449C147.864 110.01 147.903 109.602 147.939 109.317C147.939 109.229 147.939 109.146 147.965 109.071C148.272 106.539 150.989 105.999 150.678 109.444C150.528 111.103 149.409 114.337 149.361 114.416C149.225 114.684 149.413 114.816 149.65 114.574C150.471 112.959 151.106 111.256 151.542 109.497C152.368 105.35 147.289 105.109 146.81 109.032C146.736 109.642 146.683 110.462 146.644 111.424C146.543 113.64 146.529 116.659 146.56 119.454C145.911 119.893 145.283 120.332 144.717 120.679C143.962 121.166 143.211 121.201 143.049 120.214C142.895 118.797 142.848 117.372 142.908 115.948C142.908 115.667 142.237 115.658 141.815 116.225C141.394 116.791 139.208 120.038 138.361 120.516C137.843 120.81 137.219 120.85 137.044 119.52C137.013 119.266 136.965 118.48 136.916 117.414C136.785 112.951 136.741 108.966 136.916 107.391C137.224 104.858 139.655 104.49 139.304 107.952C138.865 112.2 136.521 116.922 136.482 117.001C136.341 117.269 136.482 117.646 136.741 117.409C138.501 114.581 139.693 111.438 140.252 108.154C140.898 103.976 136.24 103.41 135.766 107.351C135.503 109.545 135.442 113.828 135.507 117.971C135.507 118.849 135.538 119.468 135.578 119.727C135.942 122.386 138.075 122.294 139.124 121.236C140.093 120.175 140.922 118.996 141.591 117.725C141.591 117.725 141.591 120.24 141.894 121.368C142.184 122.399 142.939 122.834 144.063 122.246C144.55 121.982 145.48 121.368 146.565 120.617C146.622 123.913 146.723 126.66 146.806 126.989C147.052 127.946 148.448 128.552 148.382 127.867C148.219 126.112 148.07 122.913 147.978 119.634C149.683 118.436 151.305 117.124 152.833 115.707C152.833 115.707 152.605 119.086 152.907 120.249C153.21 121.412 154.005 122.443 155.84 121.565C156.125 121.425 156.507 121.205 156.77 121.043C158.087 124.396 162.946 120.718 163.355 120.051C163.763 121.324 165.238 121.93 166.866 121.302C167.838 120.891 168.721 120.295 169.465 119.547C169.544 120.631 169.632 121.385 169.662 121.596C169.816 122.474 171.102 123.86 170.979 122.667C170.931 122.228 170.773 120.473 170.676 118.213C172.571 115.743 173.869 112.868 174.469 109.813C175.439 104.986 172.889 103.735 171.295 105.964M157.85 118.445C157.916 117.194 158.605 115.645 159.413 115.031C160.22 114.416 161.428 114.342 161.169 115.408C160.826 116.799 159.487 118.164 157.868 119.358C157.844 119.066 157.844 118.772 157.868 118.48M170.703 117.058C170.597 113.166 170.76 108.356 171.993 106.175C172.726 104.858 174.012 105.569 174.021 107.149C174.021 109.177 172.897 113.732 170.703 117.058ZM112.761 114.596C110.67 115.043 108.616 115.644 106.615 116.396C103.982 114.443 100.426 112.687 99.5922 110.484C98.3938 107.272 103.6 105.389 107.524 107.333C107.915 107.531 108.112 107.333 107.805 107.11C103.293 104.139 97.7969 106.517 97.9593 110.006C98.1041 113.078 102.169 115.075 105.066 117.028C103.527 117.706 102.057 118.53 100.676 119.49C98.4553 121.047 96.5283 124.124 98.6879 125.322C100.848 126.52 106.681 124.883 108.45 122.75C110.303 120.495 109.368 118.73 107.515 117.133C109.099 116.477 110.749 115.996 112.436 115.698C112.436 115.698 112.357 120.468 112.594 121.377C112.756 121.991 114.078 122.908 113.994 121.881C113.784 119.178 113.766 116.299 113.7 115.342C113.647 114.561 113.393 114.465 112.748 114.592M107.84 121.026C107.164 123.365 104.07 124.378 102.301 124.699C100.532 125.019 98.1392 124.466 99.8731 122.175C100.909 120.81 103.209 119.103 106.067 117.725C107.384 118.739 108.196 119.797 107.823 121.026" fill="#00B7AC"/>
</g>
</g>
</g>
<defs>
<clipPath id="clip0_1177_3640">
<rect width="151" height="61" fill="white" transform="translate(24 69)"/>
</clipPath>
</defs>
</svg>
