<svg width="200" height="200" viewBox="0 0 200 200" fill="none" xmlns="http://www.w3.org/2000/svg">
<g clip-path="url(#clip0_1177_4432)">
<mask id="mask0_1177_4432" style="mask-type:luminance" maskUnits="userSpaceOnUse" x="34" y="72" width="132" height="57">
<path d="M165.814 72H34V128.41H165.814V72Z" fill="white"/>
</mask>
<g mask="url(#mask0_1177_4432)">
<mask id="mask1_1177_4432" style="mask-type:luminance" maskUnits="userSpaceOnUse" x="34" y="72" width="132" height="57">
<path d="M165.814 72.5527H34.1303V128.404H165.814V72.5527Z" fill="white"/>
</mask>
<g mask="url(#mask1_1177_4432)">
<path d="M106.593 85.2052L103.675 84.2959L106.313 83.0004C107.329 80.9679 108.874 79.8031 110.853 79.3217V78.0796H103.853V79.3217L105.273 80.3142L101.595 83.9929H100.857V80.3379L102.807 79.2741V78.0796H93.5478V79.2741L95.5803 80.3379V89.9774L93.5241 90.9401V92.1287H102.807V90.9401L100.857 89.9774V85.639H101.672C102.456 87.4695 104.358 91.6771 106.414 92.1347H111.49V90.9164C109.457 89.7515 107.657 88.2302 106.593 85.2052Z" fill="#D71824"/>
</g>
<mask id="mask2_1177_4432" style="mask-type:luminance" maskUnits="userSpaceOnUse" x="34" y="72" width="132" height="57">
<path d="M165.814 72.5527H34.1303V128.404H165.814V72.5527Z" fill="white"/>
</mask>
<g mask="url(#mask2_1177_4432)">
<path d="M86.4519 77.8064C84.6274 77.8064 82.5949 78.6444 81.5846 80.5699V77.9312L74.5839 78.6444V79.8329L76.6341 80.9264V97.8935L74.5839 98.8623V100.051H83.944V98.8623L81.8937 97.8935V91.8317C82.8564 92.1883 83.8964 92.4379 84.8889 92.4379C89.8334 92.4379 91.9672 89.4724 91.9672 84.8547C91.9553 81.4316 90.2316 77.8064 86.4519 77.8064ZM83.938 90.4827C83.2784 90.4827 82.4939 90.1261 81.8877 89.621V83.6365C81.9115 82.0615 82.3453 80.7719 83.8667 80.7719C85.7209 80.7719 86.5827 82.5191 86.5827 85.0093C86.5827 87.5409 86.2498 90.4827 83.938 90.4827Z" fill="#D71824"/>
</g>
<mask id="mask3_1177_4432" style="mask-type:luminance" maskUnits="userSpaceOnUse" x="34" y="72" width="132" height="57">
<path d="M165.814 72.5527H34.1303V128.404H165.814V72.5527Z" fill="white"/>
</mask>
<g mask="url(#mask3_1177_4432)">
<path d="M109.861 82.115C109.225 82.115 108.696 82.5963 108.696 83.1788C108.696 83.7909 109.225 84.2722 109.861 84.2722C110.449 84.2722 110.955 83.7909 110.955 83.1788C110.955 82.5963 110.449 82.115 109.861 82.115Z" fill="#D71824"/>
</g>
<mask id="mask4_1177_4432" style="mask-type:luminance" maskUnits="userSpaceOnUse" x="34" y="72" width="132" height="57">
<path d="M165.814 72.5527H34.1303V128.404H165.814V72.5527Z" fill="white"/>
</mask>
<g mask="url(#mask4_1177_4432)">
<path d="M71.6124 87.5173V82.4717C71.6124 78.9238 68.7479 77.7827 64.6354 77.7827C61.236 77.7827 58.627 78.7455 58.627 80.6234C58.627 81.4138 59.1085 82.2458 60.1782 82.8104H61.6223L63.322 79.7439V79.7677C63.6548 79.5359 64.0589 79.417 64.4868 79.417C65.5506 79.417 66.341 80.148 66.341 82.5608V83.904C65.7051 83.8267 65.0455 83.7791 64.362 83.7791C61.6461 83.7791 57.7713 84.6943 57.7713 88.2898C57.7713 90.3758 59.2154 92.4499 62.1572 92.4499C63.9341 92.4499 65.8359 91.7427 66.7452 90.0905C67.179 91.3564 68.7003 92.4499 70.3228 92.4499C71.7431 92.4499 73.0862 91.9923 73.7994 91.184V89.5616C73.4191 89.7161 73.116 89.7934 72.9139 89.7934C71.8977 89.7756 71.6124 88.7058 71.6124 87.5173ZM66.341 88.7356C65.8834 89.1932 65.2475 89.627 64.6116 89.627C63.8272 89.627 62.9654 89.0148 62.9654 87.8263C62.9654 85.871 64.4868 85.3124 66.341 85.1638V88.7356Z" fill="#D71824"/>
</g>
<mask id="mask5_1177_4432" style="mask-type:luminance" maskUnits="userSpaceOnUse" x="34" y="72" width="132" height="57">
<path d="M165.814 72.5527H34.1303V128.404H165.814V72.5527Z" fill="white"/>
</mask>
<g mask="url(#mask5_1177_4432)">
<path d="M53.6825 75.0369L55.8636 73.7948V72.5527H34.2016V73.7948L36.3589 75.0369V89.9239L34.1303 90.8926V92.1347H43.5379V90.8926L41.7907 89.9537V74.6565H48.2567V89.9537L46.5035 90.8926V92.1347H55.9171V90.8926L53.6825 89.9239V75.0369Z" fill="#D71824"/>
</g>
<mask id="mask6_1177_4432" style="mask-type:luminance" maskUnits="userSpaceOnUse" x="34" y="72" width="132" height="57">
<path d="M165.814 72.5527H34.1303V128.404H165.814V72.5527Z" fill="white"/>
</mask>
<g mask="url(#mask6_1177_4432)">
<path d="M158.225 106.136C154.6 106.136 150.665 108.341 150.665 113.488C150.665 116.81 152.466 120.792 158.225 120.792C161.904 120.792 165.808 118.587 165.808 113.44C165.808 110.118 164.007 106.136 158.225 106.136ZM158.225 119.199C156.4 119.199 156.074 116.382 156.074 113.743C156.074 111.057 156.05 107.682 158.225 107.682C160.079 107.682 160.406 110.499 160.406 113.131C160.406 115.823 160.43 119.199 158.225 119.199Z" fill="#D71824"/>
</g>
<mask id="mask7_1177_4432" style="mask-type:luminance" maskUnits="userSpaceOnUse" x="34" y="72" width="132" height="57">
<path d="M165.814 72.5527H34.1303V128.404H165.814V72.5527Z" fill="white"/>
</mask>
<g mask="url(#mask7_1177_4432)">
<path d="M115.846 115.799C115.263 114.86 114.728 113.951 114.069 113.393L111.685 112.685L114.906 109.643C116.481 108.377 117.593 107.788 118.585 107.687V106.445H111.584V107.687L113.005 108.68L109.332 112.359H108.595V108.704L110.55 107.64V106.445H101.291V107.64L103.324 108.704V118.343L101.268 119.306V120.494H110.55V119.306L108.595 118.343V114.005H109.409C110.194 115.835 112.095 120.043 114.152 120.5H119.227V119.258C117.724 118.842 116.755 117.267 115.846 115.799Z" fill="#D71824"/>
</g>
<mask id="mask8_1177_4432" style="mask-type:luminance" maskUnits="userSpaceOnUse" x="34" y="72" width="132" height="57">
<path d="M165.814 72.5527H34.1303V128.404H165.814V72.5527Z" fill="white"/>
</mask>
<g mask="url(#mask8_1177_4432)">
<path d="M127.078 106.136C123.453 106.136 119.518 108.341 119.518 113.488C119.518 116.81 121.319 120.792 127.078 120.792C130.757 120.792 134.661 118.587 134.661 113.44C134.661 110.118 132.866 106.136 127.078 106.136ZM127.078 119.199C125.248 119.199 124.92 116.382 124.92 113.743C124.92 111.057 124.897 107.682 127.078 107.682C128.932 107.682 129.259 110.499 129.259 113.131C129.259 115.823 129.283 119.199 127.078 119.199Z" fill="#D71824"/>
</g>
<mask id="mask9_1177_4432" style="mask-type:luminance" maskUnits="userSpaceOnUse" x="34" y="72" width="132" height="57">
<path d="M165.814 72.5527H34.1303V128.404H165.814V72.5527Z" fill="white"/>
</mask>
<g mask="url(#mask9_1177_4432)">
<path d="M50.1049 100.906H34.2729V102.155L36.4837 103.397V118.284L34.2491 119.246V120.488H44.1382V119.246L41.9096 118.284V103.04H45.7665L48.0962 107.046H49.57L50.1049 100.906Z" fill="#D71824"/>
</g>
<mask id="mask10_1177_4432" style="mask-type:luminance" maskUnits="userSpaceOnUse" x="34" y="72" width="132" height="57">
<path d="M165.814 72.5527H34.1303V128.404H165.814V72.5527Z" fill="white"/>
</mask>
<g mask="url(#mask10_1177_4432)">
<path d="M77.1928 106.16C75.3624 106.16 73.3358 106.998 72.3255 108.924V106.285L65.295 106.998V108.187L67.3513 109.203V126.247L65.295 127.216V128.405H74.6849V127.216L72.6286 126.247V120.185C73.5914 120.542 74.6314 120.792 75.6179 120.792C80.5624 120.792 82.6959 117.826 82.6959 113.209C82.6959 109.785 80.9665 106.16 77.1928 106.16ZM74.6789 118.842C74.0192 118.842 73.2288 118.486 72.6226 117.981V111.996C72.6464 110.421 73.0803 109.132 74.6017 109.132C76.4559 109.132 77.3176 110.879 77.3176 113.369C77.3176 115.901 76.9848 118.842 74.6789 118.842Z" fill="#D71824"/>
</g>
<mask id="mask11_1177_4432" style="mask-type:luminance" maskUnits="userSpaceOnUse" x="34" y="72" width="132" height="57">
<path d="M165.814 72.5527H34.1303V128.404H165.814V72.5527Z" fill="white"/>
</mask>
<g mask="url(#mask11_1177_4432)">
<path d="M94.7183 111.158C93.726 111.158 92.7394 111.313 91.8008 111.639V108.698L93.827 107.634V106.445H84.4966V107.634L86.5232 108.698V118.337L84.4728 119.3V120.488H93.2742C97.2799 120.488 100.353 119.169 100.353 115.693C100.346 112.549 97.5591 111.158 94.7183 111.158ZM92.8641 118.741H91.8008V112.959C91.9491 112.935 92.1511 112.935 92.2819 112.935C94.2309 112.935 95.1465 114.456 95.1465 116.007C95.1465 117.392 94.4864 118.717 92.8641 118.741Z" fill="#D71824"/>
</g>
<mask id="mask12_1177_4432" style="mask-type:luminance" maskUnits="userSpaceOnUse" x="34" y="72" width="132" height="57">
<path d="M165.814 72.5527H34.1303V128.404H165.814V72.5527Z" fill="white"/>
</mask>
<g mask="url(#mask12_1177_4432)">
<path d="M135.879 107.628L137.935 108.698V118.331L135.879 119.3V120.489H145.263V119.3L143.207 118.331V108.24H146.078L147.932 111.687H149.376L149.881 106.439H135.879V107.628Z" fill="#D71824"/>
</g>
<mask id="mask13_1177_4432" style="mask-type:luminance" maskUnits="userSpaceOnUse" x="34" y="72" width="132" height="57">
<path d="M165.814 72.5527H34.1303V128.404H165.814V72.5527Z" fill="white"/>
</mask>
<g mask="url(#mask13_1177_4432)">
<path d="M56.2915 106.136C52.6663 106.136 48.7321 108.341 48.7321 113.488C48.7321 116.81 50.5328 120.792 56.2915 120.792C59.9642 120.792 63.8747 118.587 63.8747 113.44C63.8747 110.118 62.074 106.136 56.2915 106.136ZM56.2915 119.199C54.467 119.199 54.1402 116.382 54.1402 113.743C54.1402 111.057 54.1104 107.682 56.2915 107.682C58.1398 107.682 58.4725 110.499 58.4725 113.131C58.4725 115.823 58.4963 119.199 56.2915 119.199Z" fill="#D71824"/>
</g>
</g>
</g>
<defs>
<clipPath id="clip0_1177_4432">
<rect width="132" height="56.4103" fill="white" transform="translate(34 72)"/>
</clipPath>
</defs>
</svg>
