<svg width="26" height="26" viewBox="0 0 26 26" fill="none" xmlns="http://www.w3.org/2000/svg">
<path d="M19.4999 7.75675C19.4349 7.74592 19.3591 7.74592 19.2941 7.75675C17.7991 7.70259 16.6074 6.47842 16.6074 4.96175C16.6074 3.41258 17.8533 2.16675 19.4024 2.16675C20.9516 2.16675 22.1974 3.42342 22.1974 4.96175C22.1866 6.47842 20.9949 7.70259 19.4999 7.75675Z" stroke="white" stroke-linecap="round" stroke-linejoin="round"/>
<path d="M18.3841 15.6433C19.8682 15.8925 21.5041 15.6325 22.6524 14.8633C24.1799 13.845 24.1799 12.1767 22.6524 11.1583C21.4932 10.3892 19.8357 10.1292 18.3516 10.3892" stroke="white" stroke-linecap="round" stroke-linejoin="round"/>
<path d="M6.46752 7.75675C6.53252 7.74592 6.60835 7.74592 6.67335 7.75675C8.16835 7.70259 9.36002 6.47842 9.36002 4.96175C9.36002 3.41258 8.11419 2.16675 6.56502 2.16675C5.01585 2.16675 3.77002 3.42342 3.77002 4.96175C3.78085 6.47842 4.97252 7.70259 6.46752 7.75675Z" stroke="white" stroke-linecap="round" stroke-linejoin="round"/>
<path d="M7.58339 15.6433C6.09922 15.8925 4.46339 15.6325 3.31506 14.8633C1.78756 13.845 1.78756 12.1767 3.31506 11.1583C4.47423 10.3892 6.13172 10.1292 7.61589 10.3892" stroke="white" stroke-linecap="round" stroke-linejoin="round"/>
<path d="M12.9999 15.8493C12.9349 15.8384 12.8591 15.8384 12.7941 15.8493C11.2991 15.7951 10.1074 14.5709 10.1074 13.0543C10.1074 11.5051 11.3533 10.2593 12.9024 10.2593C14.4516 10.2593 15.6974 11.5159 15.6974 13.0543C15.6866 14.5709 14.4949 15.8059 12.9999 15.8493Z" stroke="white" stroke-linecap="round" stroke-linejoin="round"/>
<path d="M9.84729 19.2619C8.31979 20.2802 8.31979 21.9485 9.84729 22.9669C11.5806 24.126 14.419 24.126 16.1523 22.9669C17.6798 21.9485 17.6798 20.2802 16.1523 19.2619C14.4298 18.1136 11.5806 18.1136 9.84729 19.2619Z" stroke="white" stroke-linecap="round" stroke-linejoin="round"/>
</svg>
