<svg width="78" height="26" viewBox="0 0 78 26" fill="none" xmlns="http://www.w3.org/2000/svg">
<g opacity="0.6">
<path d="M42.9583 13H45.8669L41.8405 17.8869L46.629 23.4007H43.3774L39.0589 18.3603V23.4007H36.4551V13H39.0589V17.7974L42.9583 13Z" fill="#948FA8"/>
<path d="M53.5639 23.4007H50.8691L55.4117 13H58.1577L62.7387 23.4007H60.0568L56.7975 15.5555L55.771 18.047L53.5639 23.4007Z" fill="#948FA8"/>
<path d="M75.5457 13H77.9981V23.4007H75.7885L70.2645 16.9402V23.4007H67.8242V13H69.9974L75.5457 19.486V13Z" fill="#948FA8"/>
<path d="M20.5059 26H19.4811H8.02225H7.34941H0L13.819 0L27.7104 26H20.5059ZM10.8481 19.9259H16.6552L13.7569 13.672L10.8481 19.9259Z" fill="#948FA8"/>
<path d="M41.7601 8.00039L41.7521 4.64039L40.1041 7.40839H39.5201L37.8801 4.71239V8.00039H36.6641V2.40039H37.7361L39.8321 5.88039L41.8961 2.40039H42.9601L42.9761 8.00039H41.7601Z" fill="#948FA8"/>
<path d="M48.3927 6.80039H45.7927L45.2967 8.00039H43.9687L46.4647 2.40039H47.7447L50.2487 8.00039H48.8887L48.3927 6.80039ZM47.9847 5.81639L47.0967 3.67239L46.2087 5.81639H47.9847Z" fill="#948FA8"/>
<path d="M51.2297 2.40039H53.7737C54.3817 2.40039 54.9177 2.51772 55.3817 2.75239C55.851 2.98172 56.2137 3.30706 56.4697 3.72839C56.731 4.14972 56.8617 4.64039 56.8617 5.20039C56.8617 5.76039 56.731 6.25106 56.4697 6.67239C56.2137 7.09372 55.851 7.42172 55.3817 7.65639C54.9177 7.88572 54.3817 8.00039 53.7737 8.00039H51.2297V2.40039ZM53.7097 6.93639C54.2697 6.93639 54.715 6.78172 55.0457 6.47239C55.3817 6.15772 55.5497 5.73372 55.5497 5.20039C55.5497 4.66706 55.3817 4.24572 55.0457 3.93639C54.715 3.62172 54.2697 3.46439 53.7097 3.46439H52.5257V6.93639H53.7097Z" fill="#948FA8"/>
<path d="M62.5751 6.96039V8.00039H58.2391V2.40039H62.4711V3.44039H59.5271V4.65639H62.1271V5.66439H59.5271V6.96039H62.5751Z" fill="#948FA8"/>
<path d="M70.7839 5.08839C71.1039 5.18972 71.3545 5.36039 71.5359 5.60039C71.7172 5.83506 71.8079 6.12572 71.8079 6.47239C71.8079 6.96306 71.6159 7.34172 71.2319 7.60839C70.8532 7.86972 70.2985 8.00039 69.5679 8.00039H66.6719V2.40039H69.4079C70.0905 2.40039 70.6132 2.53106 70.9759 2.79239C71.3439 3.05372 71.5279 3.40839 71.5279 3.85639C71.5279 4.12839 71.4612 4.37106 71.3279 4.58439C71.1999 4.79772 71.0185 4.96572 70.7839 5.08839ZM67.9599 3.37639V4.69639H69.2479C69.5679 4.69639 69.8105 4.64039 69.9759 4.52839C70.1412 4.41639 70.2239 4.25106 70.2239 4.03239C70.2239 3.81372 70.1412 3.65106 69.9759 3.54439C69.8105 3.43239 69.5679 3.37639 69.2479 3.37639H67.9599ZM69.4719 7.02439C69.8132 7.02439 70.0692 6.96839 70.2399 6.85639C70.4159 6.74439 70.5039 6.57106 70.5039 6.33639C70.5039 5.87239 70.1599 5.64039 69.4719 5.64039H67.9599V7.02439H69.4719Z" fill="#948FA8"/>
<path d="M75.7599 6.01639V8.00039H74.4639V6.00039L72.2959 2.40039H73.6719L75.1679 4.88839L76.6639 2.40039H77.9359L75.7599 6.01639Z" fill="#948FA8"/>
</g>
</svg>
