<svg width="24" height="24" viewBox="0 0 24 24" fill="none" xmlns="http://www.w3.org/2000/svg">
<path d="M4.61548 10.6572L12.868 18.9098C13.1302 19.1719 13.5553 19.1719 13.8175 18.9098L19.3847 13.3425M8.64345 14.0138L11.5254 11.1319C11.7876 10.8697 12.2126 10.8697 12.4748 11.1319L16.6994 15.3565M15.7762 7.72009H16.2797M15.7762 8.22358H16.2797M9.98611 19.3845H14.0141C15.894 19.3845 16.8339 19.3845 17.552 19.0186C18.1835 18.6968 18.697 18.1833 19.0189 17.5517C19.3847 16.8337 19.3847 15.8937 19.3847 14.0138V9.98586C19.3847 8.10597 19.3847 7.16602 19.0189 6.44799C18.697 5.8164 18.1835 5.3029 17.552 4.98109C16.8339 4.61523 15.894 4.61523 14.0141 4.61523H9.98611C8.10621 4.61523 7.16626 4.61523 6.44824 4.98109C5.81664 5.3029 5.30314 5.8164 4.98133 6.44799C4.61548 7.16602 4.61548 8.10597 4.61548 9.98586V14.0138C4.61548 15.8937 4.61548 16.8337 4.98133 17.5517C5.30314 18.1833 5.81664 18.6968 6.44824 19.0186C7.16626 19.3845 8.10621 19.3845 9.98611 19.3845ZM16.6994 7.97188C16.6994 8.34264 16.3988 8.64321 16.0281 8.64321C15.6573 8.64321 15.3567 8.34264 15.3567 7.97188C15.3567 7.60111 15.6573 7.30055 16.0281 7.30055C16.3988 7.30055 16.6994 7.60111 16.6994 7.97188Z" stroke="#4D495E" stroke-width="2" stroke-linecap="round"/>
</svg>
