<svg width="25" height="24" viewBox="0 0 25 24" fill="none" xmlns="http://www.w3.org/2000/svg">
<path d="M12.8333 15.6924V20.3078M12.8333 20.3078H18.3718M12.8333 20.3078H7.29487M7.47948 15.6924H18.1872C19.2211 15.6924 19.7381 15.6924 20.133 15.4912C20.4804 15.3142 20.7628 15.0317 20.9398 14.6844C21.141 14.2895 21.141 13.7725 21.141 12.7385V6.64623C21.141 5.61229 21.141 5.09531 20.9398 4.7004C20.7628 4.35302 20.4804 4.0706 20.133 3.8936C19.7381 3.69238 19.2211 3.69238 18.1872 3.69238H7.47948C6.44554 3.69238 5.92857 3.69238 5.53365 3.8936C5.18628 4.0706 4.90385 4.35302 4.72685 4.7004C4.52563 5.09531 4.52563 5.61229 4.52563 6.64623V12.7385C4.52563 13.7725 4.52563 14.2895 4.72685 14.6844C4.90385 15.0317 5.18628 15.3142 5.53365 15.4912C5.92857 15.6924 6.44554 15.6924 7.47948 15.6924Z" stroke="#4D495E" stroke-width="2" stroke-linecap="round"/>
</svg>
