<svg width="25" height="24" viewBox="0 0 25 24" fill="none" xmlns="http://www.w3.org/2000/svg">
<path d="M5.94273 11.1144V16.1656C5.94273 16.877 6.36665 17.5199 7.02048 17.8001L11.466 19.7053C11.9133 19.897 12.4197 19.897 12.867 19.7053L17.3125 17.8001C17.9664 17.5199 18.3903 16.877 18.3903 16.1656V11.1144M21.0576 9.3362V13.7817M3.18153 8.49402L11.3713 4.39916C11.8719 4.14885 12.4611 4.14885 12.9617 4.39916L21.1515 8.49402C21.4791 8.65785 21.4791 9.12543 21.1515 9.28926L12.9617 13.3841C12.4611 13.6344 11.8719 13.6344 11.3713 13.3841L3.18154 9.28926C2.85388 9.12544 2.85388 8.65785 3.18153 8.49402Z" stroke="#4D495E" stroke-width="2" stroke-linecap="round"/>
</svg>
