<svg width="26" height="26" viewBox="0 0 26 26" fill="none" xmlns="http://www.w3.org/2000/svg">
<path fill-rule="evenodd" clip-rule="evenodd" d="M4.92305 5.16915C5.05186 2.61476 7.16377 0.583252 9.75016 0.583252H19.5002C22.7678 0.583252 25.4168 3.23223 25.4168 6.49992V16.2499C25.4168 18.8363 23.3853 20.9482 20.8309 21.077C20.7394 21.4787 20.6133 21.8431 20.4386 22.186C19.8714 23.2993 18.9662 24.2045 17.8529 24.7717C17.1914 25.1088 16.4494 25.2648 15.5152 25.3411C14.5916 25.4166 13.4372 25.4166 11.9398 25.4166H9.72718C9.36511 25.4166 9.0231 25.4166 8.69955 25.4155C8.67657 25.417 8.65351 25.4169 8.63055 25.4153C7.64717 25.4115 6.83612 25.397 6.15179 25.3411C5.21763 25.2648 4.47563 25.1088 3.81405 24.7717C2.70076 24.2045 1.79562 23.2993 1.22837 22.186C0.891283 21.5245 0.735278 20.7824 0.658954 19.8483C0.583493 18.9247 0.583494 17.7703 0.583496 16.2729V14.0603C0.583494 12.5629 0.583493 11.4085 0.658954 10.4849C0.735278 9.55072 0.891283 8.80872 1.22837 8.14714C1.79562 7.03385 2.70076 6.12871 3.81405 5.56146C4.15693 5.38676 4.52141 5.26069 4.92305 5.16915ZM5.938 5.01127C6.00814 5.00435 6.07939 4.99796 6.15179 4.99204C7.0754 4.91658 8.22981 4.91658 9.72719 4.91658H11.9398C13.4372 4.91658 14.5916 4.91658 15.5152 4.99204C16.4494 5.06837 17.1914 5.22437 17.8529 5.56146C18.9662 6.12871 19.8714 7.03385 20.4386 8.14714C20.7757 8.80872 20.9317 9.55072 21.008 10.4849C21.0639 11.1692 21.0784 11.9802 21.0822 12.9636C21.0838 12.9866 21.0839 13.0097 21.0824 13.0327C21.0835 13.3562 21.0835 13.6982 21.0835 14.0603V16.2729C21.0835 17.7703 21.0835 18.9247 21.008 19.8483C21.0021 19.9207 20.9957 19.9919 20.9888 20.0621C22.9154 19.8596 24.4168 18.2301 24.4168 16.2499V6.49992C24.4168 3.78452 22.2156 1.58325 19.5002 1.58325H9.75016C7.76997 1.58325 6.14046 3.08471 5.938 5.01127ZM20.0814 12.7949C20.0766 11.8993 20.0612 11.176 20.0114 10.5663C19.9401 9.69399 19.8009 9.09824 19.5476 8.60113C19.0762 7.676 18.3241 6.92385 17.3989 6.45247C16.9018 6.19918 16.3061 6.05999 15.4338 5.98872C14.5556 5.91697 13.4419 5.91658 11.9168 5.91658H9.75016C8.2251 5.91658 7.11138 5.91697 6.23322 5.98872C5.3609 6.05999 4.76515 6.19918 4.26804 6.45247C3.34291 6.92385 2.59076 7.676 2.11938 8.60113C1.86609 9.09824 1.7269 9.69399 1.65563 10.5663C1.58388 11.4445 1.5835 12.5582 1.5835 14.0833V16.2499C1.5835 17.0266 1.5836 17.6966 1.59317 18.2831L6.46391 13.4124C7.08224 12.7941 8.08475 12.7941 8.70308 13.4124L14.0835 18.7928L20.0814 12.7949ZM20.0835 14.207V16.2499C20.0835 17.775 20.0831 18.8887 20.0114 19.7669C19.9401 20.6392 19.8009 21.2349 19.5476 21.732C19.0762 22.6572 18.3241 23.4093 17.3989 23.8807C16.9018 24.134 16.3061 24.2732 15.4338 24.3444C14.5556 24.4162 13.4419 24.4166 11.9168 24.4166H9.87394L20.0835 14.207ZM13.3764 19.4999L7.99597 14.1195C7.76817 13.8917 7.39882 13.8917 7.17102 14.1195L1.97872 19.3118C1.88329 19.4072 1.75889 19.456 1.63384 19.4582C1.64025 19.5643 1.64748 19.6671 1.65563 19.7669C1.7269 20.6392 1.86609 21.2349 2.11938 21.732C2.59076 22.6572 3.34291 23.4093 4.26804 23.8807C4.76515 24.134 5.3609 24.2732 6.23322 24.3444C6.84293 24.3943 7.5662 24.4097 8.46186 24.4144L13.3764 19.4999ZM14.0835 10.2499C13.7613 10.2499 13.5002 10.5111 13.5002 10.8333C13.5002 11.1554 13.7613 11.4166 14.0835 11.4166C14.4057 11.4166 14.6668 11.1554 14.6668 10.8333C14.6668 10.5111 14.4057 10.2499 14.0835 10.2499ZM12.5002 10.8333C12.5002 9.9588 13.209 9.24992 14.0835 9.24992C14.9579 9.24992 15.6668 9.9588 15.6668 10.8333C15.6668 11.7077 14.9579 12.4166 14.0835 12.4166C13.209 12.4166 12.5002 11.7077 12.5002 10.8333Z" fill="white"/>
</svg>
