<svg width="26" height="26" viewBox="0 0 26 26" fill="none" xmlns="http://www.w3.org/2000/svg">
<path d="M23.6275 4.26844C21.9591 8.42844 17.7775 14.0834 14.2783 16.8893L12.1441 18.6009C11.8733 18.7959 11.6025 18.9693 11.2991 19.0884C11.2991 18.8934 11.2883 18.6768 11.2558 18.4709C11.1366 17.5609 10.725 16.7159 9.99915 15.9901C9.26248 15.2534 8.36331 14.8201 7.44248 14.7009C7.22581 14.6901 7.00915 14.6684 6.79248 14.6901C6.91165 14.3543 7.09581 14.0401 7.32331 13.7801L9.01331 11.6459C11.8083 8.14678 17.485 3.94344 21.6341 2.28594C22.2733 2.04761 22.8908 2.22094 23.2808 2.62178C23.6925 3.02261 23.8875 3.64011 23.6275 4.26844Z" stroke="white" stroke-linecap="round" stroke-linejoin="round"/>
<path d="M11.2991 19.0884C11.2991 20.28 10.8441 21.4175 9.98822 22.2842C9.32739 22.945 8.42822 23.4 7.35572 23.5409L4.69072 23.8334C3.23906 23.9959 1.99322 22.7609 2.16656 21.2875L2.45906 18.6225C2.71906 16.25 4.70156 14.7334 6.80322 14.69C7.01989 14.6792 7.24739 14.69 7.45322 14.7009C8.37406 14.82 9.27322 15.2425 10.0099 15.99C10.7357 16.7159 11.1474 17.5609 11.2666 18.4709C11.2774 18.6767 11.2991 18.8825 11.2991 19.0884Z" stroke="white" stroke-linecap="round" stroke-linejoin="round"/>
<path d="M15.4269 15.6759C15.4269 12.8484 13.1302 10.5518 10.3027 10.5518" stroke="white" stroke-linecap="round" stroke-linejoin="round"/>
<path d="M21.7965 13.7908L22.5981 14.5816C24.2123 16.1958 24.2123 17.7883 22.5981 19.4024L19.3915 22.6091C17.799 24.2016 16.1848 24.2016 14.5923 22.6091" stroke="white" stroke-linecap="round"/>
<path d="M3.36918 11.3859C1.77668 9.77177 1.77668 8.17927 3.36918 6.5651L6.57585 3.35844C8.16835 1.76594 9.78251 1.76594 11.375 3.35844L12.1767 4.1601" stroke="white" stroke-linecap="round"/>
<path d="M12.1875 4.1709L8.1792 8.17923" stroke="white" stroke-linecap="round"/>
<path d="M21.7965 13.7908L18.5898 16.9866" stroke="white" stroke-linecap="round"/>
</svg>
