<svg width="50" height="50" viewBox="0 0 50 50" fill="none" xmlns="http://www.w3.org/2000/svg">
<path d="M19.3409 14.3289C19.3409 12.9156 19.9023 11.5602 20.9017 10.5608C21.901 9.56143 23.2565 9 24.6698 9C26.0831 9 27.4385 9.56143 28.4379 10.5608C29.4372 11.5602 29.9987 12.9156 29.9987 14.3289C29.9987 15.7422 29.4372 17.0976 28.4379 18.097C27.4385 19.0963 26.0831 19.6578 24.6698 19.6578C23.2565 19.6578 21.901 19.0963 20.9017 18.097C19.9023 17.0976 19.3409 15.7422 19.3409 14.3289ZM24.6698 11.6671C24.3202 11.6671 23.9741 11.736 23.6512 11.8697C23.3282 12.0035 23.0348 12.1996 22.7876 12.4467C22.5404 12.6939 22.3444 12.9873 22.2106 13.3103C22.0768 13.6332 22.008 13.9793 22.008 14.3289C22.008 14.6784 22.0768 15.0246 22.2106 15.3475C22.3444 15.6704 22.5404 15.9639 22.7876 16.211C23.0348 16.4582 23.3282 16.6543 23.6512 16.788C23.9741 16.9218 24.3202 16.9907 24.6698 16.9907C25.3757 16.9907 26.0528 16.7102 26.5519 16.211C27.0511 15.7119 27.3316 15.0348 27.3316 14.3289C27.3316 13.6229 27.0511 12.9459 26.5519 12.4467C26.0528 11.9475 25.3757 11.6671 24.6698 11.6671ZM32.6711 15.6624C32.6711 15.1371 32.7746 14.6168 32.9756 14.1315C33.1767 13.6461 33.4714 13.205 33.8429 12.8335C34.2144 12.462 34.6554 12.1674 35.1408 11.9663C35.6262 11.7653 36.1464 11.6618 36.6718 11.6618C37.1972 11.6618 37.7174 11.7653 38.2028 11.9663C38.6882 12.1674 39.1292 12.462 39.5007 12.8335C39.8722 13.205 40.1669 13.6461 40.3679 14.1315C40.569 14.6168 40.6724 15.1371 40.6724 15.6624C40.6724 16.7235 40.2509 17.7411 39.5007 18.4913C38.7504 19.2416 37.7328 19.6631 36.6718 19.6631C35.6107 19.6631 34.5931 19.2416 33.8429 18.4913C33.0926 17.7411 32.6711 16.7235 32.6711 15.6624ZM36.6718 14.3289C36.3181 14.3289 35.9789 14.4694 35.7288 14.7195C35.4787 14.9696 35.3382 15.3088 35.3382 15.6624C35.3382 16.0161 35.4787 16.3553 35.7288 16.6054C35.9789 16.8555 36.3181 16.996 36.6718 16.996C37.0255 16.996 37.3647 16.8555 37.6147 16.6054C37.8648 16.3553 38.0053 16.0161 38.0053 15.6624C38.0053 15.3088 37.8648 14.9696 37.6147 14.7195C37.3647 14.4694 37.0255 14.3289 36.6718 14.3289ZM12.6678 11.6618C11.6067 11.6618 10.5892 12.0833 9.83888 12.8335C9.08861 13.5838 8.66711 14.6014 8.66711 15.6624C8.66711 16.7235 9.08861 17.7411 9.83888 18.4913C10.5892 19.2416 11.6067 19.6631 12.6678 19.6631C13.7288 19.6631 14.7464 19.2416 15.4967 18.4913C16.2469 17.7411 16.6684 16.7235 16.6684 15.6624C16.6684 14.6014 16.2469 13.5838 15.4967 12.8335C14.7464 12.0833 13.7288 11.6618 12.6678 11.6618ZM11.3342 15.6624C11.3342 15.3088 11.4747 14.9696 11.7248 14.7195C11.9749 14.4694 12.3141 14.3289 12.6678 14.3289C13.0215 14.3289 13.3607 14.4694 13.6107 14.7195C13.8608 14.9696 14.0013 15.3088 14.0013 15.6624C14.0013 16.0161 13.8608 16.3553 13.6107 16.6054C13.3607 16.8555 13.0215 16.996 12.6678 16.996C12.3141 16.996 11.9749 16.8555 11.7248 16.6054C11.4747 16.3553 11.3342 16.0161 11.3342 15.6624ZM14.7161 22.3302C14.2467 23.1406 14.0001 24.0608 14.0013 24.9973H8.66711V31.6651C8.6669 32.3285 8.83166 32.9816 9.14657 33.5655C9.46148 34.1494 9.91665 34.6458 10.4711 35.0101C11.0256 35.3743 11.6619 35.595 12.3229 35.6522C12.9838 35.7094 13.6486 35.6013 14.2574 35.3377C14.4547 36.2205 14.7641 37.0633 15.1642 37.8501C14.1519 38.2589 13.0548 38.4128 11.9691 38.2984C10.8835 38.184 9.84253 37.8048 8.93767 37.1941C8.03281 36.5834 7.29173 35.7599 6.77952 34.7959C6.26731 33.8318 5.99964 32.7568 6 31.6651V24.9973C6 24.29 6.281 23.6116 6.78118 23.1114C7.28136 22.6112 7.95975 22.3302 8.66711 22.3302H14.7161ZM34.1754 37.8501C35.1876 38.2589 36.2848 38.4128 37.3704 38.2984C38.4561 38.184 39.497 37.8048 40.4019 37.1941C41.3067 36.5834 42.0478 35.7599 42.56 34.7959C43.0722 33.8318 43.3399 32.7568 43.3396 31.6651V24.9973C43.3396 24.29 43.0586 23.6116 42.5584 23.1114C42.0582 22.6112 41.3798 22.3302 40.6724 22.3302H34.6234C35.0768 23.1144 35.3382 24.0238 35.3382 24.9973H40.6724V31.6651C40.6727 32.3285 40.5079 32.9816 40.193 33.5655C39.8781 34.1494 39.4229 34.6458 38.8684 35.0101C38.314 35.3743 37.6776 35.595 37.0167 35.6522C36.3558 35.7094 35.691 35.6013 35.0822 35.3377C34.8821 36.2205 34.5754 37.0633 34.1754 37.8501ZM19.3356 22.3276C18.6282 22.3276 17.9498 22.6086 17.4496 23.1087C16.9494 23.6089 16.6684 24.2873 16.6684 24.9947V32.9987C16.6684 35.1208 17.5114 37.1559 19.012 38.6565C20.5125 40.157 22.5477 41 24.6698 41C26.7919 41 28.827 40.157 30.3276 38.6565C31.8281 37.1559 32.6711 35.1208 32.6711 32.9987V24.9973C32.6711 24.29 32.3901 23.6116 31.8899 23.1114C31.3898 22.6112 30.7114 22.3302 30.004 22.3302H19.3356V22.3276ZM19.3356 24.9947H30.004V32.9987C30.004 34.4134 29.442 35.7702 28.4416 36.7705C27.4413 37.7709 26.0845 38.3329 24.6698 38.3329C23.2551 38.3329 21.8983 37.7709 20.8979 36.7705C19.8976 35.7702 19.3356 34.4134 19.3356 32.9987V24.9973V24.9947Z" fill="#A78E8E"/>
</svg>
