<svg width="50" height="50" viewBox="0 0 50 50" fill="none" xmlns="http://www.w3.org/2000/svg">
<path d="M38.5222 9.40365C38.329 9.27032 38.106 9.18646 37.8728 9.15943C37.6396 9.13239 37.4033 9.163 37.1847 9.24857C34.8772 10.2299 32.4433 10.8824 29.9544 11.187C28.3802 10.766 26.8776 10.1126 25.496 9.24857C23.7114 8.14974 21.7403 7.3876 19.6807 7C16.372 7.29262 13.1146 8.00924 9.9886 9.13227C9.70062 9.22954 9.45038 9.41462 9.27305 9.66148C9.09572 9.90835 9.00023 10.2046 9 10.5086L9 39.5462C9 39.9318 9.15317 40.3015 9.42581 40.5742C9.69846 40.8468 10.0682 41 10.4538 41C10.8394 41 11.2092 40.8468 11.4818 40.5742C11.7545 40.3015 11.9076 39.9318 11.9076 39.5462L11.9076 28.2064C14.3212 27.3327 16.835 26.7661 19.39 26.52C21.0306 26.9249 22.5995 27.5786 24.0422 28.4584C25.7289 29.4893 27.5767 30.2298 29.5085 30.6488H29.9544C32.7618 30.2944 35.5076 29.5574 38.1152 28.4584C38.3892 28.3527 38.6247 28.1664 38.7908 27.9242C38.9569 27.682 39.0457 27.3952 39.0456 27.1015V10.6055C39.0601 10.378 39.0202 10.1503 38.9292 9.94128C38.8382 9.73228 38.6987 9.54797 38.5222 9.40365ZM36.2543 26.1323C34.2405 26.9661 32.12 27.5141 29.9544 27.7605C28.3802 27.3395 26.8776 26.6862 25.496 25.8221C23.7114 24.7233 21.7403 23.9611 19.6807 23.5735H19.293C16.7978 23.7983 14.3381 24.3189 11.9658 25.1243L11.9658 11.5553C14.3793 10.6816 16.8932 10.1151 19.4481 9.86887C21.0887 10.2738 22.6576 10.9275 24.1003 11.8073C25.787 12.8383 27.6348 13.5787 29.5667 13.9977C31.8412 13.9085 34.0835 13.4299 36.1961 12.5827L36.2543 26.1323Z" fill="#A78E8E"/>
</svg>
