<svg width="50" height="50" viewBox="0 0 50 50" fill="none" xmlns="http://www.w3.org/2000/svg">
<path d="M45 13.3333C45 13.687 44.8595 14.0261 44.6095 14.2761C44.3594 14.5262 44.0203 14.6667 43.6667 14.6667H35.6667V21.3333C35.6667 21.687 35.5262 22.0261 35.2761 22.2761C35.0261 22.5262 34.687 22.6667 34.3333 22.6667H26.3333V29.3333C26.3333 29.687 26.1929 30.0261 25.9428 30.2761C25.6928 30.5262 25.3536 30.6667 25 30.6667H17V37.3333C17 37.687 16.8595 38.0261 16.6095 38.2761C16.3594 38.5262 16.0203 38.6667 15.6667 38.6667H6.33333C5.97971 38.6667 5.64057 38.5262 5.39052 38.2761C5.14048 38.0261 5 37.687 5 37.3333C5 36.9797 5.14048 36.6406 5.39052 36.3905C5.64057 36.1405 5.97971 36 6.33333 36H14.3333V29.3333C14.3333 28.9797 14.4738 28.6406 14.7239 28.3905C14.9739 28.1405 15.313 28 15.6667 28H23.6667V21.3333C23.6667 20.9797 23.8071 20.6406 24.0572 20.3905C24.3072 20.1405 24.6464 20 25 20H33V13.3333C33 12.9797 33.1405 12.6406 33.3905 12.3905C33.6406 12.1405 33.9797 12 34.3333 12H43.6667C44.0203 12 44.3594 12.1405 44.6095 12.3905C44.8595 12.6406 45 12.9797 45 13.3333Z" fill="#A78E8E"/>
</svg>
