<svg width="200" height="200" viewBox="0 0 200 200" fill="none" xmlns="http://www.w3.org/2000/svg">
<path d="M138.793 92.6776L143.803 88.9805H127.03V111.127H143.803V107.43H131.822V101.775H142.06V98.0782H131.822V92.6776H138.793Z" fill="#21A038"/>
<path d="M114.36 97.607H108.551V92.6776H117.846L122.855 88.9805H103.759V111.127H113.743C119.333 111.127 122.565 108.59 122.565 104.168C122.565 99.9268 119.661 97.607 114.36 97.607ZM113.562 107.43H108.551V101.304H113.562C116.611 101.304 118.027 102.319 118.027 104.385C118.027 106.451 116.502 107.43 113.562 107.43Z" fill="#21A038"/>
<path d="M157.38 88.9805H148.268V111.127H153.059V104.856H157.416C163.225 104.856 166.855 101.812 166.855 96.9184C166.855 92.0252 163.225 88.9805 157.38 88.9805ZM157.271 101.159H153.023V92.6776H157.271C160.357 92.6776 162.026 94.1999 162.026 96.9184C162.026 99.6368 160.357 101.159 157.271 101.159Z" fill="#21A038"/>
<path d="M95.5544 106.342C94.2835 107.031 92.868 107.394 91.4159 107.394C87.0957 107.394 83.9735 104.313 83.9735 100.072C83.9735 95.8311 87.0957 92.7502 91.4159 92.7502C92.9769 92.714 94.5021 93.2214 95.7722 94.1276L99.2217 91.5903L99.0031 91.3728C97.0065 89.5968 94.3201 88.6907 91.2707 88.6907C87.967 88.6907 84.9538 89.8143 82.7755 91.844C80.5973 93.9464 79.3629 96.8822 79.4355 99.9269C79.3992 103.008 80.5973 105.98 82.7755 108.155C85.0627 110.293 88.1122 111.489 91.2343 111.417C94.6833 111.417 97.6964 110.221 99.7295 108.046L96.6433 105.763L95.5544 106.342Z" fill="#21A038"/>
<path d="M64.4422 88.835C65.3135 89.9586 66.0396 91.1909 66.6567 92.4958L49.8843 104.856L42.8412 100.434V95.1418L49.8479 99.5275L64.4422 88.835Z" fill="#21A038"/>
<path d="M35.688 100.072C35.688 99.8186 35.688 99.6011 35.7244 99.3474L31.4768 99.1299C31.4768 99.4199 31.4404 99.7461 31.4404 100.036C31.4404 105.111 33.5098 109.714 36.8497 113.048L39.863 110.04C37.2854 107.503 35.688 103.987 35.688 100.072Z" fill="url(#paint0_linear_1177_4922)"/>
<path d="M49.8468 85.9363C50.1009 85.9363 50.3187 85.9363 50.5729 85.9726L50.7907 81.7318C50.5003 81.7318 50.1735 81.6956 49.8831 81.6956C44.8005 81.6956 40.1899 83.7616 36.8499 87.0962L39.8631 90.1047C42.4044 87.5311 45.9622 85.9363 49.8468 85.9363Z" fill="url(#paint1_linear_1177_4922)"/>
<path d="M49.8456 114.208C49.5914 114.208 49.3737 114.208 49.1196 114.172L48.9017 118.413C49.1921 118.413 49.5189 118.449 49.8093 118.449C54.8919 118.449 59.5025 116.383 62.8425 113.048L59.8292 110.04C57.2879 112.649 53.7665 114.208 49.8456 114.208Z" fill="url(#paint2_linear_1177_4922)"/>
<path d="M57.835 88.401L61.4291 85.755C58.2706 83.2178 54.2409 81.6592 49.8481 81.6592V85.9C52.825 85.9363 55.5841 86.8424 57.835 88.401Z" fill="url(#paint3_linear_1177_4922)"/>
<path d="M68.29 100.071C68.29 98.9474 68.1811 97.86 67.9996 96.7727L64.0424 99.7086C64.0424 99.8173 64.0424 99.9624 64.0424 100.071C64.0424 104.239 62.2272 107.973 59.3592 110.546L62.2272 113.7C65.9302 110.365 68.29 105.472 68.29 100.071Z" fill="#21A038"/>
<path d="M49.8471 114.208C45.6721 114.208 41.9328 112.396 39.3552 109.532L36.1967 112.396C39.573 116.129 44.4377 118.449 49.8471 118.449V114.208Z" fill="url(#paint4_linear_1177_4922)"/>
<path d="M40.372 89.5958L37.504 86.4424C33.7647 89.8133 31.4412 94.6703 31.4412 100.071H35.6888C35.6888 95.9389 37.504 92.1693 40.372 89.5958Z" fill="url(#paint5_linear_1177_4922)"/>
<defs>
<linearGradient id="paint0_linear_1177_4922" x1="528.434" y1="1439.38" x2="94.9245" y2="188.29" gradientUnits="userSpaceOnUse">
<stop offset="0.1444" stop-color="#F2E913"/>
<stop offset="0.3037" stop-color="#E7E518"/>
<stop offset="0.5823" stop-color="#CADB26"/>
<stop offset="0.891" stop-color="#A3CD39"/>
</linearGradient>
<linearGradient id="paint1_linear_1177_4922" x1="157.928" y1="572.593" x2="1259.49" y2="153.478" gradientUnits="userSpaceOnUse">
<stop offset="0.0592" stop-color="#0FA8E0"/>
<stop offset="0.5385" stop-color="#0099F9"/>
<stop offset="0.9234" stop-color="#0291EB"/>
</linearGradient>
<linearGradient id="paint2_linear_1177_4922" x1="23.9608" y1="589.197" x2="1336.86" y2="292.942" gradientUnits="userSpaceOnUse">
<stop offset="0.1226" stop-color="#A3CD39"/>
<stop offset="0.2846" stop-color="#86C339"/>
<stop offset="0.8693" stop-color="#21A038"/>
</linearGradient>
<linearGradient id="paint3_linear_1177_4922" x1="-37.4234" y1="352.993" x2="1054.41" y2="689.332" gradientUnits="userSpaceOnUse">
<stop offset="0.0566" stop-color="#0291EB"/>
<stop offset="0.79" stop-color="#0C8ACB"/>
</linearGradient>
<linearGradient id="paint4_linear_1177_4922" x1="144.198" y1="464.757" x2="1316.62" y2="902.106" gradientUnits="userSpaceOnUse">
<stop offset="0.1324" stop-color="#F2E913"/>
<stop offset="0.2977" stop-color="#EBE716"/>
<stop offset="0.5306" stop-color="#D9E01F"/>
<stop offset="0.8023" stop-color="#BBD62D"/>
<stop offset="0.9829" stop-color="#A3CD39"/>
</linearGradient>
<linearGradient id="paint5_linear_1177_4922" x1="354.642" y1="1500.51" x2="823.422" y2="283.002" gradientUnits="userSpaceOnUse">
<stop offset="0.0698" stop-color="#A3CD39"/>
<stop offset="0.2599" stop-color="#81C55F"/>
<stop offset="0.9216" stop-color="#0FA8E0"/>
</linearGradient>
</defs>
</svg>
