<svg width="100" height="100" viewBox="0 0 100 100" fill="none" xmlns="http://www.w3.org/2000/svg">
<path d="M37.5 87.5L49.7054 75.2946C49.8681 75.1319 50.1319 75.1319 50.2946 75.2946L62.5 87.5M33.3333 54.1667L44.2257 42.4963C44.3546 42.3581 44.5605 42.3241 44.7271 42.4133L55.2395 48.045C55.4212 48.1423 55.6468 48.0921 55.7701 47.927L66.6667 33.3333M25.8333 75H74.1667C78.8338 75 81.1673 75 82.9499 74.0917C84.5179 73.2928 85.7928 72.0179 86.5917 70.4499C87.5 68.6673 87.5 66.3338 87.5 61.6667V25.8333C87.5 21.1662 87.5 18.8327 86.5917 17.0501C85.7928 15.4821 84.5179 14.2072 82.9499 13.4083C81.1673 12.5 78.8338 12.5 74.1667 12.5H25.8333C21.1662 12.5 18.8327 12.5 17.0501 13.4083C15.4821 14.2072 14.2072 15.4821 13.4083 17.0501C12.5 18.8327 12.5 21.1662 12.5 25.8333V61.6667C12.5 66.3338 12.5 68.6673 13.4083 70.4499C14.2072 72.0179 15.4821 73.2928 17.0501 74.0917C18.8327 75 21.1662 75 25.8333 75Z" stroke="#A78E8E" stroke-width="3.50877" stroke-linecap="round"/>
</svg>
