<svg width="26" height="26" viewBox="0 0 26 26" fill="none" xmlns="http://www.w3.org/2000/svg">
<path fill-rule="evenodd" clip-rule="evenodd" d="M10.8972 1.16833C5.75339 1.16833 1.5835 5.33823 1.5835 10.4821C1.5835 15.6259 5.75339 19.7958 10.8972 19.7958C16.041 19.7958 20.2109 15.6259 20.2109 10.4821C20.2109 5.33823 16.041 1.16833 10.8972 1.16833ZM0.583496 10.4821C0.583496 4.78595 5.20111 0.168335 10.8972 0.168335C16.5933 0.168335 21.2109 4.78595 21.2109 10.4821C21.2109 13.1502 20.1978 15.5817 18.5352 17.4129L25.2704 24.1481C25.4656 24.3434 25.4656 24.66 25.2704 24.8552C25.0751 25.0505 24.7585 25.0505 24.5633 24.8552L17.8281 18.12C15.9969 19.7826 13.5654 20.7958 10.8972 20.7958C5.20111 20.7958 0.583496 16.1782 0.583496 10.4821ZM15.3525 6.03574C15.6089 6.1383 15.7336 6.42928 15.6311 6.68567L13.7269 11.4461C13.4723 12.0825 12.6831 12.3038 12.1347 11.8926L8.93226 9.49072C8.91032 9.47427 8.87876 9.48312 8.86857 9.50858L6.9644 14.269C6.86184 14.5254 6.57086 14.6501 6.31447 14.5476C6.05808 14.445 5.93337 14.154 6.03592 13.8976L7.9401 9.13719C8.19466 8.50077 8.98391 8.27945 9.53226 8.69072L12.7347 11.0926C12.7567 11.109 12.7882 11.1002 12.7984 11.0747L14.7026 6.31428C14.8051 6.05789 15.0961 5.93318 15.3525 6.03574Z" fill="white"/>
</svg>
