<svg width="26" height="26" viewBox="0 0 26 26" fill="none" xmlns="http://www.w3.org/2000/svg">
<path fill-rule="evenodd" clip-rule="evenodd" d="M9.74967 7C8.8292 7 8.08301 7.74619 8.08301 8.66667C8.08301 9.58714 8.8292 10.3333 9.74967 10.3333C10.6701 10.3333 11.4163 9.58714 11.4163 8.66667C11.4163 7.74619 10.6701 7 9.74967 7ZM7.08301 8.66667C7.08301 7.19391 8.27692 6 9.74967 6C11.2224 6 12.4163 7.19391 12.4163 8.66667C12.4163 10.1394 11.2224 11.3333 9.74967 11.3333C8.27692 11.3333 7.08301 10.1394 7.08301 8.66667Z" fill="white"/>
<path fill-rule="evenodd" clip-rule="evenodd" d="M3.57337 3.57361C4.93176 2.21522 6.99219 1.66675 9.74984 1.66675H14.0832C14.3593 1.66675 14.5832 1.89061 14.5832 2.16675C14.5832 2.44289 14.3593 2.66675 14.0832 2.66675H9.74984C7.09082 2.66675 5.35958 3.20161 4.28047 4.28072C3.20137 5.35982 2.6665 7.09106 2.6665 9.75008V16.2501C2.6665 18.9091 3.20137 20.6403 4.28047 21.7194C5.35958 22.7985 7.09082 23.3334 9.74984 23.3334H16.2498C18.9089 23.3334 20.6401 22.7985 21.7192 21.7194C22.7983 20.6403 23.3332 18.9091 23.3332 16.2501V10.8334C23.3332 10.5573 23.557 10.3334 23.8332 10.3334C24.1093 10.3334 24.3332 10.5573 24.3332 10.8334V16.2501C24.3332 19.0077 23.7847 21.0682 22.4263 22.4266C21.0679 23.7849 19.0075 24.3334 16.2498 24.3334H9.74984C6.99219 24.3334 4.93176 23.7849 3.57337 22.4266C2.21497 21.0682 1.6665 19.0077 1.6665 16.2501V9.75008C1.6665 6.99243 2.21497 4.93201 3.57337 3.57361Z" fill="white"/>
<path fill-rule="evenodd" clip-rule="evenodd" d="M20.0359 2.88801C20.3017 2.81311 20.5779 2.96785 20.6528 3.23364C20.9414 4.2578 21.7421 5.05856 22.7663 5.34718C23.0321 5.42209 23.1868 5.69827 23.1119 5.96406C23.037 6.22985 22.7608 6.38459 22.4951 6.30969C21.1359 5.92665 20.0733 4.86407 19.6903 3.50489C19.6154 3.23911 19.7701 2.96292 20.0359 2.88801Z" fill="white"/>
<path fill-rule="evenodd" clip-rule="evenodd" d="M21.7413 13.9211C21.0837 13.3563 19.9956 13.3563 19.3379 13.9211L14.8313 17.7886C14.8312 17.7887 14.8313 17.7886 14.8313 17.7886C13.7989 18.6753 12.157 18.6754 11.1247 17.7886L11.1204 17.785L10.7652 17.4727C10.1704 16.9635 9.18456 16.9072 8.51154 17.3587L3.17085 20.9445C2.94159 21.0984 2.63095 21.0373 2.47703 20.8081C2.3231 20.5788 2.38417 20.2682 2.61343 20.1142L7.95427 16.5284C8.99216 15.8321 10.475 15.9051 11.4188 16.7159L11.4231 16.7196L11.7782 17.0318C12.4361 17.595 13.5227 17.5944 14.1797 17.0301L18.6863 13.1626C18.6864 13.1625 18.6863 13.1626 18.6863 13.1626C19.7187 12.2759 21.3606 12.2758 22.3929 13.1626C22.3929 13.1626 22.3929 13.1626 22.3929 13.1626L24.1588 14.6792C24.3682 14.8591 24.3922 15.1748 24.2123 15.3843C24.0324 15.5938 23.7167 15.6177 23.5072 15.4378L21.7413 13.9211Z" fill="white"/>
</svg>
