<svg width="26" height="26" viewBox="0 0 26 26" fill="none" xmlns="http://www.w3.org/2000/svg">
<path fill-rule="evenodd" clip-rule="evenodd" d="M13 3.75C9.68629 3.75 7 6.43629 7 9.75C7 10.6405 7.19369 11.4845 7.54076 12.2431C7.79278 12.794 8.08211 13.3436 8.38114 13.9084C8.394 13.9327 8.40688 13.957 8.41978 13.9814C8.70445 14.5189 8.99659 15.0705 9.25911 15.6302C9.75265 16.6824 10.1604 17.8006 10.237 19H15.763C15.8396 17.8006 16.2474 16.6824 16.7409 15.6302C17.0034 15.0705 17.2955 14.5189 17.5802 13.9814C17.5931 13.957 17.606 13.9327 17.6189 13.9084C17.9179 13.3436 18.2072 12.794 18.4592 12.2431C18.8063 11.4845 19 10.6405 19 9.75C19 6.43629 16.3137 3.75 13 3.75ZM6 9.75C6 5.88401 9.13401 2.75 13 2.75C16.866 2.75 20 5.88401 20 9.75C20 10.787 19.7742 11.7726 19.3686 12.6591C19.1028 13.2402 18.8002 13.8144 18.5026 14.3763C18.491 14.3983 18.4794 14.4202 18.4678 14.4421C18.18 14.9855 17.8982 15.5177 17.6462 16.0548C17.1216 17.1733 16.75 18.2665 16.75 19.4031C16.75 19.7328 16.4828 20 16.1531 20H9.84687C9.51722 20 9.25 19.7328 9.25 19.4031C9.25 18.2665 8.87836 17.1733 8.35375 16.0548C8.10181 15.5177 7.81996 14.9855 7.53222 14.4421L7.49737 14.3763C7.19982 13.8144 6.89723 13.2402 6.6314 12.6591C6.2258 11.7726 6 10.787 6 9.75ZM9.25 22.75C9.25 22.4739 9.47386 22.25 9.75 22.25H16.25C16.5261 22.25 16.75 22.4739 16.75 22.75C16.75 23.0261 16.5261 23.25 16.25 23.25H9.75C9.47386 23.25 9.25 23.0261 9.25 22.75Z" fill="white"/>
</svg>
