<svg width="26" height="26" viewBox="0 0 26 26" fill="none" xmlns="http://www.w3.org/2000/svg">
<path fill-rule="evenodd" clip-rule="evenodd" d="M7.79988 1.66675H18.2004C18.7988 1.66674 19.2788 1.66674 19.6667 1.69896C20.0654 1.73206 20.4114 1.80176 20.7294 1.96698C21.2165 2.21998 21.6136 2.6171 21.8666 3.10415C22.0318 3.42221 22.1015 3.76822 22.1346 4.16687C22.1668 4.55479 22.1668 5.03478 22.1668 5.63309V20.3671C22.1668 20.9654 22.1668 21.4454 22.1346 21.8333C22.1015 22.2319 22.0318 22.5779 21.8666 22.896C21.6136 23.3831 21.2165 23.7802 20.7294 24.0332C20.4114 24.1984 20.0654 24.2681 19.6667 24.3012C19.2788 24.3334 18.7987 24.3334 18.2004 24.3334H7.79994C7.20158 24.3334 6.72156 24.3334 6.33362 24.3012C5.93496 24.2681 5.58896 24.1984 5.2709 24.0332C4.78385 23.7802 4.38673 23.3831 4.13373 22.896C3.96851 22.578 3.89881 22.2319 3.8657 21.8333C3.83349 21.4454 3.83349 20.9654 3.8335 20.367V5.63313C3.83349 5.0348 3.83349 4.5548 3.8657 4.16687C3.89881 3.76822 3.96851 3.42221 4.13373 3.10415C4.38673 2.6171 4.78385 2.21998 5.2709 1.96698C5.58896 1.80176 5.93496 1.73206 6.33362 1.69896C6.72155 1.66674 7.20155 1.66674 7.79988 1.66675ZM6.41638 2.69553C6.08068 2.7234 5.88341 2.77568 5.73187 2.85439C5.42747 3.01252 5.17927 3.26072 5.02114 3.56512C4.94242 3.71666 4.89015 3.91393 4.86227 4.24963C4.8339 4.59131 4.8335 5.02974 4.8335 5.65508V20.3451C4.8335 20.9704 4.8339 21.4089 4.86227 21.7505C4.89015 22.0862 4.94242 22.2835 5.02114 22.435C5.17927 22.7394 5.42747 22.9876 5.73187 23.1458C5.88341 23.2245 6.08068 23.2768 6.41638 23.3046C6.75806 23.333 7.19649 23.3334 7.82183 23.3334H18.1785C18.8038 23.3334 19.2423 23.333 19.5839 23.3046C19.9196 23.2768 20.1169 23.2245 20.2685 23.1458C20.5729 22.9876 20.8211 22.7394 20.9792 22.435C21.0579 22.2835 21.1102 22.0862 21.1381 21.7505C21.1664 21.4089 21.1668 20.9704 21.1668 20.3451V5.65508C21.1668 5.02974 21.1664 4.59131 21.1381 4.24963C21.1102 3.91393 21.0579 3.71666 20.9792 3.56512C20.8211 3.26072 20.5729 3.01252 20.2685 2.85439C20.1169 2.77568 19.9196 2.7234 19.5839 2.69553C19.2423 2.66715 18.8038 2.66675 18.1785 2.66675H7.82183C7.19649 2.66675 6.75806 2.66715 6.41638 2.69553ZM8.16683 6.50008C8.16683 6.22394 8.39069 6.00008 8.66683 6.00008H17.3335C17.6096 6.00008 17.8335 6.22394 17.8335 6.50008C17.8335 6.77622 17.6096 7.00008 17.3335 7.00008H8.66683C8.39069 7.00008 8.16683 6.77622 8.16683 6.50008ZM8.16683 10.8334C8.16683 10.5573 8.39069 10.3334 8.66683 10.3334H17.3335C17.6096 10.3334 17.8335 10.5573 17.8335 10.8334C17.8335 11.1096 17.6096 11.3334 17.3335 11.3334H8.66683C8.39069 11.3334 8.16683 11.1096 8.16683 10.8334ZM8.16683 15.1667C8.16683 14.8906 8.39069 14.6667 8.66683 14.6667H17.3335C17.6096 14.6667 17.8335 14.8906 17.8335 15.1667C17.8335 15.4429 17.6096 15.6667 17.3335 15.6667H8.66683C8.39069 15.6667 8.16683 15.4429 8.16683 15.1667ZM8.16683 19.5001C8.16683 19.2239 8.39069 19.0001 8.66683 19.0001H13.0002C13.2763 19.0001 13.5002 19.2239 13.5002 19.5001C13.5002 19.7762 13.2763 20.0001 13.0002 20.0001H8.66683C8.39069 20.0001 8.16683 19.7762 8.16683 19.5001Z" fill="white"/>
</svg>
