<svg width="26" height="26" viewBox="0 0 26 26" fill="none" xmlns="http://www.w3.org/2000/svg">
<path d="M17.7957 19.4401L17.4942 19.0412L17.4942 19.0412L17.7957 19.4401ZM20.8848 17.7322C21.1051 17.5657 21.1487 17.2522 20.9822 17.0319C20.8157 16.8116 20.5022 16.7679 20.2819 16.9344L20.8848 17.7322ZM17.4127 19.4401L17.7141 19.0412L17.7141 19.0412L17.4127 19.4401ZM16.5515 18.1625C16.3312 17.996 16.0176 18.0396 15.8511 18.2599C15.6846 18.4802 15.7282 18.7938 15.9485 18.9603L16.5515 18.1625ZM5.02687 4.73083L5.34696 4.34672L5.02687 4.73083ZM8.36294 7.51089L8.68303 7.12678L8.68303 7.12678L8.36294 7.51089ZM11.1371 7.51089L11.4572 7.895L11.4572 7.895L11.1371 7.51089ZM14.8629 4.406L14.5428 4.02188L14.5428 4.02188L14.8629 4.406ZM17.6371 4.406L17.317 4.79011L17.317 4.79011L17.6371 4.406ZM21.1908 7.36744L20.8707 7.75155L20.8707 7.75155L21.1908 7.36744ZM8.36293 21.5942L8.68303 21.2101L8.68303 21.2101L8.36293 21.5942ZM4.0296 17.9831L3.70951 18.3672L3.70951 18.3672L4.0296 17.9831ZM21.4704 10.8333C21.4704 11.1095 21.6943 11.3333 21.9704 11.3333C22.2465 11.3333 22.4704 11.1095 22.4704 10.8333H21.4704ZM18.0971 19.839L20.8848 17.7322L20.2819 16.9344L17.4942 19.0412L18.0971 19.839ZM17.7141 19.0412L16.5515 18.1625L15.9485 18.9603L17.1112 19.839L17.7141 19.0412ZM17.4942 19.0412C17.5423 19.0048 17.5838 19 17.6042 19C17.6245 19 17.6661 19.0048 17.7141 19.0412L17.1112 19.839C17.265 19.9552 17.4452 20 17.6042 20C17.7631 20 17.9433 19.9552 18.0971 19.839L17.4942 19.0412ZM4.70677 5.11494L8.04284 7.895L8.68303 7.12678L5.34696 4.34672L4.70677 5.11494ZM11.4572 7.895L15.183 4.79011L14.5428 4.02188L10.817 7.12678L11.4572 7.895ZM17.317 4.79011L20.8707 7.75155L21.5109 6.98333L17.9572 4.02189L17.317 4.79011ZM8.68303 21.2101L4.34969 17.599L3.70951 18.3672L8.04284 21.9783L8.68303 21.2101ZM3.75 16.3186V5.56307H2.75V16.3186H3.75ZM4.34969 17.599C3.9697 17.2823 3.75 16.8133 3.75 16.3186H2.75C2.75 17.11 3.10153 17.8606 3.70951 18.3672L4.34969 17.599ZM15.183 4.79011C15.8011 4.27504 16.6989 4.27504 17.317 4.79011L17.9572 4.02189C16.9682 3.19778 15.5318 3.19778 14.5428 4.02188L15.183 4.79011ZM8.04284 7.895C9.03177 8.7191 10.4682 8.7191 11.4572 7.895L10.817 7.12678C10.1989 7.64184 9.3011 7.64184 8.68303 7.12678L8.04284 7.895ZM5.34696 4.34672C4.31569 3.48733 2.75 4.22066 2.75 5.56307H3.75C3.75 5.0685 4.32683 4.79832 4.70677 5.11494L5.34696 4.34672ZM9.75 21.5964C9.37062 21.5964 8.99212 21.4677 8.68303 21.2101L8.04284 21.9783C8.53725 22.3903 9.14407 22.5964 9.75 22.5964V21.5964ZM9.25 8.66677V21.6668H10.25V8.66677H9.25ZM21.4704 9.03192V10.8333H22.4704V9.03192H21.4704ZM20.8707 7.75155C21.2507 8.06821 21.4704 8.53729 21.4704 9.03192H22.4704C22.4704 8.24051 22.1189 7.48998 21.5109 6.98333L20.8707 7.75155ZM23.3333 18.4167C23.3333 21.1321 21.1321 23.3333 18.4167 23.3333V24.3333C21.6844 24.3333 24.3333 21.6844 24.3333 18.4167H23.3333ZM18.4167 23.3333C15.7013 23.3333 13.5 21.1321 13.5 18.4167H12.5C12.5 21.6844 15.149 24.3333 18.4167 24.3333V23.3333ZM13.5 18.4167C13.5 15.7013 15.7013 13.5 18.4167 13.5V12.5C15.149 12.5 12.5 15.149 12.5 18.4167H13.5ZM18.4167 13.5C21.1321 13.5 23.3333 15.7013 23.3333 18.4167H24.3333C24.3333 15.149 21.6844 12.5 18.4167 12.5V13.5Z" fill="white"/>
</svg>
