<svg width="25" height="24" viewBox="0 0 25 24" fill="none" xmlns="http://www.w3.org/2000/svg">
<path d="M3.33325 4H3.93957C4.96019 4 5.81709 4.7685 5.92777 5.78311L6.73873 13.2169C6.84942 14.2315 7.70631 15 8.72694 15H17.3793C18.2935 15 19.0913 14.3801 19.3173 13.4942L20.6972 8.08311C21.0197 6.81854 20.0642 5.58889 18.7592 5.58889H6.93325M6.95801 18.6249H7.70801M6.95801 19.3749H7.70801M17.958 18.6249H18.708M17.958 19.3749H18.708M8.33325 19C8.33325 19.5523 7.88554 20 7.33325 20C6.78097 20 6.33325 19.5523 6.33325 19C6.33325 18.4477 6.78097 18 7.33325 18C7.88554 18 8.33325 18.4477 8.33325 19ZM19.3333 19C19.3333 19.5523 18.8855 20 18.3333 20C17.781 20 17.3333 19.5523 17.3333 19C17.3333 18.4477 17.781 18 18.3333 18C18.8855 18 19.3333 18.4477 19.3333 19Z" stroke="#4D495E" stroke-width="2" stroke-linecap="round"/>
</svg>
