<svg width="25" height="24" viewBox="0 0 25 24" fill="none" xmlns="http://www.w3.org/2000/svg">
<path d="M16.6535 8.92296L17.381 8.68048C18.6936 8.24293 19.35 8.02416 19.8724 8.15534C20.3297 8.27017 20.7257 8.55561 20.9793 8.95314C21.2689 9.40727 21.2689 10.0991 21.2689 11.4827V12.517C21.2689 13.9007 21.2689 14.5925 20.9793 15.0466C20.7257 15.4442 20.3297 15.7296 19.8724 15.8444C19.35 15.9756 18.6936 15.7568 17.381 15.3193L16.6535 15.0768M6.68431 17.5383H13.6997C14.7336 17.5383 15.2506 17.5383 15.6455 17.3371C15.9929 17.1601 16.2753 16.8777 16.4523 16.5303C16.6535 16.1354 16.6535 15.6184 16.6535 14.5845V9.41527C16.6535 8.38133 16.6535 7.86436 16.4523 7.46944C16.2753 7.12207 15.9929 6.83964 15.6455 6.66264C15.2506 6.46143 14.7336 6.46143 13.6997 6.46143H6.68431C5.65037 6.46143 5.1334 6.46143 4.73849 6.66264C4.39111 6.83964 4.10868 7.12207 3.93169 7.46944C3.73047 7.86436 3.73047 8.38133 3.73047 9.41527V14.5845C3.73047 15.6184 3.73047 16.1354 3.93169 16.5303C4.10868 16.8777 4.39111 17.1601 4.73849 17.3371C5.1334 17.5383 5.65037 17.5383 6.68431 17.5383Z" stroke="#4D495E" stroke-width="2" stroke-linecap="round"/>
</svg>
