<svg width="24" height="24" viewBox="0 0 24 24" fill="none" xmlns="http://www.w3.org/2000/svg">
<path d="M4 11.9996L11.7764 15.8878C11.9172 15.9582 12.0828 15.9582 12.2236 15.8878L20 11.9996M4 15.9996L11.7764 19.8878C11.9172 19.9582 12.0828 19.9582 12.2236 19.8878L20 15.9996M11.7764 4.11138L4.89443 7.55236C4.5259 7.73663 4.5259 8.26253 4.89443 8.44679L11.7764 11.8878C11.9172 11.9582 12.0828 11.9582 12.2236 11.8878L19.1056 8.44679C19.4741 8.26253 19.4741 7.73663 19.1056 7.55236L12.2236 4.11138C12.0828 4.041 11.9172 4.041 11.7764 4.11138Z" stroke="#4D495E" stroke-width="2" stroke-linecap="round"/>
</svg>
