<svg width="25" height="24" viewBox="0 0 25 24" fill="none" xmlns="http://www.w3.org/2000/svg">
<path d="M9.66675 21L12.596 18.0707C12.6351 18.0317 12.6984 18.0317 12.7375 18.0707L15.6667 21M8.66675 13L11.2809 10.1991C11.3119 10.1659 11.3613 10.1578 11.4012 10.1792L13.9242 11.5308C13.9678 11.5542 14.022 11.5421 14.0516 11.5025L16.6667 8M6.86675 18H18.4667C19.5869 18 20.1469 18 20.5747 17.782C20.9511 17.5903 21.257 17.2843 21.4488 16.908C21.6667 16.4802 21.6667 15.9201 21.6667 14.8V6.2C21.6667 5.0799 21.6667 4.51984 21.4488 4.09202C21.257 3.71569 20.9511 3.40973 20.5747 3.21799C20.1469 3 19.5869 3 18.4667 3H6.86675C5.74664 3 5.18659 3 4.75877 3.21799C4.38244 3.40973 4.07648 3.71569 3.88474 4.09202C3.66675 4.51984 3.66675 5.07989 3.66675 6.2V14.8C3.66675 15.9201 3.66675 16.4802 3.88474 16.908C4.07648 17.2843 4.38244 17.5903 4.75877 17.782C5.18659 18 5.74664 18 6.86675 18Z" stroke="#4D495E" stroke-width="2" stroke-linecap="round"/>
</svg>
