<svg width="26" height="26" viewBox="0 0 26 26" fill="none" xmlns="http://www.w3.org/2000/svg">
<path d="M8.66667 8.66667V7.58333C8.66667 5.1901 10.6068 3.25 13 3.25C15.3932 3.25 17.3333 5.1901 17.3333 7.58333V8.66667M3.25 13L12.12 16.9422C12.6803 17.1912 13.3197 17.1912 13.88 16.9422L22.75 13M6.71667 22.75H19.2833C20.4968 22.75 21.1035 22.75 21.567 22.5138C21.9747 22.3061 22.3061 21.9747 22.5138 21.567C22.75 21.1035 22.75 20.4968 22.75 19.2833V12.1333C22.75 10.9199 22.75 10.3132 22.5138 9.84969C22.3061 9.442 21.9747 9.11055 21.567 8.90282C21.1035 8.66667 20.4968 8.66667 19.2833 8.66667H6.71667C5.50322 8.66667 4.8965 8.66667 4.43302 8.90282C4.02534 9.11055 3.69388 9.442 3.48615 9.84969C3.25 10.3132 3.25 10.9199 3.25 12.1333V19.2833C3.25 20.4968 3.25 21.1035 3.48615 21.567C3.69388 21.9747 4.02534 22.3061 4.43302 22.5138C4.8965 22.75 5.50322 22.75 6.71667 22.75Z" stroke="white" stroke-linecap="round"/>
</svg>
