<svg width="50" height="50" viewBox="0 0 50 50" fill="none" xmlns="http://www.w3.org/2000/svg">
<path d="M38.5385 9H11.4615C10.1021 9 9 10.1021 9 11.4615V38.5385C9 39.8979 10.1021 41 11.4615 41H38.5385C39.8979 41 41 39.8979 41 38.5385V11.4615C41 10.1021 39.8979 9 38.5385 9Z" stroke="#A78E8E" stroke-width="3" stroke-linecap="round" stroke-linejoin="round"/>
<path d="M20.6445 30.4894V19.8555C20.6455 19.6776 20.6934 19.5031 20.7835 19.3497C20.8736 19.1963 21.0027 19.0694 21.1576 18.9819C21.3126 18.8945 21.4879 18.8495 21.6658 18.8516C21.8437 18.8538 22.0179 18.9029 22.1707 18.994L31.2784 24.2863C31.4317 24.3749 31.559 24.5023 31.6476 24.6557C31.7361 24.8091 31.7827 24.9831 31.7827 25.1602C31.7827 25.3373 31.7361 25.5112 31.6476 25.6646C31.559 25.818 31.4317 25.9454 31.2784 26.034L22.1707 31.3509C22.0179 31.4421 21.8437 31.4912 21.6658 31.4933C21.4879 31.4954 21.3126 31.4505 21.1576 31.363C21.0027 31.2755 20.8736 31.1487 20.7835 30.9952C20.6934 30.8418 20.6455 30.6673 20.6445 30.4894Z" stroke="#A78E8E" stroke-width="3" stroke-linecap="round" stroke-linejoin="round"/>
</svg>
