<svg width="26" height="27" viewBox="0 0 26 27" fill="none" xmlns="http://www.w3.org/2000/svg">
<path d="M6.55364 11.0889C6.51825 10.8143 6.5 10.5343 6.5 10.25C6.5 6.66015 9.41015 3.75 13 3.75C16.5899 3.75 19.5 6.66015 19.5 10.25C19.5 10.5343 19.4818 10.8143 19.4464 11.0889M6.55364 11.0889C4.58124 12.2049 3.25 14.322 3.25 16.75C3.25 20.3399 6.16015 23.25 9.75 23.25C10.9339 23.25 12.0439 22.9335 13 22.3804M6.55364 11.0889L10.1422 13.0342M19.4464 11.0889C21.4188 12.2049 22.75 14.322 22.75 16.75C22.75 20.3399 19.8399 23.25 16.25 23.25C15.0661 23.25 13.9561 22.9335 13 22.3804M19.4464 11.0889L15.8578 13.0342M13 22.3804V17.8333M13 17.8333C14.7949 17.8333 16.25 16.3783 16.25 14.5833C16.25 14.0224 16.1079 13.4947 15.8578 13.0342M13 17.8333C11.2051 17.8333 9.75 16.3783 9.75 14.5833C9.75 14.0224 9.89209 13.4947 10.1422 13.0342M15.8578 13.0342C15.3074 12.0211 14.234 11.3333 13 11.3333C11.766 11.3333 10.6926 12.0211 10.1422 13.0342" stroke="white"/>
</svg>
