<svg width="26" height="27" viewBox="0 0 26 27" fill="none" xmlns="http://www.w3.org/2000/svg">
<path d="M23.8332 10.2503V16.7503C23.8332 16.9887 23.8332 17.227 23.8115 17.4545C22.9232 16.3604 21.569 15.667 20.0415 15.667C18.8932 15.667 17.8315 16.0678 16.9973 16.7395C15.8707 17.6278 15.1665 19.0037 15.1665 20.542C15.1665 21.452 15.4265 22.3187 15.8707 23.0553C16.1632 23.5428 16.5315 23.9653 16.9648 24.312C16.7373 24.3336 16.499 24.3337 16.2498 24.3337H9.74984C4.33317 24.3337 2.1665 22.167 2.1665 16.7503V10.2503C2.1665 4.83366 4.33317 2.66699 9.74984 2.66699H16.2498C21.6665 2.66699 23.8332 4.83366 23.8332 10.2503Z" stroke="white" stroke-linecap="round" stroke-linejoin="round"/>
<path d="M2.72998 8.20215H23.27" stroke="white" stroke-linecap="round" stroke-linejoin="round"/>
<path d="M9.22998 2.78613V8.05112" stroke="white" stroke-linecap="round" stroke-linejoin="round"/>
<path d="M16.77 2.78613V7.56367" stroke="white" stroke-linecap="round" stroke-linejoin="round"/>
<path d="M24.9165 20.542C24.9165 21.452 24.6565 22.3187 24.2123 23.0553C23.9523 23.4887 23.6273 23.8787 23.2482 24.2037C22.3923 24.962 21.2765 25.417 20.0415 25.417C18.8823 25.417 17.8098 25.0053 16.9757 24.312H16.9648C16.5315 23.9653 16.1632 23.5428 15.8707 23.0553C15.4265 22.3187 15.1665 21.452 15.1665 20.542C15.1665 19.0037 15.8707 17.6278 16.9973 16.7395C17.8315 16.0678 18.8932 15.667 20.0415 15.667C21.569 15.667 22.9232 16.3604 23.8115 17.4545C24.5048 18.2887 24.9165 19.372 24.9165 20.542Z" stroke="white" stroke-miterlimit="10" stroke-linecap="round" stroke-linejoin="round"/>
<path d="M18.1455 20.5423L19.348 21.7448L21.948 19.3398" stroke="white" stroke-linecap="round" stroke-linejoin="round"/>
</svg>
