<svg width="26" height="27" viewBox="0 0 26 27" fill="none" xmlns="http://www.w3.org/2000/svg">
<path d="M24.5633 25.3552C24.7585 25.5505 25.0751 25.5505 25.2704 25.3552C25.4656 25.16 25.4656 24.8434 25.2704 24.6481L24.5633 25.3552ZM6.03592 14.3976C5.93337 14.654 6.05808 14.945 6.31447 15.0476C6.57086 15.1501 6.86184 15.0254 6.9644 14.769L6.03592 14.3976ZM8.40433 9.82288L8.86857 10.0086L8.86857 10.0086L8.40433 9.82288ZM9.23226 9.59072L9.53226 9.19072L9.53226 9.19072L9.23226 9.59072ZM12.4347 11.9926L12.7347 11.5926L12.7347 11.5926L12.4347 11.9926ZM13.2627 11.7604L12.7984 11.5747L12.7984 11.5747L13.2627 11.7604ZM15.6311 7.18567C15.7336 6.92928 15.6089 6.6383 15.3525 6.53574C15.0961 6.43318 14.8051 6.55789 14.7026 6.81428L15.6311 7.18567ZM20.2109 10.9821C20.2109 16.1259 16.041 20.2958 10.8972 20.2958V21.2958C16.5933 21.2958 21.2109 16.6782 21.2109 10.9821H20.2109ZM10.8972 20.2958C5.75339 20.2958 1.5835 16.1259 1.5835 10.9821H0.583496C0.583496 16.6782 5.20111 21.2958 10.8972 21.2958V20.2958ZM1.5835 10.9821C1.5835 5.83823 5.75339 1.66833 10.8972 1.66833V0.668335C5.20111 0.668335 0.583496 5.28595 0.583496 10.9821H1.5835ZM10.8972 1.66833C16.041 1.66833 20.2109 5.83823 20.2109 10.9821H21.2109C21.2109 5.28595 16.5933 0.668335 10.8972 0.668335V1.66833ZM17.5535 18.3454L24.5633 25.3552L25.2704 24.6481L18.2606 17.6383L17.5535 18.3454ZM6.9644 14.769L8.86857 10.0086L7.9401 9.63719L6.03592 14.3976L6.9644 14.769ZM8.93226 9.99072L12.1347 12.3926L12.7347 11.5926L9.53226 9.19072L8.93226 9.99072ZM13.7269 11.9461L15.6311 7.18567L14.7026 6.81428L12.7984 11.5747L13.7269 11.9461ZM12.1347 12.3926C12.6831 12.8038 13.4723 12.5825 13.7269 11.9461L12.7984 11.5747C12.7882 11.6002 12.7567 11.609 12.7347 11.5926L12.1347 12.3926ZM8.86857 10.0086C8.87876 9.98312 8.91033 9.97427 8.93226 9.99072L9.53226 9.19072C8.98391 8.77945 8.19466 9.00077 7.9401 9.63719L8.86857 10.0086Z" fill="white"/>
</svg>
