<svg width="26" height="27" viewBox="0 0 26 27" fill="none" xmlns="http://www.w3.org/2000/svg">
<path d="M20.5835 13.4999L8.66683 25.4166M14.0835 19.9999L8.34953 14.2659C7.92646 13.8429 7.24053 13.8429 6.81746 14.2659L1.62516 19.4583M20.5835 21.0833C22.9767 21.0833 24.9168 19.1432 24.9168 16.7499V6.99992C24.9168 4.00838 22.4917 1.58325 19.5002 1.58325H9.75016C7.35693 1.58325 5.41683 3.52335 5.41683 5.91658M9.75016 25.4166H11.9168C14.9504 25.4166 16.4673 25.4166 17.6259 24.8262C18.6452 24.3069 19.4738 23.4782 19.9931 22.459C20.5835 21.3003 20.5835 19.7835 20.5835 16.7499V14.5833C20.5835 11.5496 20.5835 10.0328 19.9931 8.87414C19.4738 7.85492 18.6452 7.02628 17.6259 6.50697C16.4673 5.91659 14.9504 5.91658 11.9168 5.91658H9.75016C6.71654 5.91658 5.19974 5.91659 4.04105 6.50697C3.02184 7.02628 2.19319 7.85492 1.67388 8.87414C1.0835 10.0328 1.0835 11.5496 1.0835 14.5833V16.7499C1.0835 19.7835 1.0835 21.3003 1.67388 22.459C2.19319 23.4782 3.02184 24.3069 4.04105 24.8262C5.19974 25.4166 6.71654 25.4166 9.75016 25.4166ZM15.1668 11.3333C15.1668 11.9316 14.6818 12.4166 14.0835 12.4166C13.4852 12.4166 13.0002 11.9316 13.0002 11.3333C13.0002 10.7349 13.4852 10.2499 14.0835 10.2499C14.6818 10.2499 15.1668 10.7349 15.1668 11.3333Z" stroke="white" stroke-linecap="round"/>
</svg>
