<svg width="26" height="27" viewBox="0 0 26 27" fill="none" xmlns="http://www.w3.org/2000/svg">
<path d="M9.75 23.25L12.9234 20.0766C12.9657 20.0343 13.0343 20.0343 13.0766 20.0766L16.25 23.25M8.66667 14.5833L11.4987 11.549C11.5322 11.5131 11.5857 11.5043 11.629 11.5275L14.3623 12.9917C14.4095 13.017 14.4682 13.004 14.5002 12.961L17.3333 9.16667M6.71667 20H19.2833C20.4968 20 21.1035 20 21.567 19.7638C21.9747 19.5561 22.3061 19.2247 22.5138 18.817C22.75 18.3535 22.75 17.7468 22.75 16.5333V7.21667C22.75 6.00322 22.75 5.3965 22.5138 4.93302C22.3061 4.52534 21.9747 4.19388 21.567 3.98615C21.1035 3.75 20.4968 3.75 19.2833 3.75H6.71667C5.50322 3.75 4.8965 3.75 4.43302 3.98615C4.02534 4.19388 3.69388 4.52534 3.48615 4.93302C3.25 5.3965 3.25 6.00322 3.25 7.21667V16.5333C3.25 17.7468 3.25 18.3535 3.48615 18.817C3.69388 19.2247 4.02534 19.5561 4.43302 19.7638C4.8965 20 5.50322 20 6.71667 20Z" stroke="white" stroke-linecap="round"/>
</svg>
