<svg width="26" height="27" viewBox="0 0 26 27" fill="none" xmlns="http://www.w3.org/2000/svg">
<path d="M4.04105 24.826L4.26804 24.3805L4.04105 24.826ZM1.67388 22.4588L2.11938 22.2318L1.67388 22.4588ZM19.9931 22.4588L19.5476 22.2318L19.9931 22.4588ZM17.6259 24.826L17.3989 24.3805L17.6259 24.826ZM17.6259 6.50672L17.3989 6.95223L17.6259 6.50672ZM19.9931 8.87389L19.5476 9.10089L19.9931 8.87389ZM4.04105 6.50672L4.26804 6.95223L4.04105 6.50672ZM1.67388 8.87389L2.11938 9.10089L1.67388 8.87389ZM20.5835 20.583C20.3074 20.583 20.0835 20.8069 20.0835 21.083C20.0835 21.3591 20.3074 21.583 20.5835 21.583V20.583ZM4.91683 5.91634C4.91683 6.19248 5.14069 6.41634 5.41683 6.41634C5.69297 6.41634 5.91683 6.19248 5.91683 5.91634H4.91683ZM6.15441 18.5552C5.95493 18.7461 5.94802 19.0626 6.13897 19.2621C6.32993 19.4616 6.64643 19.4685 6.84591 19.2775L6.15441 18.5552ZM14.8211 19.2775C15.0206 19.4685 15.3371 19.4616 15.528 19.2621C15.719 19.0626 15.7121 18.7461 15.5126 18.5552L14.8211 19.2775ZM9.75016 6.41634H11.9168V5.41634H9.75016V6.41634ZM20.0835 14.583V16.7497H21.0835V14.583H20.0835ZM11.9168 24.9163H9.75016V25.9163H11.9168V24.9163ZM1.5835 16.7497V14.583H0.583496V16.7497H1.5835ZM9.75016 24.9163C8.2251 24.9163 7.11138 24.916 6.23322 24.8442C5.3609 24.7729 4.76515 24.6337 4.26804 24.3805L3.81405 25.2715C4.47563 25.6086 5.21763 25.7646 6.15179 25.8409C7.08011 25.9167 8.2416 25.9163 9.75016 25.9163V24.9163ZM0.583496 16.7497C0.583496 18.2582 0.583107 19.4197 0.658954 20.348C0.735278 21.2822 0.891283 22.0242 1.22837 22.6858L2.11938 22.2318C1.86609 21.7347 1.7269 21.1389 1.65563 20.2666C1.58388 19.3885 1.5835 18.2747 1.5835 16.7497H0.583496ZM4.26804 24.3805C3.34291 23.9091 2.59076 23.1569 2.11938 22.2318L1.22837 22.6858C1.79562 23.7991 2.70076 24.7042 3.81405 25.2715L4.26804 24.3805ZM20.0835 16.7497C20.0835 18.2747 20.0831 19.3885 20.0114 20.2666C19.9401 21.1389 19.8009 21.7347 19.5476 22.2318L20.4386 22.6858C20.7757 22.0242 20.9317 21.2822 21.008 20.348C21.0839 19.4197 21.0835 18.2582 21.0835 16.7497H20.0835ZM11.9168 25.9163C13.4254 25.9163 14.5869 25.9167 15.5152 25.8409C16.4494 25.7646 17.1914 25.6086 17.8529 25.2715L17.3989 24.3805C16.9018 24.6337 16.3061 24.7729 15.4338 24.8442C14.5556 24.916 13.4419 24.9163 11.9168 24.9163V25.9163ZM19.5476 22.2318C19.0762 23.1569 18.3241 23.9091 17.3989 24.3805L17.8529 25.2715C18.9662 24.7042 19.8714 23.7991 20.4386 22.6858L19.5476 22.2318ZM11.9168 6.41634C13.4419 6.41634 14.5556 6.41673 15.4338 6.48848C16.3061 6.55975 16.9018 6.69894 17.3989 6.95223L17.8529 6.06122C17.1914 5.72413 16.4494 5.56812 15.5152 5.4918C14.5869 5.41595 13.4254 5.41634 11.9168 5.41634V6.41634ZM21.0835 14.583C21.0835 13.0744 21.0839 11.913 21.008 10.9846C20.9317 10.0505 20.7757 9.30847 20.4386 8.6469L19.5476 9.10089C19.8009 9.598 19.9401 10.1937 20.0114 11.0661C20.0831 11.9442 20.0835 13.0579 20.0835 14.583H21.0835ZM17.3989 6.95223C18.3241 7.4236 19.0762 8.17576 19.5476 9.10089L20.4386 8.6469C19.8714 7.5336 18.9662 6.62847 17.8529 6.06122L17.3989 6.95223ZM9.75016 5.41634C8.2416 5.41634 7.08011 5.41595 6.15179 5.4918C5.21763 5.56812 4.47563 5.72413 3.81405 6.06122L4.26804 6.95223C4.76515 6.69894 5.3609 6.55975 6.23322 6.48848C7.11138 6.41673 8.2251 6.41634 9.75016 6.41634V5.41634ZM1.5835 14.583C1.5835 13.0579 1.58388 11.9442 1.65563 11.0661C1.7269 10.1937 1.86609 9.598 2.11938 9.10089L1.22837 8.6469C0.891283 9.30847 0.735278 10.0505 0.658954 10.9846C0.583107 11.913 0.583496 13.0744 0.583496 14.583H1.5835ZM3.81405 6.06122C2.70076 6.62847 1.79562 7.5336 1.22837 8.6469L2.11938 9.10089C2.59076 8.17576 3.34291 7.4236 4.26804 6.95223L3.81405 6.06122ZM9.75016 2.08301H19.5002V1.08301H9.75016V2.08301ZM24.4168 6.99967V16.7497H25.4168V6.99967H24.4168ZM24.4168 16.7497C24.4168 18.8668 22.7006 20.583 20.5835 20.583V21.583C23.2529 21.583 25.4168 19.419 25.4168 16.7497H24.4168ZM19.5002 2.08301C22.2156 2.08301 24.4168 4.28427 24.4168 6.99967H25.4168C25.4168 3.73199 22.7678 1.08301 19.5002 1.08301V2.08301ZM9.75016 1.08301C7.08079 1.08301 4.91683 3.24696 4.91683 5.91634H5.91683C5.91683 3.79925 7.63307 2.08301 9.75016 2.08301V1.08301ZM6.84591 19.2775C9.0458 17.1717 12.6212 17.1717 14.8211 19.2775L15.5126 18.5552C12.926 16.0791 8.74099 16.0791 6.15441 18.5552L6.84591 19.2775ZM13.2401 14.0813C13.2401 15.3026 12.1993 16.3296 10.869 16.3296V17.3296C12.71 17.3296 14.2401 15.8957 14.2401 14.0813H13.2401ZM10.869 16.3296C9.53876 16.3296 8.49802 15.3026 8.49802 14.0813H7.49802C7.49802 15.8957 9.02809 17.3296 10.869 17.3296V16.3296ZM8.49802 14.0813C8.49802 12.86 9.53876 11.833 10.869 11.833V10.833C9.02809 10.833 7.49802 12.267 7.49802 14.0813H8.49802ZM10.869 11.833C12.1993 11.833 13.2401 12.86 13.2401 14.0813H14.2401C14.2401 12.267 12.71 10.833 10.869 10.833V11.833Z" fill="white"/>
</svg>
