<svg width="26" height="27" viewBox="0 0 26 27" fill="none" xmlns="http://www.w3.org/2000/svg">
<path d="M9.74984 24.3337H16.2498C21.6665 24.3337 23.8332 22.167 23.8332 16.7503V10.2503C23.8332 4.83366 21.6665 2.66699 16.2498 2.66699H9.74984C4.33317 2.66699 2.1665 4.83366 2.1665 10.2503V16.7503C2.1665 22.167 4.33317 24.3337 9.74984 24.3337Z" stroke="white" stroke-linecap="round" stroke-linejoin="round"/>
<path d="M9.12149 12.3084C10.2702 12.3084 11.2015 11.3772 11.2015 10.2284C11.2015 9.07968 10.2702 8.14844 9.12149 8.14844C7.97273 8.14844 7.0415 9.07968 7.0415 10.2284C7.0415 11.3772 7.97273 12.3084 9.12149 12.3084Z" stroke="white" stroke-linecap="round" stroke-linejoin="round"/>
<path d="M9.12149 18.8514C10.2702 18.8514 11.2015 17.9202 11.2015 16.7714C11.2015 15.6227 10.2702 14.6914 9.12149 14.6914C7.97273 14.6914 7.0415 15.6227 7.0415 16.7714C7.0415 17.9202 7.97273 18.8514 9.12149 18.8514Z" stroke="white" stroke-linecap="round" stroke-linejoin="round"/>
<path d="M18.958 9.9248L11.0063 15.8723" stroke="white" stroke-linecap="round" stroke-linejoin="round"/>
<path d="M18.958 17.053L11.0063 11.1055" stroke="white" stroke-linecap="round" stroke-linejoin="round"/>
</svg>
