<svg width="26" height="27" viewBox="0 0 26 27" fill="none" xmlns="http://www.w3.org/2000/svg">
<path d="M6.80334 24.3332C8.67006 24.3332 10.1833 22.82 10.1833 20.9532C10.1833 19.0865 8.67006 17.5732 6.80334 17.5732C4.93662 17.5732 3.42334 19.0865 3.42334 20.9532C3.42334 22.82 4.93662 24.3332 6.80334 24.3332Z" stroke="white" stroke-linecap="round" stroke-linejoin="round"/>
<path d="M22.5764 18.7V5.48337C22.5764 2.66671 20.8106 2.27671 19.0231 2.76421L12.2631 4.60587C11.0281 4.94171 10.1831 5.91671 10.1831 7.32504V9.67587V11.2575V20.9425" stroke="white" stroke-linecap="round" stroke-linejoin="round"/>
<path d="M19.1969 22.0803C21.0636 22.0803 22.5769 20.567 22.5769 18.7003C22.5769 16.8336 21.0636 15.3203 19.1969 15.3203C17.3302 15.3203 15.8169 16.8336 15.8169 18.7003C15.8169 20.567 17.3302 22.0803 19.1969 22.0803Z" stroke="white" stroke-linecap="round" stroke-linejoin="round"/>
<path d="M10.1831 10.8136L22.5764 7.43359" stroke="white" stroke-linecap="round" stroke-linejoin="round"/>
</svg>
