<svg width="26" height="27" viewBox="0 0 26 27" fill="none" xmlns="http://www.w3.org/2000/svg">
<path d="M19.4999 8.25675C19.4349 8.24592 19.3591 8.24592 19.2941 8.25675C17.7991 8.20259 16.6074 6.97842 16.6074 5.46175C16.6074 3.91258 17.8533 2.66675 19.4024 2.66675C20.9516 2.66675 22.1974 3.92342 22.1974 5.46175C22.1866 6.97842 20.9949 8.20259 19.4999 8.25675Z" stroke="white" stroke-linecap="round" stroke-linejoin="round"/>
<path d="M18.3841 16.1433C19.8682 16.3925 21.5041 16.1325 22.6524 15.3633C24.1799 14.345 24.1799 12.6767 22.6524 11.6583C21.4932 10.8892 19.8357 10.6292 18.3516 10.8892" stroke="white" stroke-linecap="round" stroke-linejoin="round"/>
<path d="M6.46752 8.25675C6.53252 8.24592 6.60835 8.24592 6.67335 8.25675C8.16835 8.20259 9.36002 6.97842 9.36002 5.46175C9.36002 3.91258 8.11419 2.66675 6.56502 2.66675C5.01585 2.66675 3.77002 3.92342 3.77002 5.46175C3.78085 6.97842 4.97252 8.20259 6.46752 8.25675Z" stroke="white" stroke-linecap="round" stroke-linejoin="round"/>
<path d="M7.58339 16.1433C6.09922 16.3925 4.46339 16.1325 3.31506 15.3633C1.78756 14.345 1.78756 12.6767 3.31506 11.6583C4.47423 10.8892 6.13172 10.6292 7.61589 10.8892" stroke="white" stroke-linecap="round" stroke-linejoin="round"/>
<path d="M12.9999 16.3493C12.9349 16.3384 12.8591 16.3384 12.7941 16.3493C11.2991 16.2951 10.1074 15.0709 10.1074 13.5543C10.1074 12.0051 11.3533 10.7593 12.9024 10.7593C14.4516 10.7593 15.6974 12.0159 15.6974 13.5543C15.6866 15.0709 14.4949 16.3059 12.9999 16.3493Z" stroke="white" stroke-linecap="round" stroke-linejoin="round"/>
<path d="M9.84729 19.7619C8.31979 20.7802 8.31979 22.4485 9.84729 23.4669C11.5806 24.626 14.419 24.626 16.1523 23.4669C17.6798 22.4485 17.6798 20.7802 16.1523 19.7619C14.4298 18.6136 11.5806 18.6136 9.84729 19.7619Z" stroke="white" stroke-linecap="round" stroke-linejoin="round"/>
</svg>
