<svg width="26" height="27" viewBox="0 0 26 27" fill="none" xmlns="http://www.w3.org/2000/svg">
<path d="M8.66683 15.1667C8.39069 15.1667 8.16683 15.3906 8.16683 15.6667C8.16683 15.9429 8.39069 16.1667 8.66683 16.1667V15.1667ZM17.3335 16.1667C17.6096 16.1667 17.8335 15.9429 17.8335 15.6667C17.8335 15.3906 17.6096 15.1667 17.3335 15.1667V16.1667ZM8.66683 10.8334C8.39069 10.8334 8.16683 11.0573 8.16683 11.3334C8.16683 11.6096 8.39069 11.8334 8.66683 11.8334V10.8334ZM17.3335 11.8334C17.6096 11.8334 17.8335 11.6096 17.8335 11.3334C17.8335 11.0573 17.6096 10.8334 17.3335 10.8334V11.8334ZM8.66683 6.50008C8.39069 6.50008 8.16683 6.72394 8.16683 7.00008C8.16683 7.27622 8.39069 7.50008 8.66683 7.50008V6.50008ZM17.3335 7.50008C17.6096 7.50008 17.8335 7.27622 17.8335 7.00008C17.8335 6.72394 17.6096 6.50008 17.3335 6.50008V7.50008ZM8.66683 19.5001C8.39069 19.5001 8.16683 19.7239 8.16683 20.0001C8.16683 20.2762 8.39069 20.5001 8.66683 20.5001V19.5001ZM13.0002 20.5001C13.2763 20.5001 13.5002 20.2762 13.5002 20.0001C13.5002 19.7239 13.2763 19.5001 13.0002 19.5001V20.5001ZM5.50138 24.0895L5.2709 24.5332L5.50138 24.0895ZM4.57743 23.1655L4.13373 23.396L4.57743 23.1655ZM21.4229 23.1655L21.8666 23.396L21.4229 23.1655ZM20.4989 24.0895L20.7294 24.5332L20.4989 24.0895ZM20.4989 2.91069L20.7294 2.46698L20.4989 2.91069ZM21.4229 3.83464L21.8666 3.60415L21.4229 3.83464ZM5.50138 2.91069L5.2709 2.46698L5.50138 2.91069ZM4.57743 3.83464L4.13373 3.60415L4.57743 3.83464ZM8.66683 16.1667H17.3335V15.1667H8.66683V16.1667ZM8.66683 11.8334H17.3335V10.8334H8.66683V11.8334ZM8.66683 7.50008H17.3335V6.50008H8.66683V7.50008ZM8.66683 20.5001H13.0002V19.5001H8.66683V20.5001ZM7.82183 3.16675H18.1785V2.16675H7.82183V3.16675ZM21.1668 6.15508V20.8451H22.1668V6.15508H21.1668ZM18.1785 23.8334H7.82183V24.8334H18.1785V23.8334ZM4.8335 20.8451V6.15508H3.8335V20.8451H4.8335ZM7.82183 23.8334C7.19649 23.8334 6.75806 23.833 6.41638 23.8046C6.08068 23.7768 5.88341 23.7245 5.73187 23.6458L5.2709 24.5332C5.58896 24.6984 5.93496 24.7681 6.33362 24.8012C6.72628 24.8338 7.21327 24.8334 7.82183 24.8334V23.8334ZM3.8335 20.8451C3.8335 21.4536 3.83309 21.9406 3.8657 22.3333C3.89881 22.7319 3.96851 23.078 4.13373 23.396L5.02114 22.935C4.94242 22.7835 4.89015 22.5862 4.86227 22.2505C4.8339 21.9089 4.8335 21.4704 4.8335 20.8451H3.8335ZM5.73187 23.6458C5.42747 23.4876 5.17927 23.2394 5.02114 22.935L4.13373 23.396C4.38673 23.8831 4.78385 24.2802 5.2709 24.5332L5.73187 23.6458ZM21.1668 20.8451C21.1668 21.4704 21.1664 21.9089 21.1381 22.2505C21.1102 22.5862 21.0579 22.7835 20.9792 22.935L21.8666 23.396C22.0318 23.078 22.1015 22.7319 22.1346 22.3333C22.1672 21.9406 22.1668 21.4536 22.1668 20.8451H21.1668ZM18.1785 24.8334C18.7871 24.8334 19.274 24.8338 19.6667 24.8012C20.0654 24.7681 20.4114 24.6984 20.7294 24.5332L20.2685 23.6458C20.1169 23.7245 19.9196 23.7768 19.5839 23.8046C19.2423 23.833 18.8038 23.8334 18.1785 23.8334V24.8334ZM20.9792 22.935C20.8211 23.2394 20.5729 23.4876 20.2685 23.6458L20.7294 24.5332C21.2165 24.2802 21.6136 23.8831 21.8666 23.396L20.9792 22.935ZM18.1785 3.16675C18.8038 3.16675 19.2423 3.16715 19.5839 3.19552C19.9196 3.2234 20.1169 3.27568 20.2685 3.35439L20.7294 2.46698C20.4114 2.30176 20.0654 2.23206 19.6667 2.19896C19.274 2.16635 18.7871 2.16675 18.1785 2.16675V3.16675ZM22.1668 6.15508C22.1668 5.54653 22.1672 5.05953 22.1346 4.66687C22.1015 4.26822 22.0318 3.92221 21.8666 3.60415L20.9792 4.06512C21.0579 4.21666 21.1102 4.41393 21.1381 4.74963C21.1664 5.09131 21.1668 5.52974 21.1668 6.15508H22.1668ZM20.2685 3.35439C20.5729 3.51252 20.8211 3.76072 20.9792 4.06512L21.8666 3.60415C21.6136 3.1171 21.2165 2.71998 20.7294 2.46698L20.2685 3.35439ZM7.82183 2.16675C7.21327 2.16675 6.72628 2.16635 6.33362 2.19896C5.93496 2.23206 5.58896 2.30176 5.2709 2.46698L5.73187 3.35439C5.88341 3.27568 6.08068 3.2234 6.41638 3.19552C6.75806 3.16715 7.19649 3.16675 7.82183 3.16675V2.16675ZM4.8335 6.15508C4.8335 5.52974 4.8339 5.09131 4.86227 4.74963C4.89015 4.41393 4.94242 4.21666 5.02114 4.06512L4.13373 3.60415C3.96851 3.92221 3.89881 4.26822 3.8657 4.66687C3.83309 5.05953 3.8335 5.54653 3.8335 6.15508H4.8335ZM5.2709 2.46698C4.78385 2.71998 4.38673 3.1171 4.13373 3.60415L5.02114 4.06512C5.17927 3.76072 5.42747 3.51252 5.73187 3.35439L5.2709 2.46698Z" fill="white"/>
</svg>
