<svg width="26" height="27" viewBox="0 0 26 27" fill="none" xmlns="http://www.w3.org/2000/svg">
<path d="M17.4995 10.1667L18.2876 9.90398C19.7096 9.42996 20.4206 9.19296 20.9866 9.33507C21.482 9.45947 21.911 9.7687 22.1857 10.1994C22.4995 10.6913 22.4995 11.4408 22.4995 12.9398V14.0602C22.4995 15.5592 22.4995 16.3087 22.1857 16.8006C21.911 17.2313 21.482 17.5405 20.9866 17.6649C20.4206 17.807 19.7096 17.57 18.2876 17.096L17.4995 16.8333M6.69951 19.5H14.2995C15.4196 19.5 15.9797 19.5 16.4075 19.282C16.7838 19.0903 17.0898 18.7843 17.2815 18.408C17.4995 17.9802 17.4995 17.4201 17.4995 16.3V10.7C17.4995 9.5799 17.4995 9.01984 17.2815 8.59202C17.0898 8.21569 16.7838 7.90973 16.4075 7.71799C15.9797 7.5 15.4196 7.5 14.2995 7.5H6.69951C5.57941 7.5 5.01935 7.5 4.59153 7.71799C4.21521 7.90973 3.90925 8.21569 3.7175 8.59202C3.49951 9.01984 3.49951 9.57989 3.49951 10.7V16.3C3.49951 17.4201 3.49951 17.9802 3.7175 18.408C3.90925 18.7843 4.21521 19.0903 4.59153 19.282C5.01935 19.5 5.57941 19.5 6.69951 19.5Z" stroke="white" stroke-linecap="round"/>
</svg>
